<svg width="22" height="22" viewBox="0 0 22 22" fill="none" xmlns="http://www.w3.org/2000/svg">
<path d="M1.49877 6.96424C1.6717 6.96424 1.77739 6.96424 1.87346 6.96424C5.3802 6.96424 8.88694 6.96424 12.4033 6.96424C12.8548 6.96424 13.1431 7.14678 13.2583 7.51187C13.4121 7.95381 13.0854 8.4534 12.6243 8.49183C12.5186 8.50144 12.4129 8.50144 12.3168 8.50144C8.82929 8.50144 5.34177 8.50144 1.86385 8.50144C1.76778 8.50144 1.6717 8.50144 1.56602 8.50144C1.55641 8.5879 1.54681 8.64555 1.54681 8.7032C1.54681 11.23 1.54681 13.7567 1.55641 16.2835C1.55641 16.6486 1.59484 17.0233 1.6621 17.3788C1.87346 18.474 2.44991 19.012 3.56438 19.1369C4.15044 19.2042 4.7461 19.233 5.33216 19.233C9.26163 19.2426 13.1815 19.2426 17.111 19.233C17.6105 19.233 18.1197 19.185 18.6097 19.0985C19.6954 18.8968 20.2046 18.3491 20.3391 17.2635C20.3967 16.7927 20.4351 16.3219 20.4351 15.8512C20.4448 14.3716 20.4352 12.8921 20.4448 11.4125C20.4448 10.8649 20.8771 10.4902 21.3767 10.6055C21.7033 10.6727 21.9723 10.961 21.9723 11.2972C21.9627 13.1707 21.9531 15.0538 21.9147 16.9272C21.9051 17.3788 21.7802 17.8399 21.6553 18.2819C21.2806 19.6077 20.3391 20.3283 19.0325 20.5685C18.2927 20.703 17.5241 20.7702 16.7747 20.7702C12.7107 20.7894 8.63714 20.7894 4.57317 20.751C3.90064 20.7414 3.21851 20.6261 2.5652 20.4628C1.22015 20.1169 0.46116 19.1754 0.220972 17.8399C0.096075 17.1578 0.0288225 16.4661 0.019215 15.7743C-0.0096075 13.2187 0 10.6631 0.0096075 8.11714C0.019215 7.18521 0.03843 6.25328 0.124897 5.32136C0.19215 4.52393 0.432337 3.77455 0.970357 3.15006C1.54681 2.46793 2.33462 2.15088 3.18008 2.02598C3.86221 1.92991 4.56356 1.87226 5.2553 1.86266C7.64757 1.84344 10.0398 1.85305 12.4225 1.86266C12.605 1.86266 12.8068 1.91069 12.9605 1.99716C13.2295 2.16049 13.3544 2.44871 13.2776 2.76576C13.2007 3.08281 12.9989 3.30378 12.6627 3.36143C12.557 3.38064 12.4417 3.39025 12.3264 3.39025C9.80926 3.39025 7.29209 3.39025 4.77493 3.39986C4.27534 3.39986 3.77575 3.4575 3.27616 3.54397C2.38266 3.68808 1.83503 4.2261 1.68131 5.12921C1.59484 5.72487 1.56602 6.33014 1.49877 6.96424ZM19.1862 2.66008C19.1766 2.18931 18.8499 1.86266 18.408 1.86266C17.966 1.86266 17.6586 2.18931 17.649 2.66969C17.649 3.24614 17.649 3.82259 17.649 4.39904C17.649 4.4855 17.6394 4.56236 17.6394 4.66805C16.9668 4.66805 16.3135 4.66805 15.6698 4.66805C15.1798 4.66805 14.8436 5.00431 14.834 5.43665C14.8244 5.78252 15.151 6.22446 15.6698 6.20525C16.2559 6.18603 16.8516 6.20525 17.4472 6.19564C17.6202 6.19564 17.6682 6.25328 17.6682 6.41661C17.6586 7.01228 17.6586 7.61755 17.6682 8.21321C17.6778 8.37654 17.7258 8.55908 17.8219 8.7032C18.0141 8.99142 18.3407 9.08749 18.6385 8.98181C18.9844 8.86652 19.1862 8.59751 19.1958 8.20361C19.2054 7.62716 19.1958 7.0507 19.1958 6.47426C19.1958 6.38779 19.2054 6.30132 19.2054 6.19564C19.3111 6.19564 19.3975 6.19564 19.484 6.19564C20.0797 6.19564 20.6657 6.19564 21.2614 6.19564C21.6073 6.19564 21.8282 6.00349 21.9531 5.69605C22.0588 5.41743 21.982 5.09078 21.761 4.87941C21.5784 4.70648 21.3575 4.65844 21.1173 4.65844C20.4832 4.65844 19.8587 4.65844 19.1958 4.65844C19.1862 3.9667 19.1958 3.31339 19.1862 2.66008ZM9.54025 15.1498C9.04066 15.1498 8.68518 15.4765 8.69479 15.928C8.70439 16.37 9.05026 16.687 9.54025 16.687C10.8565 16.687 12.1727 16.687 13.4889 16.687C13.9789 16.687 14.3152 16.37 14.3152 15.9184C14.3152 15.4669 13.9789 15.1498 13.4889 15.1498C12.826 15.1498 12.1631 15.1498 11.5002 15.1498C10.8565 15.1498 10.1936 15.1498 9.54025 15.1498ZM6.88858 16.687C7.33052 16.6774 7.67639 16.3412 7.67639 15.928C7.67639 15.5053 7.33052 15.1594 6.88858 15.1594C6.21605 15.1594 5.54353 15.1594 4.88061 15.1594C4.43866 15.1594 4.09279 15.4957 4.09279 15.9184C4.09279 16.3412 4.42906 16.6774 4.871 16.687C5.20726 16.687 5.54353 16.687 5.87979 16.687C6.21605 16.687 6.55231 16.687 6.88858 16.687Z" fill="currentColor"/>
</svg>
