<svg width="13" height="12" viewBox="0 0 13 12" fill="none" xmlns="http://www.w3.org/2000/svg">
<path fill-rule="evenodd" clip-rule="evenodd" d="M7.11643 0.981885C7.11643 0.540057 6.75826 0.181885 6.31643 0.181885C5.8746 0.181885 5.51643 0.540057 5.51643 0.981885V5.18294H1.31538C0.873553 5.18294 0.515381 5.54111 0.515381 5.98294C0.515381 6.42476 0.873553 6.78294 1.31538 6.78294H5.51643V10.9841C5.51643 11.4259 5.8746 11.7841 6.31643 11.7841C6.75826 11.7841 7.11643 11.4259 7.11643 10.9841V6.78294H11.3176C11.7594 6.78294 12.1176 6.42476 12.1176 5.98294C12.1176 5.54111 11.7594 5.18294 11.3176 5.18294H7.11643V0.981885Z" fill="currentColor"/>
</svg>
