<svg width="22" height="22" viewBox="0 0 22 22" fill="none" xmlns="http://www.w3.org/2000/svg">
<path fill-rule="evenodd" clip-rule="evenodd" d="M11.6976 1.69767C11.6976 1.31236 11.3853 1 10.9999 1C10.6146 1 10.3023 1.31236 10.3023 1.69767V10.3023H1.69767C1.31236 10.3023 1 10.6146 1 10.9999C1 11.3853 1.31236 11.6976 1.69767 11.6976H10.3023V20.3023C10.3023 20.6876 10.6146 21 10.9999 21C11.3853 21 11.6976 20.6876 11.6976 20.3023V11.6976H20.3023C20.6876 11.6976 21 11.3853 21 10.9999C21 10.6146 20.6876 10.3023 20.3023 10.3023H11.6976V1.69767Z" fill="currentColor"/>
</svg>
