<svg width="18" height="18" viewBox="0 0 18 18" fill="none" xmlns="http://www.w3.org/2000/svg">
<path fill-rule="evenodd" clip-rule="evenodd" d="M9.73969 1.52803C9.73969 1.0862 9.38152 0.728027 8.93969 0.728027C8.49787 0.728027 8.13969 1.0862 8.13969 1.52803V8.08592H1.5818C1.13997 8.08592 0.781799 8.44409 0.781799 8.88592C0.781799 9.32775 1.13997 9.68592 1.5818 9.68592H8.13969V16.244C8.13969 16.6858 8.49787 17.044 8.93969 17.044C9.38152 17.044 9.73969 16.6858 9.73969 16.244V9.68592H16.2978C16.7396 9.68592 17.0978 9.32775 17.0978 8.88592C17.0978 8.44409 16.7396 8.08592 16.2978 8.08592H9.73969V1.52803Z" fill="currentColor"/>
</svg>
