<svg width="22" height="23" viewBox="0 0 22 23" fill="none" xmlns="http://www.w3.org/2000/svg">
<path d="M22 17.8716C22 18.5899 21.4178 19.1721 20.6996 19.1721H1.30045C0.582227 19.1722 0 18.5899 0 17.8716V5.30049C0 4.58227 0.582227 4 1.30045 4H20.6996C21.4178 4 22 4.58227 22 5.30049V17.8716Z" fill="#306FC5"/>
<path opacity="0.15" d="M0.924559 17.8716V5.30049C0.924559 4.58227 1.50687 4 2.22509 4H1.30041C0.582227 4 0 4.58223 0 5.30049V17.8716C0 18.5899 0.582227 19.1722 1.30045 19.1722H2.22514C1.50691 19.1722 0.924559 18.5899 0.924559 17.8716Z" fill="#202121"/>
<path fill-rule="evenodd" clip-rule="evenodd" d="M17.7554 8.81642V8.45789H17.7555H19.1001V11.3859H17.7854H17.7554H17.6958L17.4268 10.9378V11.0872V11.3859H15.694L15.5147 10.908H15.0965L14.9173 11.3859H14.0208C13.6622 11.3859 13.3935 11.2964 13.2142 11.2066V11.3859H11.063V10.7286C11.063 10.6389 11.063 10.6389 11.0033 10.6389H10.9434V11.4158H10.9135H7.47753H6.79033V11.3859V11.0573L6.64102 11.4158H5.77464L5.62515 11.0573V11.3859V11.4158H3.89239L3.71313 10.9378H3.32473L3.14538 11.3859L3.13455 11.4158H3.11547H1.59167H1.57904L1.59167 11.3859L2.27879 9.8621L2.87644 8.45789H4.16116H4.19107L4.34047 8.81642V8.45789H4.78868H5.86423L6.19281 9.20485L6.52161 8.45789H11.332C11.571 8.45789 11.7503 8.51774 11.8996 8.63719V8.48779V8.45789H13.2441V8.63719C13.483 8.5177 13.752 8.45789 14.0806 8.45789H15.9928L16.1722 8.81642V8.45789H17.5763L17.7554 8.81642ZM7.32817 10.9677H7.62698V8.87627H6.82015L6.22263 10.3104L6.21305 10.3413L5.94235 9.72662L5.56538 8.90618H5.56435L5.55026 8.87623H4.93791H4.75869V10.878L3.92213 8.87623H3.17524L2.29138 10.9677H2.81658L3.02576 10.5196H4.04171L4.25084 10.9677H5.26662V9.32439L5.98364 10.9677H6.24218H6.40198H6.42398L7.11904 9.39211V9.39293L7.14895 9.32439V10.7886V10.9677H7.32817ZM8.52339 9.32439H9.68866V8.87627H8.0155V10.9975H9.68866V10.5495H8.52339V10.131H9.65876V9.71279H8.52339V9.32439ZM11.8214 10.096L11.8197 10.0948C11.7303 10.0018 11.6306 9.98173 11.6306 9.98173C11.7774 9.92291 11.9815 9.74845 11.9884 9.43048C11.985 9.19961 11.8966 9.05382 11.7502 8.96591C11.6008 8.87627 11.4214 8.87627 11.1527 8.87627H10.0172V10.9678H10.525V10.2208H11.063C11.2039 10.2208 11.2887 10.2213 11.3335 10.2503C11.3646 10.2635 11.3932 10.2821 11.4214 10.3104C11.5112 10.4299 11.5112 10.6092 11.5112 10.7287V10.9678H11.9593V10.5495C11.9593 10.5313 11.9588 10.5145 11.9581 10.498L11.9582 10.4955L11.9581 10.4931L11.9579 10.4907L11.9575 10.4823C11.9551 10.3186 11.9089 10.2071 11.8516 10.132C11.8434 10.1206 11.8337 10.1086 11.8224 10.0966L11.8214 10.096ZM12.3178 10.9677H12.8258V8.87623H12.3178V10.9677ZM18.6519 10.9677V8.90631H18.1438V10.3703L17.2775 8.90631H16.5306V10.0714V10.1311V10.806V10.908L15.6939 8.90626H15.2459H14.9469L14.2598 10.5495H14.0507C13.9013 10.5495 13.7819 10.5196 13.6921 10.4299C13.5727 10.3104 13.5428 10.161 13.5428 9.92192C13.5428 9.71279 13.6026 9.53357 13.6921 9.44398C13.8118 9.35417 13.9013 9.32439 14.0805 9.32439H14.5587V8.87627H14.0805C13.752 8.87627 13.4829 8.93587 13.3337 9.11526C13.1245 9.35421 13.0648 9.65319 13.0648 9.95195C13.0648 10.3403 13.1544 10.5793 13.3337 10.7586C13.5128 10.9379 13.8118 10.9976 14.0507 10.9976H14.6183L14.7976 10.5196H15.8434L16.0227 10.9678H16.5307V10.969H17.0354V10.6957L17.0386 10.6987V9.38412L17.9946 10.9677H18.6519ZM3.20507 10.0714H3.86241L3.53383 9.23476L3.20507 10.0714ZM6.70083 12.8798V13.2682H7.80637V13.6866H6.70083V14.1349H7.92583L8.49349 13.5073L7.95573 12.8798H6.70083ZM14.9769 10.0714L15.3355 9.23476L15.6642 10.0714H14.9769ZM9.89779 14.3737V12.6707L9.12092 13.5073L9.89779 14.3737ZM11.0329 12.8798C11.2123 12.8798 11.3319 12.9695 11.3618 13.1488C11.3618 13.328 11.2422 13.4176 11.063 13.4176H10.4056V12.8798H11.0329ZM13.4531 13.358C13.5129 13.328 13.5429 13.2383 13.5429 13.1488C13.5728 13.0294 13.5129 12.9696 13.4531 12.9397C13.3935 12.9098 13.3038 12.9098 13.2142 12.9098H12.6166V13.3879H13.2142C13.3037 13.3879 13.3935 13.3879 13.4531 13.358ZM11.3937 9.74734C11.4024 9.73802 11.4103 9.72745 11.417 9.71533C11.4441 9.67249 11.4751 9.59532 11.4584 9.49C11.4577 9.48033 11.4559 9.4714 11.4539 9.46276L11.4534 9.45952C11.4532 9.45832 11.4531 9.45712 11.4527 9.45584L11.4524 9.45588C11.4376 9.40471 11.3996 9.37326 11.3618 9.35418C11.3019 9.3244 11.2122 9.3244 11.1227 9.3244H10.525V9.80251H11.1227C11.2122 9.80251 11.3019 9.80251 11.3618 9.77256C11.3708 9.76801 11.3788 9.76182 11.3864 9.75482L11.3865 9.7552C11.3865 9.7552 11.3896 9.75198 11.3937 9.74734ZM20.2654 13.3878C20.355 13.5372 20.4147 13.7464 20.4147 13.9555C20.4147 13.975 20.4139 13.9942 20.4128 14.0135L20.4146 14.0152C20.414 14.0219 20.4131 14.0287 20.4122 14.0354C20.4118 14.039 20.4113 14.0426 20.4109 14.0462C20.3851 14.3946 20.2118 14.6867 19.9367 14.8518C19.7574 14.9714 19.4883 15.0012 19.2196 15.0012H17.9347V14.9413V14.8218C17.7854 14.9413 17.5166 15.0012 17.2475 15.0012H13.1843V14.9413V14.314C13.1843 14.2244 13.1843 14.2244 13.0945 14.2244H13.0349V14.9413V15.0012H11.6904V14.9413V14.1944C11.4812 14.2842 11.2122 14.2842 11.0033 14.2842H10.8538V14.6726V14.9714H10.824H10.7941H10.7255H9.21047H9.18048L8.80601 14.5392L8.374 14.9714H5.74474V12.2793V12.0433V11.9535H8.10502H8.30856H8.43364L8.82208 12.4017L9.24047 11.9535H11.0329C11.2122 11.9535 11.5709 11.9835 11.7203 12.1328V12.0433V11.9536H13.3337C13.483 11.9536 13.8119 11.9835 13.991 12.1328V12.0434V11.9536H16.441V12.1328C16.5606 12.0134 16.8293 11.9536 17.0386 11.9536H18.4129V12.1328C18.4129 12.1328 18.639 11.9536 18.8253 11.9536H20.2641V12.0434H20.2654V13.3878ZM10.4056 13.7763H11.0033C11.4513 13.7763 11.8696 13.6567 11.8696 13.0592C11.8696 12.981 11.8605 12.9121 11.8448 12.8502C11.7144 12.5375 11.3703 12.4617 11.0629 12.4617H9.47946L8.85194 13.1488L8.83682 13.1645L8.72527 13.0428L8.19469 12.4616H6.25263V14.5531H8.16479L8.82208 13.8657L8.85001 13.8979L8.85199 13.8957L9.42356 14.5531H10.4056V14.2244V14.0451V13.8657V13.7763ZM14.0806 14.1348C14.0806 13.9555 14.0507 13.8358 13.991 13.7464C13.9612 13.6866 13.8716 13.6267 13.7221 13.5671C13.8716 13.5073 14.0806 13.328 14.0806 12.9994C14.0806 12.7604 13.9612 12.611 13.8119 12.5213C13.6623 12.4317 13.4531 12.4317 13.2143 12.4317H12.079V14.5531H12.5869V13.7763H13.1246C13.3038 13.7763 13.4234 13.7763 13.483 13.8657C13.5728 13.9555 13.5728 14.1645 13.5728 14.2842V14.553H14.0806V14.1348ZM14.8873 12.8797H16.0527V12.4317H14.3795V14.553H16.0527V14.1049H14.8873V13.6866H16.0227V13.2682H14.8873V12.8797ZM16.3513 14.5531H17.3075C17.8154 14.5531 18.0842 14.3438 18.0842 13.8957C18.0842 13.6866 18.0245 13.5372 17.9348 13.4476C17.8153 13.328 17.6361 13.2683 17.3671 13.2683H17.0982C17.0385 13.2683 16.9788 13.2683 16.9189 13.2383C16.8592 13.2087 16.7996 13.1788 16.7996 13.0891C16.7996 13.0294 16.7996 12.9696 16.8592 12.9396C16.919 12.9097 16.9788 12.9097 17.0684 12.9097H17.9946V12.4019H17.0087C16.4708 12.4019 16.2916 12.7306 16.2916 13.0294C16.2916 13.6324 16.7694 13.657 17.2175 13.68C17.2578 13.6821 17.2978 13.6842 17.3373 13.6866C17.4269 13.6866 17.4867 13.7165 17.5167 13.7464C17.5466 13.7764 17.5763 13.8358 17.5763 13.8957C17.5763 13.9555 17.5466 14.0152 17.5167 14.0451C17.4568 14.1049 17.3969 14.1049 17.3075 14.1049H16.3513V14.5531ZM19.2494 14.5531C19.5483 14.5531 19.7576 14.4634 19.8769 14.3438C19.9964 14.2244 20.0562 14.075 20.0562 13.8957C20.0562 13.857 20.0523 13.822 20.0469 13.7885C19.9857 13.4686 19.7117 13.3461 19.6289 13.3161C19.5386 13.2844 19.4398 13.2683 19.3092 13.2683H19.0701H19.0404C18.9806 13.2683 18.9209 13.2683 18.8612 13.2383C18.7714 13.2087 18.7415 13.1788 18.7415 13.0891C18.7415 13.0294 18.7714 12.9696 18.8015 12.9396C18.8612 12.9097 18.9209 12.9097 19.0105 12.9097H19.0404H19.2794H19.9368V12.4019H18.9508C18.8953 12.4019 18.8447 12.4061 18.7968 12.4127C18.3961 12.4889 18.2337 12.7455 18.2337 13.0294C18.2337 13.6324 18.7116 13.657 19.1596 13.68C19.1999 13.6821 19.2399 13.6842 19.2794 13.6866C19.3691 13.6866 19.4287 13.7165 19.4587 13.7464C19.4884 13.7764 19.5184 13.8358 19.5184 13.8957C19.5184 13.9555 19.4884 14.0152 19.4587 14.0451C19.399 14.1049 19.3391 14.1049 19.2494 14.1049H18.2936V14.5531H19.2494Z" fill="white"/>
</svg>
