<svg width="22" height="22" viewBox="0 0 22 22" fill="none" xmlns="http://www.w3.org/2000/svg">
<path d="M1 7.90548V8.14717C1 11.7294 1 15.3116 1 18.8938C1 20.1109 1.88908 21 3.10617 21C8.12991 21 13.1623 21 18.186 21C19.4204 21 20.3008 20.1196 20.3008 18.8852C20.3008 15.303 20.3008 11.7208 20.3008 8.13854V7.90548H1ZM9.43332 10.2188C9.77859 10.5814 10.1411 10.9698 10.5209 11.3669C10.9353 10.9439 11.2978 10.5727 11.669 10.2016C11.8416 10.3742 11.997 10.5296 12.1696 10.7022C11.7898 11.082 11.4186 11.4445 11.0388 11.8243C11.4186 12.2041 11.7898 12.5667 12.1696 12.9465C11.997 13.1105 11.8416 13.2486 11.669 13.4212C11.3237 13.0587 10.9612 12.6789 10.5814 12.2818C10.167 12.6962 9.80449 13.0673 9.42469 13.4471C9.26931 13.2745 9.12257 13.1105 8.9672 12.9379C9.32111 12.5926 9.69227 12.2214 10.0807 11.8416C9.67501 11.4445 9.30384 11.0734 8.92404 10.7022C9.09668 10.5296 9.25205 10.3915 9.43332 10.2188ZM6.48123 18.2637C6.30859 18.4277 6.15322 18.5658 5.98058 18.7298C5.6353 18.3673 5.27277 17.9875 4.89296 17.5904C4.47864 18.0047 4.1161 18.3759 3.7363 18.7557C3.58092 18.5831 3.43418 18.4191 3.27881 18.2464C3.63271 17.9012 4.00388 17.53 4.39232 17.1502C3.98662 16.7531 3.61545 16.382 3.23565 16.0108C3.40829 15.8468 3.56366 15.7 3.74493 15.536C4.0902 15.8986 4.45274 16.287 4.83254 16.6841C5.24687 16.2611 5.60941 15.8986 5.98058 15.5188C6.15322 15.6914 6.30859 15.8468 6.48123 16.0194C6.10142 16.3906 5.73025 16.7618 5.35045 17.1416C5.73025 17.5214 6.10142 17.8839 6.48123 18.2637ZM6.58481 12.8343C6.57618 13.2486 6.29133 13.5421 5.877 13.5421C5.19508 13.5421 4.51316 13.5507 3.83125 13.5421C3.43418 13.5421 3.1407 13.24 3.1407 12.8429C3.13207 12.161 3.13207 11.4791 3.1407 10.7972C3.1407 10.3915 3.43418 10.1066 3.83125 10.098C4.5218 10.0893 5.21234 10.0893 5.89426 10.098C6.28269 10.098 6.56754 10.4001 6.57618 10.7885C6.58481 11.1338 6.57618 11.4791 6.57618 11.8243C6.58481 12.161 6.59344 12.4976 6.58481 12.8343ZM12.2646 18.1515C12.2559 18.5658 11.9711 18.8593 11.5568 18.8593C10.8748 18.8679 10.1929 18.8679 9.51101 18.8593C9.11394 18.8593 8.82046 18.5572 8.82046 18.1601C8.81183 17.4782 8.81183 16.7963 8.82046 16.1144C8.82046 15.7173 9.11394 15.4152 9.51101 15.4152C10.2016 15.4066 10.8921 15.4066 11.5827 15.4152C11.9711 15.4152 12.2559 15.7173 12.2646 16.1057C12.2732 16.451 12.2646 16.7963 12.2646 17.1416C12.2646 17.4696 12.2732 17.8148 12.2646 18.1515ZM17.8925 18.1515C17.8839 18.5658 17.5991 18.8593 17.1847 18.8593C16.5028 18.8679 15.8209 18.8679 15.139 18.8593C14.7419 18.8593 14.4484 18.5572 14.4484 18.1601C14.4398 17.4782 14.4398 16.7963 14.4484 16.1144C14.4484 15.7173 14.7419 15.4152 15.139 15.4152C15.8295 15.4066 16.5201 15.4066 17.2106 15.4152C17.5991 15.4152 17.8839 15.7173 17.8925 16.1057C17.9012 16.451 17.8925 16.7963 17.8925 17.1416C17.8925 17.4696 17.8925 17.8148 17.8925 18.1515ZM17.8925 11.8157C17.8925 12.1524 17.8925 12.489 17.8925 12.8256C17.8839 13.24 17.5991 13.5334 17.1847 13.5334C16.5028 13.5334 15.8209 13.5421 15.139 13.5334C14.7419 13.5334 14.4484 13.2313 14.4484 12.8343C14.4398 12.1524 14.4398 11.4704 14.4484 10.7885C14.4484 10.3828 14.7419 10.098 15.139 10.0893C15.8295 10.0807 16.5201 10.0807 17.2106 10.0893C17.5991 10.0893 17.8839 10.3915 17.8925 10.7799C17.9012 11.1338 17.8925 11.4791 17.8925 11.8157ZM20.3008 3.61545C20.2836 2.70047 19.5412 1.86319 18.6435 1.74234C18.1515 1.67328 17.6595 1.70781 17.1588 1.69055C17.0639 1.69055 16.9689 1.69055 16.8567 1.69055C16.8567 2.18256 16.8653 2.64005 16.8567 3.10617C16.8308 4.5218 15.4152 5.48856 14.0859 5.00518C13.2831 4.7117 12.7393 3.95209 12.7221 3.09754C12.7134 2.63142 12.7221 2.17393 12.7221 1.69918H8.57877C8.57877 2.1912 8.5874 2.66595 8.57877 3.1407C8.55287 4.21968 7.64653 5.10876 6.57618 5.13466C5.41088 5.16055 4.46137 4.24558 4.45274 3.08028C4.44411 2.62279 4.45274 2.1653 4.45274 1.68192C3.97799 1.69055 3.52913 1.69055 3.07164 1.69055C1.90634 1.69055 1 2.58826 1 3.76219C1 4.60811 1 5.45404 1 6.29996V6.49849H20.2836C20.2922 6.47259 20.3008 6.4467 20.3008 6.42943C20.3008 5.49719 20.3181 4.54769 20.3008 3.61545ZM7.2063 1.68192C7.19767 1.30211 6.89555 1 6.51575 1C6.13595 1 5.83384 1.29348 5.82521 1.68192C5.81657 1.91498 5.82521 2.1394 5.82521 2.37246C5.82521 2.60552 5.82521 2.84722 5.82521 3.08028C5.83384 3.46008 6.13595 3.76219 6.51575 3.76219C6.88692 3.76219 7.19767 3.46871 7.2063 3.08028C7.2063 2.61416 7.2063 2.14804 7.2063 1.68192ZM15.4756 1.68192C15.467 1.30211 15.1649 1 14.7851 1C14.4053 1 14.1032 1.29348 14.0945 1.68192C14.0859 2.14804 14.0859 2.61416 14.0945 3.08028C14.1032 3.46008 14.4053 3.76219 14.7851 3.76219C15.1562 3.76219 15.467 3.46871 15.4756 3.08028C15.4842 2.85585 15.4756 2.62279 15.4756 2.38973C15.4756 2.14804 15.4842 1.91498 15.4756 1.68192Z" fill="currentColor"/>
</svg>
