<svg width="375" height="42" viewBox="0 0 375 42" fill="none" xmlns="http://www.w3.org/2000/svg">
<g clip-path="url(#clip0_15782_45239)">
<path d="M216.073 41.0026H122.444C128.74 38.0969 135.036 35.2719 141.008 32.689C141.251 32.6083 141.412 32.5276 141.654 32.4469C158.362 25.2633 172.164 20.0168 175.554 19.3711C175.635 19.3711 175.635 19.3711 175.716 19.3711C175.796 19.3711 175.877 19.3711 175.877 19.3711C175.958 19.3711 176.119 19.3711 176.281 19.3711C176.361 19.3711 176.361 19.3711 176.442 19.3711C176.846 19.4518 177.33 19.5325 177.895 19.7747C178.056 19.8554 178.218 19.8554 178.379 19.9361C178.783 20.0975 179.267 20.259 179.751 20.5011C179.913 20.5818 179.994 20.5818 180.155 20.6625C180.478 20.824 180.801 20.9047 181.043 21.0661C181.204 21.1468 181.366 21.2275 181.527 21.3082C182.819 21.954 184.271 22.6804 185.805 23.4875C186.047 23.5683 186.209 23.7297 186.451 23.8104C189.034 25.1825 191.939 26.7968 195.087 28.5726C195.571 28.8954 196.136 29.1376 196.621 29.4604C198.719 30.6711 200.899 31.9626 203.078 33.254C204.208 33.8997 205.338 34.5454 206.468 35.2719C208.809 36.644 211.149 38.0969 213.49 39.469C213.894 39.7112 214.297 39.9533 214.701 40.1955C215.266 40.4376 215.669 40.7605 216.073 41.0026Z" fill="#B2AA98"/>
<path d="M216.073 41.0026H166.514C164.981 40.5183 163.931 40.034 164.012 39.3883C164.173 38.2583 191.455 36.5633 196.621 34.5454C199.688 32.8504 186.37 30.7519 180.559 29.7026C155.376 25.1825 173.052 20.0168 175.716 19.3711C175.796 19.3711 175.796 19.3711 175.877 19.3711C175.958 19.3711 176.039 19.3711 176.039 19.3711C176.119 19.3711 176.281 19.3711 176.442 19.3711C176.523 19.3711 176.523 19.3711 176.604 19.3711C177.007 19.4518 177.491 19.5325 178.056 19.7747C178.218 19.8554 178.379 19.8554 178.541 19.9361C178.944 20.0975 179.429 20.259 179.913 20.5011C180.074 20.5818 180.155 20.5818 180.316 20.6625C180.639 20.824 180.962 20.9047 181.204 21.0661C181.366 21.1468 181.527 21.2275 181.689 21.3082C182.98 21.954 184.433 22.6804 185.966 23.4875C186.209 23.5683 186.37 23.7297 186.612 23.8104C189.195 25.1825 192.101 26.7968 195.249 28.5726C195.733 28.8954 196.298 29.1376 196.782 29.4604C198.881 30.6711 201.06 31.9626 203.239 33.254C204.369 33.8997 205.499 34.5454 206.629 35.2719C208.97 36.644 211.311 38.0969 213.652 39.469C214.055 39.7112 214.459 39.9533 214.862 40.1955C215.266 40.4376 215.669 40.7605 216.073 41.0026Z" fill="#FFE4C4"/>
<path d="M350.786 41.0032H195.571C199.204 39.1468 202.916 37.2096 206.629 35.2725C237.22 19.5331 269.264 3.9552 275.398 2.8252C275.479 2.8252 275.56 2.8252 275.64 2.8252H275.721C275.882 2.8252 275.963 2.8252 276.044 2.8252C277.658 2.8252 280.322 3.63234 283.793 5.00449C283.873 5.00449 283.954 5.0852 284.035 5.0852C290.088 7.50664 298.483 11.7038 307.926 16.7888C308.249 16.9502 308.572 17.1924 308.895 17.3538C312.85 19.4524 317.047 21.7931 321.244 24.1338C323.262 25.2639 325.361 26.4746 327.459 27.6046C328.589 28.2503 329.719 28.896 330.93 29.5417C331.979 30.1067 333.028 30.7524 334.078 31.3174C335.45 32.1246 336.903 32.9317 338.275 33.7389C339.647 34.546 341.1 35.3532 342.472 36.1603C342.956 36.4025 343.441 36.7253 343.844 36.9675C344.328 37.2903 344.893 37.5325 345.378 37.8553C346.104 38.2589 346.831 38.7432 347.638 39.1468C348.606 39.7118 349.736 40.3575 350.786 41.0032Z" fill="#B2AA98"/>
<path d="M343.763 36.8866L333.836 40.9224H292.268C290.573 40.5188 288.313 40.1152 285.649 39.7924C285.487 39.7924 285.326 39.7117 285.165 39.7117C281.613 39.2274 277.335 38.9045 272.896 38.5816C271.605 38.5009 270.232 38.3395 268.86 38.2588C253.686 37.2095 237.462 36.4831 236.574 35.3531C241.175 33.9809 256.995 32.4473 272.492 31.0752C273.057 30.9945 273.622 30.9945 274.187 30.9138C279.03 30.5102 283.792 30.1066 288.151 29.703C289.927 29.5416 291.622 29.3802 293.236 29.2188C297.514 28.8152 301.065 28.4923 303.568 28.1695C304.455 28.008 305.263 27.9273 305.828 27.8466C306.15 27.7659 305.424 27.6045 304.052 27.2816C301.469 26.7166 296.545 25.8287 291.057 24.6987C290.573 24.618 290.088 24.5373 289.685 24.4566C278.627 22.2773 266.277 19.533 267.488 17.9187C270.717 13.8023 300.662 15.9816 275.317 2.66366H275.237C275.317 2.66366 275.479 2.66366 275.56 2.66366H275.64C275.721 2.66366 275.882 2.66366 275.963 2.66366C277.012 2.3408 279.676 3.14794 283.712 4.84295C283.792 4.84295 283.873 4.92366 283.954 4.92366C289.765 7.3451 298.16 11.5423 307.765 16.708C308.088 16.8694 308.491 17.1116 308.814 17.273C312.769 19.3716 316.885 21.6316 321.083 23.9723C323.181 25.1023 325.28 26.313 327.378 27.443C328.508 28.0888 329.638 28.7345 330.768 29.3802C331.818 29.9452 332.867 30.5909 333.916 31.1559C335.288 31.963 336.741 32.7702 338.113 33.5773C339.486 34.3845 340.938 35.1916 342.311 35.9988C342.876 36.3216 343.279 36.6445 343.763 36.8866Z" fill="#FFE4C4"/>
<path d="M53.3523 41.003C53.433 41.0837 53.433 41.0837 53.5138 41.1644C53.2716 41.0837 53.0295 41.003 52.7873 41.003H13.1565C16.2236 38.9851 19.2101 37.048 22.1158 35.1916C23.4879 34.3037 24.7794 33.4966 26.0708 32.6894C28.1694 31.3173 30.268 30.0258 32.2051 28.8151C34.1423 27.6044 35.9987 26.4744 37.8551 25.3444C40.7609 23.5687 43.5052 21.8737 46.088 20.3401C64.8945 9.04003 76.5981 3.14787 80.9567 0.968575C82.2482 0.322858 82.8939 0 82.8939 0C83.0553 0.0807146 83.2167 0.161429 83.2974 0.242144C90.9653 3.95501 114.776 17.5151 141.008 32.6894C145.771 35.4337 150.533 38.178 155.376 41.003H53.3523Z" fill="#B2AA98"/>
<path d="M53.3523 41.0033C53.433 41.0841 53.4331 41.0841 53.5138 41.1648C53.2716 41.0841 53.0295 41.0033 52.7873 41.0033C51.2538 40.5191 50.1237 40.1155 49.3166 39.6312C47.0566 38.2591 47.7023 36.7255 49.0745 35.434C49.478 35.0305 49.8816 34.7076 50.3659 34.304C52.1416 32.9319 53.9981 31.8826 52.868 31.479C49.2359 30.1069 52.868 28.4926 59.0024 26.8783C60.9395 26.394 63.1188 25.9097 65.2981 25.4254C67.7195 24.8604 70.2217 24.3761 72.7238 23.8919C81.3603 22.1968 88.786 20.744 86.6068 20.2597C87.9789 16.9504 100.248 13.0761 95.0818 12.1075C89.9968 11.0582 81.2796 9.04037 76.4367 8.87894C80.9567 7.02251 86.1225 4.7625 80.9567 1.04963C82.2482 0.403913 82.8939 0.0810547 82.8939 0.0810547C83.0553 0.161769 83.2167 0.242484 83.2974 0.323198C86.1225 1.69535 89.1896 3.14821 92.4182 4.68179C92.4989 4.68179 92.4989 4.7625 92.5796 4.7625C99.1175 7.91037 119.054 19.2911 141.735 32.5283C146.578 35.3533 151.421 38.1783 156.425 41.0841H53.3523V41.0033Z" fill="#FFE4C4"/>
<path d="M330.93 33.0127C330.93 33.0127 330.93 32.932 330.849 32.8513C329.558 31.1563 328.428 29.3805 327.378 27.4434C327.378 27.4434 327.378 27.4434 327.378 27.3627C326.813 26.3134 326.329 25.2641 325.845 24.2148C324.876 21.8741 323.988 19.4526 323.504 16.9505C322.858 19.6948 322.051 21.9548 321.163 23.8919C321.163 23.8919 321.163 23.8919 321.163 23.9727C318.661 29.2998 315.755 31.6405 315.19 32.2055C315.11 32.2863 315.029 32.367 315.11 32.367H315.271C316.482 32.2055 318.58 31.5598 319.63 31.0755C319.145 32.2863 318.419 33.4163 317.935 33.9006C316.563 35.4341 315.917 36.6448 317.935 36.2413C317.854 36.4027 317.612 37.0484 317.128 37.8556C316.563 38.7434 315.755 39.9541 314.706 40.9227H329.961C329.477 39.8734 328.993 38.8241 328.589 37.6941C328.589 37.6134 328.508 37.5327 328.508 37.3713C328.428 37.1291 328.347 36.887 328.266 36.6448C328.186 36.4027 328.105 36.1606 328.024 35.9184C328.186 36.0798 328.347 36.322 328.508 36.4834C328.589 36.5641 328.589 36.5641 328.67 36.6448C328.831 36.8063 329.154 36.5641 329.073 36.322C329.073 36.2413 328.993 36.1606 328.993 35.9991C328.67 34.9498 328.186 33.9813 327.782 32.932C327.54 32.367 327.378 31.8827 327.217 31.4791C328.347 32.2863 331.091 33.5777 330.93 33.0127ZM347.557 39.0663C346.992 38.3399 346.508 37.6134 345.943 36.8063C346.346 36.7256 346.508 36.0798 346.266 35.757C346.023 35.4341 345.781 35.192 345.539 34.8691C345.216 34.4656 344.893 34.062 344.651 33.6584C344.49 33.4163 344.328 33.1741 344.167 32.932C343.279 31.6405 342.553 30.2684 341.907 28.8155C342.149 29.0577 342.391 29.2191 342.633 29.4612C342.876 29.6227 343.118 29.2998 342.956 29.0577C342.553 27.9277 341.826 26.9591 341.181 25.9905C340.858 25.5062 340.616 25.0219 340.454 24.6184C341.665 25.1834 344.651 26.0712 344.328 25.5869C344.328 25.5062 344.248 25.5062 344.248 25.4255C341.907 23.1655 339.889 20.5019 338.113 17.6769C336.822 15.4976 335.611 13.2376 334.804 10.8162C333.593 22.9234 328.024 27.282 328.589 27.2012C329.8 26.8784 331.898 25.9905 332.867 25.2641C332.544 26.5555 331.979 27.6855 331.576 28.3312C331.253 28.8155 331.011 29.2191 330.849 29.6227C330.365 30.5913 330.526 31.1563 331.979 30.672C331.898 31.1563 331.091 34.062 328.993 36.2413C328.831 36.4027 328.67 36.5641 328.508 36.7256C328.428 36.8063 328.347 36.887 328.266 36.887C328.186 36.9677 328.105 37.0484 328.024 37.0484C327.782 37.2099 328.105 37.6941 328.347 37.6134C328.428 37.6134 328.428 37.6134 328.508 37.6134C328.67 37.5327 328.831 37.5327 328.912 37.452C328.831 37.6134 328.67 37.7749 328.589 37.8556C327.782 38.9049 326.733 39.9541 325.361 41.0842H348.929C348.445 40.3577 347.961 39.712 347.557 39.0663ZM318.903 40.3577C318.258 39.5506 317.693 38.7434 317.128 37.9363C316.159 36.4834 315.352 34.9498 314.706 33.3355C314.948 33.5777 315.19 33.8198 315.433 33.9813C315.675 34.1427 315.917 33.8198 315.755 33.5777C315.594 33.1741 315.433 32.7705 315.271 32.4477C315.271 32.367 315.271 32.367 315.19 32.2863C314.868 31.6405 314.464 31.0755 314.141 30.4298C313.818 29.8648 313.576 29.4612 313.415 28.977C314.625 29.6227 317.531 30.5105 317.289 30.0263C317.289 29.9455 317.289 29.9455 317.208 29.8648C314.948 27.5241 312.93 24.8605 311.235 21.9548C310.348 20.4212 309.54 18.8876 308.895 17.2733C308.895 17.1926 308.895 17.1926 308.814 17.1119C308.491 16.3855 308.249 15.6591 308.007 14.9326C307.926 15.4976 307.845 15.9819 307.765 16.5469V16.6276C306.958 21.5512 305.505 25.0219 304.133 27.282C303.971 27.6048 303.729 27.9277 303.568 28.1698C302.195 30.2684 301.146 31.1563 301.388 31.1563C302.599 30.8334 304.698 30.0262 305.747 29.2998C305.424 30.5913 304.859 31.7213 304.455 32.2863C303.245 33.9813 302.76 35.2727 304.778 34.627C304.698 35.192 303.648 38.6627 300.904 40.842H319.065C319.065 40.7613 319.065 40.5191 318.903 40.3577ZM298.886 37.3713C298.886 37.2906 298.805 37.2906 298.805 37.2098C296.707 34.8691 294.85 32.2055 293.236 29.2998C293.236 29.2191 293.155 29.1384 293.075 29.0577C292.348 27.6855 291.622 26.2327 291.057 24.7798C290.653 23.8919 290.411 22.9234 290.088 21.9548C289.927 22.8427 289.765 23.6498 289.604 24.4569C289.2 26.4748 288.635 28.1698 288.07 29.7034C285.891 35.192 283.147 37.5327 282.905 37.9363C282.905 38.017 282.905 38.017 282.905 38.017C282.905 38.017 282.905 38.017 282.985 38.017C284.196 37.6941 286.295 36.9677 287.263 36.322C286.86 37.6134 286.295 38.7434 285.81 39.3084C285.649 39.4699 285.568 39.6313 285.488 39.7927C285.165 40.1963 285.003 40.5999 284.842 40.9227H296.223C296.142 40.7613 296.061 40.5999 296.061 40.5191C296.223 40.6806 296.303 40.842 296.465 40.9227H297.11C297.11 40.842 297.11 40.842 297.11 40.7613C296.707 39.6313 296.061 38.582 295.577 37.5327C295.335 36.9677 295.093 36.5641 294.931 36.0798C296.303 36.887 299.209 37.8556 298.886 37.3713ZM356.274 40.9227C354.983 39.3084 353.933 37.5327 353.126 35.5956C353.288 35.757 353.449 35.9184 353.691 36.0798C353.853 36.2413 354.014 35.9991 353.933 35.757C353.611 34.9498 353.126 34.1427 352.723 33.4163C352.481 33.0127 352.319 32.6898 352.158 32.367C353.126 32.8513 355.306 33.497 355.063 33.1741C355.063 33.1741 355.063 33.0934 354.983 33.0934C353.288 31.3177 351.754 29.2998 350.543 27.1205C349.575 25.5062 348.768 23.7305 348.122 21.8741C347.396 27.7662 345.378 31.1563 344.086 32.8513C343.441 33.7391 343.037 34.062 343.118 34.062C343.521 33.9813 344.006 33.8198 344.571 33.5777C345.297 33.3355 345.943 32.932 346.427 32.6898C346.185 33.5777 345.781 34.3041 345.539 34.7884C345.539 34.8691 345.458 34.8691 345.458 34.9498C344.571 36.2413 344.248 37.2099 345.701 36.7256C345.701 36.887 345.539 37.2098 345.378 37.7748C345.055 38.6627 344.409 39.9541 343.279 41.0034L356.274 40.9227C356.274 41.0034 356.274 41.0034 356.274 40.9227ZM370.561 41.0034C369.673 39.4699 368.866 37.7748 368.22 36.0798C368.462 36.322 368.624 36.5641 368.866 36.7256C369.108 36.887 369.269 36.5641 369.189 36.322C368.785 35.1113 368.22 34.062 367.655 32.932C367.413 32.367 367.171 31.8827 367.009 31.3984C368.139 32.0441 370.803 33.0934 370.561 32.5284C370.561 32.4477 370.48 32.4477 370.48 32.367C368.381 29.8648 366.606 26.9591 365.153 23.7305C364.023 21.3091 363.135 18.7262 362.489 15.9012C360.633 29.2191 355.548 34.062 356.032 33.9813C357.081 33.5777 359.099 32.6091 359.987 31.8827C359.664 33.2548 359.099 34.5463 358.776 35.2727C357.727 37.1291 357.243 38.6627 359.099 37.8556C359.018 38.1784 358.776 39.4699 358.131 41.0034H370.561ZM285.73 39.4699L285.649 39.3891C284.842 38.9856 283.954 38.5013 283.147 38.017C283.147 38.017 283.066 38.017 283.066 37.9363C281.048 36.7256 279.192 35.4341 277.335 33.9006C276.286 33.0127 275.156 31.9634 274.187 30.9141C273.38 30.107 272.654 29.2998 272.008 28.412C272.25 29.3805 272.412 30.2684 272.492 31.0755C272.977 33.9813 273.057 36.4834 272.896 38.5013C272.815 39.3891 272.735 40.1963 272.654 40.842H282.985L282.905 40.7613C282.42 40.3577 282.098 40.0349 281.775 39.712C282.663 39.7927 284.357 39.7927 285.245 39.6313C285.649 39.712 285.891 39.6313 285.73 39.4699ZM262 37.8556C261.838 38.9856 261.677 40.0349 261.435 40.9227H262.887C262.484 39.9541 262.242 38.9856 262 37.8556ZM374.677 40.1963C374.677 40.4384 374.677 40.7613 374.596 41.0034H375C374.839 40.7613 374.758 40.4384 374.677 40.1963ZM268.86 38.3399C268.86 38.2591 268.86 38.2591 268.86 38.3399C268.78 39.3084 268.699 40.1963 268.537 41.0034H270.152C269.667 40.1156 269.264 39.2277 268.86 38.3399ZM63.926 41.0034C62.7959 40.0349 61.9888 38.9049 61.5045 37.9363C61.0202 37.1291 60.7781 36.4834 60.6974 36.322C62.7152 36.7256 62.0695 35.5148 60.6974 33.9813C60.2131 33.4163 59.4867 32.367 59.0024 31.1563C60.0517 31.6405 62.1502 32.2863 63.361 32.4477C63.4417 32.4477 63.4417 32.4477 63.5224 32.4477C63.6031 32.4477 63.5224 32.367 63.4417 32.2863C62.9574 31.802 61.0202 30.1877 58.9216 26.7977C57.4688 24.4569 56.0966 21.3091 55.0473 17.0312C54.5631 19.5334 53.6752 22.0355 52.7066 24.2955C51.4152 27.3627 49.7202 30.2684 47.7023 32.8513C47.7023 32.932 47.7023 32.932 47.6216 33.0127C47.3795 33.5777 50.2045 32.2863 51.3345 31.5598C51.173 32.0441 51.0116 32.4477 50.7695 33.0127C50.608 33.4163 50.4466 33.8198 50.2045 34.2234C49.9623 34.7884 49.7202 35.4341 49.478 36.0798C49.478 36.1606 49.3973 36.2413 49.3973 36.4027C49.3166 36.6448 49.5588 36.9677 49.8009 36.7256C49.8816 36.6448 49.8816 36.6448 49.9623 36.5641C50.1238 36.4027 50.2852 36.2413 50.4466 35.9991C50.3659 36.2413 50.2852 36.4834 50.2045 36.7256C50.1238 36.9677 50.043 37.2099 49.9623 37.452C49.9623 37.5327 49.8816 37.6134 49.8816 37.7748C49.6395 38.4206 49.3973 38.9856 49.1552 39.6313C48.913 40.1156 48.7516 40.5999 48.5095 41.0034H52.6259C52.8681 41.0841 53.1102 41.1649 53.3523 41.1649C53.2716 41.0841 53.2716 41.0034 53.1909 41.0034H63.926ZM53.3523 41.0034C51.9802 39.8734 50.8502 38.7434 50.1238 37.7748C50.043 37.6134 49.8816 37.452 49.8009 37.3713C49.9623 37.452 50.043 37.452 50.2045 37.5327C50.2045 37.5327 50.2852 37.5327 50.3659 37.5327C50.608 37.6134 50.9309 37.1291 50.6888 36.9677C50.608 36.887 50.5273 36.8063 50.4466 36.8063C50.3659 36.7256 50.2852 36.6448 50.2045 36.6448C50.043 36.4834 49.8816 36.322 49.7202 36.1606C49.478 35.9184 49.3166 35.6763 49.0745 35.4341C47.4602 33.3356 46.8145 30.9948 46.7337 30.5913C48.6709 31.3177 48.1866 29.9455 47.0566 28.2505C46.653 27.6855 46.088 26.4748 45.7652 25.1834C46.8145 25.9098 48.8323 26.7977 50.043 27.1205C50.4466 27.2012 48.0252 25.2641 46.0073 20.3405C45.0387 17.9191 44.1509 14.7712 43.7473 10.7355C42.9402 13.1569 41.7294 15.4976 40.438 17.5962C38.6623 20.4212 36.6444 23.0848 34.3037 25.3448C34.3037 25.4255 34.223 25.4255 34.223 25.5062C33.9001 25.9905 36.8866 25.1027 38.0973 24.5377C38.0166 24.7798 37.8551 25.0219 37.6937 25.3448C37.613 25.5062 37.4516 25.7484 37.3709 25.9098C36.8059 26.8784 36.0794 27.9277 35.5951 28.977C35.5144 29.2191 35.7566 29.542 35.918 29.3805C36.1601 29.2191 36.4023 28.977 36.6444 28.7348C35.9987 30.1877 35.1916 31.5598 34.3844 32.8513C34.223 33.0934 34.0616 33.3355 33.9001 33.5777C33.5773 33.9813 33.3351 34.3848 33.0123 34.7884C32.7701 35.1113 32.528 35.4341 32.2858 35.6763C31.963 35.9991 32.2051 36.7256 32.6087 36.7256C31.6401 38.0977 30.6715 39.4699 29.703 40.842H52.7066C52.9488 40.9227 53.1909 41.0034 53.4331 41.0034C53.4331 41.0841 53.3523 41.0034 53.3523 41.0034ZM73.9346 34.7884C75.8717 35.4341 75.3874 34.1427 74.2574 32.4477C73.8539 31.8827 73.2888 30.672 72.966 29.4612C74.0153 30.107 76.1139 30.9948 77.3246 31.3177C77.7281 31.3984 74.9839 29.2998 72.8853 23.8112C71.836 21.4705 71.0288 18.5648 70.6253 15.0133C69.8988 17.4348 68.6881 19.7755 67.4774 21.9548C66.8317 23.0848 66.1052 24.2148 65.3788 25.2641C64.1681 26.8784 62.9574 28.412 61.5852 29.8648C61.5852 29.9455 61.5045 29.9455 61.5045 30.0263C61.1817 30.5105 64.0874 29.6227 65.3788 28.977C65.2174 29.4612 64.9752 29.8648 64.6524 30.4298C64.3295 31.0755 63.926 31.6405 63.6031 32.2863C63.6031 32.367 63.5224 32.367 63.5224 32.4477C63.361 32.8513 63.1188 33.1741 63.0381 33.5777C62.9574 33.8198 63.1995 34.1427 63.361 33.9813C63.6031 33.8198 63.8452 33.5777 64.0874 33.3355C63.361 34.9498 62.5538 36.4834 61.5852 37.9363C60.9395 38.7434 60.3745 39.5506 59.7288 40.3577C59.5674 40.5191 59.5674 40.7613 59.6481 41.0034H77.8089C75.0646 38.8241 74.0153 35.2727 73.9346 34.7884ZM95.5661 38.017C95.1625 37.452 90.0775 33.0934 88.3825 22.0355C87.7368 24.5377 86.6068 26.8784 85.4768 29.1384C83.8625 32.0441 82.006 34.8691 79.8267 37.2906C79.8267 37.3713 79.8267 37.3713 79.746 37.452C79.4232 37.9363 82.3289 36.9677 83.5396 36.2413C83.3782 36.7256 83.136 37.1291 82.8939 37.6941C82.3289 38.7434 81.6832 39.712 81.3603 40.9227C81.3603 41.0034 81.3603 41.0034 81.3603 41.0842H82.006C82.1674 40.9227 82.3289 40.842 82.4096 40.6806C82.3289 40.842 82.3289 41.0034 82.2482 41.0842H93.6289C93.4675 40.6806 93.0639 40.0349 92.6604 39.4699C92.2568 38.9049 91.6111 37.7748 91.2075 36.4834C92.1761 36.9677 94.2746 37.7749 95.5661 38.017C95.5661 38.0977 95.4854 38.0977 95.5661 38.017C95.6468 38.0977 95.5661 38.0977 95.5661 38.017ZM35.4337 34.1427C35.5951 34.1427 35.1108 33.8198 34.4651 32.932C33.8194 32.0441 32.9316 30.7527 32.1244 28.8155C31.398 27.0398 30.7523 24.7798 30.4294 22.0355C29.8644 23.8919 28.9765 25.5869 28.0887 27.282C26.7972 29.4612 25.3444 31.4791 23.6494 33.2548C23.6494 33.2548 23.6494 33.3355 23.5687 33.3355C23.4072 33.6584 24.9408 33.1741 25.9901 32.7705C26.1515 32.6898 26.313 32.6091 26.4744 32.5284C26.313 32.8513 26.1515 33.1741 25.9094 33.5777C25.5058 34.3041 24.9408 35.1113 24.618 35.9184C24.5372 36.0798 24.6987 36.322 24.8601 36.2413C25.0215 36.0798 25.183 35.9184 25.4251 35.757C24.9408 36.887 24.3758 38.017 23.6494 39.0663C23.2458 39.7927 22.7615 40.4384 22.1965 41.0034H35.2723C33.5773 39.3891 32.9316 37.1291 32.8508 36.8063C34.3037 37.2906 33.9808 36.322 33.093 35.0306C33.093 34.9498 33.0123 34.9498 33.0123 34.8691C32.6894 34.3848 32.3666 33.6584 32.1244 32.7705C32.528 33.0127 33.2544 33.4163 33.9001 33.6584C34.5458 33.8198 35.1108 34.062 35.4337 34.1427ZM23.8108 38.9856C23.3265 38.3398 22.9229 37.7749 22.6001 37.2098C22.7615 37.2906 22.9229 37.3713 23.0844 37.452C23.3265 37.5327 23.6494 37.0484 23.4072 36.8063C22.9229 36.322 22.4387 35.757 22.1158 35.192C20.5822 32.8513 19.9365 30.107 19.8558 29.6227C21.6315 30.4298 21.2279 28.977 20.0979 27.0398C19.6944 26.3941 19.2101 25.1027 18.8872 23.7305C19.8558 24.4569 21.7929 25.4255 22.8422 25.8291C23.3265 25.9098 18.2415 21.0669 16.3851 7.74902C15.8201 10.4933 14.8515 13.1569 13.7215 15.5783C12.2686 18.8069 10.4929 21.7126 8.39432 24.2148C8.39432 24.2148 8.39432 24.2955 8.3136 24.3762C8.07146 24.9412 10.735 23.8919 11.865 23.2462C11.7036 23.7305 11.4615 24.2148 11.2193 24.7798C10.6543 25.9098 10.0893 26.9591 9.68575 28.1698C9.60504 28.4927 9.84718 28.7348 10.0086 28.5734C10.2508 28.412 10.4929 28.1698 10.6543 27.9277C9.68575 30.672 8.3136 33.1741 6.6186 35.3534C6.45717 35.5956 6.6186 36.322 6.94145 36.322C6.13431 37.6941 5.24645 39.0663 4.35859 40.3577C4.19716 40.5191 4.11644 40.7613 3.95501 40.9227H25.4251C24.7794 40.277 24.2144 39.6313 23.8108 38.9856ZM106.624 28.4927C105.09 30.5105 103.234 32.367 101.297 33.9813C99.5211 35.5148 97.5839 36.887 95.5661 38.017C95.5661 38.017 95.4854 38.017 95.4854 38.0977C94.6782 38.582 93.8711 39.0663 92.9832 39.4699L92.9025 39.5506C92.4989 39.9541 95.4854 40.0349 96.8575 39.8734C96.5346 40.1963 96.1311 40.5191 95.7275 40.9227L95.6468 41.0034H105.978C105.494 38.0977 105.413 33.9005 106.624 28.4927ZM116.713 37.8556C116.471 38.9049 116.148 39.9541 115.745 40.9227H117.198C117.036 40.0349 116.794 38.9856 116.713 37.8556ZM4.35859 40.3577C3.95501 38.9049 3.63216 37.1291 3.55144 35.0306C2.90573 36.5641 2.09858 38.017 1.21072 39.3891C0.807146 39.9541 0.403573 40.4384 0 41.0034H4.60073C4.52002 40.7613 4.4393 40.5999 4.35859 40.3577ZM109.772 38.2591C109.368 39.2277 108.965 40.1156 108.4 41.0034H110.014C109.933 40.1156 109.853 39.2277 109.772 38.2591Z" fill="#008279"/>
</g>
<defs>
<clipPath id="clip0_15782_45239">
<rect width="375" height="41.1644" fill="white"/>
</clipPath>
</defs>
</svg>
