<svg width="375" height="194" viewBox="0 0 375 194" fill="none" xmlns="http://www.w3.org/2000/svg">
<g clip-path="url(#clip0_16231_41060)">
<rect width="375" height="194" fill="url(#paint0_linear_16231_41060)"/>
<path opacity="0.4" d="M46.0821 196.388C46.0821 196.388 42.864 197.678 36.9429 196.646C36.1706 196.517 35.2695 196.388 34.3685 196.13C32.0515 195.485 29.4771 194.582 26.6452 193.163C26.3878 193.034 26.0016 192.905 25.6155 192.647C25.6155 192.776 25.7442 193.163 25.8729 193.808C26.2591 195.098 26.9027 197.162 27.8037 200H0V183.488C5.92116 182.198 10.9413 180.392 10.9413 180.392C10.9413 180.392 5.535 174.458 0 170.201V143.111C1.15849 142.853 2.31698 142.595 3.47546 142.079C7.20837 140.66 10.2977 138.338 11.971 136.919C12.7434 136.274 13.1295 135.887 13.1295 135.887C13.1295 135.887 12.4859 134.855 10.9413 133.307C10.6838 133.049 10.5551 132.92 10.2977 132.662C8.23814 130.598 4.89139 127.76 0 125.18V77.9655C0 78.0945 0.128721 78.2235 0.128721 78.2235C0.386163 78.6105 0.514884 78.9975 0.772325 79.2555L1.80209 81.0615C2.18825 81.7065 2.4457 82.3515 2.83186 82.9965C3.21802 83.6415 3.60418 84.4155 3.99035 85.0605C5.40628 87.6405 6.95093 90.3495 8.36686 92.8005C9.65407 94.9935 10.8126 97.1865 12.0998 99.2505C16.605 107.119 20.7241 113.957 23.9421 118.472C25.358 120.665 26.6452 122.213 27.675 123.245C27.9324 123.503 28.1899 123.761 28.4473 123.89C28.4473 123.89 23.6846 124.664 18.2784 123.761C15.9614 123.374 13.6444 122.6 11.4562 121.31C11.4562 121.31 12.2285 124.148 13.6444 128.663C16.4763 137.693 21.7538 153.689 27.675 167.879C29.2196 171.749 30.893 175.361 32.5664 178.715V178.844C35.1408 183.875 37.5865 188.132 40.0322 191.357C42.0917 194.066 44.1513 195.872 46.0821 196.388Z" fill="#00515B"/>
<path opacity="0.1" d="M46.0821 196.388C46.0821 196.388 42.864 197.678 36.9429 196.646C36.1706 196.517 35.2695 196.388 34.3685 196.13C32.0515 195.485 29.4771 194.582 26.6452 193.163C26.3878 193.034 26.0016 192.905 25.6155 192.647C25.6155 192.776 25.7442 193.163 25.8729 193.808C26.2591 195.098 26.9027 197.162 27.8037 200H22.9123C22.6549 198.968 22.5262 198.065 22.2687 197.162C21.8825 195.485 21.6251 193.937 21.3677 192.518C21.2389 191.486 21.1102 190.712 20.9815 189.938C20.5953 187.874 20.4666 186.713 20.4666 186.713L23.041 187.616L24.7144 188.261L29.6058 189.938L33.3387 191.228L37.3291 192.647C35.9131 191.615 34.3685 190.196 32.9525 188.519C32.6951 188.132 32.4377 187.874 32.1802 187.487C31.1504 186.068 30.1207 184.52 29.0909 182.843C28.9622 182.585 28.8335 182.327 28.576 182.069C26.9027 179.102 25.2293 175.748 23.6846 172.265C18.7932 161.171 14.6742 147.884 11.7136 137.048C11.3274 135.758 11.07 134.597 10.6838 133.436C10.5551 133.049 10.4264 132.662 10.4264 132.275C7.98069 123.116 6.56476 116.666 6.56476 116.666C6.56476 116.666 19.3081 119.891 20.7241 120.02C20.0805 119.375 18.922 118.343 17.2486 116.666C14.6742 113.699 7.33709 99.2505 0 83.7705V77.9655C0 78.0945 0.128721 78.2235 0.128721 78.2235C0.386163 78.6105 0.514884 78.9975 0.772325 79.2555L1.80209 81.0615C2.18825 81.7065 2.4457 82.3515 2.83186 82.9965C3.21802 83.6415 3.60418 84.4155 3.99035 85.0605C5.40628 87.6405 6.95093 90.3495 8.36686 92.8005C9.65407 94.9935 10.8126 97.1865 12.0998 99.2505C16.605 107.119 20.7241 113.957 23.9421 118.472C25.358 120.665 26.6452 122.213 27.675 123.245C27.9324 123.503 28.1899 123.761 28.4473 123.89C28.4473 123.89 23.6846 124.664 18.2784 123.761C15.9614 123.374 13.6444 122.6 11.4562 121.31C11.4562 121.31 12.2285 124.148 13.6444 128.663C16.4763 137.693 21.7538 153.689 27.675 167.879C29.2196 171.749 30.893 175.361 32.5664 178.715V178.844C35.1408 183.875 37.5865 188.132 40.0322 191.357C42.0917 194.066 44.1513 195.872 46.0821 196.388Z" fill="#8CA9A4"/>
<g clip-path="url(#clip1_16231_41060)">
<path opacity="0.1" d="M375 13.0786V192.238C374.018 191.535 373.176 190.972 372.193 190.129H364.055C362.371 191.394 360.687 192.519 359.003 193.644C355.355 196.035 351.566 198.004 347.777 199.551H300.348C300.488 199.41 300.769 199.129 300.909 198.847C302.874 196.597 304.698 193.785 306.522 190.691C306.803 190.269 307.084 189.707 307.364 189.285C307.505 189.004 307.785 188.582 307.926 188.16C309.188 185.91 310.451 183.378 311.574 180.847C311.855 180.285 312.135 179.722 312.416 179.16C314.942 173.535 317.187 167.769 319.011 162.706C319.151 162.284 319.292 161.722 319.432 161.3C320.695 157.784 321.677 154.69 322.519 152.159C322.659 151.878 322.659 151.597 322.8 151.315C322.94 150.753 323.08 150.19 323.221 149.768C323.361 149.347 323.501 148.925 323.642 148.503C323.782 148.081 323.922 147.8 323.922 147.518C323.922 147.237 324.063 147.097 324.063 146.815C324.203 146.534 324.203 146.253 324.203 146.253C323.642 146.534 322.94 146.956 322.379 147.097C321.958 147.378 321.397 147.518 320.976 147.659C320.555 147.94 320.134 148.081 319.713 148.222C318.871 148.503 318.029 148.925 317.187 149.065C316.766 149.206 316.345 149.347 315.924 149.487C315.503 149.628 315.082 149.768 314.801 149.768C314.38 149.909 314.1 149.909 313.679 150.05H313.538C312.977 150.19 312.416 150.19 311.855 150.331C311.714 150.331 311.714 150.331 311.574 150.331C311.293 150.331 311.013 150.472 310.732 150.472C306.663 150.753 304.558 149.909 304.558 149.909C305.4 149.628 306.382 149.065 307.364 148.362C307.785 148.081 308.206 147.659 308.627 147.237C309.329 146.534 310.171 145.55 310.872 144.565C311.153 144.284 311.434 143.862 311.574 143.581C311.855 143.159 312.135 142.737 312.416 142.456C312.697 142.175 312.837 141.753 313.118 141.471C313.398 141.05 313.538 140.628 313.819 140.346C314.1 140.065 314.38 139.503 314.521 139.081C317.608 133.737 320.835 126.846 323.642 119.674C323.922 119.112 324.063 118.409 324.343 117.846C325.326 115.315 326.308 112.783 327.15 110.393C328.272 107.299 329.395 104.205 330.377 101.252C330.658 100.549 330.798 99.9863 331.079 99.2832C331.36 98.4394 331.64 97.5957 331.921 96.7519C332.201 96.0488 332.342 95.205 332.622 94.5019C333.043 93.3769 333.324 92.3925 333.605 91.4081C336.13 83.3923 337.814 77.9078 337.814 77.9078C331.219 81.7048 321.818 80.1579 321.818 80.1579C329.114 74.9547 367.002 2.39091 368.124 0.140869C368.124 0.140869 368.405 0.844006 369.106 1.96903C369.247 2.39091 369.527 2.81279 369.808 3.23467C370.089 3.79718 370.369 4.35969 370.79 5.06283C370.931 5.20346 370.931 5.34408 371.071 5.62534C371.773 6.89099 372.474 8.29726 373.316 9.84416C373.597 10.4067 373.877 10.9692 374.158 11.5317C374.298 11.6723 374.298 11.8129 374.439 12.0942C374.439 12.0942 374.579 12.3755 374.719 12.6567C374.86 12.7973 374.86 12.938 375 13.0786Z" fill="#8CA9A4"/>
<path opacity="0.4" fill-rule="evenodd" clip-rule="evenodd" d="M375 70.8764V13.0786C374.86 12.8676 374.754 12.6567 374.667 12.4809C374.579 12.3051 374.509 12.1645 374.439 12.0942C374.385 11.9867 374.352 11.8998 374.324 11.8256C374.278 11.7055 374.245 11.6186 374.158 11.5317L373.316 9.84413C372.916 9.10925 372.548 8.40612 372.196 7.73472C371.807 6.99283 371.439 6.28969 371.071 5.62531C370.998 5.49814 370.928 5.37567 370.86 5.25728C370.403 4.45925 370.052 3.84694 369.808 3.23464C369.527 2.81276 369.247 2.39088 369.106 1.96899C367.984 9.7035 365.458 25.0319 363.213 30.5164C360.968 36.1415 366.861 58.22 375 70.8764ZM369.775 90.8211L369.775 90.8212C370.833 91.5647 372.468 92.7138 375 94.5014V106.455C371.211 98.2983 367.984 90.0013 367.843 89.4388C367.926 89.5217 368.253 89.7515 369.775 90.8211ZM370.229 136.831C371.352 137.815 373.035 138.378 375 138.659V146.675C370.374 140.765 366.803 135.855 364.705 132.97C363.557 131.392 362.85 130.42 362.651 130.221C362.932 130.221 364.756 131.768 370.229 136.831Z" fill="#008786"/>
<path opacity="0.1" fill-rule="evenodd" clip-rule="evenodd" d="M375 82.2668V78.7511C370.089 75.2354 366.44 69.8916 364.897 63.9852C363.072 65.8837 361.213 67.7822 359.354 69.6806C357.495 71.5791 355.635 73.4776 353.811 75.376C355.495 72.7041 357.179 69.8916 358.722 67.2197C356.337 71.0166 353.11 74.251 349.461 76.7823C342.585 81.423 354.092 80.4386 354.513 78.8917C354.302 79.6652 354.057 80.4035 353.811 81.1418C353.566 81.8801 353.32 82.6184 353.11 83.3918L363.634 74.1104C364.476 77.2042 366.861 79.8761 369.808 81.2824C371.492 81.9855 373.176 82.2668 375 82.2668ZM361.063 176.72C365.717 178.092 370.312 179.446 375 180.706C367.002 176.909 360.968 169.034 359.845 160.315C357.039 164.112 353.39 167.065 349.181 169.034C350.864 165.096 350.864 160.315 349.04 156.378C348.599 157.115 348.138 157.853 347.675 158.593C346.374 160.675 345.061 162.777 344.129 164.956C343.785 165.76 343.511 166.565 343.241 167.36C342.849 168.51 342.465 169.64 341.884 170.722C340.2 173.675 338.516 176.628 336.692 179.44C335.88 180.559 335.142 181.751 334.424 182.91C334.149 183.354 333.877 183.793 333.605 184.222L330.658 188.862C331.046 188.707 331.422 188.562 331.794 188.42C332.77 188.045 333.712 187.684 334.727 187.175C336.131 186.472 337.534 185.769 338.797 184.925C343.708 181.831 348.198 177.753 351.426 172.831C350.724 174.308 350.023 175.749 349.321 177.19C348.619 178.632 347.918 180.073 347.216 181.55C348.614 181.016 349.601 179.755 350.583 178.501C351.67 177.112 352.75 175.732 354.373 175.362C355.344 175.119 356.42 175.402 357.42 175.665C357.576 175.706 357.729 175.746 357.881 175.784C358.946 176.097 360.006 176.409 361.063 176.72Z" fill="#8CA9A4"/>
<path opacity="0.2" d="M323.782 141.612C321.677 143.44 332.201 141.612 332.201 141.612C332.201 141.612 329.395 158.768 323.642 175.784C322.239 179.863 320.695 183.8 319.011 187.597C317.047 192.097 314.801 196.175 312.276 199.55H300.348C300.488 199.41 300.769 199.129 300.909 198.847C302.874 196.597 304.698 193.785 306.522 190.691C306.803 190.269 307.084 189.707 307.364 189.285C307.505 189.003 307.785 188.581 307.926 188.16C309.188 185.91 310.451 183.378 311.574 180.847C311.855 180.284 312.135 179.722 312.416 179.159C314.942 173.534 317.187 167.769 319.011 162.706C319.151 162.284 319.292 161.722 319.432 161.3C320.695 157.784 321.677 154.69 322.519 152.159C322.659 151.878 322.659 151.596 322.8 151.315C322.94 150.753 323.08 150.19 323.221 149.768C323.361 149.346 323.501 148.925 323.642 148.503C323.782 148.081 323.922 147.8 323.922 147.518C323.922 147.237 324.063 147.096 324.063 146.815C324.203 146.534 324.203 146.253 324.203 146.253C323.642 146.534 322.94 146.956 322.379 147.096C321.958 147.378 321.397 147.518 320.976 147.659C320.555 147.94 320.134 148.081 319.713 148.221C318.871 148.503 318.029 148.925 317.187 149.065C316.766 149.206 316.345 149.346 315.924 149.487C315.503 149.628 315.082 149.768 314.801 149.768C314.38 149.909 314.1 149.909 313.679 150.05H313.538C312.977 150.19 312.416 150.19 311.855 150.331C311.714 150.331 311.714 150.331 311.574 150.331C311.293 150.331 311.013 150.471 310.732 150.471C306.663 150.753 304.558 149.909 304.558 149.909C305.4 149.628 306.382 149.065 307.364 148.362C307.785 148.081 308.206 147.659 308.627 147.237C309.329 146.534 310.171 145.55 310.872 144.565C311.153 144.284 311.434 143.862 311.574 143.581C311.855 143.159 312.135 142.737 312.416 142.456C312.697 142.174 312.837 141.753 313.118 141.471C313.398 141.049 313.679 140.628 313.819 140.346C314.1 139.924 314.38 139.503 314.521 139.081C317.608 133.737 320.835 126.846 323.642 119.674C323.922 119.112 324.063 118.408 324.343 117.846C325.326 115.315 326.308 112.783 327.15 110.393C328.272 107.299 329.395 104.205 330.377 101.252C330.658 100.549 330.798 99.9862 331.079 99.2831C331.36 98.4393 331.64 97.5956 331.921 96.7518C332.201 96.0487 332.342 95.2049 332.622 94.5018C333.043 93.3767 333.324 92.3923 333.605 91.408C336.13 83.3922 337.814 77.9077 337.814 77.9077C331.219 81.7047 321.818 80.1578 321.818 80.1578C329.114 74.9545 367.002 2.39079 368.124 0.140747C367.563 1.82828 348.339 55.2667 342.866 62.0168C337.253 68.9076 336.271 70.7357 336.271 70.7357L341.182 76.7827L343.147 79.1734L345.813 82.4078C345.813 82.5484 325.887 139.784 323.782 141.612Z" fill="#00515B"/>
</g>
</g>
<defs>
<linearGradient id="paint0_linear_16231_41060" x1="197.32" y1="0" x2="197.32" y2="193.886" gradientUnits="userSpaceOnUse">
<stop stop-color="#008786"/>
<stop offset="1" stop-color="#00515B"/>
</linearGradient>
<clipPath id="clip0_16231_41060">
<rect width="375" height="194" fill="white"/>
</clipPath>
<clipPath id="clip1_16231_41060">
<rect width="74.6518" height="199.691" fill="white" transform="translate(300.348)"/>
</clipPath>
</defs>
</svg>
