<svg width="375" height="101" viewBox="0 0 375 101" fill="none" xmlns="http://www.w3.org/2000/svg">
<g opacity="0.3">
<mask id="mask0_15997_31981" style="mask-type:luminance" maskUnits="userSpaceOnUse" x="0" y="0" width="375" height="101">
<path d="M375 0H0V101H375V0Z" fill="white"/>
</mask>
<g mask="url(#mask0_15997_31981)">
<path d="M73 93L110.922 32.6424L154.143 66.7829L165.71 58.743L196.736 73.8907L215.298 60.2578L232.694 67.1325L266.051 24.6025L339 93H289.634H88.7734H73Z" fill="#A7C8D9"/>
<path d="M129.931 64.1031L153.963 81.115L174.318 72.6091L220.677 85.4263L250.447 59.6753L282.549 93.0001H110.921" fill="#7CACC2"/>
<path d="M277.171 55.7143H277.081C276.902 54.6656 276.722 53.7334 276.543 52.6848C276.095 50.3544 275.646 48.1405 275.019 45.8101C275.198 45.577 275.467 45.4605 275.646 45.2275C275.826 44.9944 275.915 44.7614 276.184 44.5283C276.453 44.1788 276.722 43.7127 276.991 43.3631C277.26 43.0136 277.44 42.5475 277.619 42.0814C277.798 41.7318 277.888 41.4988 277.978 41.1492C278.067 40.6832 278.157 40.2171 278.157 39.751C278.157 39.2849 278.067 38.7023 277.978 38.2362C277.709 37.3041 277.26 36.3719 276.991 35.4397C276.722 34.5076 276.722 33.4589 276.633 32.5267C276.543 31.8276 276.543 31.012 276.453 30.3129C276.274 29.2642 275.915 28.332 275.377 27.2833C275.019 26.4677 274.57 25.7686 274.122 25.0694C273.763 24.4868 273.405 24.0207 273.136 23.4381C273.046 23.6712 272.956 23.9042 272.867 24.1373C272.777 24.3703 272.687 24.6034 272.598 24.8364C272.598 24.9529 272.418 24.9529 272.329 24.9529C272.329 24.8364 272.239 24.7199 272.329 24.7199C272.598 24.2538 272.777 23.6712 273.046 23.2051C272.598 22.2729 272.06 21.3408 271.521 20.4086C271.252 19.826 270.983 19.2434 270.535 18.7773C270.266 18.4278 269.907 18.0782 269.728 17.7287C269.549 17.6121 269.369 17.3791 269.19 17.2626C268.742 16.913 268.293 16.5634 267.755 16.2139C266.321 15.3982 264.707 14.6991 263.003 14.3496C262.734 14.233 262.375 14.233 262.196 14C262.106 14 262.016 14 261.927 14.1165C262.016 14.3496 261.837 14.5826 261.747 14.8156C261.209 15.9809 260.851 17.1461 260.582 18.3113C260.402 19.1269 260.223 19.826 260.313 20.6417C260.313 20.9912 260.402 21.2243 260.402 21.5738C260.492 21.8069 260.492 22.0399 260.582 22.1564C260.671 22.506 260.761 22.8555 260.851 23.2051C261.03 23.7877 261.299 24.2538 261.568 24.8364C261.837 25.419 262.016 26.0016 262.285 26.5842C262.465 27.0503 262.734 27.6329 262.824 28.099C263.093 28.9146 263.182 29.7302 263.451 30.4294C263.631 31.012 263.81 31.5946 263.989 32.0607C264.527 32.1772 265.155 32.4102 265.693 32.5267C265.783 32.5267 265.872 32.7598 265.783 32.8763C265.603 32.9928 265.514 32.8763 265.334 32.8763C264.976 32.7598 264.527 32.6433 264.169 32.5267C264.348 32.8763 264.527 33.3424 264.707 33.6919C265.155 34.6241 265.783 35.3232 266.321 36.1389C266.859 36.9545 267.397 37.7702 267.755 38.5858C268.204 39.6345 268.293 40.6832 268.742 41.7318C268.921 42.0814 269.011 42.3144 269.19 42.664C269.459 43.1301 269.728 43.4796 270.087 43.8292C270.356 44.0623 270.714 44.2953 271.073 44.5283C271.342 44.6449 271.521 44.8779 271.791 44.9944C272.149 45.1109 272.418 45.344 272.777 45.4605C272.956 45.577 273.136 45.577 273.315 45.6935C273.494 45.8101 273.674 45.9266 273.853 45.9266C274.122 46.0431 274.391 46.1596 274.75 46.1596C275.557 49.4222 276.184 52.6848 276.722 55.9473C276.633 56.0639 277.081 64.3368 277.171 64.4533C276.184 55.9473 277.888 64.9194 277.978 64.9194C278.067 64.8029 278.247 64.8029 278.336 64.8029C278.426 64.6864 277.529 55.9473 277.619 55.9473C277.26 55.9473 277.171 55.8308 277.171 55.7143Z" fill="#9F8479"/>
<path d="M268.293 36.2554L273.046 38.1197C271.611 32.7598 269.1 27.3998 266.858 22.9721L265.513 25.0694L265.334 20.0591C263.272 16.4469 261.747 14 261.747 14C261.837 14.233 261.658 14.4661 261.568 14.6991C261.03 15.8643 260.671 17.0295 260.402 18.1947C260.223 19.0104 260.044 19.7095 260.133 20.5251C260.133 20.8747 260.223 21.1077 260.223 21.4573C260.313 21.6903 260.313 21.9234 260.402 22.0399C260.492 22.3895 260.582 22.739 260.671 23.0886C260.851 23.6712 261.12 24.1373 261.389 24.7199C261.658 25.3025 261.837 25.8851 262.106 26.4677C262.285 26.9338 262.554 27.5164 262.644 27.9824C262.913 28.7981 263.003 29.6137 263.272 30.3129C263.451 30.8955 263.63 31.4781 263.81 31.9441C264.348 32.0607 264.975 32.2937 265.513 32.4102C265.603 32.4102 265.693 32.6433 265.603 32.7598C265.424 32.8763 265.334 32.7598 265.155 32.7598C264.796 32.6433 264.348 32.5267 263.989 32.4102C264.168 32.7598 264.348 33.2259 264.527 33.5754C264.975 34.5076 265.603 35.2067 266.141 36.0224C266.679 36.838 267.217 37.6536 267.576 38.4693C268.024 39.518 268.114 40.5667 268.562 41.6153C268.742 41.9649 268.831 42.1979 269.011 42.5475C269.28 43.0136 269.549 43.3631 269.907 43.7127C270.176 43.9457 270.535 44.1788 270.894 44.4118C271.163 44.5283 271.342 44.7614 271.611 44.8779C271.97 44.9944 272.239 45.2275 272.597 45.344C272.777 45.4605 272.956 45.4605 273.135 45.577C273.315 45.6935 273.494 45.8101 273.673 45.8101C273.942 45.9266 274.211 46.0431 274.57 46.0431C274.57 44.5283 274.391 42.8971 274.032 41.2658C272.328 40.1006 268.293 36.2554 268.293 36.2554Z" fill="#856E65"/>
<path d="M266.947 87.4079C266.499 86.8253 266.14 86.3592 265.692 85.7766C264.795 84.6114 263.808 83.3297 262.822 82.281C262.912 82.048 263.001 81.8149 263.001 81.5819C263.091 81.3488 263.091 81.1158 263.091 80.8828C263.181 80.5332 263.181 80.1836 263.27 79.8341C263.36 79.4845 263.36 79.1349 263.36 78.7854C263.36 78.5523 263.36 78.3193 263.36 78.0863C263.27 77.7367 263.181 77.3871 263.091 77.1541C263.001 76.8045 262.732 76.5715 262.553 76.3385C262.105 75.8724 261.567 75.5228 261.118 75.0567C260.67 74.5907 260.401 74.008 260.042 73.4254C259.773 72.9594 259.594 72.4933 259.325 72.1437C258.877 71.5611 258.428 71.095 257.801 70.7455C257.352 70.3959 256.904 70.1629 256.366 69.9298C256.007 69.8133 255.649 69.5803 255.29 69.3472C255.29 69.5803 255.29 69.6968 255.29 69.9298C255.29 70.1629 255.29 70.2794 255.29 70.5124C255.29 70.629 255.2 70.629 255.11 70.7455C255.021 70.7455 255.021 70.629 255.021 70.629C255.021 70.1629 255.021 69.8133 255.021 69.3472C254.483 68.9977 253.855 68.6481 253.317 68.2985C252.958 68.0655 252.6 67.8325 252.241 67.7159C251.972 67.5994 251.703 67.5994 251.434 67.4829C251.255 67.4829 251.075 67.4829 250.986 67.4829C250.627 67.4829 250.179 67.4829 249.82 67.4829C248.654 67.716 247.489 68.0655 246.323 68.5316C246.143 68.6481 245.874 68.7646 245.695 68.7646C245.605 68.7646 245.605 68.8812 245.605 68.8812C245.695 68.9977 245.695 69.2307 245.695 69.4638C245.695 70.3959 245.785 71.3281 245.964 72.1437C246.054 72.7263 246.143 73.3089 246.412 73.6585C246.502 73.8915 246.592 74.0081 246.682 74.2411C246.771 74.3576 246.861 74.4741 246.951 74.5907C247.13 74.8237 247.22 74.9402 247.399 75.1733C247.668 75.4063 248.027 75.6393 248.296 75.8724C248.565 76.1054 248.923 76.3385 249.192 76.688C249.461 76.9211 249.73 77.1541 249.999 77.3871C250.358 77.7367 250.627 78.2028 250.986 78.5523C251.255 78.7854 251.524 79.1349 251.793 79.368C252.151 79.2515 252.6 79.0184 252.958 78.9019C253.048 78.9019 253.138 79.0184 253.048 79.0184C252.958 79.1349 252.869 79.1349 252.779 79.2515C252.51 79.368 252.241 79.4845 251.972 79.601C252.151 79.7176 252.42 79.9506 252.6 80.0671C253.138 80.4167 253.765 80.6497 254.303 80.7662C254.841 80.9993 255.469 81.2323 255.918 81.5819C256.456 82.048 256.814 82.6306 257.442 83.0966C257.621 83.2132 257.801 83.3297 257.98 83.4462C258.249 83.5627 258.518 83.6792 258.877 83.6792C259.146 83.6792 259.415 83.6792 259.684 83.6792C259.863 83.6792 260.042 83.6792 260.311 83.5627C260.58 83.4462 260.849 83.4462 261.029 83.4462C261.118 83.4462 261.298 83.3297 261.387 83.3297C261.567 83.3297 261.656 83.2132 261.836 83.2132C262.015 83.0966 262.284 83.0966 262.463 82.9801C263.898 84.6114 265.154 86.3592 266.409 88.107C266.409 88.2235 269.009 93.2339 269.009 93.2339C266.05 88.4566 269.637 93.2339 269.637 93.1174C269.637 93.0009 269.727 92.8844 269.816 92.8844C269.816 92.7678 266.857 87.7575 266.857 87.7575C267.037 87.4079 267.037 87.4079 266.947 87.4079Z" fill="#547884"/>
<path d="M245.785 69.2302C245.785 70.1624 245.875 71.0946 246.054 71.9102C246.144 72.4928 246.233 73.0754 246.502 73.425C246.592 73.658 246.682 73.7745 246.771 74.0076C246.861 74.1241 246.951 74.2406 247.04 74.3571C247.22 74.5902 247.309 74.7067 247.489 74.9397C247.758 75.1728 248.116 75.4058 248.385 75.6389C248.654 75.8719 249.013 76.1049 249.282 76.4545C249.551 76.6875 249.82 76.9206 250.089 77.1536C250.448 77.5032 250.717 77.9693 251.076 78.3188C251.345 78.5519 251.614 78.9014 251.883 79.1345C252.241 79.018 252.69 78.7849 253.048 78.6684C253.138 78.6684 253.228 78.7849 253.138 78.7849C253.048 78.9014 252.959 78.9014 252.869 79.018C252.6 79.1345 252.331 79.251 252.062 79.3675C252.241 79.484 252.51 79.7171 252.69 79.8336C253.228 80.1832 253.855 80.4162 254.393 80.5327C254.931 80.7658 255.559 80.9988 256.007 81.3484C256.545 81.8144 256.904 82.397 257.532 82.8631C257.711 82.9796 257.89 83.0962 258.07 83.2127C258.339 83.3292 258.608 83.4457 258.966 83.4457C259.235 83.4457 259.504 83.4457 259.773 83.4457C259.953 83.4457 260.132 83.4457 260.401 83.3292C260.67 83.2127 260.939 83.2127 261.119 83.2127C261.208 83.2127 261.388 83.0962 261.477 83.0962C261.657 83.0962 261.746 82.9796 261.926 82.9796C262.105 82.8631 262.374 82.8631 262.553 82.7466C258.787 74.7067 245.695 68.7642 245.695 68.7642C245.785 68.7642 245.785 68.9972 245.785 69.2302Z" fill="#3C6D7D"/>
<path d="M57.7464 68.8812C58.1051 68.0656 58.2844 67.2499 58.5534 66.4343C59.1811 64.57 59.8088 62.7056 60.5262 60.8413C60.3468 60.6083 60.2571 60.4917 60.0778 60.2587C59.9881 60.0257 59.8985 59.7926 59.7191 59.5596C59.4501 59.21 59.3604 58.7439 59.1811 58.3944C59.0018 58.0448 58.9121 57.5787 58.7328 57.2292C58.6431 56.9961 58.5534 56.6466 58.5534 56.4135C58.4638 55.9474 58.5534 55.5979 58.5534 55.1318C58.5534 54.6657 58.7328 54.3162 58.9121 53.8501C59.2708 53.0344 59.7191 52.4518 60.0778 51.6362C60.3468 50.8205 60.5262 50.0049 60.7055 49.1893C60.7952 48.6067 60.8848 47.9075 61.0642 47.3249C61.3332 46.5093 61.7815 45.6936 62.2299 44.9945C62.6782 44.4119 63.0369 43.8293 63.5749 43.3632C63.9336 43.0137 64.2923 42.5476 64.5613 42.198C64.651 42.4311 64.651 42.6641 64.7407 42.8972C64.8303 43.1302 64.8303 43.3632 64.92 43.5963C64.92 43.7128 65.0993 43.7128 65.0993 43.7128C65.189 43.5963 65.189 43.5963 65.189 43.4798C65.0097 43.0137 64.92 42.5476 64.7407 41.965C65.2787 41.2659 65.8167 40.5668 66.3547 39.8676C66.6237 39.4016 66.9824 39.052 67.3411 38.5859C67.6101 38.3529 67.8791 38.1198 68.1481 37.8868C68.3274 37.7703 68.5068 37.6537 68.6861 37.5372C69.1345 37.3042 69.4932 37.0711 70.0312 36.9546C71.3762 36.4885 72.811 36.2555 74.3353 36.139C74.6044 36.139 74.8734 36.139 75.0527 36.0225C75.1424 36.0225 75.1424 36.139 75.232 36.139C75.1424 36.372 75.232 36.6051 75.3217 36.7216C75.5907 37.7703 75.8597 38.819 75.9494 39.8676C76.0391 40.5668 76.0391 41.2659 75.9494 41.8485C75.9494 42.0815 75.8597 42.3146 75.8597 42.6641C75.7701 42.7806 75.7701 43.0137 75.6804 43.1302C75.5907 43.3632 75.5011 43.7128 75.3217 43.9458C75.1424 44.4119 74.7837 44.7615 74.6044 45.2276C74.3353 45.6937 74.0663 46.1597 73.7973 46.6258C73.5283 46.9754 73.349 47.4415 73.1696 47.791C72.9006 48.3736 72.7213 49.0727 72.4523 49.6553C72.2729 50.1214 72.0039 50.5875 71.8246 51.0536C71.2866 51.0536 70.8382 51.1701 70.3002 51.1701C70.2105 51.1701 70.1209 51.2866 70.2105 51.4031C70.3002 51.5197 70.4795 51.4031 70.5692 51.4031C70.9279 51.4031 71.2866 51.2866 71.6452 51.2866C71.4659 51.6362 71.2866 51.8692 71.1072 52.2188C70.6589 52.9179 70.0312 53.384 69.4932 53.9666C68.9551 54.5492 68.4171 55.1318 67.9688 55.8309C67.5204 56.6466 67.2514 57.5787 66.8031 58.3944C66.6237 58.6274 66.5341 58.8605 66.265 59.0935C65.996 59.4431 65.727 59.6761 65.3683 59.9091C65.0993 60.1422 64.7407 60.2587 64.4716 60.3752C64.2026 60.4917 64.0233 60.6083 63.7543 60.6083C63.4853 60.7248 63.1266 60.7248 62.8576 60.8413C62.6782 60.8413 62.4989 60.9578 62.4092 60.9578C62.2299 60.9578 62.0505 61.0743 61.9609 61.0743C61.6919 61.0743 61.4229 61.0743 61.1539 61.0743C60.1675 63.7543 59.1811 66.4343 58.4638 69.1142C58.5534 69.2308 57.298 76.222 57.2084 76.3385C58.9121 69.3473 56.491 76.6881 56.491 76.6881C56.4013 76.5716 56.3117 76.5716 56.1323 76.5716C56.0427 76.455 57.7464 69.2308 57.7464 69.1142C57.6567 68.9977 57.6567 68.8812 57.7464 68.8812Z" fill="#547884"/>
<path d="M75.412 36.6044C75.681 37.6531 75.95 38.7018 76.0397 39.7504C76.1294 40.4496 76.1294 41.1487 76.0397 41.7313C76.0397 41.9643 75.95 42.1974 75.95 42.5469C75.8604 42.6635 75.8604 42.8965 75.7707 43.013C75.681 43.2461 75.5913 43.5956 75.412 43.8287C75.2327 44.2947 74.874 44.6443 74.6946 45.1104C74.4256 45.5765 74.1566 46.0425 73.8876 46.5086C73.6186 46.8582 73.4393 47.3243 73.2599 47.6738C72.9909 48.2564 72.8116 48.9556 72.5426 49.5382C72.3632 50.0042 72.0942 50.4703 71.9149 50.9364C71.3769 50.9364 70.9285 51.0529 70.3905 51.0529C70.3008 51.0529 70.2111 51.1694 70.3008 51.286C70.3905 51.4025 70.5698 51.286 70.6595 51.286C71.0182 51.286 71.3769 51.1694 71.7355 51.1694C71.5562 51.519 71.3769 51.752 71.1975 52.1016C70.7492 52.8007 70.1215 53.2668 69.5834 53.8494C69.0454 54.432 68.5074 55.0146 68.0591 55.7137C67.6107 56.5294 67.3417 57.4615 66.8933 58.2772C66.714 58.5102 66.6243 58.7433 66.3553 58.9763C66.0863 59.3259 65.8173 59.5589 65.4586 59.7919C65.1896 60.025 64.8309 60.1415 64.5619 60.258C64.2929 60.3745 64.1136 60.4911 63.8446 60.4911C63.5756 60.6076 63.2169 60.6076 62.9479 60.7241C62.7685 60.7241 62.5892 60.8406 62.4995 60.8406C62.3202 60.8406 62.1408 60.9571 62.0512 60.9571C61.7822 60.9571 61.5132 60.9571 61.2441 60.9571C62.7685 49.8877 75.412 35.9053 75.412 35.9053C75.2327 36.2548 75.3223 36.3714 75.412 36.6044Z" fill="#3C6D7D"/>
<path d="M277.08 86.7084C277.349 64.453 286.227 43.3628 286.227 43.3628C276.273 52.8009 273.135 78.5519 272.238 88.3396C268.024 71.9103 270.803 50.2375 270.803 50.2375C264.168 65.5016 269.458 93.0004 269.458 93.0004H279.591C282.909 79.6006 292.234 71.9103 292.234 71.9103C285.42 71.0946 279.232 82.3971 277.08 86.7084Z" fill="#9F8479"/>
<path d="M113.611 86.7084C113.88 64.453 122.758 43.3628 122.758 43.3628C112.804 52.8009 109.666 78.5519 108.769 88.3396C104.555 71.9103 107.335 50.2375 107.335 50.2375C100.699 65.5016 105.99 93.0004 105.99 93.0004H116.122C119.44 79.6006 128.766 71.9103 128.766 71.9103C121.951 71.0946 115.764 82.3971 113.611 86.7084Z" fill="#9F8479"/>
<path d="M321.556 47.2083C321.287 46.3927 321.018 45.6936 320.659 44.8779C321.018 45.6936 321.287 46.5092 321.556 47.2083Z" fill="#547884"/>
<path d="M375.09 93.0003V71.6771C371.593 64.9189 367.378 58.7433 363.164 52.6843C367.826 59.0929 370.158 68.1815 369.53 76.9205C368.634 73.0753 367.378 69.4632 366.033 65.8511C365.585 70.978 365.136 76.2214 364.688 81.3483C363.253 75.8718 361.729 70.3954 360.294 64.9189C357.694 72.4928 355.452 80.4161 353.748 88.3395C350.341 80.4161 349.085 70.8615 350.43 61.8894C345.947 68.8806 342.988 77.5031 342.001 86.5917C341.015 84.2613 340.118 81.8144 339.132 79.484C338.773 81.1153 338.325 82.63 337.608 84.0283C336.532 81.5813 335.635 78.9014 335.007 76.1049C334.111 79.1344 333.124 82.1639 332.227 85.1935C329.717 72.0267 326.13 59.3259 321.557 47.0913C325.502 58.3938 326.668 71.4441 324.695 83.5622C321.198 75.2892 318.777 66.3172 317.432 56.9955C315.28 66.8998 323.35 75.8718 320.75 85.543C318.777 82.2805 308.196 89.3882 304.699 85.7761C301.022 81.8144 304.609 67.0163 304.878 62.5885C302.457 69.5797 301.022 77.1536 300.574 84.8439C299.229 82.63 297.974 80.4161 296.628 78.3188C296.18 80.1831 296.001 82.1639 296.18 84.1448C295.194 80.9987 294.297 77.8527 293.311 74.7066C292.773 79.1344 292.235 83.4457 291.786 87.8734C291.966 76.3379 290.262 64.6859 286.765 54.0825C287.572 59.2094 287.841 64.4528 287.482 69.5797C287.213 74.124 286.496 78.7848 285.33 82.9796C284.792 84.8439 284.164 86.5917 283.178 87.99C282.461 88.9221 281.654 89.7378 280.936 90.6699C280.398 91.2525 280.04 91.9516 279.771 92.7673H375.09V93.0003Z" fill="#9F8479"/>
<path d="M48.8703 47.2078C48.6013 46.3922 48.3323 45.6931 47.9736 44.8774C48.3323 45.6931 48.6013 46.5087 48.8703 47.2078Z" fill="#547884"/>
<path d="M106.169 93.0005L102.403 71.6773C96.6643 54.7818 93.9742 59.4427 90.4771 52.6845C98.6371 68.1817 97.4714 68.1817 96.8437 76.9207C95.947 73.0755 94.6916 69.4634 93.3465 65.8513C93.1672 68.2982 92.0912 80.8824 90.1184 85.1936C87.9663 89.971 87.1593 86.7084 86.8903 89.3884C85.4556 83.9119 89.0424 70.3956 87.6077 64.9191C85.0072 72.4929 82.7655 80.4163 81.0618 88.3397C77.6543 80.4163 76.3989 70.8616 77.744 61.8896C72.6328 84.4945 74.9642 78.319 73.9778 87.4075C73.5295 86.2423 73.1708 87.9901 71.6464 86.5919C69.9427 85.1936 66.6249 78.0859 66.0869 76.9207C65.7282 78.552 65.1902 81.465 64.4728 82.8632C63.3968 80.4163 62.9484 78.9015 62.4104 76.1051C61.5137 79.1346 60.5273 82.1641 59.6306 85.1936C54.5194 61.0739 48.5115 61.0739 48.8702 47.208C48.2425 68.6478 53.9814 71.5608 52.0087 83.6789C48.5115 75.4059 46.0904 66.4339 44.7454 57.1122C46.5388 82.0476 50.6636 75.9885 48.0632 85.6597C46.0904 82.3972 35.5094 89.5049 32.0122 85.8928C28.3358 81.9311 31.9226 67.133 32.1916 62.7052C29.7705 69.6964 28.3358 77.2703 27.8874 84.9606C26.5424 82.7467 25.287 80.5328 23.9419 78.4355C23.4936 80.2998 23.3143 82.2806 23.4936 84.2615C22.5072 81.1154 21.6105 77.9694 20.6242 74.8233C20.0861 79.2511 19.5481 83.5624 19.0998 87.9901C19.2791 76.4546 17.5754 64.8026 14.0782 54.1992C14.8853 59.3261 15.1543 64.5695 14.7956 69.6964C14.5266 74.2407 13.8092 78.9015 12.6435 83.0963C12.1055 84.9606 11.4778 86.7084 10.4914 88.1067C9.77409 89.0388 8.96705 89.8545 8.24969 90.7866C7.71167 91.3692 7.35299 92.0684 7.08398 92.884H106.169V93.0005Z" fill="#9F8479"/>
<path d="M295.821 55.0145C296 56.0632 296.449 56.9953 297.077 57.6945C298.242 59.0927 299.767 60.0249 301.381 59.9083C302.008 59.9083 302.546 59.4423 302.995 59.0927C303.622 58.5101 304.34 58.044 304.967 57.6945C305.147 57.5779 305.416 57.6945 305.595 57.811C305.954 57.9275 306.313 58.044 306.582 58.3936C307.299 59.4423 307.927 60.6075 308.644 61.7727C309.451 63.0544 309.81 64.6857 310.168 66.317C309.72 65.9674 309.272 65.9674 308.734 65.7344C308.554 64.9187 308.106 64.2196 307.568 63.87C306.851 63.404 306.044 63.2874 305.326 63.2874C304.429 63.2874 303.533 63.2874 302.636 63.2874C302.008 63.2874 301.381 63.2874 300.663 63.2874C300.215 63.2874 299.856 63.7535 299.767 64.3361C299.498 66.0839 300.215 68.0648 301.381 68.9969C302.008 69.463 302.726 69.5795 303.443 69.463C304.429 69.3465 305.416 68.9969 306.313 68.2978C307.03 67.7152 307.658 67.0161 308.285 66.317C308.734 66.4335 309.182 66.55 309.541 66.6665C309.81 66.7831 309.989 67.0161 310.168 67.0161C310.437 69.6961 309.81 90.4367 309.63 93.2332C309.63 93.3497 309.63 93.5827 309.63 93.6992C309.72 93.9323 309.989 93.8158 309.989 93.5827C310.079 91.9514 310.706 72.376 310.706 70.7447C310.706 68.9969 310.617 67.2491 310.348 65.5013C310.079 64.4526 309.81 63.2874 309.361 62.3553C309.182 62.0057 309.003 61.6561 308.823 61.3066C308.823 60.4909 308.823 59.6753 308.823 58.9762C309.361 58.6266 309.899 58.2771 310.079 57.4614C310.168 56.7623 310.168 56.0632 310.168 55.4806C309.989 53.3832 309.541 51.4024 309.451 49.1885C309.361 48.0233 309.272 46.9746 309.092 45.8094C308.913 44.9937 308.465 44.5277 307.927 44.0616C307.658 43.8285 307.209 43.712 306.94 43.9451C306.671 44.0616 306.582 44.4111 306.492 44.7607C306.133 46.0424 305.954 47.3242 305.954 48.7224C305.954 50.0041 305.864 51.4024 306.044 52.6841C306.223 54.0823 306.851 55.2475 307.299 56.5293C307.568 57.2284 307.837 57.9275 308.106 58.6266C308.196 58.8597 308.375 58.7431 308.554 58.8597C308.554 59.4423 308.554 60.0249 308.554 60.6075C308.106 59.7918 307.658 58.9762 307.12 58.2771C306.044 56.7623 304.967 55.2475 303.891 53.6162C303.891 51.985 303.891 50.3537 303.622 48.8389C303.353 47.4407 302.726 46.1589 302.008 44.9937C301.291 43.712 300.484 42.4303 299.677 41.1486C299.139 40.3329 298.601 39.4008 297.884 38.7016C297.615 38.3521 297.256 38.0025 296.808 38.119C296.359 38.2356 296 38.7016 295.911 39.1677C295.731 39.9834 295.642 40.9155 295.731 41.7312C295.911 43.479 296.27 45.1103 296.897 46.625C297.525 48.0233 298.242 49.6546 299.229 50.5867C299.856 51.1693 300.484 51.7519 301.112 52.3345C301.829 52.8006 302.457 53.4997 303.174 53.9658C303.264 53.9658 303.443 54.0823 303.443 54.1988C304.16 55.2475 304.878 56.2962 305.595 57.2284C305.326 57.1119 304.967 56.9953 304.698 56.8788C304.16 55.9467 303.443 55.2475 302.636 55.0145C300.843 54.4319 299.049 53.8493 297.256 53.3832C296.808 53.2667 296.269 53.2667 295.821 53.7328C295.821 53.9658 295.821 54.5484 295.821 55.0145ZM298.96 48.8389C298.601 48.3728 298.332 47.6737 297.973 47.0911C297.794 46.625 297.525 46.2755 297.435 45.8094C297.794 46.5085 298.153 47.3242 298.511 48.0233C298.691 48.2563 298.78 48.6059 298.96 48.8389ZM299.677 49.7711C299.408 49.538 299.139 49.1885 298.96 48.8389C299.229 49.305 299.498 49.538 299.677 49.7711ZM308.644 58.044C308.375 57.3449 308.106 56.6458 307.837 55.9467C308.106 56.5293 308.465 57.1119 308.644 58.044C308.644 57.9275 308.644 57.9275 308.644 58.044ZM309.81 57.4614C309.899 57.1119 309.989 56.6458 309.989 56.2962C309.989 56.6458 309.989 57.1119 309.81 57.4614ZM300.932 63.7535C300.932 63.7535 300.843 63.87 300.753 63.87C300.753 63.87 300.663 63.87 300.663 63.7535C300.753 63.637 300.932 63.5205 300.932 63.7535ZM308.196 65.3848C308.196 65.2683 308.196 65.1518 308.196 65.1518C308.285 65.2683 308.285 65.6178 308.196 65.3848ZM296.449 55.131C296.718 55.8301 297.077 56.5293 297.435 57.1119C296.987 56.6458 296.628 55.9467 296.449 55.131ZM296.359 54.6649C296.359 54.4319 296.359 54.0823 296.628 53.9658C296.449 54.1989 296.359 54.4319 296.359 54.6649Z" fill="#547884"/>
<path d="M24.1209 51.7523C24.3003 52.801 24.7486 53.7331 25.3763 54.4323C26.542 55.8305 28.0664 56.7627 29.6805 56.6461C30.3082 56.6461 30.8462 56.1801 31.2945 55.8305C31.9222 55.2479 32.6396 54.7818 33.2673 54.4323C33.4466 54.3157 33.7156 54.4323 33.895 54.5488C34.2537 54.6653 34.6123 54.7818 34.8813 55.1314C35.5987 56.1801 36.2264 57.3453 36.9438 58.5105C37.7508 59.7922 38.1095 61.4235 38.4681 63.0548C38.0198 62.7052 37.5714 62.7052 37.0334 62.4722C36.8541 61.6565 36.4057 60.9574 35.8677 60.6078C35.1504 60.1418 34.3433 60.0252 33.626 60.0252C32.7293 60.0252 31.8326 60.0252 30.9359 60.0252C30.3082 60.0252 29.6805 60.0252 28.9631 60.0252C28.5148 60.0252 28.1561 60.4913 28.0664 61.0739C27.7974 62.8217 28.5148 64.8026 29.6805 65.7347C30.3082 66.2008 31.0255 66.3173 31.7429 66.2008C32.7293 66.0843 33.7156 65.7347 34.6123 65.0356C35.3297 64.453 35.9574 63.7539 36.5851 63.0548C37.0334 63.1713 37.4818 63.2878 37.8405 63.4043C38.1095 63.5208 38.2888 63.7539 38.4681 63.7539C38.7372 66.4339 38.1095 87.1745 37.9301 89.971C37.9301 90.0875 37.9301 90.3205 37.9301 90.437C38.0198 90.6701 38.2888 90.5536 38.2888 90.3205C38.3785 88.6892 39.0062 69.1138 39.0062 67.4825C39.0062 65.7347 38.9165 63.9869 38.6475 62.2391C38.3785 61.1904 38.1095 60.0252 37.6611 59.0931C37.4818 58.7435 37.3024 58.394 37.1231 58.0444C37.1231 57.2287 37.1231 56.4131 37.1231 55.714C37.6611 55.3644 38.1991 55.0149 38.3785 54.1992C38.4681 53.5001 38.4681 52.801 38.4681 52.2184C38.2888 50.121 37.8405 48.1402 37.7508 45.9263C37.6611 44.7611 37.5714 43.7124 37.3921 42.5472C37.2128 41.7315 36.7644 41.2655 36.2264 40.7994C35.9574 40.5663 35.509 40.4498 35.24 40.6829C34.971 40.7994 34.8813 41.1489 34.7917 41.4985C34.433 42.7802 34.2537 44.0619 34.2537 45.4602C34.2537 46.7419 34.164 48.1402 34.3433 49.4219C34.5227 50.8201 35.1504 51.9853 35.5987 53.2671C35.8677 53.9662 36.1367 54.6653 36.4057 55.3644C36.4954 55.5975 36.6747 55.4809 36.8541 55.5975C36.8541 56.1801 36.8541 56.7627 36.8541 57.3453C36.4057 56.5296 35.9574 55.714 35.4194 55.0149C34.3433 53.5001 33.2673 51.9853 32.1912 50.354C32.1912 48.7228 32.1912 47.0915 31.9222 45.5767C31.6532 44.1785 31.0255 42.8967 30.3082 41.7315C29.5908 40.4498 28.7838 39.1681 27.9768 37.8864C27.4387 37.0707 26.9007 36.1386 26.1834 35.4394C25.9143 35.0899 25.5557 34.7403 25.1073 34.8568C24.659 34.9734 24.3003 35.4394 24.2106 35.9055C24.0313 36.7212 23.9416 37.6533 24.0313 38.469C24.2106 40.2168 24.5693 41.8481 25.197 43.3628C25.8247 44.7611 26.542 46.3924 27.5284 47.3245C28.1561 47.9071 28.7838 48.4897 29.4115 49.0723C30.1288 49.5384 30.7565 50.2375 31.4739 50.7036C31.5636 50.7036 31.7429 50.8201 31.7429 50.9367C32.4603 51.9853 33.1776 53.034 33.895 53.9662C33.626 53.8497 33.2673 53.7331 32.9983 53.6166C32.4603 52.6845 31.7429 51.9853 30.9359 51.7523C29.1425 51.1697 27.3491 50.5871 25.5557 50.121C25.1073 50.0045 24.5693 50.0045 24.1209 50.4706C24.0313 50.7036 24.0313 51.2862 24.1209 51.7523ZM27.1697 45.5767C26.811 45.1106 26.542 44.4115 26.1834 43.8289C26.004 43.3628 25.735 43.0133 25.6453 42.5472C26.004 43.2463 26.3627 44.0619 26.7214 44.7611C26.9007 44.9941 26.9904 45.3437 27.1697 45.5767ZM27.9768 46.6254C27.7077 46.3924 27.4387 46.0428 27.2594 45.6932C27.5284 46.0428 27.7077 46.2758 27.9768 46.6254ZM36.8541 54.7818C36.5851 54.0827 36.3161 53.3836 36.0471 52.6845C36.4057 53.2671 36.7644 53.9662 36.8541 54.7818ZM38.0198 54.1992C38.1095 53.8497 38.1991 53.3836 38.1991 53.034C38.2888 53.3836 38.2888 53.8497 38.0198 54.1992ZM29.2321 60.4913C29.2321 60.4913 29.1425 60.6078 29.0528 60.6078C29.0528 60.6078 28.9631 60.6078 28.9631 60.4913C28.9631 60.3748 29.2321 60.3748 29.2321 60.4913ZM36.4057 62.2391C36.4057 62.1226 36.4057 62.0061 36.4057 62.0061C36.5851 62.0061 36.4954 62.3556 36.4057 62.2391ZM24.659 51.8688C24.928 52.5679 25.2867 53.2671 25.6453 53.8497C25.197 53.3836 24.8383 52.6845 24.659 51.8688ZM24.5693 51.5193C24.5693 51.2862 24.5693 50.9366 24.8383 50.8201C24.7486 50.9366 24.5693 51.1697 24.5693 51.5193Z" fill="#9F8479"/>
<path d="M367.826 60.9575C367.467 60.4914 366.929 60.6079 366.391 60.6079C364.598 61.074 362.804 61.6566 361.011 62.2392C360.204 62.5888 359.486 63.2879 358.948 64.1035C358.679 64.22 358.321 64.3366 358.052 64.4531C358.769 63.4044 359.486 62.4722 360.204 61.4236C360.293 61.307 360.383 61.307 360.473 61.1905C361.19 60.7244 361.818 60.0253 362.535 59.5592C363.163 59.0932 363.791 58.5105 364.418 57.8114C365.494 56.7627 366.122 55.248 366.75 53.8497C367.377 52.335 367.736 50.7037 367.915 48.9559C368.005 48.1402 368.005 47.2081 367.736 46.3924C367.557 45.8098 367.288 45.3438 366.839 45.3438C366.391 45.3438 366.122 45.5768 365.763 45.9264C365.136 46.6255 364.598 47.5576 363.97 48.3733C363.163 49.655 362.446 50.9367 361.639 52.2185C361.011 53.3837 360.293 54.6654 360.024 56.0636C359.755 57.6949 359.666 59.2097 359.755 60.841C358.679 62.3557 357.603 63.8705 356.527 65.5018C355.989 66.2009 355.541 67.1331 355.093 67.8322C355.093 67.2496 355.093 66.667 355.093 66.0844C355.272 66.0844 355.451 66.0844 355.541 65.8513C355.81 65.1522 356.079 64.4531 356.348 63.754C356.796 62.4722 357.334 61.307 357.603 59.9088C357.783 58.6271 357.693 57.2288 357.693 55.9471C357.603 54.6654 357.424 53.2671 357.155 51.9854C357.065 51.6358 356.976 51.2863 356.707 51.1698C356.348 50.9367 355.989 51.1698 355.72 51.2863C355.182 51.6358 354.734 52.2185 354.555 53.0341C354.286 54.0828 354.286 55.248 354.196 56.4132C354.106 58.5106 353.568 60.6079 353.479 62.7053C353.479 63.4044 353.389 64.1035 353.568 64.6861C353.748 65.3853 354.286 65.8513 354.824 66.2009C354.824 67.0165 354.824 67.8322 354.824 68.5313C354.734 68.8809 354.465 69.2304 354.286 69.58C353.837 70.5122 353.568 71.6774 353.299 72.726C352.941 74.4738 352.851 76.2216 352.941 77.9695C352.941 79.6007 353.568 99.1762 353.658 100.807C353.658 101.04 353.927 101.157 354.017 100.924C354.106 100.807 354.017 100.574 354.017 100.458C353.927 97.7779 353.21 77.0373 353.479 74.2408C353.748 74.1243 353.927 73.8912 354.106 73.8912C354.555 73.6582 355.003 73.6582 355.362 73.5417C355.989 74.2408 356.617 74.9399 357.334 75.5225C358.141 76.2216 359.128 76.5712 360.204 76.6877C360.921 76.8043 361.639 76.6877 362.266 76.2216C363.432 75.2895 364.149 73.3086 363.88 71.5608C363.791 70.9782 363.432 70.5121 362.984 70.5121C362.356 70.5121 361.728 70.5121 361.011 70.5121C360.114 70.5121 359.217 70.5121 358.321 70.5121C357.514 70.6287 356.707 70.6287 356.079 71.0947C355.541 71.4443 355.093 72.1434 354.913 72.9591C354.465 73.0756 353.927 73.1921 353.479 73.5417C353.748 71.9104 354.196 70.3956 355.003 68.9974C355.631 67.8322 356.258 66.667 357.065 65.6183C357.334 65.2687 357.783 65.2687 358.052 65.0357C358.231 65.0357 358.5 64.8027 358.679 64.9192C359.397 65.3853 360.024 65.8513 360.652 66.3174C361.19 66.667 361.728 67.1331 362.266 67.1331C363.88 67.2496 365.405 66.3174 366.57 64.9192C367.198 64.2201 367.646 63.2879 367.826 62.2392C368.184 61.8896 368.095 61.307 367.826 60.9575ZM365.405 55.3645C365.763 54.6654 366.122 53.9663 366.481 53.1506C366.391 53.6167 366.122 53.9663 365.943 54.4323C365.674 55.0149 365.405 55.7141 364.956 56.1801C365.136 55.9471 365.225 55.5975 365.405 55.3645ZM364.956 56.2967C364.777 56.6462 364.508 56.9958 364.239 57.2288C364.508 56.9958 364.687 56.6462 364.956 56.2967ZM355.362 65.2687C355.541 64.5696 355.81 63.8705 356.079 63.2879C355.9 63.987 355.541 64.6861 355.362 65.2687C355.272 65.3853 355.272 65.2687 355.362 65.2687ZM353.927 63.6374C353.927 63.987 354.017 64.4531 354.106 64.8026C353.927 64.4531 353.927 64.1035 353.927 63.6374ZM363.253 71.2113C363.163 71.2113 363.073 71.2113 362.984 71.2113C362.984 70.9782 363.253 70.9782 363.253 71.2113ZM355.72 72.6095C355.72 72.726 355.81 72.8426 355.81 72.8426C355.631 72.9591 355.631 72.6095 355.72 72.6095ZM366.481 64.4531C366.929 63.8705 367.288 63.1714 367.467 62.4722C367.377 63.2879 366.929 63.987 366.481 64.4531ZM367.377 61.4236C367.646 61.5401 367.646 61.8896 367.646 62.1227C367.646 61.7731 367.467 61.5401 367.377 61.4236Z" fill="#547884"/>
<path d="M134.684 64.1034C134.505 63.5208 133.967 63.2878 133.519 63.0547C131.725 62.3556 129.932 61.8895 128.138 61.3069C127.242 61.1904 126.345 61.3069 125.628 61.773C125.359 61.6565 125 61.6565 124.731 61.54C125.717 61.0739 126.704 60.6078 127.69 60.0252C127.78 59.9087 127.869 60.0252 128.049 60.0252C128.856 60.0252 129.663 59.7922 130.47 59.6757C131.277 59.6757 131.994 59.4426 132.801 59.2096C134.057 58.86 135.222 57.9278 136.298 56.9957C137.374 56.0635 138.271 54.7818 138.988 53.3836C139.347 52.6844 139.706 51.8688 139.795 50.9366C139.885 50.354 139.706 49.7714 139.347 49.4219C138.988 49.1888 138.54 49.1888 138.181 49.3053C137.374 49.5384 136.567 50.0045 135.76 50.4705C134.595 51.1697 133.519 51.7523 132.353 52.5679C131.366 53.267 130.29 53.9662 129.573 55.1314C128.766 56.4131 128.228 57.8113 127.69 59.2096C126.255 60.0252 124.731 60.7243 123.207 61.4235C122.489 61.773 121.772 62.2391 121.054 62.7052C121.234 62.1226 121.413 61.6565 121.682 61.0739C121.861 61.0739 121.951 61.3069 122.13 61.1904C122.579 60.7243 123.117 60.2583 123.565 59.7922C124.372 58.86 125.359 58.1609 125.986 56.9957C126.614 55.947 126.973 54.6653 127.421 53.5001C127.78 52.2183 128.138 50.9366 128.228 49.6549C128.228 49.3053 128.228 48.9558 128.138 48.6062C127.959 48.2567 127.511 48.1401 127.152 48.1401C126.614 48.2567 125.986 48.3732 125.538 48.9558C124.91 49.7714 124.462 50.8201 124.014 51.7523C123.207 53.6166 122.041 55.1314 121.234 56.8792C120.965 57.4618 120.696 58.0444 120.606 58.7435C120.516 59.5591 120.875 60.2583 121.234 60.8409C120.965 61.54 120.696 62.2391 120.427 62.9382C120.158 63.1713 119.889 63.4043 119.62 63.6373C118.902 64.2199 118.275 65.0356 117.647 65.8512C116.75 67.1329 116.033 68.7642 115.495 70.279C114.957 71.6772 108.77 89.6214 108.321 91.1361C108.321 91.3692 108.501 91.6022 108.68 91.4857C108.77 91.3692 108.859 91.2527 108.859 91.0196C109.666 88.4562 116.212 69.5799 117.468 67.366C117.737 67.366 117.916 67.366 118.185 67.366C118.633 67.4825 119.082 67.599 119.44 67.8321C119.799 68.7642 120.068 69.8129 120.516 70.7451C121.054 71.9103 121.772 72.7259 122.668 73.425C123.296 73.8911 124.014 74.2407 124.731 74.2407C126.166 74.1242 127.421 72.7259 127.78 70.9781C127.869 70.3955 127.69 69.8129 127.331 69.4634C126.793 68.9973 126.166 68.7642 125.628 68.2982C124.821 67.7155 124.103 67.2495 123.296 66.6669C122.579 66.3173 121.861 65.8512 121.054 65.8512C120.427 65.8512 119.799 66.2008 119.351 66.8999C118.902 66.7834 118.364 66.5503 117.916 66.5503C118.723 65.2686 119.709 64.1034 120.785 63.4043C121.772 62.8217 122.758 62.1226 123.745 61.6565C124.103 61.54 124.462 61.6565 124.821 61.773C125 61.8895 125.269 61.773 125.448 62.0061C125.897 62.8217 126.345 63.6373 126.704 64.453C126.973 65.1521 127.331 65.7347 127.869 66.0843C129.214 67.133 130.918 67.1329 132.443 66.5503C133.25 66.3173 133.967 65.7347 134.505 64.9191C134.595 65.1521 134.774 64.5695 134.684 64.1034ZM134.415 57.6948C135.043 57.3452 135.581 56.8792 136.119 56.4131C135.85 56.7626 135.491 56.9957 135.222 57.2287C134.774 57.5783 134.326 58.0444 133.788 58.2774C133.967 58.0444 134.146 57.8113 134.415 57.6948ZM133.608 58.2774C133.339 58.5104 132.981 58.627 132.712 58.627C133.07 58.5104 133.339 58.3939 133.608 58.2774ZM121.951 60.7243C122.31 60.1417 122.848 59.7922 123.296 59.3261C122.938 59.7922 122.399 60.2582 121.951 60.7243ZM121.323 58.3939C121.234 58.7435 121.144 59.2096 121.054 59.5591C121.054 59.2096 121.144 58.7435 121.323 58.3939ZM127.062 70.512H126.973C126.973 70.512 126.883 70.3955 126.883 70.279C126.883 70.279 127.062 70.3955 127.062 70.512ZM119.799 67.366C119.799 67.4825 119.799 67.599 119.799 67.599C119.62 67.7156 119.709 67.366 119.799 67.366ZM132.263 66.4338C132.801 66.2008 133.339 65.7347 133.877 65.2686C133.429 65.9677 132.801 66.3173 132.263 66.4338ZM134.057 64.2199C134.236 64.453 134.146 64.8025 134.057 65.0356C134.146 64.686 134.146 64.453 134.057 64.2199Z" fill="#547884"/>
<path d="M319.314 89.039C319.494 74.8235 325.143 61.3071 325.143 61.3071C318.776 67.3662 316.714 83.9121 316.176 90.0877C313.486 79.4843 315.279 65.7349 315.279 65.7349C310.975 75.5226 314.383 93.1172 314.383 93.1172H320.839C322.901 84.4947 328.909 79.6008 328.909 79.6008C324.695 79.0182 320.749 86.126 319.314 89.039Z" fill="#547884"/>
<path d="M99.623 89.039C99.8023 74.8235 105.452 61.3071 105.452 61.3071C99.085 67.3662 97.0226 83.9121 96.4845 90.0877C93.7944 79.4843 95.5878 65.7349 95.5878 65.7349C91.2837 75.5226 94.6911 93.1172 94.6911 93.1172H101.147C103.21 84.4947 109.218 79.6008 109.218 79.6008C105.003 79.0182 101.058 86.126 99.623 89.039Z" fill="#547884"/>
<path d="M314.293 39.4015C314.887 39.4015 315.369 38.7755 315.369 38.0032C315.369 37.231 314.887 36.605 314.293 36.605C313.699 36.605 313.217 37.231 313.217 38.0032C313.217 38.7755 313.699 39.4015 314.293 39.4015Z" fill="#F2E1C2"/>
<path d="M319.045 33.3422C319.045 33.6917 318.776 34.0413 318.507 34.0413C318.238 34.0413 317.969 33.6917 317.969 33.3422C317.969 32.9926 318.238 32.6431 318.507 32.6431C318.776 32.6431 319.045 32.9926 319.045 33.3422Z" fill="#F2E1C2"/>
<path d="M296.986 73.8925C296.986 74.242 296.717 74.5916 296.448 74.5916C296.179 74.5916 295.91 74.242 295.91 73.8925C295.91 73.5429 296.179 73.1934 296.448 73.1934C296.717 73.1934 296.986 73.4264 296.986 73.8925Z" fill="#F2E1C2"/>
<path d="M356.437 39.0526C356.437 39.6352 356.079 40.1013 355.63 40.1013C355.182 40.1013 354.823 39.6352 354.823 39.0526C354.823 38.47 355.182 38.0039 355.63 38.0039C356.079 38.0039 356.437 38.47 356.437 39.0526Z" fill="#F2E1C2"/>
<path d="M339.579 68.298C340.025 68.298 340.387 67.8285 340.387 67.2494C340.387 66.6702 340.025 66.2007 339.579 66.2007C339.134 66.2007 338.772 66.6702 338.772 67.2494C338.772 67.8285 339.134 68.298 339.579 68.298Z" fill="#F2E1C2"/>
<path d="M261.387 69.6965C261.833 69.6965 262.194 69.227 262.194 68.6478C262.194 68.0686 261.833 67.5991 261.387 67.5991C260.941 67.5991 260.58 68.0686 260.58 68.6478C260.58 69.227 260.941 69.6965 261.387 69.6965Z" fill="#F2E1C2"/>
<path d="M329.446 56.5299C330.04 56.5299 330.522 55.9039 330.522 55.1316C330.522 54.3594 330.04 53.7334 329.446 53.7334C328.852 53.7334 328.37 54.3594 328.37 55.1316C328.37 55.9039 328.852 56.5299 329.446 56.5299Z" fill="#F2E1C2"/>
<path d="M263.54 53.9671C263.54 54.7827 263.091 55.3653 262.464 55.3653C261.836 55.3653 261.388 54.7827 261.388 53.9671C261.388 53.1515 261.836 52.5688 262.464 52.5688C263.091 52.5688 263.54 53.1515 263.54 53.9671Z" fill="#F2E1C2"/>
<path d="M57.8368 22.5065C58.4311 22.5065 58.9128 21.8804 58.9128 21.1082C58.9128 20.336 58.4311 19.71 57.8368 19.71C57.2425 19.71 56.7607 20.336 56.7607 21.1082C56.7607 21.8804 57.2425 22.5065 57.8368 22.5065Z" fill="#F2E1C2"/>
<path d="M53.0848 16.4467C53.0848 16.7962 53.3539 17.1458 53.6229 17.1458C53.8919 17.1458 54.1609 16.7962 54.1609 16.4467C54.1609 16.0971 53.8919 15.7476 53.6229 15.7476C53.3539 15.7476 53.0848 15.9806 53.0848 16.4467Z" fill="#F2E1C2"/>
<path d="M75.6816 57.5789C75.9787 57.5789 76.2196 57.2659 76.2196 56.8798C76.2196 56.4937 75.9787 56.1807 75.6816 56.1807C75.3844 56.1807 75.1436 56.4937 75.1436 56.8798C75.1436 57.2659 75.3844 57.5789 75.6816 57.5789Z" fill="#F2E1C2"/>
<path d="M15.6924 22.1566C15.6924 22.7392 16.0511 23.2053 16.4994 23.2053C16.9478 23.2053 17.3064 22.7392 17.3064 22.1566C17.3064 21.574 16.9478 21.1079 16.4994 21.1079C16.0511 21.1079 15.6924 21.574 15.6924 22.1566Z" fill="#F2E1C2"/>
<path d="M41.1592 56.1805C41.1592 56.7631 41.5179 57.2292 41.9662 57.2292C42.4146 57.2292 42.7732 56.7631 42.7732 56.1805C42.7732 55.5979 42.4146 55.1318 41.9662 55.1318C41.5179 55.1318 41.1592 55.5979 41.1592 56.1805Z" fill="#F2E1C2"/>
<path d="M109.936 51.7533C109.936 52.3359 110.294 52.802 110.743 52.802C111.191 52.802 111.55 52.3359 111.55 51.7533C111.55 51.1707 111.191 50.7046 110.743 50.7046C110.294 50.7046 109.936 51.1707 109.936 51.7533Z" fill="#F2E1C2"/>
<path d="M54.9678 46.6258C54.9678 47.4414 55.4161 48.024 56.0438 48.024C56.6715 48.024 57.1199 47.4414 57.1199 46.6258C57.1199 45.8101 56.6715 45.2275 56.0438 45.2275C55.5058 45.2275 54.9678 45.8101 54.9678 46.6258Z" fill="#F2E1C2"/>
<path d="M92.1805 48.6065C92.7748 48.6065 93.2566 47.9805 93.2566 47.2083C93.2566 46.4361 92.7748 45.8101 92.1805 45.8101C91.5863 45.8101 91.1045 46.4361 91.1045 47.2083C91.1045 47.9805 91.5863 48.6065 92.1805 48.6065Z" fill="#F2E1C2"/>
<path d="M283.806 93.0012C283.806 93.0012 287.93 77.8536 289.365 83.4466C290.8 89.0395 292.414 94.749 294.566 91.3699C296.718 87.9909 297.256 82.7474 299.319 86.3596C301.381 89.9717 308.644 93.0012 308.644 93.0012H283.806Z" fill="#547884"/>
<path d="M51.2012 93.0012C51.2012 93.0012 55.326 77.8536 56.7607 83.4466C58.1954 89.0395 59.8095 94.749 61.9616 91.3699C64.1137 87.9909 64.6517 82.7474 66.7141 86.3596C68.7765 89.9717 76.0398 93.0012 76.0398 93.0012H51.2012Z" fill="#547884"/>
<path d="M342.36 93.0012C342.36 93.0012 346.485 77.8536 347.92 83.4466C349.355 89.0395 350.969 94.749 353.121 91.3699C355.273 87.9909 355.811 82.7474 357.873 86.3596C359.936 89.9717 367.199 93.0012 367.199 93.0012H342.36Z" fill="#547884"/>
<path d="M-2.33195 65.5018C-2.24228 65.1522 -1.97327 64.9192 -1.70426 64.9192C-1.52492 64.9192 -1.34558 65.0357 -1.25591 65.2687C-0.986897 65.8513 -0.807557 66.5505 -0.628217 67.1331C-0.359207 68.2983 -0.0901971 69.347 0.178813 70.3956C0.447823 71.3278 0.627163 72.1434 0.896173 73.0756C1.16518 73.7747 1.34452 74.4739 1.61353 75.173C1.97221 75.9886 2.24122 76.9208 2.5999 77.7364C2.95858 78.5521 3.31726 79.3677 3.58627 80.1833C3.76561 80.8825 4.03462 81.4651 4.12429 82.2807C4.48297 80.5329 5.02099 78.7851 5.55901 77.0373C5.37967 77.0373 5.11066 76.9208 5.11066 76.6877C5.11066 76.4547 5.20033 76.4547 5.29 76.3382C5.11066 75.7556 4.75198 75.173 4.48297 74.5904C4.12429 73.8912 3.85528 73.0756 3.58627 72.26C3.13792 70.9782 2.68957 69.58 2.24122 68.2983C1.61353 66.2009 1.25485 63.987 1.16518 61.6566C1.16518 60.3749 1.16518 59.0932 1.52386 57.928C1.7032 57.3454 1.97221 56.7628 2.33089 56.4132C2.51023 56.1802 2.77924 56.0636 3.04825 56.2967C3.31726 56.5297 3.31726 56.9958 3.31726 57.3454C3.40693 58.8601 3.58627 60.3749 3.85528 62.0062C4.03462 63.0549 4.21396 64.1035 4.3933 65.1522C4.66231 66.9 4.93132 68.5313 5.29 70.2791C5.46934 71.2113 5.73835 72.26 5.82802 73.1921C5.9177 73.8913 5.91769 74.5904 5.91769 75.2895C6.45571 73.5417 6.99374 71.9104 7.62142 70.1626C7.71109 69.9296 7.62142 69.6965 7.53175 69.4635C7.53175 69.347 7.62142 69.347 7.71109 69.2304C7.71109 68.1818 7.62142 67.2496 7.44208 66.3174C7.35241 65.0357 7.26274 63.754 6.99373 62.4723C6.72472 61.307 6.54538 60.1418 6.36604 58.8601C6.27637 57.928 6.27637 56.9958 6.27637 55.9471C6.27637 55.015 6.45571 54.1993 6.54538 53.2672C6.72472 51.7524 7.0834 50.2376 7.80077 48.9559C8.24911 48.1403 8.78713 47.4411 9.50449 47.0916C9.77351 46.9751 10.1322 46.9751 10.3115 47.4411C10.4012 47.9072 10.3115 48.3733 10.3115 48.8394C10.2219 49.655 10.0425 50.3541 9.95284 51.1698C9.77351 51.9854 9.59416 52.8011 9.50449 53.6167C9.23549 56.5297 9.23548 59.4427 9.23548 62.3557C9.23548 63.0549 9.23548 63.8705 9.23548 64.5696C9.23548 65.3853 9.05615 66.3174 8.96648 67.1331C9.77351 65.3853 10.7599 63.754 11.7462 62.1227C12.3739 61.074 13.0913 60.0253 13.719 59.0932C13.8983 58.5106 14.1673 57.928 14.4363 57.3454C14.795 56.5297 15.1537 55.5976 15.5124 54.7819C16.1401 52.9176 17.2161 51.2863 18.2025 49.7715C18.8302 48.8394 19.5475 47.9072 20.3546 47.3246C20.7132 46.975 21.1616 46.6255 21.6099 46.6255C21.7893 46.6255 21.879 46.8585 21.9686 46.9751C21.9686 47.2081 21.879 47.4411 21.7893 47.6742C21.3409 48.6063 20.8926 49.5385 20.4442 50.4707C20.0856 51.2863 19.7269 52.1019 19.4579 52.9176C18.9198 54.0828 18.4715 55.248 17.7541 56.2967C16.8574 57.4619 15.9607 58.5106 14.9744 59.4427C14.8847 59.5592 14.7054 59.6758 14.526 59.6758C14.4363 59.6758 14.4363 59.4427 14.3467 59.3262C13.8983 60.0253 13.45 60.7245 13.0016 61.4236C11.6566 63.5209 10.3115 65.7348 9.23548 68.1818C10.2219 67.2496 11.2082 66.4339 12.1946 65.3853C13.0913 64.4531 14.0777 63.6375 15.1537 62.9383C16.2297 62.2392 17.3955 61.5401 18.6508 61.4236C19.0095 61.4236 19.3682 61.1905 19.7269 61.4236C19.9959 61.5401 19.9062 62.1227 19.7269 62.2392C18.8302 63.1714 17.8438 64.1035 16.9471 65.0357C15.9607 66.0844 15.064 67.1331 13.988 67.9487C12.7326 68.7644 11.3876 69.347 10.0425 69.6965C9.50449 69.813 8.87681 69.9296 8.42845 70.2791C8.33879 70.5122 8.24911 70.7452 8.15944 70.8617C7.62142 72.3765 7.0834 73.8913 6.63505 75.5225C7.44208 74.5904 8.33879 73.6582 9.32516 72.8426C10.4909 71.7939 11.8359 70.9782 13.181 70.3956C14.526 69.813 15.8711 69.347 17.3058 68.8809C17.9335 68.7644 18.6508 68.5313 19.2785 68.4148C19.6372 68.4148 19.9959 68.2983 20.3546 68.2983C20.6236 68.2983 20.7132 68.6478 20.5339 68.8809C20.3546 69.2304 19.9959 69.4635 19.7269 69.6965C19.0095 70.3956 18.2922 70.9782 17.5748 71.6774C16.5884 72.6095 15.6917 73.6582 14.6157 74.1243C13.181 74.8234 11.7462 75.2895 10.3115 75.6391C9.05615 75.9886 7.71109 76.2217 6.63505 77.1538C6.45571 77.2703 6.36604 77.3869 6.1867 77.2703C6.00736 77.9695 5.82802 78.6686 5.55901 79.3677C5.11066 80.7659 4.84165 82.2807 4.48297 83.679C5.20033 83.0964 5.82802 82.3972 6.54538 81.9311C7.17307 81.4651 7.80077 81.1155 8.42845 80.7659C9.68384 80.1833 10.9392 79.6007 12.2843 79.2512C13.0016 79.0181 13.8087 78.7851 14.6157 78.7851C15.1537 78.7851 15.6917 78.6686 16.2297 78.6686C16.4091 78.6686 16.6781 78.7851 16.7678 79.1347C16.7678 79.3677 16.5884 79.6007 16.4988 79.7173C15.4227 80.6494 14.257 81.4651 13.0913 82.3972C11.8359 83.3294 10.4909 84.145 8.96648 84.3781C8.06977 84.6111 7.17307 84.4946 6.27637 84.4946C5.73835 84.4946 5.29 84.8442 4.75198 85.0772C4.66231 85.1937 4.48297 85.0772 4.3933 85.0772C4.30363 85.1937 4.21396 85.3102 4.21396 85.5433C3.67594 87.6407 3.13792 89.6215 2.51023 91.7189C3.04825 91.0197 3.58627 90.3206 4.30363 89.8545C5.02099 89.3885 5.64868 88.8059 6.36604 88.4563C8.42845 87.4076 10.5805 86.9415 12.7326 86.4755C13.3603 86.3589 13.988 86.1259 14.7054 86.1259C14.9744 86.1259 15.064 86.592 14.8847 86.825C14.4363 87.2911 13.988 87.6407 13.45 87.9902C12.6429 88.5728 11.9256 89.2719 11.1186 89.8545C10.1322 90.5537 9.14581 91.4858 7.9801 91.6023C7.17307 91.8354 6.36604 91.8354 5.64868 92.0684C4.84165 92.185 4.03462 92.185 3.31726 92.651C3.04825 93.0006 2.5999 92.8841 2.24122 93.0006C1.97221 93.9327 1.7032 94.7484 1.34452 95.6806C0.806503 96.8458 0.268483 98.1275 -0.538547 99.0597C-0.897227 99.4092 -1.16624 99.7588 -1.61459 99.8753C-1.79393 99.8753 -1.8836 99.5257 -1.70426 99.4092C-1.52492 99.2927 -1.25591 99.1762 -1.07657 99.0597C-0.538547 98.4771 -0.0901968 97.8944 0.268483 97.0788C0.896173 95.7971 1.43419 94.3988 1.88254 93.0006C1.61353 92.651 1.34452 92.3015 1.07551 91.8354C0.627163 91.1363 0.178813 90.4371 -0.269537 89.8545C-0.897227 89.0389 -1.52492 88.2232 -1.8836 87.1746C-2.24228 86.2424 -2.51129 85.3102 -2.60096 84.2616C-2.60096 83.679 -2.7803 83.2129 -2.60096 82.6303C-2.51129 82.2807 -2.33195 81.9312 -1.97327 82.0477C-1.70426 82.0477 -1.61459 82.3972 -1.43525 82.5137C-0.986897 83.3294 -0.538547 84.145 -0.0901971 84.9607C0.537493 86.2424 1.16518 87.4076 1.79287 88.6893C2.15155 89.505 2.51023 90.3206 2.5999 91.2528C3.22759 89.3885 3.67594 87.4076 4.21396 85.4268C3.85528 84.8442 3.67594 84.0285 3.40693 83.3294C3.13792 82.3972 2.51023 81.5816 2.06188 80.7659C1.43419 79.7173 0.627163 78.9016 -0.000527143 77.8529C-0.717887 76.6877 -1.52492 75.5225 -1.8836 74.1243C-2.15261 73.0756 -2.42162 71.9104 -2.42162 70.8617C-2.42162 69.6965 -2.24228 68.5313 -2.06294 67.4826C-2.60096 66.5505 -2.60096 65.9679 -2.33195 65.5018Z" fill="#547884"/>
<path d="M126.793 75.5221C126.972 75.4055 127.152 75.289 127.241 75.4055C127.331 75.5221 127.421 75.6386 127.421 75.7551C127.421 76.2212 127.421 76.5707 127.331 77.0368C127.241 77.7359 127.152 78.4351 127.062 79.1342C126.972 79.7168 126.883 80.2994 126.883 80.882C126.883 81.3481 126.793 81.8141 126.793 82.2802C126.793 82.8628 126.703 83.4454 126.703 84.028C126.703 84.6106 126.703 85.1932 126.703 85.7758C126.703 86.2419 126.614 86.708 126.524 87.0576C127.152 86.2419 127.869 85.5428 128.497 84.7272C128.407 84.6106 128.317 84.4941 128.317 84.3776C128.317 84.2611 128.407 84.2611 128.497 84.2611C128.497 83.795 128.497 83.4454 128.497 82.9794C128.497 82.3968 128.497 81.9307 128.586 81.3481C128.676 80.4159 128.676 79.4837 128.766 78.6681C128.945 77.2699 129.214 75.8716 129.662 74.5899C129.931 73.8908 130.2 73.1916 130.738 72.7256C131.007 72.4925 131.276 72.2595 131.545 72.143C131.725 72.143 131.904 72.143 131.904 72.376C131.994 72.609 131.904 72.8421 131.815 73.0751C131.546 74.0073 131.276 74.8229 131.007 75.7551C130.828 76.4542 130.738 77.0368 130.559 77.7359C130.38 78.7846 130.111 79.8333 129.931 80.882C129.842 81.4646 129.752 82.1637 129.573 82.7463C129.483 83.2124 129.304 83.562 129.124 83.9115C129.842 83.2124 130.469 82.3968 131.187 81.8142C131.276 81.6976 131.276 81.5811 131.276 81.4646C131.276 81.4646 131.366 81.4646 131.456 81.3481C131.725 80.7655 131.815 80.1829 131.994 79.6003C132.263 78.9011 132.532 78.0855 132.622 77.2699C132.711 76.5707 132.891 75.7551 133.07 75.056C133.249 74.4734 133.429 74.0073 133.698 73.4247C133.967 72.9586 134.236 72.4925 134.415 72.0264C134.863 71.2108 135.401 70.5117 136.119 70.0456C136.567 69.8125 137.015 69.5795 137.464 69.696C137.643 69.696 137.822 69.9291 137.822 70.1621C137.733 70.5117 137.643 70.7447 137.464 70.9778C137.195 71.3273 137.015 71.6769 136.746 72.0264C136.477 72.376 136.208 72.7256 135.939 73.1916C135.132 74.7064 134.505 76.2212 133.787 77.8525C133.608 78.202 133.429 78.6681 133.249 79.0177C133.07 79.4837 132.711 79.8333 132.532 80.2994C133.429 79.6003 134.325 79.1342 135.222 78.6681C135.85 78.3185 136.388 78.0855 137.015 77.7359C137.284 77.5029 137.553 77.2699 137.822 77.0368C138.181 76.6872 138.629 76.3377 138.988 75.9881C139.795 75.1725 140.692 74.7064 141.678 74.2403C142.216 74.0073 142.844 73.7742 143.382 73.6577C143.651 73.6577 143.92 73.5412 144.189 73.7742C144.279 73.8908 144.279 74.0073 144.279 74.1238C144.189 74.2403 144.099 74.3568 144.01 74.4734C143.561 74.8229 143.113 75.1725 142.665 75.5221C142.306 75.8716 141.947 76.1046 141.589 76.4542C141.051 76.9203 140.513 77.3864 139.885 77.6194C139.167 77.969 138.45 78.0855 137.643 78.202C137.553 78.202 137.464 78.202 137.374 78.0855C137.284 77.969 137.374 77.969 137.374 77.8525C136.926 78.0855 136.567 78.202 136.119 78.4351C134.863 79.1342 133.698 79.7168 132.532 80.6489C133.249 80.5324 134.056 80.4159 134.774 80.2994C135.491 80.1829 136.208 80.0663 136.926 80.1829C137.733 80.2994 138.45 80.2994 139.167 80.6489C139.347 80.7655 139.616 80.7655 139.795 81.115C139.885 81.3481 139.795 81.5811 139.616 81.5811C138.898 81.8142 138.181 81.9307 137.464 82.0472C136.746 82.2802 135.939 82.5133 135.222 82.5133C134.325 82.5133 133.518 82.2802 132.622 81.9307C132.263 81.8141 131.904 81.6976 131.545 81.5811C131.456 81.5811 131.366 81.6976 131.276 81.8142C130.649 82.3968 130.021 83.0959 129.393 83.795C130.111 83.562 130.738 83.4454 131.456 83.3289C132.353 83.2124 133.249 83.3289 134.146 83.4454C135.043 83.562 135.85 83.9115 136.746 84.2611C137.105 84.3776 137.553 84.6106 137.912 84.8437C138.091 84.9602 138.36 85.0767 138.54 85.1932C138.629 85.3098 138.629 85.5428 138.54 85.6593C138.36 85.7758 138.091 85.7758 137.912 85.7758C137.374 85.8924 136.836 85.8924 136.298 86.0089C135.581 86.1254 134.863 86.3584 134.146 86.2419C133.249 86.1254 132.353 85.7758 131.456 85.4263C130.649 85.0767 129.931 84.7272 129.124 84.8437C129.035 84.8437 128.945 84.8437 128.855 84.7272C128.586 85.0767 128.317 85.3098 128.048 85.6593C127.51 86.2419 126.972 86.941 126.434 87.6402C126.972 87.5237 127.51 87.5236 127.959 87.5236C128.407 87.5236 128.855 87.5237 129.214 87.6402C130.021 87.7567 130.828 87.9897 131.635 88.3393C132.084 88.4558 132.532 88.6888 132.98 88.9219C133.249 89.1549 133.608 89.2714 133.877 89.5045C133.967 89.621 134.146 89.7375 134.056 89.9706C134.056 90.0871 133.877 90.2036 133.787 90.2036C132.98 90.3201 132.173 90.3201 131.276 90.3201C130.38 90.3201 129.393 90.2036 128.586 89.7375C128.048 89.5045 127.6 89.0384 127.062 88.6888C126.793 88.4558 126.434 88.4558 126.076 88.4558C125.986 88.4558 125.896 88.3393 125.896 88.3393C125.807 88.3393 125.717 88.4558 125.717 88.4558C125 89.388 124.193 90.3201 123.386 91.1358C123.834 91.0193 124.282 90.7862 124.82 90.7862C125.269 90.7862 125.807 90.7862 126.255 90.7862C127.6 90.9027 128.945 91.6019 130.2 92.1845C130.559 92.4175 131.007 92.534 131.366 92.7671C131.546 92.8836 131.456 93.1166 131.276 93.2332C130.918 93.3497 130.559 93.2331 130.2 93.3497C129.662 93.3497 129.035 93.4662 128.497 93.4662C127.779 93.4662 127.062 93.5827 126.345 93.2332C125.896 93.0001 125.448 92.7671 124.91 92.534C124.462 92.301 124.013 91.9514 123.475 91.9514C123.206 92.0679 123.027 91.8349 122.758 91.7184C122.399 92.0679 122.04 92.534 121.682 92.7671C121.144 93.2331 120.516 93.6992 119.888 93.8158C119.619 93.9323 119.35 93.9323 119.081 93.8158C118.992 93.8158 118.992 93.5827 119.171 93.5827C119.35 93.5827 119.44 93.5827 119.619 93.5827C120.068 93.4662 120.426 93.3497 120.785 93.0001C121.413 92.534 122.04 92.0679 122.578 91.3688C122.489 91.1358 122.489 90.7862 122.399 90.4367C122.309 89.8541 122.22 89.2715 122.13 88.8054C121.951 88.1063 121.861 87.4071 121.861 86.708C121.861 86.0089 121.951 85.4263 122.13 84.8437C122.22 84.4941 122.309 84.1446 122.489 83.9115C122.578 83.795 122.848 83.6785 122.937 83.795C123.027 83.9115 123.117 84.1445 123.117 84.2611C123.206 84.8437 123.206 85.5428 123.296 86.1254C123.296 87.0576 123.475 87.9897 123.475 88.9219C123.475 89.5045 123.475 90.0871 123.386 90.6697C124.103 89.854 124.91 89.0384 125.627 88.1062C125.538 87.6402 125.627 87.1741 125.627 86.708C125.717 86.0089 125.538 85.4263 125.448 84.7272C125.358 83.9115 125.089 83.2124 125 82.3968C124.91 81.4646 124.731 80.5324 124.82 79.6003C124.91 78.9011 125 78.202 125.269 77.6194C125.538 77.0368 125.896 76.4542 126.255 75.8716C126.434 75.9881 126.614 75.6386 126.793 75.5221Z" fill="#547884"/>
</g>
</g>
</svg>
