<svg width="375" height="812" viewBox="0 0 375 812" fill="none" xmlns="http://www.w3.org/2000/svg">
<path d="M375 0H0V812H375V0Z" fill="url(#paint0_linear_15997_31969)"/>
<path d="M374.811 35.9961V47.6746C373.93 47.6746 373.048 47.6115 372.23 47.5484C369.208 47.2959 366.313 47.2327 363.291 47.1696C359.766 47.1065 356.303 46.349 352.778 46.2858C347.553 46.1596 342.769 46.349 337.607 45.4652C330.682 44.2658 323.884 44.0133 316.77 43.8239C313.937 43.7607 311.167 43.7607 308.335 43.7607C303.613 43.7607 298.829 43.7607 294.108 43.4451C293.1 43.382 291.59 43.4451 291.527 42.5613C296.563 42.0563 301.662 41.5513 306.761 41.2357C311.671 40.92 316.581 40.7306 321.428 40.7306C323.569 40.7306 325.835 40.92 327.912 40.6675C329.423 40.4781 330.745 39.9731 332.13 39.6575C334.648 39.0262 337.292 38.6474 339.936 38.1424C343.776 37.3849 347.742 37.8268 351.645 37.7637C353.533 37.7005 355.422 37.448 357.311 37.3849C360.017 37.2586 362.724 37.3849 365.494 37.1324C368.579 36.7536 371.663 36.3117 374.811 35.9961Z" fill="white" fill-opacity="0.5"/>
<path d="M374.811 49.0645V64.0256C368.264 64.0256 361.654 64.215 355.17 63.4575C352.086 63.0787 349.127 62.6999 345.98 62.6368C342.139 62.6368 338.299 62.7631 334.459 62.6368C331.06 62.5737 327.724 62.3212 324.387 62.0055C320.484 61.6899 316.707 61.8162 312.804 62.0055C312.615 62.0055 312.364 62.0055 312.175 62.0055C303.11 62.5106 293.919 62.5106 284.98 61.8793C279.44 61.5005 274.026 60.743 268.487 60.3011C263.891 59.9223 259.233 60.1117 254.637 60.1117C252.686 60.1117 250.734 60.1117 248.846 60.1748C246.768 60.238 244.754 60.3011 242.677 60.4905C241.984 60.5536 240.662 60.8692 240.033 60.4905C242.928 60.0486 245.887 59.6067 248.846 59.2279C252.371 58.786 255.959 58.3442 259.485 57.9654C265.591 57.271 271.823 56.6397 277.929 56.261C283.217 55.9453 288.505 55.1247 293.793 54.6197C298.892 54.1778 303.928 54.0515 309.027 54.0515H311.86C315.637 54.0515 319.351 54.0515 323.065 54.0515C331.941 54.1146 341.006 53.0415 349.757 52.0314C358.129 51.0214 366.502 50.0114 374.811 49.0645Z" fill="white" fill-opacity="0.5"/>
<path d="M44.5065 101.142C41.8625 101.962 38.5891 101.899 35.8192 101.899C32.4828 101.899 29.1464 101.773 25.747 102.089C20.0814 102.594 14.5417 103.919 8.87611 104.614C5.91741 104.992 2.9587 105.245 0 105.434V93.5664C5.35085 93.8189 10.6387 94.5133 15.9266 95.3971C21.5922 96.344 27.1319 97.9853 32.7976 98.8691C35.3786 99.2479 37.9595 99.6266 40.5405 100.132C41.4219 100.258 43.6252 100.384 44.5065 101.142Z" fill="white" fill-opacity="0.5"/>
<path d="M140.003 79.2388C138.493 79.9332 136.478 79.8069 134.841 79.9963C128.672 80.5644 122.566 81.1326 116.397 82.0164C106.576 83.342 96.693 84.2889 86.8726 85.5515C82.1513 86.1196 77.4299 86.8771 72.7086 87.319C69.8758 87.5715 67.3577 87.1928 64.5879 86.814C61.3774 86.309 58.2298 85.9934 55.0193 86.309C52.3754 86.6246 49.7944 87.0665 47.1504 87.319C44.4435 87.5084 41.7366 87.2559 39.0297 87.5715C36.5746 87.8241 34.1195 88.2659 31.6644 88.5185C28.4539 88.8341 25.2434 89.7179 21.97 89.8441C19.5149 89.9704 17.1857 90.0335 14.7306 90.3491C9.82038 90.9804 4.91019 91.5486 0 92.243V70.9691C2.89575 70.9691 5.79151 70.9691 8.75021 70.9691C16.3043 70.906 23.6696 72.1685 31.2238 72.2316C36.2599 72.2948 41.233 72.2316 46.2691 72.6735C49.1649 72.926 52.0606 72.926 54.9564 72.8629C62.3216 72.7366 69.7499 71.6004 77.1152 72.3579C79.948 72.6735 82.7808 73.3679 85.6136 73.6836C89.8313 74.1886 94.112 73.9992 98.3927 74.2517C106.073 74.6305 114.256 74.5042 121.81 76.2086C126.091 77.2187 130.12 78.4812 134.527 78.355C135.723 78.1025 139.437 77.9131 140.003 79.2388Z" fill="white" fill-opacity="0.5"/>
<path d="M283.993 69.499C283.993 69.499 292.116 65.9105 295.852 69.9212C295.852 69.9212 297.314 62.322 308.36 60C308.36 60 297.476 65.2772 296.339 74.1429C296.177 74.1429 293.253 67.5992 283.993 69.499Z" fill="#1B1F3A"/>
<path d="M311.122 107.493C311.122 107.493 317.782 104.327 321.194 108.76C321.194 108.76 322.168 101.16 331.428 99.4717C331.428 99.4717 322.331 103.905 321.843 112.981C321.843 113.192 318.919 106.227 311.122 107.493Z" fill="#1B1F3A"/>
<path d="M333.216 72.8784C333.216 72.8784 337.927 70.7676 340.202 73.7228C340.202 73.7228 340.851 68.4456 347.187 67.3901C347.187 67.3901 340.851 70.5565 340.527 76.8891C340.527 76.8891 338.577 72.0341 333.216 72.8784Z" fill="#1B1F3A"/>
<path d="M279.771 145.279C279.771 145.279 284.481 143.168 286.756 146.123C286.756 146.123 287.405 140.846 293.741 139.791C293.741 139.791 287.405 142.957 287.081 149.29C287.243 149.29 285.294 144.646 279.771 145.279Z" fill="#1B1F3A"/>
<defs>
<linearGradient id="paint0_linear_15997_31969" x1="187.551" y1="5.10558" x2="187.551" y2="813.693" gradientUnits="userSpaceOnUse">
<stop stop-color="#ACE3F2"/>
<stop offset="0.635" stop-color="#F0E8D9"/>
<stop offset="0.93" stop-color="#FBFAF6"/>
</linearGradient>
</defs>
</svg>
