<svg width="22" height="23" viewBox="0 0 22 23" fill="none" xmlns="http://www.w3.org/2000/svg">
<path fill-rule="evenodd" clip-rule="evenodd" d="M8.13445 2.68208C8.13445 2.26439 7.79584 1.92578 7.37815 1.92578C6.96045 1.92578 6.62184 2.26439 6.62184 2.68208V3.34556C5.21729 3.47319 4.09543 3.96816 3.29978 4.82502C2.37551 5.82038 2 7.188 2 8.69049V16.5476C2 18.0501 2.37551 19.4177 3.29978 20.4131C4.23346 21.4186 5.61635 21.9258 7.37815 21.9258H14.7731C16.5349 21.9258 17.9178 21.4186 18.8515 20.4131C19.7757 19.4177 20.1513 18.0501 20.1513 16.5476V8.69049C20.1513 7.188 19.7757 5.82038 18.8515 4.82502C18.0558 3.96816 16.934 3.47319 15.5294 3.34556V2.68208C15.5294 2.26439 15.1908 1.92578 14.7731 1.92578C14.3554 1.92578 14.0168 2.26439 14.0168 2.68208V3.31234H8.13445V2.68208ZM6.62184 4.86561V5.45519C6.62184 5.87289 6.96045 6.2115 7.37815 6.2115C7.79584 6.2115 8.13445 5.87289 8.13445 5.45519V4.82494H14.0168V5.45519C14.0168 5.87289 14.3554 6.2115 14.7731 6.2115C15.1908 6.2115 15.5294 5.87289 15.5294 5.45519V4.86561C16.5747 4.9844 17.2788 5.35432 17.7431 5.85427C18.2885 6.44164 18.6022 7.31501 18.6357 8.47966H3.5156C3.54909 7.31501 3.8628 6.44164 4.40821 5.85427C4.87245 5.35432 5.57658 4.9844 6.62184 4.86561ZM3.5126 9.99227V16.5476C3.5126 17.8182 3.83037 18.7616 4.40821 19.3838C4.97662 19.996 5.90466 20.4132 7.37815 20.4132H14.7731C16.2466 20.4132 17.1746 19.996 17.7431 19.3838C18.3209 18.7616 18.6387 17.8182 18.6387 16.5476V9.99227H3.5126ZM13.4825 13.4973C13.4825 12.9404 13.934 12.4889 14.4909 12.4889H14.4992C15.0561 12.4889 15.5076 12.9404 15.5076 13.4973C15.5076 14.0542 15.0561 14.5057 14.4992 14.5057H14.4909C13.934 14.5057 13.4825 14.0542 13.4825 13.4973ZM14.4909 15.262C13.934 15.262 13.4825 15.7135 13.4825 16.2704C13.4825 16.8273 13.934 17.2788 14.4909 17.2788H14.4992C15.0561 17.2788 15.5076 16.8273 15.5076 16.2704C15.5076 15.7135 15.0561 15.262 14.4992 15.262H14.4909ZM10.0631 13.4973C10.0631 12.9404 10.5145 12.4889 11.0715 12.4889H11.0798C11.6367 12.4889 12.0882 12.9404 12.0882 13.4973C12.0882 14.0542 11.6367 14.5057 11.0798 14.5057H11.0715C10.5145 14.5057 10.0631 14.0542 10.0631 13.4973ZM11.0715 15.262C10.5145 15.262 10.0631 15.7135 10.0631 16.2704C10.0631 16.8273 10.5145 17.2788 11.0715 17.2788H11.0798C11.6367 17.2788 12.0882 16.8273 12.0882 16.2704C12.0882 15.7135 11.6367 15.262 11.0798 15.262H11.0715ZM6.6418 13.4973C6.6418 12.9404 7.09328 12.4889 7.6502 12.4889H7.65851C8.21543 12.4889 8.66691 12.9404 8.66691 13.4973C8.66691 14.0542 8.21543 14.5057 7.65851 14.5057H7.6502C7.09328 14.5057 6.6418 14.0542 6.6418 13.4973ZM7.6502 15.262C7.09328 15.262 6.6418 15.7135 6.6418 16.2704C6.6418 16.8273 7.09328 17.2788 7.6502 17.2788H7.65851C8.21543 17.2788 8.66691 16.8273 8.66691 16.2704C8.66691 15.7135 8.21543 15.262 7.65851 15.262H7.6502Z" fill="currentColor"/>
</svg>
