<svg width="22" height="23" viewBox="0 0 22 23" fill="none" xmlns="http://www.w3.org/2000/svg">
<path fill-rule="evenodd" clip-rule="evenodd" d="M2.5137 7.47385C2.53096 5.98319 2.75198 5.31203 3.10959 4.95845C3.48521 4.58705 4.2137 4.36466 5.8605 4.36466H16.1303C17.782 4.36466 18.513 4.58713 18.8898 4.95895C19.2479 5.31244 19.469 5.98316 19.4863 7.47385H2.5137ZM1 8.23015V7.66634C1 6.04792 1.18701 4.73224 2.04609 3.88284C2.90218 3.03638 4.22579 2.85205 5.8605 2.85205H16.1303C17.7692 2.85205 19.095 3.0363 19.9523 3.88234C20.813 4.73184 21 6.04799 21 7.66634V8.23015V15.2554C21 16.8738 20.813 18.1895 19.9539 19.0389C19.0978 19.8854 17.7742 20.0697 16.1395 20.0697H5.86125C4.22728 20.0742 2.90332 19.893 2.0466 19.0475C1.18687 18.1991 1 16.8827 1 15.2647V8.23015ZM19.4874 8.98645V15.2554C19.4874 16.8815 19.2631 17.5948 18.8904 17.9633C18.5148 18.3347 17.7863 18.5571 16.1395 18.5571L5.8605 18.5571L5.85837 18.5571C4.21147 18.5617 3.48384 18.3407 3.10908 17.9709C2.73708 17.6038 2.5126 16.8911 2.5126 15.2647V8.98645H19.4874ZM5.45378 14.8689C5.03609 14.8689 4.69748 15.2075 4.69748 15.6252C4.69748 16.0429 5.03609 16.3815 5.45378 16.3815H7.30252C7.72022 16.3815 8.05882 16.0429 8.05882 15.6252C8.05882 15.2075 7.72022 14.8689 7.30252 14.8689H5.45378ZM8.85714 15.6252C8.85714 15.2075 9.19575 14.8689 9.61344 14.8689H13.3109C13.7286 14.8689 14.0672 15.2075 14.0672 15.6252C14.0672 16.0429 13.7286 16.3815 13.3109 16.3815H9.61344C9.19575 16.3815 8.85714 16.0429 8.85714 15.6252Z" fill="#07AE96"/>
</svg>
