<svg width="22" height="22" viewBox="0 0 22 22" fill="none" xmlns="http://www.w3.org/2000/svg">
<path d="M22 21.1642C22 21.6152 21.626 21.9892 21.175 21.9892H0.825C0.374 21.9892 0 21.6152 0 21.1642C0 20.7132 0.374 20.3392 0.825 20.3392H21.175C21.626 20.3392 22 20.7132 22 21.1642Z" fill="currentColor"/>
<path d="M14.7289 2.761L2.91495 14.575C2.46395 15.026 1.73795 15.026 1.29795 14.575H1.28695C-0.242052 13.035 -0.242052 10.549 1.28695 9.02L9.15195 1.155C10.6919 -0.385 13.1779 -0.385 14.7179 1.155C15.1689 1.584 15.1689 2.321 14.7289 2.761Z" fill="currentColor"/>
<path d="M20.7019 7.12806L17.3469 3.77306C16.8959 3.32206 16.1699 3.32206 15.7299 3.77306L3.91595 15.5871C3.46495 16.0271 3.46495 16.7531 3.91595 17.2041L7.27095 20.5701C8.81095 22.0991 11.2969 22.0991 12.8369 20.5701L20.6909 12.7051C22.2529 11.1651 22.2529 8.66806 20.7019 7.12806ZM11.8359 17.0611L10.5049 18.4031C10.2299 18.6781 9.77895 18.6781 9.49295 18.4031C9.21795 18.1281 9.21795 17.6771 9.49295 17.3911L10.8349 16.0491C11.0989 15.7851 11.5609 15.7851 11.8359 16.0491C12.1109 16.3241 12.1109 16.7971 11.8359 17.0611ZM16.2029 12.6941L13.5189 15.3891C13.2439 15.6531 12.7929 15.6531 12.5069 15.3891C12.2319 15.1141 12.2319 14.6631 12.5069 14.3771L15.2019 11.6821C15.4659 11.4181 15.9279 11.4181 16.2029 11.6821C16.4779 11.9681 16.4779 12.4191 16.2029 12.6941Z" fill="currentColor"/>
</svg>
