<svg width="61" height="60" viewBox="0 0 61 60" fill="none" xmlns="http://www.w3.org/2000/svg">
<path d="M60.5 57.7207C60.5 58.9507 59.48 59.9707 58.25 59.9707H2.75C1.52 59.9707 0.5 58.9507 0.5 57.7207C0.5 56.4907 1.52 55.4707 2.75 55.4707H58.25C59.48 55.4707 60.5 56.4907 60.5 57.7207Z" fill="#E1DED5"/>
<path d="M40.6698 7.53L8.44982 39.75C7.21982 40.98 5.23982 40.98 4.03982 39.75H4.00982C-0.160176 35.55 -0.160176 28.77 4.00982 24.6L25.4598 3.15C29.6598 -1.05 36.4398 -1.05 40.6398 3.15C41.8698 4.32 41.8698 6.33 40.6698 7.53Z" fill="#B2AA98"/>
<path d="M56.9598 19.4402L47.8098 10.2902C46.5798 9.06018 44.5998 9.06018 43.3998 10.2902L11.1798 42.5102C9.94982 43.7102 9.94982 45.6902 11.1798 46.9202L20.3298 56.1002C24.5298 60.2702 31.3098 60.2702 35.5098 56.1002L56.9298 34.6502C61.1898 30.4502 61.1898 23.6402 56.9598 19.4402ZM32.7798 46.5302L29.1498 50.1902C28.3998 50.9402 27.1698 50.9402 26.3898 50.1902C25.6398 49.4402 25.6398 48.2102 26.3898 47.4302L30.0498 43.7702C30.7698 43.0502 32.0298 43.0502 32.7798 43.7702C33.5298 44.5202 33.5298 45.8102 32.7798 46.5302ZM44.6898 34.6202L37.3698 41.9702C36.6198 42.6902 35.3898 42.6902 34.6098 41.9702C33.8598 41.2202 33.8598 39.9902 34.6098 39.2102L41.9598 31.8602C42.6798 31.1402 43.9398 31.1402 44.6898 31.8602C45.4398 32.6402 45.4398 33.8702 44.6898 34.6202Z" fill="#B2AA98"/>
</svg>
