<svg width="23" height="23" viewBox="0 0 23 23" fill="none" xmlns="http://www.w3.org/2000/svg">
<path d="M5.19048 8.33333H19.7922L20.316 6.2381H7.28571V4.14286H21.659C21.8183 4.14286 21.9754 4.17917 22.1185 4.24902C22.2617 4.31887 22.387 4.42043 22.4849 4.54597C22.5829 4.67151 22.651 4.81773 22.6839 4.97353C22.7169 5.12932 22.7139 5.29058 22.6752 5.44505L20.0562 15.9212C19.9994 16.1478 19.8686 16.3489 19.6845 16.4926C19.5004 16.6362 19.2735 16.7143 19.04 16.7143H4.14286C3.86501 16.7143 3.59855 16.6039 3.40208 16.4074C3.20561 16.211 3.09524 15.9445 3.09524 15.6667V3.09524H1V1H4.14286C4.4207 1 4.68717 1.11037 4.88364 1.30684C5.0801 1.50331 5.19048 1.76977 5.19048 2.04762V8.33333ZM5.19048 23C4.63478 23 4.10185 22.7793 3.70892 22.3863C3.31599 21.9934 3.09524 21.4605 3.09524 20.9048C3.09524 20.3491 3.31599 19.8161 3.70892 19.4232C4.10185 19.0303 4.63478 18.8095 5.19048 18.8095C5.74617 18.8095 6.2791 19.0303 6.67203 19.4232C7.06497 19.8161 7.28571 20.3491 7.28571 20.9048C7.28571 21.4605 7.06497 21.9934 6.67203 22.3863C6.2791 22.7793 5.74617 23 5.19048 23ZM17.7619 23C17.2062 23 16.6733 22.7793 16.2803 22.3863C15.8874 21.9934 15.6667 21.4605 15.6667 20.9048C15.6667 20.3491 15.8874 19.8161 16.2803 19.4232C16.6733 19.0303 17.2062 18.8095 17.7619 18.8095C18.3176 18.8095 18.8505 19.0303 19.2435 19.4232C19.6364 19.8161 19.8571 20.3491 19.8571 20.9048C19.8571 21.4605 19.6364 21.9934 19.2435 22.3863C18.8505 22.7793 18.3176 23 17.7619 23Z" fill="currentColor"/>
</svg>
