<svg width="22" height="23" viewBox="0 0 22 23" fill="none" xmlns="http://www.w3.org/2000/svg">
<g clip-path="url(#clip0_15142_19198)">
<path d="M20.9141 4.00422L15.4968 4.00281H15.4953C15.491 4.00281 15.487 4.00355 15.4829 4.00355C14.7387 4.02633 13.8118 4.62327 13.643 5.35928L11.0811 16.6952C10.9122 17.4382 11.3714 18.0426 12.1103 18.0537H17.8015C18.5289 18.0178 19.236 17.4277 19.4019 16.7L21.9639 5.36397C22.1355 4.61359 21.6652 4.00422 20.9141 4.00422Z" fill="#01798A"/>
<path d="M11.0811 16.6951L13.643 5.35916C13.8118 4.62315 14.7388 4.02621 15.483 4.00343L13.329 4.00209L9.44831 4.00134C8.70202 4.0166 7.76306 4.61771 7.59428 5.35923L5.03164 16.6951C4.8622 17.4381 5.32215 18.0425 6.06047 18.0536H12.1103C11.3715 18.0425 10.9123 17.4381 11.0811 16.6951Z" fill="#024381"/>
<path d="M5.03168 16.6951L7.59432 5.35916C7.7631 4.61764 8.70206 4.01653 9.44834 4.00127L4.47695 4C3.7265 4 2.76431 4.60803 2.59278 5.35916L0.0301401 16.6951C0.0145801 16.7643 0.00586946 16.8321 0.000732422 16.8984V17.1086C0.0509116 17.6502 0.46448 18.0445 1.05896 18.0535H6.0605C5.32218 18.0425 4.86223 17.438 5.03168 16.6951Z" fill="#DD0228"/>
<path d="M9.55315 12.2615H9.64725C9.73369 12.2615 9.79183 12.2324 9.81916 12.175L10.0636 11.8091H10.7183L10.5818 12.0497H11.3667L11.2671 12.4185H10.3331C10.2255 12.5803 10.0931 12.6564 9.93388 12.6473H9.44735L9.55315 12.2615ZM9.44564 12.7898H11.1655L11.0558 13.1904H10.3641L10.2586 13.5769H10.9317L10.8221 13.9775H10.149L9.9927 14.5487C9.95398 14.6442 10.0049 14.6871 10.1446 14.6774H10.693L10.5914 15.0497H9.53833C9.33873 15.0497 9.27024 14.9355 9.33285 14.7066L9.53275 13.9775H9.10258L9.21187 13.577H9.64211L9.74761 13.1905H9.33635L9.44564 12.7898ZM12.1906 11.8063L12.1636 12.0408C12.1636 12.0408 12.488 11.7973 12.7826 11.7973H13.8712L13.4549 13.3044C13.4204 13.4767 13.2723 13.5624 13.0108 13.5624H11.7768L11.4878 14.6207C11.471 14.6774 11.4946 14.7065 11.5569 14.7065H11.7997L11.7105 15.035H11.0932C10.8563 15.035 10.7577 14.9638 10.7968 14.8206L11.6136 11.8063H12.1906ZM13.1126 12.2324H12.1408L12.0245 12.6391C12.0245 12.6391 12.1864 12.5223 12.4568 12.5181C12.7266 12.5139 13.0344 12.5181 13.0344 12.5181L13.1126 12.2324ZM12.7604 13.1758C12.8323 13.1855 12.8726 13.1572 12.8773 13.09L12.9368 12.8757H11.9636L11.882 13.1758H12.7604ZM12.1041 13.6628H12.6651L12.6546 13.9056H12.8039C12.8794 13.9056 12.9169 13.8814 12.9169 13.8336L12.9611 13.6766H13.4274L13.3651 13.9056C13.3124 14.0964 13.1728 14.1961 12.9459 14.2058H12.6471L12.6456 14.6207C12.6402 14.6872 12.7002 14.7211 12.824 14.7211H13.1049L13.0142 15.0497H12.3405C12.1517 15.0586 12.0591 14.9687 12.0611 14.7778L12.1041 13.6628ZM5.30623 9.79838C5.23014 10.1712 5.05377 10.4576 4.78017 10.6609C4.50902 10.8608 4.1594 10.9611 3.73124 10.9611C3.32832 10.9611 3.03298 10.8587 2.84447 10.6533C2.71374 10.5074 2.64874 10.322 2.64874 10.0979C2.64874 10.0052 2.65984 9.90558 2.68195 9.79845L3.1381 7.59898H3.82699L3.37716 9.77344C3.36429 9.82805 3.35804 9.88402 3.35855 9.94013C3.3578 10.0515 3.3855 10.1428 3.44148 10.214C3.52308 10.3199 3.65553 10.3724 3.83994 10.3724C4.0519 10.3724 4.22656 10.3206 4.36213 10.216C4.4977 10.1123 4.58623 9.96499 4.62598 9.77336L5.0773 7.59875H5.76276L5.30623 9.79838ZM8.1995 8.93305H8.73904L8.31639 10.8961H7.77789L8.1995 8.93305ZM8.36932 8.21788H8.9137L8.812 8.69436H8.2677L8.36932 8.21788ZM9.21663 10.7466C9.07548 10.6117 9.00423 10.4299 9.00356 10.1988C9.00356 10.1594 9.00594 10.1145 9.01123 10.0654C9.01644 10.0155 9.02299 9.96715 9.0323 9.92219C9.09625 9.60332 9.23257 9.35019 9.44244 9.16339C9.65202 8.97593 9.90485 8.8819 10.2009 8.8819C10.4433 8.8819 10.6356 8.94972 10.7764 9.08522C10.9171 9.22154 10.9876 9.40543 10.9876 9.63928C10.9876 9.67933 10.9846 9.72571 10.9794 9.77552C10.9733 9.82462 10.9658 9.87353 10.9569 9.92219C10.8944 10.2362 10.7585 10.4866 10.5485 10.6699C10.3386 10.8545 10.0864 10.9465 9.7925 10.9465C9.54905 10.9465 9.35742 10.8801 9.21663 10.7466ZM10.2449 10.3579C10.34 10.2549 10.4081 10.0986 10.4496 9.8904C10.4559 9.85786 10.4614 9.82399 10.4648 9.79011C10.4682 9.75691 10.4696 9.72579 10.4696 9.69742C10.4696 9.57637 10.4388 9.48234 10.3769 9.41593C10.3154 9.34885 10.228 9.31564 10.1149 9.31564C9.96545 9.31564 9.84365 9.36813 9.74828 9.47333C9.65209 9.57853 9.58389 9.73755 9.54101 9.94921C9.53513 9.98175 9.53029 10.0143 9.52582 10.0461C9.5224 10.0786 9.52136 10.109 9.52203 10.1367C9.52203 10.2571 9.55285 10.3498 9.61472 10.4154C9.67629 10.4812 9.76339 10.5136 9.8779 10.5136C10.0281 10.5135 10.1497 10.4616 10.2449 10.3579Z" fill="white"/>
<path d="M15.4954 4.00275L13.329 4.00208L15.483 4.00349C15.487 4.00349 15.4911 4.00275 15.4954 4.00275Z" fill="#E02F41"/>
<path d="M13.329 4.00208L9.47808 4C9.4684 4 9.45835 4.00067 9.4483 4.00134L13.329 4.00208Z" fill="#2E4F7D"/>
<path d="M14.4882 12.278L14.6183 11.8201H15.2761L15.2478 11.9882C15.2478 11.9882 15.5838 11.8201 15.826 11.8201H16.6393L16.5101 12.278H16.3821L15.7686 14.4375H15.8965L15.7748 14.8663H15.6468L15.5936 15.0524H14.9565L15.0097 14.8663H13.753L13.8754 14.4375H14.0013L14.6155 12.278H14.4882ZM15.198 12.278L15.0306 12.8624C15.0306 12.8624 15.3171 12.7525 15.564 12.7213C15.6185 12.5174 15.6897 12.278 15.6897 12.278H15.198ZM14.9531 13.1364L14.7851 13.7486C14.7851 13.7486 15.1025 13.5923 15.3204 13.5792C15.3833 13.3426 15.4463 13.1365 15.4463 13.1365L14.9531 13.1364ZM15.0762 14.4375L15.202 13.9934H14.7111L14.5844 14.4375H15.0762ZM16.667 11.7918H17.2855L17.3118 12.02C17.3076 12.078 17.3422 12.1058 17.4155 12.1058H17.5248L17.4143 12.4923H16.9598C16.7863 12.5013 16.697 12.4349 16.6887 12.2918L16.667 11.7918ZM16.4858 12.6211H18.4889L18.3713 13.0362H17.7336L17.6242 13.4221H18.2614L18.1431 13.8364H17.4335L17.273 14.0792H17.6203L17.7005 14.5655C17.7101 14.6139 17.7529 14.6374 17.8264 14.6374H17.9342L17.8208 15.0378H17.439C17.2411 15.0475 17.1389 14.9811 17.1305 14.838L17.0384 14.3939L16.7224 14.8663C16.6477 14.9998 16.5328 15.062 16.3779 15.0524H15.7948L15.9082 14.6518H16.0902C16.1649 14.6518 16.2271 14.6187 16.2831 14.5515L16.7778 13.8364H16.1401L16.2583 13.4221H16.95L17.06 13.0362H16.3677L16.4858 12.6211ZM5.94081 8.93237H6.42741L6.37172 9.21595L6.44155 9.13502C6.59931 8.96624 6.79087 8.88256 7.01705 8.88256C7.22179 8.88256 7.36942 8.94205 7.46219 9.06169C7.55346 9.18133 7.5784 9.34668 7.53515 9.55901L7.26705 10.8967H6.76698L7.00901 9.68424C7.03395 9.55901 7.02703 9.46565 6.98861 9.40542C6.95064 9.34527 6.87798 9.31556 6.77315 9.31556C6.64451 9.31556 6.53625 9.35562 6.44803 9.4352C6.35951 9.51546 6.30107 9.62684 6.27233 9.76859L6.04928 10.8967H5.54816L5.94081 8.93237ZM11.5209 8.93237H12.0079L11.9526 9.21595L12.0216 9.13502C12.1796 8.96624 12.3718 8.88256 12.5973 8.88256C12.802 8.88256 12.9499 8.94205 13.042 9.06169C13.1327 9.18133 13.1589 9.34668 13.1146 9.55901L12.8476 10.8967H12.3468L12.589 9.68424C12.6139 9.55901 12.6069 9.46565 12.5689 9.40542C12.5294 9.34527 12.4581 9.31556 12.3538 9.31556C12.225 9.31556 12.1172 9.35562 12.028 9.4352C11.9395 9.51546 11.8806 9.62684 11.853 9.76859L11.6288 10.8967H11.1284L11.5209 8.93237ZM13.9281 7.71497H15.3419C15.6136 7.71497 15.8239 7.77654 15.9685 7.89752C16.1123 8.02006 16.1843 8.19569 16.1843 8.42462V8.43155C16.1843 8.4751 16.1815 8.52424 16.1773 8.57747C16.1701 8.63152 16.1609 8.68529 16.1497 8.73865C16.0874 9.04159 15.9428 9.28511 15.7195 9.46975C15.4953 9.65371 15.2298 9.7464 14.9241 9.7464H14.1659L13.9314 10.8967H13.275L13.9281 7.71497ZM14.2814 9.19317H14.9101C15.074 9.19317 15.2041 9.15505 15.299 9.07971C15.3931 9.00362 15.4553 8.8874 15.4897 8.72972C15.4953 8.70061 15.4988 8.67433 15.5029 8.65013C15.505 8.62735 15.5078 8.60442 15.5078 8.58238C15.5078 8.46959 15.4677 8.38799 15.3874 8.33677C15.3072 8.2848 15.1813 8.26001 15.007 8.26001H14.4731L14.2814 9.19317ZM19.1225 11.2765C18.915 11.7178 18.7172 11.975 18.6011 12.0946C18.4848 12.213 18.2544 12.4882 17.6997 12.4675L17.7476 12.1307C18.2144 11.9868 18.4668 11.3387 18.6108 11.0517L18.4391 8.93788L18.8002 8.93304H19.1032L19.1358 10.259L19.7035 8.93304H20.2784L19.1225 11.2765ZM17.5152 9.09281L17.2868 9.24982C17.0482 9.0631 16.8304 8.94756 16.4099 9.14262C15.8371 9.40818 15.3585 11.4453 16.9356 10.7743L17.0254 10.8809L17.6459 10.8968L18.0533 9.04583L17.5152 9.09281ZM17.1623 10.1047C17.0626 10.3987 16.84 10.593 16.6657 10.5377C16.4914 10.4838 16.4291 10.2002 16.5302 9.9055C16.6298 9.61083 16.8539 9.41719 17.0268 9.4725C17.201 9.52648 17.264 9.81006 17.1623 10.1047Z" fill="white"/>
</g>
<defs>
<clipPath id="clip0_15142_19198">
<rect width="22" height="14.0536" fill="white" transform="translate(0 4)"/>
</clipPath>
</defs>
</svg>
