<svg width="22" height="23" viewBox="0 0 22 23" fill="none" xmlns="http://www.w3.org/2000/svg">
<rect y="0.0742188" width="22" height="22" rx="11" fill="#6B7280"/>
<path fill-rule="evenodd" clip-rule="evenodd" d="M8.27882 7.64606C8.08356 7.4508 7.76698 7.4508 7.57171 7.64606C7.37645 7.84132 7.37645 8.15791 7.57171 8.35317L10.2928 11.0742L7.57171 13.7953C7.37645 13.9905 7.37645 14.3071 7.57171 14.5024C7.76698 14.6976 8.08356 14.6976 8.27882 14.5024L10.9999 11.7813L13.721 14.5025C13.9163 14.6977 14.2328 14.6977 14.4281 14.5025C14.6234 14.3072 14.6234 13.9906 14.4281 13.7953L11.707 11.0742L14.4281 8.35309C14.6234 8.15783 14.6234 7.84125 14.4281 7.64599C14.2328 7.45072 13.9163 7.45072 13.721 7.64599L10.9999 10.3671L8.27882 7.64606Z" fill="white"/>
</svg>
