<svg width="12" height="12" viewBox="0 0 12 12" fill="none" xmlns="http://www.w3.org/2000/svg">
<path fill-rule="evenodd" clip-rule="evenodd" d="M3.0827 1.89804C2.77028 1.58562 2.26375 1.58562 1.95133 1.89804C1.63891 2.21046 1.63891 2.71699 1.95133 3.02941L4.92192 6L1.95133 8.97059C1.63891 9.28301 1.63891 9.78954 1.95133 10.102C2.26375 10.4144 2.77028 10.4144 3.0827 10.102L6.05329 7.13137L9.02396 10.102C9.33638 10.4145 9.84291 10.4145 10.1553 10.102C10.4678 9.78962 10.4678 9.28309 10.1553 8.97067L7.18466 6L10.1553 3.02933C10.4678 2.71691 10.4678 2.21038 10.1553 1.89796C9.84291 1.58554 9.33638 1.58554 9.02396 1.89796L6.05329 4.86863L3.0827 1.89804Z" fill="currentColor"/>
</svg>
