<svg width="22" height="22" viewBox="0 0 22 22" fill="none" xmlns="http://www.w3.org/2000/svg">
<path fill-rule="evenodd" clip-rule="evenodd" d="M20.3657 2.36569C20.6781 2.05327 20.6781 1.54673 20.3657 1.23431C20.0533 0.921895 19.5467 0.921895 19.2343 1.23431L10.8 9.66863L2.36569 1.23431C2.05327 0.921895 1.54673 0.921895 1.23431 1.23431C0.921895 1.54673 0.921895 2.05327 1.23431 2.36569L9.66863 10.8L1.23431 19.2343C0.921895 19.5467 0.921895 20.0533 1.23431 20.3657C1.54673 20.6781 2.05327 20.6781 2.36569 20.3657L10.8 11.9314L19.2343 20.3657C19.5467 20.6781 20.0533 20.6781 20.3657 20.3657C20.6781 20.0533 20.6781 19.5467 20.3657 19.2343L11.9314 10.8L20.3657 2.36569Z" fill="currentColor"/>
</svg>
