<svg width="22" height="23" viewBox="0 0 22 23" fill="none" xmlns="http://www.w3.org/2000/svg">
<path fill-rule="evenodd" clip-rule="evenodd" d="M11.0049 1C11.4084 1 11.7356 1.3198 11.7356 1.71429V13.3231L13.7518 11.352C14.0371 11.0731 14.4998 11.0731 14.7851 11.352C15.0704 11.6309 15.0704 12.0832 14.7851 12.3622L11.5216 15.5526C11.2362 15.8316 10.7736 15.8316 10.4883 15.5526L7.22476 12.3622C6.93942 12.0832 6.93942 11.6309 7.22476 11.352C7.51009 11.0731 7.97271 11.0731 8.25804 11.352L10.2743 13.3231V1.71429C10.2743 1.3198 10.6014 1 11.0049 1ZM14.6023 8.2244C14.637 7.83137 14.9909 7.54018 15.393 7.57403C17.2556 7.73083 18.7144 8.29078 19.6824 9.45705C20.634 10.6036 21.0001 12.206 21.0001 14.2V14.3238C21.0001 16.523 20.5541 18.2485 19.3698 19.4063C18.1856 20.564 16.4206 21 14.171 21H7.82905C5.57948 21 3.81448 20.564 2.63022 19.4063C1.44597 18.2485 1 16.523 1 14.3238V14.2C1 12.2205 1.36114 10.6277 2.29747 9.48352C3.25069 8.31866 4.6882 7.75131 6.52401 7.584C6.92579 7.54739 7.28186 7.83612 7.31932 8.22891C7.35677 8.62169 7.06143 8.96979 6.65965 9.00641C5.04684 9.15339 4.05375 9.62414 3.43854 10.3759C2.80643 11.1484 2.46128 12.3509 2.46128 14.2V14.3238C2.46128 16.3817 2.88721 17.6372 3.6635 18.3961C4.4398 19.155 5.724 19.5714 7.82905 19.5714H14.171C16.276 19.5714 17.5602 19.155 18.3365 18.3961C19.1128 17.6372 19.5388 16.3817 19.5388 14.3238V14.2C19.5388 12.3368 19.1888 11.1297 18.5476 10.3572C17.9228 9.6044 16.9121 9.13577 15.2676 8.99734C14.8656 8.96349 14.5677 8.61744 14.6023 8.2244Z" fill="currentColor"/>
</svg>
