<svg width="22" height="23" viewBox="0 0 22 23" fill="none" xmlns="http://www.w3.org/2000/svg">
<g clip-path="url(#clip0_15142_19228)">
<path fill-rule="evenodd" clip-rule="evenodd" d="M0 17.0222V4.96414C0 4.96414 0.162777 4 1.50256 4C2.85487 4 20.9732 4.03756 20.9732 4.03756C20.9732 4.03756 22 4.03756 22 5.45248C22 6.86739 22 17.3227 22 17.3227C22 17.3227 21.9123 18.2743 20.6602 18.2743C19.4081 18.2743 1.2897 18.2743 1.2897 18.2743C1.2897 18.2743 0.18782 18.3745 0 17.0222Z" fill="#8C0B39"/>
<path fill-rule="evenodd" clip-rule="evenodd" d="M21.3865 12.3142V10.2357H15.9146C15.9146 10.2357 15.8145 10.2607 15.8145 10.148C15.8145 10.0353 15.8145 8.9585 15.8145 8.9585C15.8145 8.9585 15.7894 8.87085 15.9397 8.87085C16.0899 8.87085 20.8981 8.87085 20.8981 8.87085C20.8981 8.87085 21.3489 8.88337 21.3489 8.38252C21.3489 7.88166 21.3489 6.905 21.3489 6.905C21.3489 6.905 21.2988 4.97671 19.07 4.68872C18.5441 4.68872 16.0649 4.68872 16.0649 4.68872C16.0649 4.68872 13.6858 4.68872 13.5231 7.11786C13.5231 9.32162 13.5356 10.1981 13.5356 10.1981C13.5356 10.1981 13.6608 12.2015 15.9272 12.3017L21.3865 12.3142Z" fill="white"/>
<path fill-rule="evenodd" clip-rule="evenodd" d="M15.8896 6.71716H19.045V7.34323C19.045 7.34323 19.0825 7.40584 18.9448 7.40584C18.8196 7.40584 15.7769 7.40584 15.7769 7.40584V6.82986C15.7769 6.82986 15.7644 6.71716 15.8896 6.71716Z" fill="#8C0B39"/>
<path fill-rule="evenodd" clip-rule="evenodd" d="M5.99771 16.4086L5.82241 17.0848H3.75639C3.75639 17.0848 3.14284 17.0973 3.1178 16.4086C3.26805 15.7325 3.48092 15.0187 3.48092 15.0187C3.48092 15.0187 3.63117 14.4428 4.34489 14.4553C5.02104 14.4678 5.74728 14.4553 5.74728 14.4553C5.74728 14.4553 6.38587 14.4928 6.32326 15.0939C6.27318 15.5697 6.22309 15.6198 6.22309 15.6198C6.22309 15.6198 6.24813 15.9203 5.7598 15.9078H4.14455C4.14455 15.9078 4.03186 15.8952 3.98177 16.0079C3.93169 16.1331 3.8816 16.2584 3.8816 16.2584C3.8816 16.2584 3.84404 16.3961 3.96925 16.4086H5.99771Z" fill="white"/>
<path fill-rule="evenodd" clip-rule="evenodd" d="M4.34491 15.1441H5.48435C5.48435 15.1441 5.55948 15.1315 5.54696 15.2192C5.53443 15.3068 5.572 15.4446 5.38418 15.4446C5.19636 15.4446 4.24474 15.4446 4.24474 15.4446C4.24474 15.4446 4.14456 15.4571 4.16961 15.382C4.19465 15.2943 4.21969 15.1441 4.34491 15.1441Z" fill="#8C0B39"/>
<path fill-rule="evenodd" clip-rule="evenodd" d="M7.71313 17.0848L8.43937 14.5054C8.43937 14.5054 8.62719 13.942 9.11553 13.942C9.22822 13.9295 9.35343 13.9545 9.35343 13.9545L9.22822 14.4929H9.82924L9.64142 15.2442H9.11553C9.11553 15.2442 9.01535 15.2317 8.96527 15.3694C8.90266 15.5572 8.46442 17.1099 8.46442 17.1099L7.71313 17.0848Z" fill="white"/>
<path fill-rule="evenodd" clip-rule="evenodd" d="M6.03528 17.0973L6.99942 13.7166C6.99942 13.7166 7.23733 13.2157 7.7507 13.2157C8.26408 13.2157 8.5145 13.2157 8.5145 13.2157L8.35173 13.8919H7.95104C7.95104 13.8919 7.72566 13.8668 7.67557 14.0171C7.62549 14.1673 7.60045 14.28 7.60045 14.28C7.60045 14.28 7.52532 14.4678 7.67557 14.4678C7.83835 14.4678 8.20147 14.4678 8.20147 14.4678L8.00113 15.2066H7.5754C7.5754 15.2066 7.36254 15.169 7.29993 15.3694C7.23733 15.6073 6.82412 17.0848 6.82412 17.0848H6.03528V17.0973Z" fill="white"/>
<path fill-rule="evenodd" clip-rule="evenodd" d="M9.15308 17.7735L9.94192 15.0063C9.94192 15.0063 10.1297 14.4679 10.6932 14.4679C11.2567 14.4679 12.2083 14.4679 12.2083 14.4679C12.2083 14.4679 12.8469 14.4929 12.7717 15.1816L12.4211 16.4964C12.4211 16.4964 12.2959 17.0849 11.4946 17.0849C10.6932 17.0849 10.3676 17.0849 10.3676 17.0849L10.5555 16.3336L11.4946 16.3461C11.4946 16.3461 11.6824 16.3837 11.7325 16.1958C11.7951 15.9705 11.9704 15.3319 11.9704 15.3319C11.9704 15.3319 12.0455 15.2067 11.8702 15.2067C11.7074 15.2067 10.8059 15.2067 10.8059 15.2067C10.8059 15.2067 10.6556 15.1691 10.6056 15.3319C10.568 15.5197 9.91688 17.7735 9.91688 17.7735H9.15308Z" fill="white"/>
<path fill-rule="evenodd" clip-rule="evenodd" d="M12.7467 16.2083L13.0473 15.0814C13.0473 15.0814 13.2226 14.4553 13.8111 14.4553C14.3996 14.4553 15.3261 14.4553 15.3261 14.4553C15.3261 14.4553 16.0774 14.5054 15.9272 15.1816C15.7769 15.8577 15.5891 16.4838 15.5891 16.4838C15.5891 16.4838 15.4513 17.0848 14.7126 17.0848C13.9613 17.0848 13.4229 17.0848 13.4229 17.0848C13.4229 17.0848 12.5714 17.0848 12.7467 16.2083Z" fill="white"/>
<path fill-rule="evenodd" clip-rule="evenodd" d="M13.9863 15.194H15.0006C15.0006 15.194 15.1759 15.169 15.1508 15.2817C15.1258 15.4069 14.9129 16.1582 14.9129 16.1582C14.9129 16.1582 14.8628 16.2834 14.7251 16.2959C14.5373 16.3084 13.6232 16.2959 13.6232 16.2959C13.6232 16.2959 13.498 16.3084 13.5481 16.1707C13.5982 15.9954 13.7985 15.2691 13.7985 15.2691C13.7985 15.2691 13.7985 15.194 13.9863 15.194Z" fill="#8C0B39"/>
<path fill-rule="evenodd" clip-rule="evenodd" d="M15.7894 17.0973L15.9522 16.3836H17.7678C17.7678 16.3836 17.9306 16.4212 17.9681 16.2334C17.9807 16.1081 17.9807 16.0956 17.9807 16.0956H16.9164C16.9164 16.0956 16.0899 16.1332 16.14 15.3443C16.1901 14.5555 16.8037 14.4553 17.0165 14.4553C17.2294 14.4553 19.045 14.4553 19.045 14.4553L18.8572 15.1315H17.1292C17.1292 15.1315 17.004 15.119 16.979 15.2692C16.979 15.2692 16.8913 15.4195 17.0541 15.432C17.2169 15.4445 18.1309 15.432 18.1309 15.432C18.1309 15.432 18.8446 15.4069 18.8071 16.0956C18.7695 16.7843 18.3813 17.0848 17.9181 17.0848L15.7894 17.0973Z" fill="white"/>
</g>
<defs>
<clipPath id="clip0_15142_19228">
<rect width="22" height="14.2743" fill="white" transform="translate(0 4)"/>
</clipPath>
</defs>
</svg>
