<svg width="61" height="61" viewBox="0 0 61 61" fill="none" xmlns="http://www.w3.org/2000/svg">
<path d="M52.0953 26.4597C52.0953 40.7969 40.5453 52.4195 26.2977 52.4195C12.05 52.4195 0.5 40.7969 0.5 26.4597C0.5 12.1226 12.05 0.5 26.2977 0.5C40.5453 0.5 52.0953 12.1226 52.0953 26.4597Z" fill="#B2AA98"/>
<path d="M56.5238 60.3656C55.5217 60.3332 54.5688 59.9208 53.856 59.2112L47.7468 52.0703C46.437 50.8725 46.3299 48.8368 47.5067 47.5065C48.0575 46.9491 48.8064 46.6357 49.5875 46.6357C50.3687 46.6357 51.1176 46.9491 51.6684 47.5065L59.3517 53.6542C60.4584 54.787 60.8 56.4686 60.2236 57.9475C59.6473 59.4264 58.2608 60.4261 56.6839 60.4998L56.5238 60.3656Z" fill="#A79D86"/>
</svg>
