<svg width="22" height="23" viewBox="0 0 22 23" fill="none" xmlns="http://www.w3.org/2000/svg">
<path fill-rule="evenodd" clip-rule="evenodd" d="M6.45674 2.68283C3.74278 2.68283 1.53488 4.89379 1.53488 7.63539C1.53488 10.9615 3.07046 13.6265 5.00293 15.6065C6.94466 17.5959 9.23994 18.8421 10.6135 19.311L10.621 19.3135L10.621 19.3136C10.6873 19.337 10.8246 19.3619 11 19.3619C11.1754 19.3619 11.3127 19.337 11.379 19.3136L11.3865 19.3109L11.3865 19.311C12.7601 18.8421 15.0553 17.5959 16.9971 15.6065C18.9295 13.6265 20.4651 10.9615 20.4651 7.63539C20.4651 4.89379 18.2572 2.68283 15.5433 2.68283C13.9447 2.68283 12.5113 3.4596 11.6161 4.66505C11.4713 4.86 11.2428 4.97493 11 4.97493C10.7572 4.97493 10.5287 4.86 10.3839 4.66505C9.48819 3.45897 8.06476 2.68283 6.45674 2.68283ZM0 7.63539C0 4.05327 2.88792 1.14795 6.45674 1.14795C8.23387 1.14795 9.83816 1.87035 11.0003 3.03557C12.1649 1.87 13.7752 1.14795 15.5433 1.14795C19.1121 1.14795 22 4.05327 22 7.63539C22 11.4721 20.2202 14.5015 18.0955 16.6785C15.9815 18.8445 13.4798 20.2175 11.8858 20.7624C11.6051 20.8607 11.2837 20.8968 11 20.8968C10.7163 20.8968 10.3949 20.8607 10.1142 20.7624C8.52019 20.2175 6.01847 18.8445 3.90451 16.6785C1.77977 14.5015 0 11.4721 0 7.63539Z" fill="currentColor"/>
</svg>
