<svg width="22" height="22" viewBox="0 0 22 22" fill="none" xmlns="http://www.w3.org/2000/svg">
<path fill-rule="evenodd" clip-rule="evenodd" d="M6.81 1H15.19C18.83 1 21 3.17 21 6.81V12.9V15.19C21 18.83 18.83 21 15.19 21H6.81C4.26 21 2.42 19.93 1.56 18.03C1.19 17.23 1 16.28 1 15.19V6.81C1 3.17 3.17 1 6.81 1ZM16.55 11.5C17.33 10.83 18.59 10.83 19.37 11.5L19.5 11.61V6.81C19.5 3.99 18.01 2.5 15.19 2.5H6.81C3.99 2.5 2.5 3.99 2.5 6.81V15.19C2.5 15.95 2.63 16.6 2.85 17.16L6.59 14.65C7.39 14.11 8.52 14.17 9.23 14.79L9.57 15.07C10.35 15.74 11.61 15.74 12.39 15.07L16.55 11.5ZM8 9.38012C9.31443 9.38012 10.38 8.31456 10.38 7.00012C10.38 5.68568 9.31443 4.62012 8 4.62012C6.68556 4.62012 5.62 5.68568 5.62 7.00012C5.62 8.31456 6.68556 9.38012 8 9.38012Z" fill="currentColor"/>
</svg>
