<svg width="22" height="23" viewBox="0 0 22 23" fill="none" xmlns="http://www.w3.org/2000/svg">
<g clip-path="url(#clip0_15142_19243)">
<path d="M22 17.5816C22 18.2999 21.4178 18.8821 20.6996 18.8821H1.30045C0.582227 18.8821 0 18.2998 0 17.5816V5.01045C0 4.29219 0.582227 3.70996 1.30045 3.70996H20.6995C21.4178 3.70996 22 4.29223 22 5.01045L22 17.5816Z" fill="#E7E8E3"/>
<path opacity="0.15" d="M0.924559 17.5816V5.01045C0.924559 4.29219 1.50687 3.70996 2.22509 3.70996H1.30041C0.582227 3.70996 0 4.29227 0 5.01045V17.5815C0 18.2998 0.582227 18.8821 1.30045 18.8821H2.22514C1.50691 18.8821 0.924559 18.2998 0.924559 17.5816Z" fill="#202121"/>
<path d="M8.43034 6.45642H6.1249C5.00483 6.45642 4.25232 7.20898 4.25232 8.329V11.6786C4.25232 11.6802 4.25249 11.6819 4.25279 11.6835C4.34118 12.1035 4.78139 12.4201 5.27674 12.4201C5.8236 12.4201 6.23589 12.0359 6.23589 11.5263V9.85357H7.64526V11.5045C7.64526 12.4459 6.43333 12.8903 5.61451 12.8942C5.13017 12.8922 4.65554 12.7434 4.31226 12.4859C4.30509 12.4805 4.29533 12.4796 4.28725 12.4836C4.28725 12.4836 4.28717 12.4837 4.28708 12.4837C4.28034 12.4803 4.2723 12.4803 4.26551 12.4836C4.25748 12.4877 4.25236 12.496 4.25236 12.505V16.2025C4.25236 16.2157 4.26302 16.2264 4.2763 16.2264H6.64705C7.48288 16.2264 8.45436 15.4369 8.45436 14.4191V6.48035C8.45428 6.46708 8.44366 6.45642 8.43034 6.45642Z" fill="#0F549D"/>
<path d="M13.0632 6.45642H10.7795C9.64195 6.45642 8.90693 7.18294 8.90693 8.30739V10.1996C8.90693 10.2088 8.91226 10.2173 8.92063 10.2212C8.92906 10.2251 8.93894 10.2238 8.94612 10.2179C9.14545 10.0517 9.46681 9.85362 9.86599 9.85362H12.3216V10.3003C11.7253 10.1698 11.1738 10.1103 10.9099 10.1103C10.285 10.1103 9.77666 10.6187 9.77666 11.2435L9.77683 11.2504L9.77666 11.2652C9.77666 11.8901 10.285 12.3984 10.9099 12.3984C11.23 12.3984 11.7873 12.3463 12.3216 12.2301V12.6333H9.86599C9.51279 12.6333 9.1781 12.501 8.94766 12.2704C8.94074 12.2636 8.93047 12.2615 8.92158 12.2653C8.9126 12.269 8.9068 12.2777 8.9068 12.2874V16.2023C8.9068 16.2155 8.91746 16.2263 8.93073 16.2263H11.2795C12.1155 16.2263 13.087 15.4368 13.087 14.419V6.48035C13.0871 6.46708 13.0764 6.45642 13.0632 6.45642Z" fill="#B41F36"/>
<path fill-rule="evenodd" clip-rule="evenodd" d="M17.7612 6.45642H15.4991C14.8969 6.45642 14.4077 6.66005 14.0804 7.01845C14.0804 7.01845 13.6047 7.48239 13.6047 8.24757V8.32896V9.01276V9.82968C13.6047 9.84287 13.6154 9.85362 13.6287 9.85362H16.3693C16.7453 9.85362 17.0631 10.1714 17.0631 10.5475C17.0631 10.9236 16.7453 11.2414 16.3693 11.2414C16.356 11.2414 16.3453 11.2521 16.3453 11.2653C16.3453 11.2785 16.356 11.2892 16.3693 11.2892C16.7948 11.2892 17.1283 11.5845 17.1283 11.9614C17.1283 12.3446 16.802 12.6335 16.3693 12.6335H13.6287C13.6154 12.6335 13.6047 12.6442 13.6047 12.6575V16.2026C13.6047 16.2157 13.6154 16.2265 13.6287 16.2265H15.9777C16.8136 16.2265 17.7851 15.437 17.7851 14.4192V6.48035C17.7851 6.46708 17.7743 6.45642 17.7612 6.45642ZM14.3225 12.3528C14.3225 12.366 14.3332 12.3767 14.3464 12.3767H15.3686C15.643 12.3767 15.8929 12.1268 15.8929 11.8525C15.8929 11.5782 15.643 11.3284 15.3686 11.3284H14.3464C14.3333 11.3284 14.3225 11.3391 14.3225 11.3523V12.3528ZM15.3686 11.137H14.3464C14.3332 11.137 14.3225 11.1263 14.3225 11.1131V10.1343C14.3225 10.1211 14.3333 10.1104 14.3464 10.1104H15.347C15.6213 10.1104 15.8711 10.3602 15.8711 10.6345C15.8711 10.9069 15.641 11.137 15.3686 11.137Z" fill="#329947"/>
</g>
<defs>
<clipPath id="clip0_15142_19243">
<rect width="22" height="16" fill="white" transform="translate(0 3)"/>
</clipPath>
</defs>
</svg>
