<svg width="18" height="18" viewBox="0 0 18 18" fill="none" xmlns="http://www.w3.org/2000/svg">
<path d="M15.6053 6.16635C14.7672 2.47855 11.5503 0.818237 8.72458 0.818237C8.72458 0.818237 8.72458 0.818237 8.7166 0.818237C5.89886 0.818237 2.67403 2.47057 1.83589 6.15837C0.901967 10.2772 3.42436 13.7655 5.70729 15.9606C6.55341 16.7748 7.639 17.1819 8.72458 17.1819C9.81017 17.1819 10.8958 16.7748 11.7339 15.9606C14.0168 13.7655 16.5392 10.2852 15.6053 6.16635ZM8.72458 10.1655C7.33567 10.1655 6.21017 9.03997 6.21017 7.65105C6.21017 6.26214 7.33567 5.13664 8.72458 5.13664C10.1135 5.13664 11.239 6.26214 11.239 7.65105C11.239 9.03997 10.1135 10.1655 8.72458 10.1655Z" fill="currentColor"/>
</svg>
