<svg width="22" height="23" viewBox="0 0 22 23" fill="none" xmlns="http://www.w3.org/2000/svg">
<path fill-rule="evenodd" clip-rule="evenodd" d="M2.85567 11.8521C2.85567 9.25011 3.78105 7.23239 5.22329 5.86239C6.67289 4.4854 8.70337 3.70772 11 3.70772C11.5124 3.70772 11.9278 3.29231 11.9278 2.77989C11.9278 2.26746 11.5124 1.85205 11 1.85205C8.28426 1.85205 5.77866 2.7754 3.94526 4.51697C2.10451 6.26552 1 8.78389 1 11.8521C1 14.9202 2.10451 17.4386 3.94526 19.1871C5.77866 20.9287 8.28426 21.8521 11 21.8521C11.5124 21.8521 11.9278 21.4366 11.9278 20.9242C11.9278 20.4118 11.5124 19.9964 11 19.9964C8.70337 19.9964 6.67289 19.2187 5.22329 17.8417C3.78105 16.4717 2.85567 14.454 2.85567 11.8521ZM16.7851 8.36072C17.1475 7.99838 17.735 7.99838 18.0973 8.36072L21.0004 11.2638C21.3627 11.6262 21.3627 12.2136 21.0004 12.576L18.0973 15.4791C17.735 15.8414 17.1475 15.8414 16.7851 15.4791C16.4228 15.1167 16.4228 14.5292 16.7851 14.1669L18.1043 12.8477H8.73196C8.21953 12.8477 7.80412 12.4323 7.80412 11.9199C7.80412 11.4075 8.21953 10.9921 8.73196 10.9921H18.1043L16.7851 9.67288C16.4228 9.31053 16.4228 8.72306 16.7851 8.36072Z" fill="#07AE96"/>
</svg>
