<svg width="125" height="40" viewBox="0 0 125 40" fill="none" xmlns="http://www.w3.org/2000/svg">
<path d="M26.8548 2.84266V0L36.4159 5.84001L26.8548 11.9923V8.94242L17.0455 8.74396C17.0455 8.74396 16.2517 8.74396 15.8285 8.89281C15.2565 9.09127 14.4918 9.54364 14.0424 10.5564C13.7797 11.1488 13.8381 12.4593 15.776 13.2064C16.1904 13.3669 25.3255 15.2786 25.3255 15.2786C25.3255 15.2786 37.3119 18.2759 37.2915 26.6434C37.2886 28.1494 37.3119 36.9546 26.1543 39.5113C24.2281 39.952 15.2039 40.7983 7.48439 38.1775C7.18378 38.0753 5.80623 37.48 5.38304 37.1618C3.11825 35.4662 0.401081 31.3043 0.214294 25.1841L12.4051 25.2717C12.4051 25.2717 11.9614 31.0796 18.7616 31.923C19.6489 32.034 23.7144 32.0515 24.7271 28.6426C24.8147 28.3478 24.8322 27.3905 24.7009 26.7193C24.6513 26.4683 24.3477 25.9663 24.266 25.8817C23.5335 25.1112 22.1209 24.2677 19.6314 23.7219C18.6974 23.5176 12.443 21.9416 9.50694 20.7538C8.90572 20.5086 7.08455 19.6039 6.07765 18.883C4.36447 17.6543 2.39445 15.2873 3.31671 10.7344C3.49474 9.85593 5.44433 3.77368 14.7107 3.10825C15.9073 3.01778 26.8548 2.84266 26.8548 2.84266ZM45.0402 25.0032L44.9089 18.3664L50.4395 18.3226V25.0061H55.3952V8.89573H50.4833V14.5168H44.8622V8.89573H39.8189V25.0032H45.0402ZM72.743 25.0032V21.5535L63.9378 21.5097L63.9816 18.057H71.8149V14.87L63.9816 14.8262V12.3046L72.5212 12.3484V8.7177H58.9792V25.0032H72.743ZM91.6844 25.0032H85.8882L83.1944 19.8899C83.1944 19.8899 82.5231 18.0512 80.6056 18.4131L80.5297 25.0032H75.4281L75.5332 8.8607L86.5273 8.83152C86.5273 8.83152 91.4538 9.78296 90.1317 14.8496C89.9041 15.728 88.2668 17.663 86.5332 17.8965C86.2005 17.9403 88.6053 18.3372 89.3554 20.459C89.5013 20.8764 91.6844 25.0032 91.6844 25.0032ZM83.8394 11.9077H80.5443V15.4274C80.5443 15.4274 83.5358 15.5383 84.1166 15.4274C84.6974 15.3165 85.3482 14.4585 85.392 13.9039C85.5292 12.1032 83.8394 11.9077 83.8394 11.9077ZM107.278 14.3476C107.205 14.9254 106.613 18.06 103.592 18.9443C102.871 19.1573 98.4116 18.9443 98.4116 18.9443L98.3562 25.0032H93.3713L93.3742 8.7177H103.37C103.37 8.7177 107.888 9.35977 107.278 14.3476ZM102.346 13.6967C102.13 12.1703 100.586 11.9047 100.586 11.9047H98.362V15.9528C98.362 15.9528 100.16 16.0228 100.586 15.9528C102.147 15.7047 102.401 14.0761 102.346 13.6967ZM124.048 25.0032H118.704L118.1 22.3677L112.208 22.3911L111.405 25.0032H106.254L112.359 8.7177L117.896 8.83152L124.048 25.0032ZM116.985 19.0493L115.103 13.0255L113.217 19.0289L116.985 19.0493Z" fill="url(#paint0_linear_16195_34022)"/>
<path fill-rule="evenodd" clip-rule="evenodd" d="M92.6688 31.6895C92.6688 30.8569 92.9015 30.2242 93.3668 29.7916C93.8321 29.3589 94.4688 29.1426 95.277 29.1426C96.0851 29.1426 96.7137 29.3711 97.1627 29.8283C97.6117 30.2773 97.8362 30.9018 97.8362 31.7018V35.6324C97.8362 36.1303 97.726 36.5589 97.5055 36.9181C97.2933 37.2773 96.9913 37.5548 96.5994 37.7507C96.2157 37.9467 95.7709 38.0446 95.2647 38.0446C94.7831 38.0446 94.3464 37.9548 93.9545 37.7752C93.5627 37.5956 93.2484 37.3263 93.0117 36.9671C92.7831 36.6079 92.6688 36.163 92.6688 35.6324V31.6895ZM93.5872 35.5467C93.5872 35.8895 93.6566 36.1834 93.7953 36.4283C93.9341 36.665 94.1259 36.8446 94.3708 36.9671C94.6239 37.0895 94.9137 37.1507 95.2402 37.1507C95.5749 37.1507 95.8688 37.0936 96.1219 36.9793C96.3749 36.8569 96.5708 36.6732 96.7096 36.4283C96.8484 36.1834 96.9178 35.8854 96.9178 35.5344V31.7507C96.9178 31.3671 96.8525 31.0528 96.7219 30.8079C96.5994 30.5548 96.4117 30.3671 96.1586 30.2446C95.9137 30.114 95.6076 30.0487 95.2402 30.0487C94.8974 30.0487 94.5994 30.114 94.3464 30.2446C94.1015 30.3671 93.9137 30.5548 93.7831 30.8079C93.6525 31.0528 93.5872 31.3671 93.5872 31.7507V35.5467ZM99.2634 29.3385H98.2716L100.623 37.9099H101.774L104.125 29.3385H103.121L101.198 36.465L99.2634 29.3385ZM105.065 30.1711V29.3385H106.804V37.9099H105.897V30.1956L105.065 30.1711ZM111.714 29.6813C111.298 29.4528 110.784 29.3385 110.171 29.3385H107.857V37.9099H110.416C110.996 37.9099 111.478 37.816 111.861 37.6283C112.245 37.4405 112.531 37.163 112.718 36.7956C112.914 36.4283 113.012 35.9752 113.012 35.4364V32.0936C113.012 31.5303 112.902 31.0446 112.682 30.6364C112.461 30.2201 112.139 29.9017 111.714 29.6813ZM111.102 36.9793C110.865 37.0528 110.571 37.0895 110.22 37.0895H108.775V30.2079H110.294C110.718 30.2079 111.061 30.2813 111.322 30.4283C111.592 30.5752 111.788 30.7793 111.91 31.0405C112.033 31.3018 112.094 31.5997 112.094 31.9344V35.5589C112.094 35.7793 112.061 35.9875 111.996 36.1834C111.931 36.3711 111.824 36.5344 111.678 36.6732C111.539 36.8038 111.347 36.9058 111.102 36.9793ZM114.027 37.9099V29.3385H118.117V30.2079H114.946V32.8528H117.052L116.782 33.7344H114.946V37.0895H118.093V37.9099H114.027ZM121.914 29.3385C122.281 29.3385 122.616 29.3875 122.918 29.4854C123.228 29.5752 123.498 29.7262 123.726 29.9385C123.955 30.1507 124.13 30.4446 124.253 30.8201C124.375 31.1875 124.436 31.6446 124.436 32.1915C124.436 32.665 124.391 33.0732 124.302 33.416C124.22 33.7507 124.098 34.0324 123.934 34.2609C123.779 34.4813 123.579 34.6609 123.334 34.7997L124.485 37.9099H123.53L122.514 35.0691L122.318 35.0936C122.253 35.1018 122.187 35.1058 122.122 35.1058H121.914H120.016V37.9099H119.098V29.3385H121.914ZM121.791 34.2364C122.053 34.2364 122.285 34.212 122.489 34.163C122.702 34.114 122.885 34.0242 123.04 33.8936C123.196 33.7548 123.31 33.5507 123.383 33.2813C123.465 33.0038 123.506 32.6405 123.506 32.1915C123.506 31.7752 123.465 31.4364 123.383 31.1752C123.31 30.914 123.196 30.7181 123.04 30.5875C122.893 30.4487 122.714 30.3548 122.502 30.3058C122.289 30.2487 122.053 30.2201 121.791 30.2201H120.016V34.2364H121.791ZM90.2369 29.4854C89.9349 29.3875 89.6002 29.3385 89.2329 29.3385H86.4165V37.9099H87.3349V35.1058H89.2329H89.441C89.5063 35.1058 89.5716 35.1018 89.6369 35.0936L89.8329 35.0691L90.8492 37.9099H91.8043L90.6533 34.7997C90.8982 34.6609 91.0982 34.4813 91.2533 34.2609C91.4165 34.0324 91.539 33.7507 91.6206 33.416C91.7104 33.0732 91.7553 32.665 91.7553 32.1915C91.7553 31.6446 91.6941 31.1875 91.5716 30.8201C91.4492 30.4446 91.2737 30.1507 91.0451 29.9385C90.8165 29.7262 90.5472 29.5752 90.2369 29.4854ZM89.8084 34.163C89.6043 34.212 89.3716 34.2364 89.1104 34.2364H87.3349V30.2201H89.1104C89.3716 30.2201 89.6084 30.2487 89.8206 30.3058C90.0329 30.3548 90.2125 30.4487 90.3594 30.5875C90.5145 30.7181 90.6288 30.914 90.7023 31.1752C90.7839 31.4364 90.8247 31.7752 90.8247 32.1915C90.8247 32.6405 90.7839 33.0038 90.7023 33.2813C90.6288 33.5507 90.5145 33.7548 90.3594 33.8936C90.2043 34.0242 90.0206 34.114 89.8084 34.163ZM82.9191 29.3385C83.2864 29.3385 83.6211 29.3875 83.9232 29.4854C84.2334 29.5752 84.5028 29.7262 84.7313 29.9385C84.9599 30.1507 85.1354 30.4446 85.2579 30.8201C85.3803 31.1875 85.4415 31.6446 85.4415 32.1915C85.4415 32.7548 85.3803 33.2242 85.2579 33.5997C85.1436 33.9752 84.9762 34.2732 84.7558 34.4936C84.5354 34.714 84.2701 34.8732 83.9599 34.9711C83.6497 35.0609 83.3028 35.1058 82.9191 35.1058H81.0211V37.9099H80.1028V29.3385H82.9191ZM81.0211 34.2364H82.7966C83.0579 34.2364 83.2905 34.212 83.4946 34.163C83.7068 34.114 83.8905 34.0242 84.0456 33.8936C84.2007 33.7548 84.315 33.5507 84.3885 33.2813C84.4701 33.0038 84.5109 32.6405 84.5109 32.1915C84.5109 31.7752 84.4701 31.4364 84.3885 31.1752C84.315 30.914 84.2007 30.7181 84.0456 30.5875C83.8987 30.4487 83.7191 30.3548 83.5068 30.3058C83.2946 30.2487 83.0579 30.2201 82.7966 30.2201H81.0211V34.2364ZM71.6724 29.3385V37.9099H75.7377V37.0895H72.5908V33.7344H74.4275L74.6969 32.8528H72.5908V30.2079H75.7622V29.3385H71.6724ZM70.1348 30.3058C69.9308 30.2242 69.7226 30.1671 69.5103 30.1344C69.2981 30.0936 69.0899 30.0732 68.8859 30.0732C68.5267 30.0732 68.2206 30.1263 67.9675 30.2324C67.7144 30.3303 67.5226 30.4936 67.392 30.7222C67.2614 30.9426 67.1961 31.2405 67.1961 31.6161V35.6324C67.1961 35.9997 67.2532 36.2977 67.3675 36.5263C67.4818 36.7548 67.6573 36.9222 67.894 37.0283C68.1308 37.1263 68.4246 37.1752 68.7757 37.1752C68.9716 37.1752 69.1716 37.1589 69.3757 37.1263C69.5797 37.0854 69.7838 37.0405 69.9879 36.9916C70.192 36.9344 70.3757 36.8773 70.5389 36.8201L70.6981 37.6283C70.3552 37.7589 70.0165 37.861 69.6818 37.9344C69.3552 38.0079 69.0369 38.0446 68.7267 38.0446C68.2124 38.0446 67.7716 37.9589 67.4042 37.7875C67.0369 37.6079 66.7552 37.3426 66.5593 36.9916C66.3716 36.6405 66.2777 36.1956 66.2777 35.6569V31.665C66.2777 31.1018 66.3797 30.6405 66.5838 30.2814C66.7961 29.914 67.0818 29.6446 67.441 29.4732C67.8001 29.2936 68.2042 29.2038 68.6532 29.2038C68.9634 29.2038 69.2654 29.2405 69.5593 29.314C69.8532 29.3793 70.1348 29.4814 70.4042 29.6201L70.1348 30.3058ZM63.5111 29.3385V30.1711L64.3438 30.1956V37.9099H65.2499V29.3385H63.5111ZM56.7179 29.3385H57.7097L59.6444 36.465L61.5668 29.3385H62.5709L60.2199 37.9099H59.0689L56.7179 29.3385ZM54.8057 29.4854C54.5036 29.3875 54.1689 29.3385 53.8016 29.3385H50.9852V37.9099H51.9036V35.1058H53.8016H54.0097C54.075 35.1058 54.1404 35.1018 54.2057 35.0936L54.4016 35.0691L55.4179 37.9099H56.373L55.222 34.7997C55.4669 34.6609 55.6669 34.4813 55.822 34.2609C55.9853 34.0324 56.1077 33.7507 56.1893 33.416C56.2791 33.0732 56.324 32.665 56.324 32.1915C56.324 31.6446 56.2628 31.1875 56.1404 30.8201C56.0179 30.4446 55.8424 30.1507 55.6138 29.9385C55.3853 29.7262 55.1159 29.5752 54.8057 29.4854ZM54.3771 34.163C54.173 34.212 53.9404 34.2364 53.6791 34.2364H51.9036V30.2201H53.6791C53.9404 30.2201 54.1771 30.2487 54.3893 30.3058C54.6016 30.3548 54.7812 30.4487 54.9281 30.5875C55.0832 30.7181 55.1975 30.914 55.271 31.1752C55.3526 31.4364 55.3934 31.7752 55.3934 32.1915C55.3934 32.6405 55.3526 33.0038 55.271 33.2813C55.1975 33.5507 55.0832 33.7548 54.9281 33.8936C54.773 34.0242 54.5893 34.114 54.3771 34.163ZM45.9151 37.9099V29.3385H50.0049V30.2079H46.8335V32.8528H48.9396L48.6702 33.7344H46.8335V37.0895H49.9804V37.9099H45.9151ZM43.3572 30.2446C43.5367 30.2936 43.7082 30.3589 43.8714 30.4405L44.1408 29.6813C43.9449 29.5752 43.7408 29.4895 43.5286 29.4242C43.3163 29.3589 43.1041 29.3099 42.8918 29.2773C42.6796 29.2446 42.4592 29.2283 42.2306 29.2283C41.9041 29.2283 41.5776 29.265 41.251 29.3385C40.9327 29.4119 40.6388 29.5303 40.3694 29.6936C40.1 29.8568 39.8837 30.0773 39.7204 30.3548C39.5572 30.6242 39.4755 30.9507 39.4755 31.3344C39.4755 31.6528 39.5367 31.9303 39.6592 32.167C39.7816 32.4038 39.949 32.6119 40.1612 32.7915C40.3735 32.963 40.6143 33.1181 40.8837 33.2568C41.1531 33.3956 41.4265 33.5222 41.7041 33.6364C41.9816 33.7507 42.251 33.8691 42.5123 33.9915C42.7816 34.114 43.0225 34.2487 43.2347 34.3956C43.447 34.5426 43.6143 34.7099 43.7367 34.8977C43.8674 35.0854 43.9327 35.3099 43.9327 35.5711C43.9327 35.8568 43.8755 36.1058 43.7612 36.3181C43.6551 36.5222 43.5082 36.6895 43.3204 36.8201C43.1327 36.9426 42.9163 37.0364 42.6714 37.1017C42.4347 37.1589 42.1898 37.1875 41.9367 37.1875C41.6674 37.1875 41.3857 37.1507 41.0919 37.0773C40.798 37.0038 40.5204 36.8977 40.2592 36.7589C39.998 36.6119 39.7776 36.4283 39.598 36.2079L39.0714 36.7956C39.3163 37.0813 39.5898 37.3181 39.8918 37.5058C40.1939 37.6936 40.5204 37.8324 40.8714 37.9222C41.2225 38.0119 41.5857 38.0568 41.9612 38.0568C42.3367 38.0568 42.7 38.0079 43.051 37.9099C43.4021 37.8201 43.7163 37.6773 43.9939 37.4813C44.2796 37.2854 44.5041 37.0364 44.6674 36.7344C44.8306 36.4242 44.9123 36.0568 44.9123 35.6324C44.9123 35.265 44.847 34.9466 44.7163 34.6773C44.5939 34.3997 44.4225 34.163 44.2021 33.967C43.9898 33.7711 43.749 33.5997 43.4796 33.4528C43.2184 33.3058 42.9449 33.1752 42.6592 33.0609C42.3735 32.9385 42.0959 32.8201 41.8265 32.7058C41.5653 32.5915 41.3245 32.4691 41.1041 32.3385C40.8918 32.2079 40.7204 32.0609 40.5898 31.8977C40.4674 31.7262 40.4061 31.5222 40.4061 31.2854C40.4061 31.0487 40.4633 30.8528 40.5776 30.6977C40.6919 30.5426 40.8429 30.4201 41.0306 30.3303C41.2184 30.2405 41.4184 30.1793 41.6306 30.1466C41.8429 30.1058 42.0429 30.0854 42.2306 30.0854C42.4265 30.0854 42.6184 30.0977 42.8061 30.1222C42.9939 30.1466 43.1776 30.1875 43.3572 30.2446Z" fill="#8CA9A4"/>
<defs>
<linearGradient id="paint0_linear_16195_34022" x1="62.1317" y1="40.0026" x2="62.1317" y2="0" gradientUnits="userSpaceOnUse">
<stop stop-color="#1DFBA7"/>
<stop offset="1" stop-color="#01C3A6"/>
</linearGradient>
</defs>
</svg>
