<svg width="22" height="23" viewBox="0 0 22 23" fill="none" xmlns="http://www.w3.org/2000/svg">
<path d="M11.001 15.6292C10.0372 16.4247 8.96639 16.9754 7.71963 17.2202C4.35414 17.8703 0.86628 15.568 0.154939 12.2102C-0.640539 8.43931 1.7 4.9132 5.50147 4.2554C7.48251 3.9112 9.26469 4.45427 10.8251 5.72397C10.8786 5.76987 10.9398 5.80811 11.001 5.85401C11.2763 5.95344 11.4293 6.19055 11.6129 6.39707C11.6741 6.46591 11.72 6.56534 11.5899 6.63418C11.1998 6.75657 10.7715 6.58064 10.3126 6.79481C10.9015 6.90189 11.4293 6.76422 11.9341 6.8866C12.0871 6.98603 12.2095 7.09311 12.1712 7.29198C12.0489 7.42966 11.8806 7.40672 11.7276 7.40672C11.261 7.41437 10.8021 7.40672 10.3355 7.40672C10.1902 7.40672 10.0449 7.39142 9.89954 7.4832C9.96838 7.58264 10.0678 7.55204 10.152 7.55204C10.7409 7.55204 11.3222 7.55204 11.9112 7.55204C12.0795 7.55204 12.2554 7.53675 12.4084 7.62853C12.5154 7.72032 12.5996 7.83505 12.546 7.98038C12.4848 8.12571 12.3319 8.12571 12.2018 8.13335C11.4829 8.14865 10.7639 8.13336 10.0449 8.141C9.8919 8.141 9.73127 8.10276 9.563 8.21749C9.70832 8.29398 9.83835 8.27104 9.96838 8.27104C10.7103 8.27104 11.4599 8.27104 12.2018 8.27104C12.286 8.27104 12.3701 8.27103 12.4543 8.27868C12.6608 8.29398 12.8596 8.35517 12.8673 8.60758C12.8673 8.87529 12.6378 8.85999 12.4619 8.85999C11.5823 8.87529 10.7027 8.85999 9.8307 8.86764C9.67773 8.86764 9.5171 8.83705 9.33353 8.93648C9.47121 9.02827 9.60124 9.00532 9.72362 9.00532C10.6109 9.00532 11.5058 9.00532 12.3931 9.00532C12.5154 9.00532 12.6378 9.00532 12.7602 9.02062C12.9514 9.05121 13.0815 9.15065 13.0815 9.35717C13.0815 9.58663 12.8826 9.58663 12.7373 9.58663C11.8806 9.60958 11.0316 9.58663 10.1749 9.60193C9.80011 9.60958 9.41767 9.54839 9.05052 9.65547C8.89755 9.73196 8.73692 9.79315 8.59159 9.88494C8.29329 10.0762 8.2015 10.3745 8.33153 10.6957C8.37743 10.8104 8.37743 10.9328 8.38508 11.0552C8.40802 11.6289 8.48451 11.7207 9.03523 11.843C10.1443 11.8966 11.2534 11.8507 12.3625 11.866C12.5231 11.866 12.6837 11.8507 12.8367 11.8813C12.9591 11.9042 13.0891 11.9348 13.0891 12.0954C13.0891 12.2408 13.0279 12.3555 12.8826 12.409C12.7449 12.4626 12.5919 12.4549 12.4466 12.4549C11.5287 12.4549 10.6185 12.4549 9.70068 12.4549C9.58594 12.4549 9.46356 12.4167 9.35648 12.5238C9.49416 12.6232 9.63948 12.585 9.78481 12.585C10.5803 12.5926 11.3681 12.585 12.1636 12.585C12.2477 12.585 12.3319 12.5773 12.416 12.585C12.5996 12.6079 12.8596 12.5467 12.8673 12.8297C12.8749 13.128 12.6302 13.1663 12.4007 13.1663C11.6052 13.1816 10.8174 13.1663 10.0219 13.1739C9.8766 13.1739 9.73127 13.1357 9.58594 13.2351C9.71597 13.3499 9.86895 13.3116 10.0066 13.3116C10.7409 13.3193 11.4676 13.2963 12.2018 13.3193C12.6072 13.3346 12.6608 13.4722 12.4313 13.8164C12.2783 13.9159 12.1024 13.9006 11.9341 13.9006C11.3758 13.9006 10.8174 13.9006 10.259 13.9006C10.1443 13.9006 10.0219 13.8623 9.8919 13.9618C10.0678 14.0765 10.2514 14.0382 10.4273 14.0535C10.9933 14.0841 11.567 13.9847 12.133 14.1147C12.286 14.3519 12.1024 14.4589 11.9571 14.5813C11.4446 14.7113 10.9168 14.5813 10.3202 14.6731C10.7792 14.9026 11.1998 14.719 11.5899 14.8337C11.72 14.8949 11.6894 14.9944 11.6205 15.0708C11.437 15.285 11.284 15.5298 11.001 15.6292Z" fill="#DC3327"/>
<path d="M11.6587 6.55769C11.4369 6.32057 11.2227 6.07581 11.0009 5.8387C12.2553 4.75256 13.7009 4.1636 15.3684 4.14831C19.0398 4.11771 22.0076 7.07781 21.9999 10.7492C21.9923 14.4742 18.9174 17.4496 15.1848 17.3119C13.5939 17.2507 12.2018 16.6618 11.0009 15.6215C11.2151 15.3844 11.4369 15.1473 11.6511 14.9102C11.6511 14.7113 11.804 14.6272 11.9494 14.5431C12.0258 14.4207 12.0947 14.2983 12.1712 14.1759C12.1941 14.0229 12.2859 13.9159 12.393 13.8164C12.5766 13.4416 12.5766 13.4416 12.1559 13.4416C11.3604 13.4416 10.5649 13.4416 9.77709 13.4416C9.69295 13.4416 9.60882 13.4416 9.52468 13.434C9.37935 13.4263 9.34876 13.2963 9.34111 13.1969C9.32581 13.0362 9.47114 13.0821 9.55527 13.0821C10.4808 13.0745 11.4139 13.0821 12.3394 13.0821C12.4236 13.0821 12.5077 13.0821 12.5995 13.0821C12.7907 13.0821 12.8213 12.9292 12.8213 12.8068C12.8213 12.6538 12.676 12.715 12.5919 12.715C11.6128 12.7073 10.6414 12.715 9.66236 12.715C9.57822 12.715 9.49408 12.715 9.4023 12.715C9.24167 12.7226 9.0887 12.6997 9.10399 12.4932C9.11164 12.2943 9.27992 12.3631 9.387 12.3631C10.4272 12.3555 11.4598 12.3631 12.5001 12.3631C12.5842 12.3631 12.676 12.3555 12.7525 12.3631C12.9667 12.3937 13.0049 12.2408 13.0125 12.0954C13.0202 11.9119 12.8519 11.9884 12.7678 11.9884C11.6205 11.9807 10.4731 11.9884 9.32581 11.9807C9.20343 11.9807 9.0581 12.0419 8.95102 11.9119C9.0428 11.7742 9.21108 11.7436 9.32581 11.6442C9.44819 11.5983 9.57057 11.583 9.69295 11.5753C10.1978 11.8736 10.7026 11.8583 11.2151 11.5753C11.3604 11.583 11.5057 11.5906 11.6511 11.6365C11.8729 11.7665 12.1023 11.7742 12.3318 11.6442C12.5766 11.5371 12.9131 11.6824 13.1043 11.3917C13.2726 11.3459 13.3338 11.4988 13.4332 11.5753C13.8539 11.8813 14.4964 11.8889 14.8253 11.56C14.9248 11.4606 15.0854 11.3382 14.9477 11.1929C14.8253 11.0628 14.6647 11.0781 14.5347 11.2311C14.3817 11.407 14.1981 11.5218 13.9533 11.4147C13.7086 11.3076 13.6397 11.0934 13.6245 10.8487C13.6168 10.7263 13.6168 10.6039 13.6397 10.4815C13.7162 10.0761 14.0375 9.92317 14.397 10.1144C14.5653 10.2062 14.7947 10.3821 14.9018 10.1603C15.0089 9.93082 14.7335 9.82374 14.5423 9.74725C14.1216 9.58662 13.7315 9.67076 13.372 9.94612C13.2726 10.0226 13.1885 10.1679 13.0355 10.0379C12.8825 9.88493 12.6836 9.90023 12.4848 9.90023C11.4904 9.90023 10.5037 9.90023 9.50938 9.90023C9.32581 9.90023 9.14224 9.92317 8.97396 9.83139C8.90512 9.78549 8.90512 9.71665 8.93572 9.64782C8.96631 9.41835 9.14989 9.49484 9.27992 9.49484C10.4272 9.48719 11.5746 9.49484 12.7142 9.48719C12.8137 9.48719 13.0049 9.59427 13.0049 9.35716C13.0049 9.15829 12.8749 9.1124 12.6913 9.1124C11.6052 9.12005 10.519 9.12005 9.44054 9.1124C9.31816 9.1124 9.11164 9.21183 9.10399 8.96707C9.10399 8.72995 9.30286 8.7682 9.45584 8.7682C10.4808 8.7682 11.5057 8.7682 12.5307 8.76055C12.6301 8.76055 12.8137 8.85234 12.8137 8.65347C12.8213 8.47754 12.7142 8.38576 12.5077 8.38576C11.544 8.39341 10.5802 8.39341 9.61646 8.38576C9.51703 8.38576 9.33346 8.47754 9.34111 8.27103C9.34876 8.10275 9.45584 8.03391 9.63941 8.03391C10.4808 8.04156 11.3222 8.04156 12.1635 8.03391C12.5842 8.03391 12.5842 8.03391 12.393 7.65912C12.2324 7.55969 12.1865 7.39906 12.1635 7.22314C12.0947 7.1237 12.0182 7.02427 11.9494 6.92483C11.804 6.84069 11.6587 6.76421 11.6587 6.55769Z" fill="#F8C13B"/>
<path d="M2.54132 10.9558C2.64076 10.5657 2.7249 10.2598 2.79374 9.95383C2.83963 9.73201 2.91612 9.60963 3.19148 9.61728C3.79573 9.64022 3.79573 9.62493 3.79573 10.2445C3.79573 10.6805 3.78043 11.1241 3.80338 11.5601C3.81103 11.7819 3.74219 11.8584 3.52037 11.8507C3.31386 11.8507 3.21442 11.8201 3.22972 11.5754C3.25267 11.1776 3.23737 10.7723 3.18383 10.3592C3.08439 10.734 2.97731 11.1088 2.87787 11.4836C2.83198 11.6748 2.83198 11.8431 2.54132 11.8507C2.22772 11.8584 2.22772 11.6672 2.18183 11.4683C2.09004 11.0935 1.99061 10.7264 1.83763 10.3669C1.83763 10.7799 1.82234 11.1853 1.84528 11.5983C1.85293 11.8201 1.76114 11.8584 1.56992 11.8507C1.37105 11.8507 1.25632 11.8431 1.26397 11.583C1.28692 11.0094 1.27162 10.4357 1.26397 9.86204C1.26397 9.69377 1.30221 9.60198 1.48579 9.62493C1.50108 9.62493 1.50873 9.62493 1.52403 9.62493C2.18948 9.59433 2.18948 9.59433 2.3501 10.2445C2.40365 10.451 2.45719 10.6575 2.54132 10.9558Z" fill="#FFFEFD"/>
<path d="M5.01963 10.2062C5.75392 10.2138 5.8916 10.3515 5.89925 11.0475C5.89925 11.1929 5.9069 11.3382 5.89925 11.4835C5.8916 11.5983 6.01398 11.7589 5.8916 11.8124C5.76157 11.8736 5.50916 11.8889 5.44032 11.8124C5.28734 11.6442 5.2032 11.7818 5.08082 11.8124C4.94314 11.8507 4.79017 11.8889 4.65249 11.8813C4.37713 11.866 4.14002 11.7512 4.11707 11.4376C4.09412 11.1393 4.30064 11.0093 4.5607 10.9481C4.75192 10.9022 4.93549 10.8563 5.12671 10.8104C5.19555 10.7951 5.28734 10.7875 5.27204 10.6881C5.25675 10.5733 5.16496 10.5733 5.07317 10.5733C4.98904 10.5733 4.8896 10.558 4.83606 10.6345C4.71368 10.7951 4.5454 10.7186 4.40008 10.7186C4.33124 10.7186 4.23945 10.7339 4.20886 10.6498C4.16296 10.558 4.23945 10.4815 4.29299 10.4203C4.49186 10.1832 4.79017 10.2215 5.01963 10.2062Z" fill="#FFFDFC"/>
<path d="M6.16684 11.3993C6.44985 11.4223 6.70991 11.254 6.94702 11.5141C7.02351 11.5906 7.23768 11.5906 7.29122 11.4376C7.34476 11.2693 7.16884 11.2693 7.06175 11.2464C6.89348 11.2081 6.7252 11.1775 6.56458 11.124C6.36571 11.0551 6.23568 10.9098 6.24333 10.688C6.24333 10.4815 6.35806 10.3362 6.54928 10.2826C6.91642 10.1755 7.29122 10.1373 7.63541 10.3515C7.7119 10.3973 7.80369 10.4738 7.77309 10.5886C7.7425 10.6957 7.62777 10.6574 7.55128 10.6651C7.40595 10.6727 7.26062 10.7033 7.13824 10.5809C7.0694 10.5121 6.96232 10.4968 6.87053 10.5656C6.83994 10.5886 6.80934 10.6574 6.82464 10.688C6.87053 10.7874 6.98526 10.7951 7.07705 10.8027C7.26062 10.818 7.44419 10.841 7.60482 10.9251C7.89547 11.0704 7.96431 11.4223 7.7578 11.6671C7.40595 12.0724 6.4422 11.9424 6.16684 11.3993Z" fill="#FFFDFC"/>
<path d="M9.30293 11.6747C9.29528 11.9271 9.07346 11.843 8.94343 11.9118C8.40037 11.8506 8.32388 11.7512 8.29328 11.2005C8.28563 11.0016 8.42331 10.7492 8.10206 10.6192C8.02557 10.5886 8.02557 10.3591 8.09441 10.2826C8.33917 10.0302 8.52275 9.68603 8.92813 9.64014C8.93578 9.69368 8.94343 9.74722 8.94343 9.80076C9.01992 9.87725 9.01227 9.97669 9.05816 10.0685C9.11171 10.1603 9.23409 10.1603 9.27998 10.2597C9.33352 10.3821 9.33352 10.5045 9.27998 10.6345C9.20349 10.7492 9.01227 10.7798 9.02757 10.9634C9.02757 11.0475 9.01992 11.124 9.02757 11.2081C9.03522 11.3076 9.08876 11.3458 9.1729 11.3841C9.31822 11.43 9.35647 11.537 9.30293 11.6747Z" fill="#FFFCFA"/>
<path d="M12.1636 7.22314C12.2401 7.36847 12.3166 7.5138 12.3931 7.65913C11.4829 7.65913 10.5803 7.65913 9.66248 7.65913C9.70072 7.38377 9.8384 7.29198 10.0908 7.29963C10.6721 7.30728 11.2534 7.30728 11.8347 7.29963C11.9418 7.29198 12.0795 7.35317 12.1636 7.22314Z" fill="#F8BD39"/>
<path d="M12.393 13.8164C12.3624 13.9617 12.3165 14.1071 12.1712 14.1759C11.4751 14.1759 10.7868 14.1606 10.0907 14.1759C9.84594 14.1759 9.70062 14.0994 9.65472 13.8164C10.5726 13.8164 11.4828 13.8164 12.393 13.8164Z" fill="#F8BD39"/>
<path d="M11.6587 6.55774C11.7581 6.68012 11.8499 6.8025 11.9494 6.91724C11.3528 6.91724 10.7562 6.91724 10.1366 6.91724C10.1825 6.65717 10.3278 6.56539 10.5649 6.56539C10.9244 6.57304 11.2916 6.56539 11.6587 6.55774Z" fill="#F8BC39"/>
<path d="M11.9495 14.5507C11.8501 14.673 11.7506 14.7954 11.6512 14.9178C11.284 14.9102 10.9245 14.9025 10.5574 14.9025C10.3279 14.9025 10.1979 14.8031 10.1138 14.5507C10.7486 14.5507 11.3452 14.5507 11.9495 14.5507Z" fill="#F7BB39"/>
<path d="M13.1274 10.0685C13.4869 9.58664 13.9765 9.50251 14.5272 9.64018C14.6878 9.67843 14.8255 9.75491 14.9249 9.88495C15.0091 9.99968 15.2079 10.1527 15.0473 10.275C14.9096 10.3745 14.6725 10.5045 14.4889 10.298C14.3436 10.1374 14.1906 10.0532 13.9765 10.145C13.747 10.2444 13.7011 10.4357 13.7011 10.6575C13.7011 10.7646 13.7011 10.8793 13.7088 10.9864C13.7317 11.1852 13.8311 11.3306 14.0376 11.3688C14.2442 11.4071 14.4048 11.3306 14.4889 11.1394C14.6572 10.7493 14.8943 11.0629 15.0549 11.1164C15.2844 11.1929 15.0779 11.3612 15.0243 11.4606C14.726 11.9884 13.7852 12.0649 13.3187 11.6212C13.2498 11.5524 13.1886 11.4759 13.1274 11.3994C13.051 11.3688 13.0127 11.3 12.9821 11.2235C12.9515 11.1317 12.9439 11.0323 12.9439 10.9405C12.9439 10.7646 12.9362 10.5963 12.9515 10.4204C12.9592 10.3209 12.9821 10.2291 13.0357 10.145C13.0662 10.1068 13.0968 10.0838 13.1274 10.0685Z" fill="#FFFFFE"/>
<path d="M20.0878 10.3361C20.0878 10.2061 20.1031 10.099 20.0878 9.99195C20.0495 9.70894 20.1489 9.6095 20.4472 9.6248C20.6691 9.6401 20.7456 9.69364 20.7379 9.91546C20.7226 10.4432 20.7379 10.9633 20.7303 11.4911C20.7303 11.8353 20.4778 12.0112 20.2101 11.82C20.0648 11.7129 20.0266 11.7741 19.9195 11.82C19.5447 12.0036 19.1775 11.8659 19.0246 11.4758C18.8869 11.101 18.8716 10.7186 19.1546 10.4126C19.4147 10.1067 19.7436 10.1832 20.0878 10.3361Z" fill="#FFFEFD"/>
<path d="M16.3092 10.2062C17.0282 10.2138 17.1659 10.3515 17.1659 11.017C17.1659 11.1776 17.1582 11.3306 17.1735 11.4912C17.1965 11.8124 16.9823 11.9807 16.707 11.8124C16.554 11.713 16.4851 11.7742 16.3704 11.8124C16.1639 11.8889 15.9497 11.9348 15.7279 11.8507C15.529 11.7742 15.399 11.6442 15.3914 11.4223C15.3914 11.1929 15.5137 11.0552 15.7203 10.994C15.9038 10.9405 16.1027 10.9175 16.2863 10.8563C16.3781 10.8257 16.5922 10.8563 16.531 10.6728C16.4775 10.5121 16.2786 10.5427 16.1868 10.6116C16.0262 10.7263 15.8656 10.7569 15.682 10.7263C15.6132 10.7186 15.5214 10.7339 15.4908 10.6498C15.4525 10.558 15.5214 10.4892 15.5749 10.4203C15.7814 10.1832 16.0721 10.2138 16.3092 10.2062Z" fill="#FFFFFD"/>
<path d="M11.2075 11.6212C10.718 11.996 10.1596 11.996 9.68539 11.6288C9.52476 11.5676 9.49417 11.4146 9.44827 11.277C9.42533 11.1699 9.38708 11.0628 9.39473 10.9557C9.42533 10.7874 9.47887 10.6345 9.56301 10.4891C9.70069 10.3209 9.89191 10.2291 10.0908 10.1526C10.3279 10.1143 10.565 10.1143 10.7945 10.1526C10.9933 10.2138 11.1387 10.3438 11.2687 10.4968C11.3758 10.6498 11.437 10.8104 11.437 11.0016C11.4217 11.2234 11.261 11.2693 11.0775 11.277C10.8327 11.2923 10.5956 11.2617 10.3585 11.2999C10.5191 11.4835 10.6874 11.2693 10.8557 11.3076C10.9627 11.3076 11.0698 11.2923 11.1693 11.3305C11.3528 11.3993 11.3834 11.4988 11.2075 11.6212Z" fill="#FFFEFC"/>
<path d="M13.1273 10.0685C13.1197 10.0991 13.1044 10.1221 13.0967 10.1527C12.9514 10.2751 12.7755 10.2521 12.6072 10.2598C11.827 10.2827 11.0545 10.2062 10.282 10.2062C9.83832 10.2062 9.39469 10.3057 8.95871 10.1603C8.95871 10.0456 8.95871 9.93087 8.95871 9.81613C10.2284 9.81613 11.4981 9.81613 12.7678 9.81613C12.959 9.80084 13.1426 9.79319 13.1273 10.0685Z" fill="#DD3C27"/>
<path d="M12.3165 11.69C12.11 11.9271 11.7887 11.9195 11.6434 11.6671C11.5592 11.5753 11.5669 11.4529 11.5592 11.3382C11.5592 11.2999 11.5592 11.2617 11.5592 11.2234C11.5592 11.124 11.5592 11.0322 11.5592 10.9328C11.5592 10.7951 11.5516 10.6574 11.5592 10.5197C11.5592 10.4203 11.5669 10.3209 11.6204 10.2367C12.0105 10.1297 12.4006 10.2444 12.7907 10.1908C12.8901 10.1756 12.9513 10.2444 12.959 10.3438C12.9743 10.5197 12.8978 10.6498 12.7525 10.7416C12.6454 10.8104 12.4848 10.7951 12.4236 10.9404C12.4006 11.0246 12.393 11.1087 12.3777 11.1852C12.37 11.2158 12.3624 11.2464 12.3547 11.277C12.3088 11.3994 12.3241 11.5217 12.3165 11.6441C12.3241 11.6594 12.3165 11.6747 12.3165 11.69Z" fill="#FFFDF9"/>
<path d="M17.5636 11.0323C17.5636 10.864 17.5789 10.6881 17.5636 10.5198C17.533 10.2674 17.6554 10.1833 17.8772 10.2292C18.0914 10.2751 18.2979 10.3439 18.5121 10.2215C18.5886 10.1756 18.7721 10.1909 18.7798 10.321C18.7874 10.451 18.7263 10.6804 18.5886 10.6728C18.1373 10.6651 18.2061 10.9864 18.1755 11.2541C18.1679 11.3382 18.1679 11.4224 18.1755 11.5065C18.2061 11.7436 18.1526 11.8584 17.8696 11.8507C17.5942 11.8507 17.533 11.7436 17.556 11.5065C17.5789 11.3535 17.5636 11.1929 17.5636 11.0323Z" fill="#FFFFFE"/>
<path d="M13.0584 11.2465C13.0814 11.2924 13.1043 11.3459 13.1349 11.3918C13.1349 11.606 13.0355 11.6901 12.8213 11.6748C12.6531 11.6595 12.4848 11.6825 12.3165 11.6825V11.6901C12.2553 11.5448 12.263 11.3918 12.3165 11.2465V11.2541C12.5613 11.0935 12.8137 11.0935 13.0584 11.2465Z" fill="#DE4326"/>
<path d="M9.50934 11.2541C9.57054 11.3765 9.62408 11.4989 9.68527 11.6289C9.56289 11.713 9.43286 11.6671 9.30283 11.6748C9.23399 11.583 9.27223 11.3765 9.04277 11.4453C8.96628 11.4683 8.92803 11.3459 8.95098 11.2541C9.13455 11.1164 9.32577 11.1011 9.50934 11.2541Z" fill="#E1502D"/>
<path d="M11.6434 11.3229C11.6434 11.4376 11.6434 11.5523 11.6434 11.6671C11.4981 11.6594 11.3451 11.713 11.2074 11.6212C11.2227 11.5447 11.3757 11.4452 11.1769 11.4146C11.0468 11.3917 10.9168 11.3917 10.7791 11.3841C11.0545 11.1546 11.3451 11.2234 11.6434 11.3229Z" fill="#DE4227"/>
<path d="M5.25673 11.0781C5.32557 11.3382 5.23378 11.4759 5.01196 11.5294C4.90488 11.5524 4.7519 11.5524 4.75955 11.407C4.77485 11.1011 5.0808 11.2082 5.25673 11.0781Z" fill="#DD3D29"/>
<path d="M12.3318 10.9405C12.3471 10.7722 12.4313 10.6651 12.6148 10.6804C12.8749 10.7033 12.9132 10.4739 12.9132 10.3362C12.9132 10.1603 12.6913 10.1909 12.5919 10.2215C12.2783 10.3439 11.98 10.1603 11.674 10.2368C11.3987 10.428 11.1157 10.3133 10.8403 10.2368C10.5803 10.2062 10.3202 10.1985 10.0601 10.2368C9.78478 10.3056 9.51707 10.428 9.24172 10.2368C9.14993 10.1985 9.0199 10.3056 8.95871 10.1603C10.3431 10.1603 11.7199 10.1603 13.1044 10.1603C13.0814 10.2368 13.0126 10.298 13.0432 10.3821C12.959 10.581 13.0891 10.8104 12.9667 11.0016C12.7372 11.0858 12.5231 11.1164 12.3318 10.9405Z" fill="#E04D29"/>
<path d="M9.61649 10.5274C9.56295 10.6575 9.50941 10.7951 9.46352 10.9252C9.29524 11.0934 9.12697 11.0858 8.95105 10.9328C8.83631 10.6039 9.14992 10.711 9.2723 10.6116C9.34114 10.4203 9.46352 10.3974 9.61649 10.5274Z" fill="#E04B29"/>
<path d="M9.61653 10.5274C9.4865 10.5121 9.35647 10.4968 9.26468 10.6192C9.24939 10.4892 9.24174 10.3592 9.22644 10.2291C9.5018 10.2291 9.76951 10.2291 10.0449 10.2291C9.90719 10.3286 9.76186 10.428 9.61653 10.5274Z" fill="#F8C34C"/>
<path d="M8.95111 10.9405C9.11939 10.9405 9.29531 10.9329 9.46358 10.9329C9.47888 11.0399 9.49418 11.147 9.50948 11.2541C9.3259 11.2541 9.13468 11.2541 8.95111 11.2541C8.95111 11.147 8.95111 11.0476 8.95111 10.9405Z" fill="#F9C448"/>
<path d="M12.3319 10.9406C12.5461 10.9406 12.7679 10.9406 12.9821 10.9482C13.0127 10.9329 13.0356 10.9406 13.0432 10.9788C13.0509 11.0706 13.0585 11.1624 13.0585 11.2542C12.8061 11.2542 12.5614 11.2542 12.309 11.2542C12.3166 11.1471 12.3243 11.04 12.3319 10.9406Z" fill="#F8C23E"/>
<path d="M13.0432 10.9711C13.0279 10.9558 13.0049 10.9481 12.982 10.9405C13.0355 10.7493 12.9285 10.5504 13.0355 10.3668C13.0432 10.5733 13.0432 10.7722 13.0432 10.9711Z" fill="#FFFDF9"/>
<path d="M19.5677 11.0475C19.5677 10.8716 19.5906 10.6727 19.8201 10.6727C20.0648 10.6727 20.0954 10.8716 20.0954 11.0628C20.0954 11.254 20.0419 11.4223 19.8201 11.4147C19.5906 11.4147 19.56 11.2311 19.5677 11.0475Z" fill="#F8C23F"/>
<path d="M16.5617 11.2694C16.5387 11.4301 16.424 11.5295 16.2251 11.5448C16.118 11.5525 16.0109 11.5066 16.0262 11.3918C16.0492 11.1471 16.2863 11.1853 16.4393 11.1241C16.5387 11.0782 16.5693 11.1547 16.5617 11.2694Z" fill="#F9C549"/>
<path d="M11.6435 11.323C11.3528 11.3536 11.0622 11.2542 10.7792 11.3842C10.5574 11.3918 10.2744 11.7284 10.152 11.2542C10.6492 11.2006 11.1463 11.17 11.6435 11.2542C11.6435 11.2771 11.6435 11.3 11.6435 11.323Z" fill="#E45827"/>
<path d="M10.8326 10.2291C11.108 10.2291 11.391 10.2291 11.6664 10.2291C11.6587 10.3286 11.6511 10.428 11.6434 10.5274C11.5057 10.6422 11.3681 10.6039 11.2304 10.5274C11.1004 10.428 10.9627 10.3286 10.8326 10.2291Z" fill="#F9C341"/>
<path d="M11.6435 11.2541C11.1463 11.2541 10.6492 11.2541 10.152 11.2541C10.4732 11.1087 10.8021 11.2082 11.131 11.2005C11.3299 11.1929 11.3834 11.1164 11.3758 10.9481C11.4676 10.8793 11.5594 10.8793 11.6511 10.9481C11.6435 11.0475 11.6435 11.147 11.6435 11.2541Z" fill="#F8C13C"/>
<path d="M11.6435 10.9404C11.5517 10.9404 11.4599 10.9404 11.3681 10.9404C11.3222 10.8027 11.2763 10.665 11.2228 10.5273C11.3605 10.5273 11.4981 10.5273 11.6358 10.5273C11.6435 10.665 11.6435 10.8027 11.6435 10.9404Z" fill="#E04B27"/>
<path d="M10.129 10.8792C10.1749 10.7109 10.2285 10.6039 10.3661 10.5886C10.4732 10.5733 10.588 10.5656 10.6568 10.6804C10.6874 10.7262 10.718 10.8104 10.695 10.841C10.6339 10.9404 10.5268 10.8869 10.435 10.8945C10.3355 10.8945 10.2438 10.8869 10.129 10.8792Z" fill="#DD3B29"/>
<path d="M12.3166 11.2465C12.3166 11.3918 12.3166 11.5448 12.3166 11.6901C12.2325 11.5448 12.2325 11.3918 12.3166 11.2465Z" fill="#F8C13B"/>
</svg>
