<svg width="22" height="23" viewBox="0 0 22 23" fill="none" xmlns="http://www.w3.org/2000/svg">
<path d="M12.289 5.24487H5.26045C4.97492 5.24487 4.70036 5.25586 4.43679 5.2888C1.48259 5.54139 0 7.28755 0 10.5053V14.8982C0 19.291 1.75714 20.1586 5.26045 20.1586H5.69974C5.94135 20.1586 6.25983 20.3234 6.4026 20.5101L7.72045 22.2672C8.30251 23.0469 9.24697 23.0469 9.82903 22.2672L11.1469 20.5101C11.3116 20.2904 11.5752 20.1586 11.8497 20.1586H12.289C15.5068 20.1586 17.253 18.687 17.5056 15.7218C17.5385 15.4583 17.5495 15.1837 17.5495 14.8982V10.5053C17.5495 7.00202 15.7923 5.24487 12.289 5.24487ZM4.94197 14.0306C4.32697 14.0306 3.84375 13.5364 3.84375 12.9324C3.84375 12.3284 4.33795 11.8342 4.94197 11.8342C5.54599 11.8342 6.04018 12.3284 6.04018 12.9324C6.04018 13.5364 5.54599 14.0306 4.94197 14.0306ZM8.77474 14.0306C8.15974 14.0306 7.67653 13.5364 7.67653 12.9324C7.67653 12.3284 8.17072 11.8342 8.77474 11.8342C9.37876 11.8342 9.87296 12.3284 9.87296 12.9324C9.87296 13.5364 9.38974 14.0306 8.77474 14.0306ZM12.6185 14.0306C12.0035 14.0306 11.5203 13.5364 11.5203 12.9324C11.5203 12.3284 12.0145 11.8342 12.6185 11.8342C13.2225 11.8342 13.7167 12.3284 13.7167 12.9324C13.7167 13.5364 13.2225 14.0306 12.6185 14.0306Z" fill="#9CA3AF"/>
<path d="M21.9423 6.1125V10.5054C21.9423 12.7018 21.2614 14.1954 19.8997 15.019C19.5702 15.2167 19.1858 14.9531 19.1858 14.5688L19.1968 10.5054C19.1968 6.1125 16.6819 3.59759 12.289 3.59759L5.60088 3.60857C5.21651 3.60857 4.95294 3.2242 5.15062 2.89473C5.97428 1.53294 7.46785 0.852051 9.6533 0.852051H16.6819C20.1852 0.852051 21.9423 2.6092 21.9423 6.1125Z" fill="#6B7280"/>
</svg>
