<svg width="22" height="22" viewBox="0 0 22 22" fill="none" xmlns="http://www.w3.org/2000/svg">
<path d="M16 1H6C3.24 1 1 3.23112 1 5.98249V11.9655V12.966C1 15.7174 3.24 17.9485 6 17.9485H7.5C7.77 17.9485 8.13 18.1286 8.3 18.3487L9.8 20.3397C10.46 21.2201 11.54 21.2201 12.2 20.3397L13.7 18.3487C13.89 18.0985 14.19 17.9485 14.5 17.9485H16C18.76 17.9485 21 15.7174 21 12.966V5.98249C21 3.23112 18.76 1 16 1ZM7 11.005C6.44 11.005 6 10.5548 6 10.0045C6 9.45423 6.45 9.004 7 9.004C7.55 9.004 8 9.45423 8 10.0045C8 10.5548 7.56 11.005 7 11.005ZM11 11.005C10.44 11.005 10 10.5548 10 10.0045C10 9.45423 10.45 9.004 11 9.004C11.55 9.004 12 9.45423 12 10.0045C12 10.5548 11.56 11.005 11 11.005ZM15 11.005C14.44 11.005 14 10.5548 14 10.0045C14 9.45423 14.45 9.004 15 9.004C15.55 9.004 16 9.45423 16 10.0045C16 10.5548 15.56 11.005 15 11.005Z" fill="currentColor"/>
</svg>
