<svg width="24" height="24" viewBox="0 0 24 24" fill="none" xmlns="http://www.w3.org/2000/svg">
<g clip-path="url(#clip0_16767_17371)">
<path d="M18.536 15.8724C17.8026 16.9284 17.0552 17.9759 16.3144 19.0271C16.0884 19.1022 15.5754 18.8096 15.4863 18.5779C15.1956 18.561 14.9658 18.4382 14.813 18.1859C15.1177 17.5023 15.4225 16.8186 15.7283 16.135C15.7629 16.0562 15.8023 15.9802 15.8352 15.9005C15.974 15.5667 15.9027 15.4194 15.5566 15.3397C14.7061 15.1437 13.8536 14.9496 13.003 14.7545C12.8277 14.7142 12.6532 14.6739 12.4779 14.6345C12.3944 14.6148 12.3091 14.5886 12.2425 14.6739C12.0249 15.4232 11.8139 16.1753 11.5373 16.9049C11.2934 17.5473 10.8695 18.0631 10.3237 18.4813C9.02866 19.4735 7.73544 20.4676 6.44035 21.4607C6.4094 21.4841 6.37376 21.501 6.34094 21.5217C6.06992 21.5845 6.00803 21.3219 5.85329 21.2056C5.81015 21.1728 5.78389 21.1259 5.78952 21.0743C5.72012 21.0762 5.6723 21.0274 5.62447 20.9834C5.44347 20.8118 5.26811 20.6345 5.09555 20.4554C5.02709 20.3851 4.9727 20.3119 5.02522 20.2078C5.0768 20.1487 5.12462 20.0868 5.17902 20.0315C6.2059 18.984 7.22903 17.9337 8.26248 16.8937C8.50912 16.6451 8.65823 16.3657 8.72575 16.0234C8.918 15.0528 9.12619 14.085 9.32781 13.1153C9.42722 12.6201 9.52569 12.125 9.62416 11.6298C9.6204 11.6148 9.61947 11.5989 9.6204 11.5839C10.6501 11.5801 11.6789 11.5754 12.7086 11.5707C12.7376 11.5473 12.7676 11.5248 12.8061 11.5192C12.8164 11.5229 12.8258 11.5267 12.8361 11.5304C12.8389 11.5295 12.8408 11.5285 12.8436 11.5276C13.2103 11.4394 13.5751 11.3879 13.9314 11.5689C15.2162 12.1137 16.5047 12.6492 17.7839 13.2044C18.9121 13.6939 19.2384 14.8605 18.536 15.8724Z" fill="currentColor"/>
<path d="M20.2072 5.892C20.1978 6.05986 20.1228 6.20803 20.0524 6.35433C19.6042 7.28931 19.139 8.21678 18.7067 9.15927C18.3888 9.85323 17.7005 10.204 16.9765 9.93482C16.5629 9.71913 16.2544 9.37027 15.9046 9.07393C15.4591 8.69787 15.024 8.30681 14.5851 7.92232C14.3816 9.06174 14.179 10.2012 13.9755 11.3406C13.9615 11.4175 13.9465 11.4934 13.9315 11.5694C13.5564 11.5741 13.1803 11.5788 12.8052 11.5835C12.7921 11.5816 12.7799 11.5806 12.7667 11.5788C12.7489 11.605 12.7273 11.6304 12.7039 11.6538C12.6073 11.6941 12.5051 11.6913 12.4038 11.6922C11.6245 11.696 10.8443 11.6951 10.0649 11.6922C9.90928 11.6922 9.75173 11.6885 9.62044 11.5844C9.77423 10.6944 9.92897 9.80541 10.0828 8.91544C10.1071 8.77759 10.1287 8.63879 10.1512 8.50094C10.1934 8.23929 10.1156 8.14176 9.86051 8.16052C9.49665 8.18865 9.13278 8.22898 8.76892 8.26555C8.52134 8.28993 8.2747 8.32276 8.02712 8.34151C7.90709 8.35089 7.79737 8.37996 7.69421 8.4381C7.60512 8.84323 7.44569 9.22491 7.31159 9.61503C7.1184 10.1749 6.94304 10.7423 6.74329 11.2993C6.53791 11.8714 6.00431 12.1002 5.49039 11.8582C5.13497 11.6894 4.91459 11.2637 5.02244 10.8848C5.34129 9.76789 5.65638 8.64911 6.00806 7.54345C6.19374 6.95827 6.61668 6.57565 7.22437 6.42091C7.55073 6.28681 7.89771 6.22773 8.23719 6.14332C9.15998 5.91544 10.0649 5.6116 11.0065 5.46999C11.6011 5.3809 12.205 5.45123 12.8042 5.43904C13.2572 5.45311 13.713 5.39497 14.1631 5.48593C14.9715 5.60784 15.6439 5.99703 16.2328 6.54751C16.5282 6.8251 16.8217 7.10456 17.1162 7.38215C17.2953 7.55095 17.3385 7.54439 17.4594 7.32307C17.813 6.68162 18.1665 6.03923 18.5173 5.3959C18.5895 5.26274 18.6758 5.14551 18.8033 5.06299C19.1428 4.87074 19.4823 4.84636 19.818 5.06768C20.1134 5.2618 20.2259 5.54689 20.2072 5.892Z" fill="currentColor"/>
<path d="M6.34096 21.5219C6.2303 22.1277 6.12152 22.7344 6.00898 23.3402C5.93021 23.7726 5.7042 23.9836 5.31595 23.9986C4.90708 24.0136 4.66137 23.8223 4.54415 23.3974C4.38004 22.8029 4.21499 22.2083 4.05368 21.6138C3.92427 21.1411 4.0218 20.8832 4.42318 20.6131C4.62386 20.4781 4.82455 20.3431 5.02524 20.208C4.97272 20.3121 5.02711 20.3853 5.09557 20.4556C5.26813 20.6347 5.44349 20.8119 5.62449 20.9836C5.67232 21.0276 5.72014 21.0764 5.78954 21.0745C5.78391 21.1261 5.81017 21.173 5.85331 21.2058C6.00805 21.3221 6.06994 21.5847 6.34096 21.5219Z" fill="currentColor"/>
<path d="M16.2675 21.5185C16.1465 21.5026 16.0462 21.4482 15.9552 21.3722C15.4169 20.923 14.8749 20.4794 14.3432 20.0218C14.0224 19.7461 13.9727 19.3606 14.2062 19.0146C14.3975 18.7314 14.6095 18.4622 14.813 18.1865C14.9658 18.4388 15.1956 18.5616 15.4863 18.5785C15.5754 18.8102 16.0884 19.1027 16.3144 19.0277C16.5376 19.5501 16.7683 20.0696 16.983 20.5957C17.1978 21.1209 16.8274 21.5917 16.2675 21.5185Z" fill="currentColor"/>
<path d="M16.0565 1.22729C15.9411 1.66524 15.7142 2.04599 15.43 2.39485C15.3588 3.2398 14.9855 3.86906 14.1359 4.11945C13.7898 4.22073 13.4288 4.22261 13.0827 4.07912C12.4779 3.86249 12.0971 3.44611 11.9583 2.81498C11.7736 2.35171 11.6536 1.87906 11.7783 1.37828C11.8486 1.09694 12.0043 0.854053 12.2809 0.772465C13.0068 0.559586 13.7092 0.272621 14.4463 0.0972538C14.6779 0.0175414 14.918 -0.0105924 15.1609 0.00347447C15.8642 0.0428618 16.2347 0.547394 16.0565 1.22729Z" fill="currentColor"/>
</g>
<defs>
<clipPath id="clip0_16767_17371">
<rect width="24" height="24" fill="white"/>
</clipPath>
</defs>
</svg>
