<svg width="24" height="25" viewBox="0 0 24 25" fill="none" xmlns="http://www.w3.org/2000/svg">
<g clip-path="url(#clip0_12644_2835)">
<path d="M18.5359 16.7252C17.8026 17.7811 17.0552 18.8286 16.3143 19.8799C16.0883 19.9549 15.5753 19.6623 15.4862 19.4307C15.1955 19.4138 14.9658 19.291 14.8129 19.0387C15.1177 18.3551 15.4225 17.6714 15.7282 16.9878C15.7629 16.909 15.8023 16.833 15.8351 16.7533C15.9739 16.4195 15.9026 16.2722 15.5566 16.1925C14.706 15.9965 13.8535 15.8024 13.003 15.6073C12.8276 15.567 12.6532 15.5267 12.4778 15.4873C12.3943 15.4676 12.309 15.4413 12.2424 15.5267C12.0248 16.276 11.8138 17.0281 11.5372 17.7577C11.2934 18.4001 10.8695 18.9159 10.3237 19.3341C9.0286 20.3263 7.73538 21.3204 6.44029 22.3135C6.40934 22.3369 6.3737 22.3538 6.34088 22.3744C6.06986 22.4373 6.00796 22.1747 5.85323 22.0584C5.81009 22.0256 5.78383 21.9787 5.78946 21.9271C5.72006 21.929 5.67223 21.8802 5.62441 21.8362C5.44341 21.6645 5.26805 21.4873 5.09549 21.3082C5.02703 21.2378 4.97264 21.1647 5.02516 21.0606C5.07674 21.0015 5.12456 20.9396 5.17896 20.8843C6.20584 19.8368 7.22897 18.7864 8.26242 17.7464C8.50906 17.4979 8.65817 17.2185 8.72569 16.8762C8.91794 15.9055 9.12613 14.9377 9.32775 13.9681C9.42716 13.4729 9.52563 12.9778 9.62409 12.4826C9.62034 12.4676 9.61941 12.4517 9.62034 12.4367C10.65 12.4329 11.6788 12.4282 12.7085 12.4235C12.7376 12.4001 12.7676 12.3776 12.806 12.3719C12.8163 12.3757 12.8257 12.3794 12.836 12.3832C12.8388 12.3823 12.8407 12.3813 12.8435 12.3804C13.2102 12.2922 13.575 12.2407 13.9314 12.4216C15.2162 12.9665 16.5047 13.502 17.7838 14.0572C18.912 14.5467 19.2383 15.7133 18.5359 16.7252Z" fill="#0693E3"/>
<path d="M20.2071 6.74429C20.1977 6.91216 20.1227 7.06033 20.0524 7.20662C19.6041 8.1416 19.139 9.06908 18.7067 10.0116C18.3887 10.7055 17.7004 11.0563 16.9764 10.7871C16.5629 10.5714 16.2543 10.2226 15.9045 9.92622C15.4591 9.55017 15.0239 9.15911 14.5851 8.77461C14.3815 9.91403 14.179 11.0535 13.9755 12.1929C13.9614 12.2698 13.9464 12.3457 13.9314 12.4217C13.5563 12.4264 13.1802 12.4311 12.8051 12.4358C12.792 12.4339 12.7798 12.4329 12.7667 12.4311C12.7489 12.4573 12.7273 12.4826 12.7038 12.5061C12.6072 12.5464 12.505 12.5436 12.4037 12.5445C11.6244 12.5483 10.8442 12.5474 10.0649 12.5445C9.90921 12.5445 9.75167 12.5408 9.62037 12.4367C9.77417 11.5467 9.92891 10.6577 10.0827 9.76774C10.1071 9.62988 10.1287 9.49109 10.1512 9.35323C10.1934 9.09159 10.1155 8.99406 9.86045 9.01281C9.49659 9.04095 9.13272 9.08127 8.76886 9.11785C8.52128 9.14223 8.27464 9.17505 8.02706 9.19381C7.90703 9.20318 7.7973 9.23226 7.69415 9.2904C7.60506 9.69553 7.44563 10.0772 7.31153 10.4673C7.11834 11.0272 6.94298 11.5946 6.74323 12.1516C6.53785 12.7237 6.00424 12.9525 5.49033 12.7105C5.13491 12.5417 4.91453 12.116 5.02237 11.7371C5.34122 10.6202 5.65632 9.5014 6.008 8.39574C6.19368 7.81056 6.61662 7.42794 7.22431 7.27321C7.55067 7.1391 7.89765 7.08002 8.23713 6.99562C9.15992 6.76774 10.0649 6.46389 11.0064 6.32228C11.601 6.23319 12.2049 6.30353 12.8042 6.29134C13.2571 6.3054 13.7129 6.24726 14.163 6.33823C14.9714 6.46014 15.6438 6.84932 16.2328 7.39981C16.5282 7.67739 16.8217 7.95686 17.1162 8.23444C17.2953 8.40325 17.3384 8.39668 17.4594 8.17536C17.8129 7.53391 18.1665 6.89152 18.5172 6.2482C18.5894 6.11503 18.6757 5.99781 18.8032 5.91528C19.1427 5.72303 19.4822 5.69865 19.8179 5.91997C20.1133 6.11409 20.2259 6.39918 20.2071 6.74429Z" fill="#01C3A7"/>
<path d="M6.34096 22.3744C6.2303 22.9802 6.12152 23.587 6.00898 24.1928C5.93021 24.6251 5.7042 24.8361 5.31595 24.8511C4.90708 24.8661 4.66137 24.6748 4.54415 24.25C4.38004 23.6554 4.21499 23.0609 4.05368 22.4663C3.92427 21.9937 4.0218 21.7358 4.42318 21.4657C4.62386 21.3306 4.82455 21.1956 5.02524 21.0605C4.97272 21.1646 5.02711 21.2378 5.09557 21.3081C5.26813 21.4872 5.44349 21.6645 5.62449 21.8361C5.67232 21.8802 5.72014 21.9289 5.78954 21.9271C5.78391 21.9786 5.81017 22.0255 5.85331 22.0584C6.00805 22.1746 6.06994 22.4372 6.34096 22.3744Z" fill="#0693E3"/>
<path d="M16.2676 22.3706C16.1466 22.3546 16.0462 22.3002 15.9553 22.2243C15.417 21.7751 14.8749 21.3315 14.3432 20.8738C14.0225 20.5981 13.9728 20.2127 14.2063 19.8666C14.3976 19.5834 14.6095 19.3143 14.8131 19.0386C14.9659 19.2908 15.1957 19.4137 15.4864 19.4306C15.5755 19.6622 16.0884 19.9548 16.3145 19.8798C16.5377 20.4021 16.7683 20.9217 16.9831 21.4478C17.1979 21.9729 16.8274 22.4437 16.2676 22.3706Z" fill="#0693E3"/>
<path d="M16.0564 2.07959C15.9411 2.51754 15.7141 2.89828 15.43 3.24714C15.3587 4.09209 14.9855 4.72135 14.1358 4.97174C13.7898 5.07302 13.4287 5.0749 13.0827 4.93142C12.4778 4.71479 12.0971 4.29841 11.9583 3.66727C11.7735 3.204 11.6535 2.73136 11.7782 2.23057C11.8486 1.94924 12.0042 1.70635 12.2809 1.62476C13.0067 1.41188 13.7091 1.12492 14.4462 0.949549C14.6779 0.869836 14.9179 0.841702 15.1608 0.855769C15.8642 0.895157 16.2346 1.39969 16.0564 2.07959Z" fill="#01C3A7"/>
</g>
<defs>
<clipPath id="clip0_12644_2835">
<rect width="24" height="24" fill="white" transform="translate(0 0.852051)"/>
</clipPath>
</defs>
</svg>
