<svg width="61" height="60" viewBox="0 0 61 60" fill="none" xmlns="http://www.w3.org/2000/svg">
<g clip-path="url(#clip0_16409_4899)">
<path d="M46.84 39.6829C45.0066 42.3228 43.1381 44.9416 41.2859 47.5698C40.7209 47.7573 39.4385 47.0259 39.2158 46.4468C38.489 46.4046 37.9146 46.0974 37.5324 45.4668C38.2944 43.7577 39.0563 42.0485 39.8206 40.3394C39.9074 40.1425 40.0058 39.9526 40.0879 39.7533C40.4349 38.9186 40.2567 38.5506 39.3916 38.3513C37.2651 37.8613 35.134 37.376 33.0076 36.8883C32.5691 36.7875 32.1331 36.6867 31.6947 36.5882C31.486 36.539 31.2726 36.4733 31.1062 36.6867C30.5623 38.5599 30.0348 40.4402 29.3431 42.2642C28.7336 43.8702 27.6739 45.1597 26.3094 46.2053C23.0716 48.6858 19.8386 51.1709 16.6009 53.6537C16.5235 53.7123 16.4344 53.7545 16.3524 53.8061C15.6748 53.9632 15.5201 53.3067 15.1332 53.016C15.0254 52.934 14.9597 52.8167 14.9738 52.6878C14.8003 52.6925 14.6807 52.5706 14.5612 52.4604C14.1087 52.0313 13.6703 51.5882 13.2389 51.1404C13.0677 50.9646 12.9318 50.7817 13.063 50.5215C13.192 50.3738 13.3116 50.219 13.4475 50.0807C16.0147 47.4619 18.5726 44.8361 21.1562 42.2361C21.7728 41.6148 22.1456 40.9161 22.3144 40.0604C22.795 37.6339 23.3155 35.2144 23.8195 32.7902C24.068 31.5523 24.3142 30.3144 24.5604 29.0765C24.551 29.039 24.5487 28.9991 24.551 28.9616C27.1253 28.9522 29.6972 28.9405 32.2714 28.9288C32.3441 28.8702 32.4191 28.8139 32.5152 28.7999C32.541 28.8092 32.5645 28.8186 32.5902 28.828C32.5973 28.8256 32.602 28.8233 32.609 28.821C33.5257 28.6006 34.4377 28.4716 35.3286 28.9241C38.5405 30.2863 41.7619 31.625 44.9597 33.0129C47.7801 34.2367 48.596 37.1532 46.84 39.6829Z" fill="#A79D86"/>
<path d="M51.018 14.731C50.9945 15.1506 50.8069 15.5211 50.6311 15.8868C49.5104 18.2242 48.3476 20.5429 47.2668 22.8991C46.472 24.6341 44.7511 25.5109 42.9412 24.838C41.9073 24.2988 41.136 23.4267 40.2615 22.6858C39.1478 21.7457 38.06 20.768 36.9628 19.8068C36.454 22.6553 35.9476 25.5039 35.4389 28.3524C35.4037 28.5447 35.3662 28.7346 35.3287 28.9245C34.3909 28.9362 33.4507 28.9479 32.513 28.9596C32.4801 28.9549 32.4497 28.9526 32.4168 28.9479C32.3723 29.0136 32.3184 29.0769 32.2597 29.1355C32.0183 29.2363 31.7627 29.2292 31.5095 29.2316C29.5612 29.241 27.6106 29.2386 25.6624 29.2316C25.2732 29.2316 24.8793 29.2222 24.5511 28.962C24.9356 26.7371 25.3224 24.5145 25.7069 22.2896C25.7679 21.9449 25.8218 21.598 25.8781 21.2533C25.9836 20.5992 25.789 20.3554 25.1513 20.4023C24.2416 20.4726 23.332 20.5734 22.4223 20.6649C21.8034 20.7258 21.1868 20.8079 20.5678 20.8548C20.2677 20.8782 19.9934 20.9509 19.7355 21.0962C19.5128 22.1091 19.1142 23.0633 18.779 24.0386C18.296 25.4382 17.8576 26.8566 17.3582 28.2493C16.8448 29.6794 15.5108 30.2514 14.226 29.6466C13.3374 29.2246 12.7865 28.1602 13.0561 27.213C13.8532 24.4207 14.641 21.6237 15.5201 18.8596C15.9843 17.3966 17.0417 16.4401 18.5609 16.0533C19.3768 15.718 20.2443 15.5703 21.093 15.3593C23.3999 14.7896 25.6624 14.03 28.0162 13.6759C29.5026 13.4532 31.0125 13.6291 32.5106 13.5986C33.643 13.6337 34.7824 13.4884 35.9078 13.7158C37.9287 14.0206 39.6097 14.9935 41.082 16.3698C41.8205 17.0637 42.5544 17.7624 43.2905 18.4563C43.7383 18.8784 43.8462 18.8619 44.1486 18.3086C45.0325 16.705 45.9164 15.0991 46.7932 13.4907C46.9737 13.1578 47.1894 12.8648 47.5083 12.6584C48.357 12.1778 49.2057 12.1169 50.045 12.6702C50.7835 13.1555 51.0648 13.8682 51.018 14.731Z" fill="#B2AA98"/>
<path d="M16.3524 53.8061C16.0758 55.3206 15.8038 56.8375 15.5225 58.3521C15.3255 59.4329 14.7605 59.9604 13.7899 59.9979C12.7677 60.0354 12.1534 59.5571 11.8604 58.4951C11.4501 57.0087 11.0375 55.5223 10.6342 54.0359C10.3107 52.8542 10.5545 52.2095 11.5579 51.5343C12.0597 51.1967 12.5614 50.8591 13.0631 50.5215C12.9318 50.7817 13.0678 50.9646 13.2389 51.1404C13.6703 51.5882 14.1087 52.0313 14.5612 52.4604C14.6808 52.5706 14.8004 52.6925 14.9738 52.6878C14.9598 52.8167 15.0254 52.934 15.1333 53.016C15.5201 53.3067 15.6748 53.9632 16.3524 53.8061Z" fill="#B2AA98"/>
<path d="M41.1688 53.7967C40.8663 53.7569 40.6155 53.6209 40.3881 53.431C39.0423 52.308 37.6872 51.1991 36.3579 50.055C35.5561 49.3657 35.4318 48.4021 36.0156 47.537C36.4939 46.8289 37.0237 46.1561 37.5325 45.4668C37.9146 46.0975 38.489 46.4046 39.2158 46.4468C39.4385 47.0259 40.721 47.7574 41.286 47.5698C41.844 48.8757 42.4207 50.1745 42.9576 51.4898C43.4945 52.8027 42.5684 53.9796 41.1688 53.7967Z" fill="#B2AA98"/>
<path d="M40.6412 3.06921C40.3529 4.16409 39.7855 5.11595 39.0751 5.98809C38.8969 8.10047 37.9638 9.67362 35.8397 10.2996C34.9746 10.5528 34.072 10.5575 33.2069 10.1988C31.6947 9.65721 30.7428 8.61626 30.3958 7.03842C29.934 5.88025 29.6339 4.69863 29.9457 3.44667C30.1215 2.74333 30.5107 2.13611 31.2023 1.93214C33.017 1.39994 34.773 0.682529 36.6157 0.244111C37.1948 0.04483 37.795 -0.0255045 38.4022 0.00966274C40.1606 0.108131 41.0867 1.36946 40.6412 3.06921Z" fill="#B2AA98"/>
</g>
<defs>
<clipPath id="clip0_16409_4899">
<rect width="60" height="60" fill="white" transform="translate(0.5)"/>
</clipPath>
</defs>
</svg>
