<svg width="22" height="23" viewBox="0 0 22 23" fill="none" xmlns="http://www.w3.org/2000/svg">
<path fill-rule="evenodd" clip-rule="evenodd" d="M2.56682 10.7612C2.56682 6.35821 6.13616 2.78887 10.5392 2.78887C14.9422 2.78887 18.5115 6.35821 18.5115 10.7612C18.5115 15.1642 14.9422 18.7336 10.5392 18.7336C6.13616 18.7336 2.56682 15.1642 2.56682 10.7612ZM10.5392 1.22205C5.27083 1.22205 1 5.49288 1 10.7612C1 16.0296 5.27083 20.3004 10.5392 20.3004C15.8075 20.3004 20.0783 16.0296 20.0783 10.7612C20.0783 5.49288 15.8075 1.22205 10.5392 1.22205ZM18.9272 18.0414C18.6213 17.7354 18.1253 17.7354 17.8193 18.0414C17.5134 18.3473 17.5134 18.8433 17.8193 19.1493L19.6626 20.9926C19.9686 21.2985 20.4646 21.2985 20.7705 20.9926C21.0765 20.6867 21.0765 20.1906 20.7705 19.8847L18.9272 18.0414Z" fill="currentColor"/>
</svg>
