<svg width="61" height="60" viewBox="0 0 61 60" fill="none" xmlns="http://www.w3.org/2000/svg">
<rect x="3.5" y="3" width="54" height="54" rx="27" fill="#014051"/>
<rect x="3.5" y="3" width="54" height="54" rx="27" stroke="#E6F9F4" stroke-width="6"/>
<path d="M36.844 15.7682V13.6362L44.0149 18.0162L36.844 22.6305V20.343L29.4871 20.1942C29.4871 20.1942 28.8917 20.1942 28.5743 20.3058C28.1453 20.4547 27.5718 20.794 27.2347 21.5535C27.0377 21.9979 27.0815 22.9807 28.5349 23.541C28.8457 23.6614 35.697 25.0952 35.697 25.0952C35.697 25.0952 44.6869 27.3432 44.6716 33.6188C44.6694 34.7483 44.6869 41.3522 36.3187 43.2697C34.874 43.6002 28.1059 44.235 22.3162 42.2693C22.0908 42.1927 21.0576 41.7462 20.7402 41.5076C19.0416 40.2359 17.0037 37.1145 16.8636 32.5243L26.0067 32.59C26.0067 32.59 25.674 36.9459 30.7742 37.5785C31.4396 37.6617 34.4887 37.6748 35.2483 35.1182C35.314 34.8971 35.3271 34.1791 35.2286 33.6757C35.1914 33.4874 34.9637 33.111 34.9025 33.0475C34.353 32.4696 33.2936 31.837 31.4265 31.4277C30.726 31.2745 26.0352 30.0924 23.8331 29.2016C23.3822 29.0177 22.0163 28.3391 21.2612 27.7985C19.9763 26.8769 18.4988 25.1017 19.1905 21.687C19.324 21.0282 20.7862 16.4665 27.736 15.9674C28.6334 15.8996 36.844 15.7682 36.844 15.7682Z" fill="url(#paint0_linear_15477_6363)"/>
<defs>
<linearGradient id="paint0_linear_15477_6363" x1="63.3017" y1="43.6382" x2="63.3017" y2="13.6362" gradientUnits="userSpaceOnUse">
<stop stop-color="#1DFBA7"/>
<stop offset="1" stop-color="#01C3A6"/>
</linearGradient>
</defs>
</svg>
