<svg width="61" height="61" viewBox="0 0 61 61" fill="none" xmlns="http://www.w3.org/2000/svg">
<path d="M53.5409 29.8682C53.5409 29.3932 53.3882 29.0538 53.0319 28.7654C52.2176 28.0868 51.4202 27.4081 50.6058 26.7295C50.2835 26.475 50.1308 26.1866 50.1308 25.7624C50.1477 23.5229 50.1477 21.3004 50.1477 19.0609C50.1477 18.1108 49.8084 17.7715 48.8413 17.7715H40.3584C40.1378 17.7715 39.9173 17.7885 39.7137 17.6358C39.3744 17.3473 39.0181 17.042 38.6788 16.7535C38.2546 16.3973 37.8474 16.041 37.4233 15.7017C35.9812 14.4971 34.556 13.2755 33.097 12.0879C32.0451 11.2396 30.077 11.2905 29.0591 12.1388C27.1419 13.7336 25.2587 15.3114 23.3755 16.9232C23.2907 16.9911 23.2058 17.0589 23.121 17.1438C22.5951 17.6018 22.0691 17.8224 21.3396 17.8224C18.7268 17.7715 16.1141 17.8054 13.5013 17.8054C12.4494 17.8054 12.161 18.0769 12.161 19.1288C12.161 21.3513 12.161 23.5908 12.161 25.8133C12.161 26.1357 12.0931 26.3732 11.8217 26.5768C11.7708 26.6107 11.7199 26.6616 11.669 26.6956C10.8716 27.3572 10.1081 28.0698 9.29376 28.6975C8.86962 29.0199 8.75085 29.3762 8.75085 29.8852C8.76782 38.5887 8.75085 47.2752 8.75085 55.9788C8.75085 56.0297 8.75085 56.0636 8.75085 56.1145L10.5153 54.8929L26.9214 43.1525L28.6519 41.914C28.6519 41.914 30.9932 39.7254 33.2497 41.914C33.3345 41.9988 33.9113 42.423 34.8105 43.0847C39.544 46.5457 53.3034 56.3859 53.3034 56.3859L53.49 56.5556C53.49 56.5386 53.49 56.5217 53.49 56.4877C53.5239 47.6146 53.5239 38.7414 53.5409 29.8682Z" fill="#008786"/>
<path d="M50.1308 23.1497C50.1308 23.8283 50.1308 24.5239 50.1138 25.2025C50.1138 25.3892 50.1138 29.5119 50.1138 29.5119L34.8275 43.0846L30.8235 46.6814L26.9214 43.1695L12.144 29.953V25.949C12.144 25.8981 12.144 24.0998 12.144 23.2515C12.144 21.8772 12.144 20.503 12.144 19.1287C12.144 18.0938 12.4325 17.8054 13.4844 17.8054C15.4863 17.8054 17.4713 17.7884 19.4733 17.8054C19.7448 17.8054 19.9993 17.8054 20.2707 17.8054C20.627 17.8054 20.9833 17.8054 21.3226 17.8224C21.4414 17.8224 21.5601 17.8224 21.6789 17.8054H41.1727H48.8074C49.7745 17.8054 50.1138 18.1447 50.1138 19.0948C50.1308 20.4351 50.1308 21.7924 50.1308 23.1497Z" fill="#A79D86"/>
<path d="M30.2128 3.21455C30.2128 2.58681 30.2128 1.9421 30.2128 1.31436C30.2298 0.771455 30.5182 0.5 31.0611 0.5C31.6719 0.5 31.9603 0.720557 31.9773 1.2974C31.9942 2.58681 31.9942 3.85925 31.9773 5.14866C31.9773 5.74247 31.6379 6.03089 31.0611 6.01393C30.5182 5.99696 30.2128 5.67461 30.1958 5.0808C30.2128 4.45306 30.2128 3.84229 30.2128 3.21455ZM16.3177 11.8332C17.3187 12.2744 18.3027 12.6985 19.3037 13.1227C19.7788 13.3262 20.2708 13.1057 20.4744 12.6646C20.678 12.2404 20.4913 11.7145 20.0333 11.477C19.7279 11.3243 19.3885 11.1885 19.0662 11.0528C18.3367 10.7474 17.6411 10.3572 16.8776 10.1366C16.2499 9.96699 15.7918 10.3233 15.7918 10.9849C15.7578 11.3752 15.9445 11.6636 16.3177 11.8332ZM21.7298 4.50396C22.1879 5.58978 22.7308 6.64167 23.3246 7.67659C23.5622 8.08377 24.122 8.15163 24.5292 7.91411C24.9025 7.69355 25.0552 7.25244 24.8685 6.81133C24.3935 5.79337 23.9015 4.77541 23.3416 3.80836C23.172 3.51994 22.9344 3.33331 22.629 3.38421C21.9165 3.38421 21.4754 3.91015 21.7298 4.50396ZM45.4312 10.1366C45.0241 10.2215 44.6678 10.4251 44.2945 10.5947C43.6159 10.8831 42.9203 11.1716 42.2417 11.4939C41.7836 11.7145 41.5969 12.2574 41.7836 12.6815C41.9532 13.0548 42.4792 13.3262 42.8355 13.1735C43.8873 12.7324 44.9392 12.2913 45.9742 11.8163C46.2965 11.6636 46.5171 11.4091 46.4662 11.0528C46.5001 10.3742 46.059 10.0179 45.4312 10.1366ZM40.0191 3.41814C39.595 3.28241 39.1708 3.40117 38.9672 3.75746C38.4243 4.77541 37.8984 5.81034 37.4064 6.84526C37.1858 7.28637 37.4064 7.77838 37.8135 7.96501C38.2886 8.1686 38.8145 7.99894 39.0351 7.55783C39.5101 6.64167 39.9513 5.70854 40.4263 4.79238C40.5111 4.60575 40.579 4.41913 40.562 4.2325C40.579 3.80836 40.3924 3.5369 40.0191 3.41814Z" fill="#008786"/>
<path d="M53.4731 58.2011C53.2186 59.3887 52.4721 60.1521 51.2845 60.3557C50.8773 60.4236 50.4701 60.4236 50.0629 60.4236C48.4002 60.4066 46.7206 60.3557 45.058 60.4406C43.8025 60.5084 42.547 60.4575 41.2915 60.4575C36.0151 60.5254 30.7387 60.4915 25.4453 60.4915C20.9494 60.4915 16.4534 60.4915 11.9744 60.4915C11.2109 60.4915 10.4475 60.4236 9.78579 59.9486C8.81873 59.2021 8.58121 58.1502 8.71694 56.9965C8.75087 56.7081 8.76784 56.4196 8.76784 56.1312L10.5323 54.9097L26.8874 43.2032L28.6858 41.9138C28.6858 41.9138 28.7028 41.8968 28.7367 41.8798C29.0591 41.6084 31.078 40.0306 33.08 41.7271C33.1309 41.7611 33.2666 41.8968 33.4533 42.0325C33.572 42.1343 33.7077 42.2361 33.8265 42.321C34.098 42.5245 34.4712 42.796 34.9293 43.1353C39.7137 46.6303 53.3713 56.3857 53.3713 56.3857L53.5579 56.5554C53.524 57.0983 53.6088 57.6412 53.4731 58.2011Z" fill="#08A991"/>
<path d="M49.045 30.4619L34.9124 43.1185C34.4543 42.7792 34.081 42.5077 33.8096 42.3041C33.6908 42.2193 33.5551 42.1005 33.4363 42.0157L33.3515 41.7612L49.045 30.4619ZM13.196 30.8691L26.8705 43.1864L28.6689 41.8969C28.6689 41.8969 28.6859 41.88 28.7198 41.863L13.196 30.8691Z" fill="#00515B"/>
<path d="M31.2817 35.9588C31.1459 36.0945 30.9932 36.2302 30.8405 36.349C30.3316 36.7222 29.8056 36.7053 29.3475 36.2641C27.8885 34.822 26.4464 33.3799 25.0043 31.9209C24.631 31.5306 24.6141 30.869 24.9534 30.4448C25.3266 29.9868 25.8865 29.868 26.3955 30.1564C26.633 30.2921 26.8366 30.4618 27.0232 30.6484C27.9054 31.5306 28.7707 32.4129 29.6529 33.2781C30.1619 33.7871 30.1619 33.7871 30.6709 33.2951C33.1988 30.7672 35.7267 28.2393 38.2547 25.7283C38.7127 25.2702 39.2726 25.2193 39.7816 25.5756C40.1039 25.8131 40.2227 26.0507 40.2227 26.5596C40.2566 26.882 40.1039 27.1704 39.8495 27.4249C36.9822 30.2582 34.1319 33.1085 31.2817 35.9588Z" fill="white"/>
</svg>
