<svg width="20" height="20" viewBox="0 0 20 20" fill="none" xmlns="http://www.w3.org/2000/svg">
<path d="M13.0829 0C15.7829 0.0263847 18.1929 1.9368 18.9546 4.78057C19.606 7.21291 19.1545 9.42675 17.5994 11.3248C17.0224 12.0289 16.3921 12.6803 15.7814 13.3515C13.8785 15.4425 11.9741 17.5318 10.0697 19.6203C9.70156 20.0243 9.3034 20.1068 8.91952 19.8635C8.46051 19.5725 8.34256 18.8923 8.67536 18.4404C8.73847 18.3555 8.80833 18.2763 8.87895 18.198C11.2822 15.5595 13.6847 12.9202 16.0901 10.2843C16.6205 9.70297 17.0202 9.03675 17.2628 8.25346C17.8022 6.51124 17.2906 4.41284 16.0315 3.19667C15.0579 2.25589 13.9251 1.84693 12.6427 1.9772C11.6052 2.08274 10.7105 2.56179 9.97201 3.37147C7.4914 6.09074 5.00929 8.80754 2.5377 11.5359C1.80674 12.3431 1.58286 13.3309 1.88111 14.4176C2.18236 15.515 2.88101 16.1895 3.90421 16.4154C4.73208 16.5976 5.47656 16.3569 6.12263 15.7591C6.194 15.6931 6.26011 15.6189 6.32697 15.5463C8.55366 13.1025 10.7788 10.6578 13.0078 8.21636C13.2767 7.922 13.4127 7.59384 13.3023 7.17828C13.1362 6.55247 12.4601 6.28862 11.9718 6.66048C11.8854 6.72644 11.8081 6.8089 11.7329 6.89135C10.298 8.46454 8.86468 10.0394 7.42905 11.6126C7.05493 12.0223 6.56512 12.0644 6.19851 11.7263C5.82739 11.3842 5.77481 10.7955 6.07906 10.3807C6.11813 10.3271 6.16245 10.2785 6.20677 10.2298C7.65893 8.63604 9.10883 7.04059 10.5632 5.45009C11.4737 4.45406 12.7704 4.27514 13.8477 4.98835C15.2465 5.91347 15.529 8.08443 14.4089 9.39212C13.916 9.96764 13.3969 10.5159 12.8876 11.075C11.1177 13.0192 9.34472 14.9601 7.57629 16.906C6.93248 17.6151 6.17747 18.0941 5.28274 18.2986C2.95238 18.8312 0.654327 17.235 0.125451 14.6748C-0.233644 12.9376 0.181794 11.4056 1.32519 10.1424C3.778 7.43224 6.24434 4.73605 8.70691 2.03574C9.61141 1.04384 10.6909 0.401542 11.95 0.14594C12.3219 0.0684353 12.7043 0.0469977 13.0829 0Z" fill="#6B7280"/>
</svg>
