<svg width="61" height="60" viewBox="0 0 61 60" fill="none" xmlns="http://www.w3.org/2000/svg">
<path d="M11.8012 42.1636C12.13 40.6878 11.5321 38.5797 10.4858 37.5256L3.22153 30.2072C0.949569 27.9183 0.0527411 25.4788 0.710415 23.3707C1.39798 21.2625 3.52048 19.8169 6.68927 19.2748L16.0163 17.7087C17.3615 17.4678 19.0057 16.2631 19.6335 15.0283L24.7753 4.63799C26.27 1.65643 28.3028 0 30.515 0C32.7272 0 34.76 1.65643 36.2547 4.63799L41.3965 15.0283C41.7851 15.8113 42.5923 16.5643 43.4592 17.0762L11.2631 49.5121C10.8446 49.9337 10.1271 49.5422 10.2467 48.9399L11.8012 42.1636Z" fill="#B2AA98"/>
<path d="M50.5442 37.5256C49.468 38.6098 48.8701 40.6878 49.2288 42.1636L51.2915 51.2287C52.1585 54.9933 51.6204 57.8243 49.7669 59.1796C49.0196 59.7217 48.1227 59.9927 47.0765 59.9927C45.5518 59.9927 43.7582 59.4205 41.7852 58.246L33.0261 53.0056C31.651 52.1925 29.379 52.1925 28.0039 53.0056L19.2449 58.246C15.9266 60.2035 13.0867 60.5348 11.2631 59.1796C10.5756 58.6676 10.0674 57.9749 9.73853 57.0714L46.0899 20.4493C47.4651 19.064 49.4082 18.4315 51.2915 18.7628L54.3109 19.2748C57.4796 19.8169 59.6021 21.2625 60.2897 23.3707C60.9474 25.4788 60.0506 27.9183 57.7786 30.2072L50.5442 37.5256Z" fill="#B2AA98"/>
</svg>
