<svg width="22" height="23" viewBox="0 0 22 23" fill="none" xmlns="http://www.w3.org/2000/svg">
<path fill-rule="evenodd" clip-rule="evenodd" d="M15.9128 7.1593C15.3753 7.05929 14.7378 6.59676 14.5002 6.10923L12.7376 2.58399C11.7751 0.671358 10.2249 0.671358 9.26238 2.57149L7.49976 6.09673C7.26225 6.58426 6.6247 7.05929 6.08716 7.1468L2.89945 7.67184C0.861808 8.02186 0.386775 9.49696 1.84938 10.9596L4.33705 13.4472C4.74957 13.8598 4.98709 14.6723 4.87458 15.2724L4.16203 18.3476C3.59949 20.7727 4.89958 21.7103 7.03723 20.4477L10.0249 18.6726C10.5625 18.3476 11.4625 18.3476 12.0001 18.6726L14.9878 20.4477C17.1254 21.7228 18.4255 20.7727 17.863 18.3476L17.1504 15.2724C17.0129 14.6848 17.2504 13.8723 17.663 13.4597L20.1506 10.9721C21.6132 9.49696 21.1382 8.02186 19.1006 7.68434L15.9128 7.1593ZM15.6899 15.6142C15.6898 15.6136 15.6896 15.613 15.6895 15.6125C15.5487 15.0092 15.6139 14.3931 15.7581 13.8883C15.9021 13.3845 16.1708 12.8306 16.6023 12.3991L19.0855 9.91592C19.0861 9.91524 19.0868 9.91457 19.0875 9.91389C19.3376 9.66123 19.4423 9.47155 19.4808 9.36968C19.3913 9.31122 19.1992 9.2212 18.8561 9.16429C18.8559 9.16425 18.8564 9.16433 18.8561 9.16429L15.6537 8.63684L15.6385 8.634C15.0942 8.53274 14.5938 8.27461 14.2035 7.98662C13.8181 7.70231 13.4108 7.2934 13.1558 6.77452L11.3977 3.25831C11.3975 3.25783 11.3973 3.25735 11.397 3.25687C11.235 2.93535 11.0872 2.76619 10.9968 2.68784C10.9076 2.76514 10.762 2.93126 10.6021 3.24611L8.84417 6.76201C8.59185 7.27548 8.18891 7.68692 7.80127 7.97529C7.4118 8.26502 6.89852 8.5341 6.32987 8.62703C6.32931 8.62713 6.32874 8.62722 6.32818 8.62731L3.1488 9.15098C2.80173 9.21112 2.6084 9.30419 2.51915 9.36411C2.5575 9.46379 2.66147 9.65034 2.91004 9.8989L5.39771 12.3866C5.82923 12.8181 6.09601 13.3703 6.24186 13.8666C6.38905 14.3675 6.45836 14.965 6.34889 15.5488L6.34304 15.58L5.62332 18.6862C5.53728 19.0571 5.52324 19.318 5.53397 19.4834C5.69638 19.444 5.94277 19.3519 6.27275 19.1571C6.2733 19.1568 6.27384 19.1565 6.27439 19.1562L9.25477 17.3854C9.81478 17.0487 10.459 16.9288 11.0125 16.9288C11.566 16.9288 12.2102 17.0487 12.7702 17.3854L15.7562 19.1595C16.0843 19.3552 16.3293 19.4481 16.4908 19.4881C16.502 19.3218 16.4883 19.0595 16.4018 18.6865L15.6899 15.6142ZM2.49991 9.29781C2.49993 9.29782 2.5 9.29836 2.50005 9.29942L2.49991 9.29781ZM11.0673 2.637C11.0673 2.63702 11.0669 2.63721 11.0661 2.63754L11.0673 2.637ZM10.9277 2.63753C10.9268 2.63716 10.9263 2.63694 10.9263 2.63693L10.9277 2.63753ZM19.5362 9.413C19.5362 9.41301 19.5359 9.41264 19.5353 9.41187L19.5362 9.413ZM19.4999 9.30368C19.5 9.30244 19.5 9.30179 19.5001 9.30177L19.4999 9.30368Z" fill="#6B7280"/>
</svg>
