<svg width="22" height="22" viewBox="0 0 22 22" fill="none" xmlns="http://www.w3.org/2000/svg">
<path d="M12.7376 2.43604L14.5002 5.96128C14.7378 6.44881 15.3753 6.91135 15.9128 7.01135L19.1006 7.53639C21.1382 7.87391 21.6132 9.34901 20.1506 10.8241L17.663 13.3118C17.2504 13.7243 17.0129 14.5369 17.1504 15.1244L17.863 18.1996C18.4255 20.6248 17.1254 21.5748 14.9878 20.2998L12.0001 18.5246C11.4625 18.1996 10.5625 18.1996 10.0249 18.5246L7.03723 20.2998C4.89958 21.5623 3.59949 20.6248 4.16203 18.1996L4.87458 15.1244C4.98709 14.5244 4.74957 13.7118 4.33705 13.2993L1.84938 10.8116C0.386775 9.34901 0.861808 7.87391 2.89945 7.52389L6.08716 6.99885C6.6247 6.91134 7.26224 6.43631 7.49976 5.94878L9.26238 2.42354C10.2249 0.523409 11.7751 0.523409 12.7376 2.43604Z" fill="#FACA15"/>
</svg>
