<svg width="267" height="271" viewBox="0 0 267 271" fill="none" xmlns="http://www.w3.org/2000/svg">
<path opacity="0.3" d="M125.826 45.7443C125.826 45.7443 147.101 24.8602 164.76 36.6218C182.418 48.3833 182.418 56.8542 194.571 58.7113C206.723 60.5358 231.745 47.3082 244.973 63.8591C258.201 80.4099 228.422 127.88 236.144 138.924C243.865 149.969 264.489 137.817 265.955 162.122C267.421 186.394 232.853 191.933 233.57 202.228C234.319 212.524 243.148 221.744 230.996 226.142C218.843 230.541 132.375 232.007 132.375 232.007L51.0538 227.967C51.0538 227.967 9.09009 202.587 11.3056 171.668C13.521 140.749 52.5199 133.777 47.0138 111.687C41.5077 89.5976 21.2426 79.6606 31.929 66.4329C44.3096 51.0875 69.1033 73.0467 85.6542 64.6084C100.12 57.2126 89.1078 43.8546 105.431 38.7721C121.753 33.6895 125.826 45.7443 125.826 45.7443Z" fill="#A6D97D"/>
<path d="M48.8708 216.172H202.325C202.325 216.172 258.266 213.24 264.879 225.002C271.493 236.763 199.002 236.046 196.819 243.019C194.603 250.023 231.778 255.171 231.778 262.534C231.778 269.897 213.37 267.682 131.69 268.431C92.6916 268.79 58.645 271.201 58.645 265.108C58.645 259.048 85.3284 259.211 86.4361 253.347C87.5439 247.45 11.7291 251.522 11.7291 244.159C11.7291 236.796 30.8538 244.517 31.6032 237.154C32.3525 229.791 -0.781827 233.831 1.07526 224.643C2.86719 215.455 48.8708 216.172 48.8708 216.172Z" fill="#E8BB51" stroke="#1E344A" stroke-width="2" stroke-miterlimit="10" stroke-linejoin="round"/>
<path d="M91.3884 221.776C88.2933 221.776 87.2507 221.711 86.8923 221.646C86.7946 219.659 85.9475 206.398 85.0678 192.421C84.6443 185.873 84.2207 179.259 83.8623 173.818C82.7872 156.648 83.3085 135.959 83.3085 135.764V135.731L80.0504 116.118C81.5817 115.694 88.9449 113.674 91.8446 113.446L95.1352 113.186L167.985 117.063C168.018 117.063 169.256 117.03 171.015 117.03C173.719 117.03 177.499 117.128 180.105 117.616L188.641 119.213L173.003 219.365C168.409 219.528 108.754 221.776 91.3884 221.776Z" fill="#66B4BF"/>
<path d="M95.1352 113.511L167.953 117.388H167.985H168.018C168.018 117.388 169.256 117.355 170.983 117.355C173.687 117.355 177.433 117.453 180.007 117.942L188.218 119.473L172.677 219.039C166.454 219.267 108.461 221.45 91.3884 221.45C88.8471 221.45 87.7068 221.385 87.2181 221.352C87.0878 218.583 86.2733 205.812 85.3936 192.388C84.97 185.84 84.5465 179.226 84.1881 173.817C83.113 156.648 83.6342 135.992 83.6342 135.796V135.731V135.666L80.4088 116.378C82.3962 115.824 89.1403 114.032 91.8771 113.804L95.1352 113.511ZM95.1352 112.859C95.1352 112.859 95.1352 112.859 91.8119 113.12C88.4887 113.381 79.6594 115.889 79.6594 115.889L82.9826 135.763C82.9826 135.763 82.4288 156.452 83.5365 173.85C84.6442 191.248 86.5665 220.766 86.5665 221.874C86.5665 222.037 88.3258 222.102 91.3558 222.102C109.536 222.102 173.198 219.658 173.198 219.658L188.967 118.952C188.967 118.952 184.536 118.137 180.138 117.29C177.499 116.802 173.654 116.704 170.983 116.704C169.223 116.704 167.985 116.736 167.985 116.736L95.1352 112.859Z" fill="#1E344A"/>
<path d="M167.203 179.226C167.171 177.63 166.812 162.056 169.419 149.643C172.155 136.546 182.777 120.093 189 119.278C189.325 119.245 189.651 119.213 189.944 119.213C195.744 119.213 198.578 127.065 198.578 143.225C198.578 160.004 193.105 197.699 192.323 203.01L167.203 179.226Z" fill="#4980A9"/>
<path d="M189.944 119.538C195.516 119.538 198.252 127.292 198.252 143.224C198.252 159.449 193.137 195.223 192.095 202.325L167.529 179.095C167.464 176.913 167.203 161.828 169.744 149.708C171.015 143.583 174.208 136.187 178.248 129.964C182.158 123.937 186.295 119.962 189.065 119.603C189.358 119.538 189.651 119.538 189.944 119.538ZM189.944 118.887C189.619 118.887 189.293 118.919 188.967 118.952C182.614 119.766 171.862 136.35 169.093 149.578C166.323 162.838 166.877 179.389 166.877 179.389L192.551 203.661C192.551 203.661 198.904 161.437 198.904 143.224C198.904 125.989 195.679 118.887 189.944 118.887Z" fill="#1E344A"/>
<path d="M53.5624 173.883C54.1488 171.407 58.254 154.856 65.0633 139.218C71.4491 124.556 78.2258 117.845 79.92 116.313L83.9926 134.33C84.3835 136.09 84.579 137.882 84.5464 139.706L83.7645 180.921L53.5624 173.883Z" fill="#4980A9"/>
<path d="M79.7246 116.932L83.6668 134.395C84.0578 136.122 84.2533 137.914 84.2207 139.673L83.4714 180.497L53.986 173.655C54.8005 170.331 58.8405 154.432 65.3892 139.347C71.2863 125.729 77.5743 119.017 79.7246 116.932ZM80.1156 115.727C80.1156 115.727 72.1985 121.982 64.7376 139.087C57.2766 156.192 53.1389 174.143 53.1389 174.143L84.0578 181.311L84.8397 139.706C84.8723 137.881 84.6768 136.057 84.2859 134.265L80.1156 115.727Z" fill="#1E344A"/>
<path d="M158.602 115.076C152.086 112.828 149.056 109.667 148.144 108.56C147.427 103.249 148.86 96.9609 148.86 96.9609L114.521 99.1764C114.521 99.1764 116.834 101.294 117.388 105.367C117.388 105.367 116.769 109.961 110.415 111.883C104.062 113.805 96.4384 113.219 96.4384 113.219C96.4384 113.219 101.228 140.749 128.791 142.346C157.494 144.007 167.822 117.259 167.822 117.259C167.822 117.259 162.479 116.411 158.602 115.076Z" fill="#EED58C"/>
<path fill-rule="evenodd" clip-rule="evenodd" d="M149.318 97.065L149.457 96.4521L113.392 98.779L114.203 99.5216L114.204 99.5223L114.206 99.5242C114.209 99.5269 114.214 99.5316 114.221 99.5384C114.234 99.5519 114.256 99.5734 114.285 99.603C114.343 99.6623 114.429 99.7536 114.535 99.8767C114.747 100.123 115.039 100.496 115.348 100.992C115.96 101.973 116.64 103.435 116.913 105.359C116.908 105.386 116.901 105.421 116.891 105.464C116.865 105.579 116.82 105.749 116.748 105.963C116.602 106.39 116.344 106.985 115.897 107.639C115.007 108.941 113.352 110.504 110.279 111.434C107.158 112.378 103.71 112.71 101.028 112.803C99.6901 112.849 98.5489 112.836 97.7432 112.811C97.3404 112.799 97.0216 112.784 96.8043 112.771C96.6957 112.765 96.6124 112.76 96.5567 112.756C96.5288 112.755 96.5078 112.753 96.494 112.752L96.4787 112.751L96.4743 112.751L95.8727 112.704L95.9761 113.299L96.4383 113.218C95.9761 113.299 95.9761 113.299 95.9762 113.3L95.9765 113.301L95.9773 113.306L95.9803 113.322C95.9829 113.337 95.9868 113.358 95.992 113.385C96.0023 113.44 96.018 113.52 96.0394 113.623C96.0823 113.83 96.1484 114.132 96.2422 114.516C96.4298 115.283 96.7282 116.378 97.1728 117.695C98.0617 120.328 99.5374 123.858 101.886 127.44C106.589 134.615 114.8 142.005 128.764 142.814C143.286 143.654 153.17 137.301 159.41 130.749C162.527 127.475 164.737 124.151 166.167 121.645C166.883 120.391 167.404 119.341 167.748 118.602C167.919 118.233 168.047 117.941 168.131 117.741C168.174 117.641 168.205 117.564 168.227 117.511C168.237 117.484 168.245 117.464 168.251 117.45L168.257 117.434L168.259 117.429L168.26 117.428C168.26 117.428 168.26 117.427 167.822 117.258L168.26 117.427L168.469 116.886L167.896 116.795L167.895 116.795L167.881 116.793L167.837 116.786C167.797 116.779 167.739 116.77 167.663 116.757C167.51 116.731 167.288 116.693 167.009 116.643C166.451 116.544 165.666 116.397 164.761 116.209C162.948 115.831 160.665 115.29 158.755 114.632M167.161 117.623C167.065 117.606 166.959 117.588 166.844 117.567C166.279 117.466 165.486 117.318 164.57 117.127C162.743 116.747 160.416 116.197 158.449 115.519C151.842 113.24 148.742 110.024 147.781 108.858L147.696 108.755L147.679 108.622C147.313 105.91 147.497 102.965 147.767 100.713C147.903 99.5834 148.061 98.6218 148.186 97.9417C148.219 97.7643 148.249 97.6059 148.276 97.4686L115.507 99.5827C115.699 99.8278 115.918 100.132 116.144 100.496C116.82 101.58 117.565 103.19 117.852 105.303L117.861 105.366L117.852 105.429L117.388 105.367C117.852 105.429 117.852 105.43 117.852 105.43L117.852 105.431L117.852 105.432L117.851 105.437L117.849 105.452C117.847 105.464 117.845 105.481 117.841 105.501C117.834 105.542 117.822 105.599 117.806 105.671C117.773 105.816 117.72 106.019 117.636 106.266C117.467 106.761 117.173 107.434 116.671 108.168C115.663 109.644 113.832 111.339 110.551 112.332C107.319 113.31 103.779 113.646 101.061 113.74C99.6985 113.788 98.5366 113.774 97.7144 113.749C97.4451 113.741 97.2121 113.731 97.0203 113.722C97.0558 113.882 97.1 114.074 97.1536 114.293C97.3357 115.038 97.6268 116.106 98.0618 117.395C98.9323 119.974 100.377 123.427 102.671 126.926C107.253 133.916 115.219 141.089 128.818 141.877C142.999 142.698 152.63 136.508 158.73 130.102C161.783 126.896 163.95 123.637 165.352 121.179C166.054 119.951 166.563 118.925 166.897 118.207C167.002 117.98 167.09 117.784 167.161 117.623ZM149.318 97.065L149.318 97.0657L149.317 97.0686L149.314 97.0811C149.312 97.0925 149.308 97.1097 149.303 97.1327C149.293 97.1785 149.278 97.2471 149.259 97.3366C149.222 97.5157 149.17 97.7784 149.109 98.1108C148.987 98.7758 148.832 99.718 148.699 100.825C148.437 103.006 148.264 105.801 148.591 108.363C149.554 109.499 152.526 112.483 158.755 114.632" fill="#1E344A"/>
<path d="M114.521 99.2086L148.86 96.9932C148.86 96.9932 141.953 118.301 132.928 119.05C123.904 119.799 117.388 105.432 117.388 105.432L114.521 99.2086Z" fill="#1E344A"/>
<path d="M102.498 65.9113C102.498 65.9113 93.8319 65.9113 92.1703 61.6107C90.5087 57.3101 92.268 54.9968 92.268 54.9968C92.268 54.9968 87.5113 54.052 87.3484 49.6211C87.1529 45.1901 88.9774 41.7692 88.9774 41.7692C88.9774 41.7692 84.1881 38.1201 84.3184 34.015C84.5465 27.955 89.8245 25.6092 89.8245 25.6092C89.8245 25.6092 85.2958 19.5167 90.8019 15.7048C96.308 11.8929 101.847 16.1609 101.847 16.1609C101.847 16.1609 98.8819 7.75513 105.398 6.35417C111.914 4.98579 116.215 7.16868 116.215 7.16868C116.215 7.16868 123.154 -0.0967641 129.41 0.00097741C135.665 0.131299 138.109 7.95062 138.109 7.95062C138.109 7.95062 144.56 3.25903 151.434 6.67998C158.276 10.1009 156.843 13.9128 156.843 13.9128C156.843 13.9128 169.093 11.5019 173.687 16.0957C178.281 20.7222 174.241 24.9576 174.241 24.9576C174.241 24.9576 183.33 23.687 185.22 31.3108C187.11 38.9347 181.864 41.2805 181.864 41.2805C181.864 41.2805 186.132 49.002 182.418 54.3778C178.704 59.7536 175.022 59.2323 175.022 59.2323C175.022 59.2323 175.935 63.5004 171.862 68.3223C167.79 73.1116 158.406 73.079 158.406 73.079L102.498 65.9113Z" fill="#1E344A"/>
<path d="M104.616 86.4694C102.173 87.0558 99.0448 82.6574 97.5787 76.6301C96.1126 70.6027 96.9271 65.2595 99.3381 64.673L103.769 64.1191L108.428 86.0132L104.616 86.4694Z" fill="#D65555"/>
<path fill-rule="evenodd" clip-rule="evenodd" d="M103.729 63.7965C103.896 63.7755 104.052 63.8865 104.088 64.052L108.747 85.9461C108.766 86.0356 108.746 86.129 108.693 86.2034C108.64 86.2779 108.558 86.3265 108.467 86.3374L104.673 86.7913C103.955 86.957 103.217 86.7523 102.516 86.3017C101.809 85.8478 101.115 85.1298 100.466 84.2198C99.1653 82.3984 98.0024 79.7511 97.2621 76.7077C96.5216 73.6632 96.3529 70.7772 96.6822 68.5639C96.8467 67.4581 97.138 66.5034 97.5579 65.7784C97.9783 65.0528 98.5442 64.5314 99.2611 64.3571C99.2731 64.3541 99.2853 64.3519 99.2976 64.3504L103.729 63.7965ZM99.3979 64.9945C98.9161 65.1177 98.4821 65.483 98.1218 66.105C97.7567 66.7352 97.484 67.603 97.3267 68.6598C97.0126 70.7715 97.1697 73.5707 97.8953 76.5537C98.6211 79.5377 99.7552 82.1032 100.996 83.8412C101.617 84.7109 102.255 85.3593 102.868 85.7535C103.48 86.147 104.043 86.2726 104.54 86.1532C104.552 86.1502 104.565 86.148 104.577 86.1465L108.035 85.7327L103.513 64.4802L99.3979 64.9945Z" fill="#1E344A"/>
<path d="M108.444 86.0016C110.875 85.4161 111.672 80.0631 110.223 74.0453C108.774 68.0276 105.628 63.6239 103.196 64.2094C100.765 64.7949 99.968 70.1479 101.417 76.1656C102.866 82.1834 106.012 86.5871 108.444 86.0016Z" fill="#A23D3D"/>
<path fill-rule="evenodd" clip-rule="evenodd" d="M101.174 68.1986C100.859 70.3115 101.017 73.1111 101.734 76.0896C102.451 79.0682 103.585 81.6325 104.827 83.3707C105.448 84.2406 106.087 84.8895 106.7 85.2843C107.312 85.6784 107.873 85.804 108.367 85.6851C108.861 85.5661 109.304 85.1989 109.669 84.5692C110.036 83.9386 110.309 83.0702 110.466 82.0128C110.781 79.8999 110.623 77.1004 109.906 74.1218C109.189 71.1433 108.055 68.5789 106.813 66.8407C106.191 65.9709 105.553 65.3219 104.94 64.9272C104.328 64.533 103.766 64.4074 103.272 64.5264C102.779 64.6453 102.336 65.0125 101.97 65.6422C101.604 66.2728 101.331 67.1412 101.174 68.1986ZM101.407 65.3149C101.829 64.5881 102.398 64.0667 103.12 63.8929C103.842 63.719 104.586 63.9243 105.292 64.3793C105.998 64.8336 106.693 65.5519 107.343 66.462C108.644 68.2837 109.808 70.9301 110.539 73.9693C111.271 77.0085 111.44 79.8943 111.111 82.1087C110.946 83.215 110.655 84.1708 110.233 84.8965C109.811 85.6233 109.242 86.1448 108.52 86.3186C107.798 86.4924 107.054 86.2871 106.347 85.8322C105.642 85.3779 104.947 84.6596 104.297 83.7495C102.995 81.9278 101.832 79.2814 101.1 76.2422C100.369 73.203 100.2 70.3171 100.529 68.1027C100.694 66.9964 100.985 66.0407 101.407 65.3149Z" fill="#1E344A"/>
<path d="M103.899 50.5011C103.899 50.5011 103.052 66.4981 104.16 70.7661C105.268 75.0342 106.408 78.4226 106.408 78.4226C106.408 78.4226 106.571 85.2645 109.014 90.6728C115.922 105.888 129.54 110.156 129.54 110.156C129.54 110.156 141.53 105.497 148.893 96.9934C156.256 88.4573 155.214 78.4877 155.214 78.4877L157.592 57.0497L143.941 35.8398L113.673 42.0953L103.899 50.5011Z" fill="#EED58C"/>
<path fill-rule="evenodd" clip-rule="evenodd" d="M144.161 35.3154L158.077 56.9361L155.685 78.492C155.687 78.5113 155.689 78.5359 155.691 78.5656C155.697 78.645 155.705 78.7607 155.713 78.91C155.727 79.2086 155.739 79.6416 155.731 80.1866C155.713 81.2762 155.611 82.8157 155.276 84.6252C154.605 88.2436 152.997 92.9535 149.248 97.3L149.248 97.3007C145.517 101.61 140.627 104.931 136.687 107.171C134.715 108.293 132.973 109.147 131.725 109.722C131.1 110.009 130.598 110.226 130.252 110.372C130.078 110.445 129.944 110.5 129.852 110.537C129.807 110.555 129.771 110.569 129.748 110.579L129.72 110.589L129.711 110.593L129.71 110.593C129.71 110.593 129.71 110.593 129.54 110.156C129.4 110.604 129.4 110.604 129.399 110.604L129.396 110.603L129.387 110.6C129.379 110.597 129.368 110.594 129.354 110.589C129.326 110.58 129.286 110.566 129.233 110.548C129.127 110.512 128.973 110.457 128.775 110.382C128.38 110.232 127.811 110.001 127.108 109.678C125.703 109.03 123.76 108.008 121.6 106.505C117.279 103.5 112.083 98.5681 108.587 90.8669L108.587 90.8661C107.339 88.1049 106.68 84.9935 106.331 82.5871C106.156 81.3809 106.058 80.3455 106.004 79.6107C105.977 79.2432 105.961 78.9506 105.951 78.7491C105.946 78.6484 105.943 78.5704 105.942 78.5172C105.941 78.5133 105.941 78.5095 105.941 78.5059C105.933 78.4821 105.923 78.452 105.911 78.4159C105.878 78.314 105.829 78.164 105.766 77.9709C105.641 77.5846 105.463 77.0254 105.251 76.3326C104.826 74.9474 104.262 73.0265 103.706 70.8842C103.415 69.7615 103.259 67.9139 103.183 65.8163C103.106 63.7048 103.108 61.2959 103.145 59.0257C103.182 56.7545 103.253 54.6177 103.316 53.0489C103.347 52.2644 103.375 51.6216 103.396 51.1749C103.407 50.9515 103.416 50.7771 103.422 50.6584C103.425 50.5991 103.427 50.5537 103.428 50.5231L103.431 50.4766C103.431 50.4765 103.431 50.4764 103.899 50.5012L103.431 50.4766L103.441 50.2762L113.46 41.6606L144.161 35.3154ZM104.358 50.7259C104.352 50.8429 104.344 51.0092 104.334 51.219C104.313 51.6638 104.284 52.3041 104.253 53.086C104.191 54.6501 104.12 56.7792 104.083 59.0408C104.047 61.3033 104.045 63.694 104.121 65.7823C104.197 67.8845 104.352 69.637 104.614 70.6484C105.166 72.7742 105.726 74.6815 106.148 76.0574C106.359 76.7453 106.535 77.2999 106.659 77.6823C106.721 77.8735 106.769 78.0216 106.802 78.1217C106.819 78.1717 106.832 78.2098 106.84 78.2352L106.85 78.2638L106.853 78.273L106.875 78.3405L106.877 78.4115L106.877 78.4122L106.877 78.4153L106.878 78.4288C106.878 78.4411 106.878 78.4597 106.879 78.4846C106.881 78.5342 106.884 78.6085 106.888 78.7054C106.897 78.8992 106.913 79.1834 106.94 79.5418C106.992 80.2589 107.088 81.272 107.259 82.4524C107.602 84.8189 108.246 87.8327 109.442 90.4798C112.853 97.9933 117.92 102.803 122.135 105.735C124.243 107.201 126.137 108.197 127.501 108.825C128.182 109.139 128.731 109.361 129.108 109.504C129.288 109.573 129.429 109.623 129.526 109.657C129.613 109.621 129.734 109.572 129.888 109.507C130.226 109.365 130.718 109.152 131.333 108.869C132.562 108.304 134.278 107.462 136.223 106.356C140.119 104.141 144.906 100.881 148.538 96.6872C152.152 92.4976 153.704 87.9547 154.353 84.4542C154.678 82.7043 154.775 81.2178 154.792 80.1714C154.801 79.6484 154.789 79.2358 154.775 78.9558C154.769 78.8158 154.761 78.7091 154.756 78.6383C154.753 78.6029 154.751 78.5765 154.749 78.5594L154.747 78.5409L154.747 78.537M154.747 78.5364L154.742 78.4864L157.107 57.1637L143.72 36.3646L113.887 42.5303L104.358 50.7259M129.54 110.156L129.4 110.604L129.557 110.653L129.71 110.593L129.54 110.156Z" fill="#1E344A"/>
<path d="M149.382 65.325C149.382 65.325 143.713 63.0118 139.282 63.305C136.806 63.4679 134.981 64.4453 133.841 65.2598C133.091 65.8137 132.016 65.5856 131.528 64.7711C131.104 64.0217 131.3 63.0769 132.016 62.6208C133.482 61.6434 136.187 60.2424 139.542 60.3727C146.124 60.6334 149.382 65.325 149.382 65.325Z" fill="#1E344A"/>
<path d="M133.45 76.63C133.45 76.63 136.349 73.6978 139.933 73.3068C143.55 72.9159 147.068 74.3494 147.068 74.3494C147.068 74.3494 145.277 77.5749 140.65 78.3242C135.991 79.041 133.45 76.63 133.45 76.63Z" fill="white"/>
<path fill-rule="evenodd" clip-rule="evenodd" d="M144.783 73.9994C143.471 73.6944 141.727 73.4412 139.969 73.6313C138.25 73.8188 136.68 74.619 135.528 75.3867C134.955 75.769 134.491 76.1394 134.171 76.4137C134.085 76.4878 134.009 76.5547 133.944 76.6129C133.992 76.6482 134.045 76.6868 134.105 76.728C134.4 76.9319 134.844 77.1995 135.429 77.4463C136.598 77.9388 138.337 78.3508 140.599 78.003C142.842 77.6394 144.392 76.6777 145.379 75.8114C145.874 75.3776 146.228 74.9673 146.457 74.6677C146.5 74.6123 146.538 74.5607 146.572 74.5135C146.508 74.4914 146.437 74.4672 146.359 74.4413C145.981 74.3156 145.438 74.1515 144.783 73.9994ZM147.068 74.35C147.353 74.5082 147.353 74.5083 147.353 74.5085L147.353 74.5089L147.352 74.5099L147.351 74.5128L147.345 74.522C147.341 74.5296 147.335 74.5403 147.327 74.5537C147.311 74.5807 147.287 74.6189 147.256 74.6671C147.194 74.7633 147.101 74.8993 146.975 75.0636C146.724 75.3922 146.341 75.8351 145.809 76.3013C144.744 77.2349 143.085 78.2604 140.702 78.6464L140.7 78.6468C138.304 79.0154 136.443 78.5804 135.176 78.0467C134.544 77.7803 134.061 77.4899 133.735 77.2642C133.571 77.1513 133.446 77.0544 133.361 76.9846C133.319 76.9497 133.286 76.9215 133.264 76.9015C133.252 76.8914 133.243 76.8834 133.237 76.8776L133.229 76.8706L133.227 76.8683L133.226 76.8675L133.226 76.8672C133.226 76.8671 133.226 76.867 133.45 76.6306C133.218 76.4015 133.218 76.4014 133.218 76.4014L133.219 76.4005L133.221 76.3984L133.229 76.3911C133.235 76.3848 133.244 76.3759 133.256 76.3644C133.279 76.3414 133.314 76.3082 133.358 76.2662C133.448 76.1823 133.579 76.0629 133.747 75.919C134.083 75.6312 134.567 75.2442 135.167 74.8445C136.361 74.0484 138.033 73.187 139.898 72.9835C141.756 72.7826 143.58 73.0507 144.931 73.3647C145.608 73.5221 146.171 73.692 146.565 73.8229C146.762 73.8883 146.917 73.9441 147.024 73.9838C147.077 74.0036 147.118 74.0195 147.147 74.0305C147.161 74.036 147.171 74.0403 147.179 74.0433L147.188 74.0468L147.19 74.0478L147.191 74.0481C147.191 74.0481 147.191 74.0482 147.068 74.35ZM133.45 76.6306L133.218 76.4014L132.984 76.638L133.226 76.867L133.45 76.6306ZM147.068 74.35L147.191 74.0482L147.532 74.1869L147.353 74.5082L147.068 74.35Z" fill="#1E344A"/>
<path d="M108.819 77.8035C108.819 77.8035 110.285 75.3599 114.716 75.4251C119.147 75.5229 122.014 77.9664 122.014 77.9664C122.014 77.9664 119.864 79.628 115.205 79.9212C111.653 80.1493 108.819 77.8035 108.819 77.8035Z" fill="white"/>
<path fill-rule="evenodd" clip-rule="evenodd" d="M109.273 77.7387C109.299 77.7084 109.327 77.6758 109.359 77.6411C109.549 77.4312 109.85 77.1466 110.284 76.8621C111.15 76.2953 112.56 75.7191 114.71 75.7505C116.866 75.7983 118.644 76.4168 119.883 77.0246C120.503 77.3283 120.986 77.6286 121.313 77.8518C121.361 77.8847 121.406 77.9159 121.447 77.9451C121.445 77.9464 121.443 77.9477 121.441 77.9489C121.179 78.1017 120.779 78.3115 120.235 78.5314C119.146 78.9708 117.478 79.4513 115.184 79.5957L115.184 79.5957C113.484 79.7049 111.945 79.1978 110.822 78.6543C110.262 78.3832 109.81 78.1053 109.499 77.8959C109.413 77.8375 109.337 77.7846 109.273 77.7387ZM122.014 77.966C122.225 77.7181 122.225 77.718 122.225 77.7179L122.224 77.717L122.222 77.7151L122.214 77.7086C122.208 77.7031 122.198 77.6954 122.186 77.6856C122.162 77.666 122.127 77.6379 122.081 77.6027C121.989 77.5321 121.855 77.4326 121.68 77.3136C121.332 77.0755 120.821 76.7588 120.17 76.4395C118.868 75.8012 116.997 75.1492 114.723 75.099L114.721 75.099C112.441 75.0654 110.903 75.6783 109.927 76.3169C109.441 76.6352 109.099 76.9574 108.876 77.2035C108.764 77.3266 108.683 77.4308 108.628 77.506C108.6 77.5436 108.579 77.574 108.565 77.596C108.557 77.607 108.552 77.6159 108.548 77.6225L108.542 77.6308L108.541 77.6336L108.54 77.6346L108.54 77.6351C108.54 77.6353 108.54 77.6355 108.819 77.8031L108.54 77.6355L108.396 77.8756L108.611 78.0541L108.819 77.8031C108.611 78.0541 108.611 78.054 108.611 78.0541L108.612 78.0551L108.615 78.0569L108.622 78.063C108.629 78.0682 108.638 78.0755 108.649 78.0848C108.673 78.1035 108.707 78.1301 108.751 78.1636C108.84 78.2305 108.969 78.3246 109.135 78.4363C109.467 78.6596 109.945 78.9539 110.538 79.2408C111.72 79.8131 113.374 80.3648 115.225 80.246C117.591 80.0971 119.327 79.6002 120.478 79.1356C121.054 78.9034 121.482 78.6794 121.77 78.5115C121.913 78.4276 122.022 78.3576 122.095 78.3077C122.132 78.2827 122.16 78.2628 122.18 78.2485C122.19 78.2414 122.197 78.2357 122.203 78.2316L122.21 78.2265L122.212 78.2249L122.213 78.2243L122.213 78.224C122.213 78.2239 122.213 78.2238 122.014 77.966ZM122.014 77.966L122.213 78.2238L122.531 77.9784L122.225 77.7179L122.014 77.966Z" fill="#1E344A"/>
<path d="M104.583 68.1263C104.583 68.1263 109.34 65.7479 112.533 65.4547C115.726 65.1615 117.713 66.3669 117.713 66.3669C118.528 66.4973 119.31 66.0411 119.603 65.2918C119.961 64.3144 119.408 63.2392 118.398 63.0111C116.606 62.5876 113.771 62.2618 110.904 63.1741C106.18 64.6728 104.583 68.1263 104.583 68.1263Z" fill="#1E344A"/>
<path fill-rule="evenodd" clip-rule="evenodd" d="M124.073 79.4014L124.712 79.5275L122.881 88.8088C122.892 88.8115 122.904 88.8143 122.916 88.8171C123.12 88.865 123.411 88.9224 123.755 88.9594C124.449 89.0339 125.336 89.0229 126.166 88.7061L126.168 88.7052L126.171 88.7043C127.034 88.3903 127.743 87.9733 128.236 87.6344C128.481 87.4651 128.673 87.3161 128.801 87.2103C128.865 87.1574 128.914 87.1154 128.946 87.0872C128.962 87.073 128.974 87.0624 128.981 87.0555L128.989 87.0481L128.991 87.0466C128.991 87.0467 128.991 87.0467 129.214 87.2837C129.438 87.5208 129.438 87.5208 129.438 87.5209L129.437 87.5214L129.436 87.5224L129.433 87.5256L129.421 87.5365C129.411 87.5457 129.396 87.5587 129.378 87.5753C129.34 87.6084 129.286 87.6554 129.215 87.7135C129.074 87.8297 128.868 87.9902 128.605 88.1712C128.08 88.5324 127.323 88.9784 126.396 89.3158C125.434 89.6823 124.433 89.6875 123.686 89.6073C123.309 89.5669 122.991 89.5042 122.767 89.4514C122.654 89.4249 122.565 89.4008 122.502 89.3831C122.471 89.3742 122.447 89.3669 122.43 89.3617C122.421 89.3591 122.415 89.357 122.41 89.3555L122.404 89.3536L122.402 89.353L122.402 89.3528C122.402 89.3528 122.401 89.3527 122.503 89.0431L122.401 89.3527L122.127 89.2629L124.073 79.4014Z" fill="#1E344A"/>
<path d="M125.435 95.5594C125.435 95.5594 125.207 93.8652 127.422 93.3439C131.43 92.399 133.026 93.8 135.144 93.4742C137.262 93.1158 138.598 92.0732 138.598 92.0732C138.598 92.0732 137.262 95.3313 131.397 96.1132C125.5 96.9277 125.435 95.5594 125.435 95.5594Z" fill="#D65555"/>
<path fill-rule="evenodd" clip-rule="evenodd" d="M138.899 92.1974L138.598 92.0739C138.899 92.1974 138.899 92.1977 138.899 92.1979L138.899 92.1985L138.898 92.1998L138.897 92.2033L138.892 92.2138C138.888 92.2223 138.883 92.2339 138.876 92.2483C138.863 92.2772 138.843 92.3175 138.817 92.3678C138.763 92.4685 138.682 92.6093 138.566 92.7788C138.335 93.118 137.966 93.5717 137.408 94.0483C136.291 95.0035 134.432 96.0378 131.441 96.4367C128.48 96.8456 126.93 96.7157 126.106 96.4527C125.688 96.3196 125.437 96.1462 125.289 95.9721C125.215 95.8851 125.17 95.8017 125.144 95.7306C125.131 95.6953 125.123 95.6639 125.117 95.6375C125.115 95.6244 125.113 95.6125 125.112 95.6021C125.111 95.5991 125.111 95.5963 125.111 95.5935L125.111 95.5917C125.11 95.5861 125.109 95.5788 125.108 95.5701C125.107 95.5525 125.105 95.5287 125.104 95.4993C125.102 95.4406 125.101 95.3593 125.109 95.2614C125.125 95.066 125.172 94.7998 125.301 94.514C125.565 93.9265 126.148 93.3096 127.348 93.0274M125.758 95.5186C125.758 95.519 125.758 95.519 125.758 95.5187L125.758 95.5185M125.758 95.5169L125.758 95.5173L125.758 95.5179L125.758 95.5185C125.758 95.5177 125.758 95.5153 125.757 95.5116C125.757 95.5109 125.757 95.5101 125.757 95.5094C125.761 95.5166 125.769 95.5307 125.786 95.55C125.834 95.607 125.968 95.7248 126.304 95.8319C126.986 96.0495 128.417 96.1966 131.353 95.7911L131.354 95.7909C134.228 95.4078 135.968 94.4221 136.985 93.553C137.168 93.3962 137.328 93.2428 137.468 93.0969C136.878 93.3669 136.108 93.6422 135.198 93.796L135.194 93.7968C134.297 93.9347 133.474 93.7808 132.612 93.6197C132.391 93.5783 132.167 93.5365 131.939 93.499C130.805 93.3126 129.449 93.2015 127.497 93.6616L127.497 93.6616C126.481 93.9007 126.07 94.3916 125.895 94.7814C125.804 94.9843 125.77 95.1742 125.759 95.3129C125.753 95.3819 125.754 95.437 125.755 95.473C125.756 95.4893 125.757 95.5016 125.757 95.5094C125.756 95.5059 125.755 95.504 125.755 95.5038L125.755 95.5038L125.755 95.5037C125.755 95.5037 125.756 95.5066 125.757 95.5127M125.758 95.5186C125.758 95.5186 125.758 95.5186 125.758 95.5186L125.758 95.5186ZM138.397 91.817L138.396 91.8181L138.387 91.825C138.378 91.8314 138.364 91.8415 138.346 91.8547C138.309 91.8813 138.252 91.9207 138.178 91.9695C138.028 92.0673 137.805 92.2029 137.517 92.3497C136.941 92.6435 136.11 92.9806 135.092 93.1532C134.316 93.272 133.63 93.1445 132.786 92.9881C132.553 92.9447 132.307 92.8992 132.045 92.856C130.849 92.6596 129.404 92.5427 127.348 93.0273M138.397 91.8169C138.397 91.8169 138.397 91.817 138.397 91.817L138.397 91.8169ZM138.397 91.8169C138.514 91.7261 138.677 91.725 138.794 91.8142C138.912 91.9034 138.955 92.0607 138.899 92.1974" fill="#1E344A"/>
<path d="M126.966 96.5046C126.966 96.5046 128.27 99.0785 130.29 99.2739C135.502 99.8278 137.718 93.4746 137.718 93.4746C137.718 93.4746 134.72 95.5923 131.397 96.1462C128.074 96.7001 126.966 96.5046 126.966 96.5046Z" fill="#D65555"/>
<path fill-rule="evenodd" clip-rule="evenodd" d="M138.026 93.5814L137.718 93.4742C138.026 93.5814 138.026 93.5813 138.026 93.5814L138.025 93.5835L138.023 93.5879L138.018 93.6034C138.013 93.6167 138.006 93.6358 137.997 93.6604C137.978 93.7095 137.951 93.7803 137.914 93.8696C137.841 94.0482 137.731 94.3012 137.583 94.6022C137.286 95.2032 136.835 96.0013 136.214 96.7841C134.975 98.3452 133.02 99.8907 130.257 99.5976C129.121 99.4871 128.22 98.7165 127.624 98.0288C127.321 97.6792 127.086 97.3372 126.926 97.0829C126.846 96.9554 126.784 96.8493 126.742 96.7742C126.721 96.7366 126.705 96.7068 126.694 96.6859C126.688 96.6755 126.684 96.6673 126.681 96.6615L126.677 96.6546L126.676 96.6525L126.676 96.6518C126.676 96.6517 126.676 96.6513 126.966 96.5042L126.676 96.6513C126.62 96.5412 126.631 96.4091 126.705 96.31C126.778 96.2114 126.9 96.1623 127.021 96.183C127.022 96.1831 127.022 96.1832 127.023 96.1833L127.022 96.1831L127.021 96.183L127.026 96.1838C127.032 96.1846 127.043 96.1861 127.058 96.1878C127.089 96.1914 127.139 96.1964 127.212 96.2009C127.356 96.2099 127.589 96.2169 127.926 96.207C128.601 96.1872 129.694 96.0994 131.344 95.8244C132.959 95.5552 134.505 94.9033 135.655 94.3125C136.228 94.0179 136.699 93.7405 137.025 93.5371C137.189 93.4355 137.316 93.3524 137.402 93.2952C137.445 93.2666 137.477 93.2444 137.499 93.2296C137.51 93.2222 137.518 93.2166 137.523 93.213L137.529 93.209L137.53 93.2082C137.645 93.1265 137.801 93.1287 137.914 93.2139C138.027 93.2992 138.072 93.4477 138.026 93.5814ZM127.021 96.183C127.021 96.183 127.021 96.183 127.021 96.183V96.183ZM127.559 96.8633C127.701 97.0781 127.888 97.3386 128.117 97.6023C128.678 98.2501 129.437 98.8637 130.321 98.9492L130.324 98.9495C132.772 99.2096 134.531 97.8557 135.703 96.379C136.287 95.6435 136.715 94.8889 136.997 94.3162C136.706 94.4881 136.353 94.686 135.953 94.892C134.773 95.4986 133.159 96.1825 131.451 96.4671C129.778 96.746 128.655 96.8375 127.945 96.8583C127.8 96.8626 127.671 96.8639 127.559 96.8633Z" fill="#1E344A"/>
<path d="M110.969 78.9106C110.969 78.9106 111.621 76.5322 114.39 76.5648C117.16 76.5974 118.137 79.497 118.137 79.497C118.137 79.497 116.378 79.9857 114.162 79.7903C111.947 79.5948 110.969 78.9106 110.969 78.9106Z" fill="#A6D97D"/>
<path fill-rule="evenodd" clip-rule="evenodd" d="M111.227 78.8168C111.237 78.8219 111.247 78.8272 111.257 78.8327C111.375 78.8956 111.558 78.9834 111.81 79.0778C112.313 79.2665 113.092 79.4821 114.181 79.5782C115.269 79.6742 116.246 79.6022 116.951 79.506C117.304 79.458 117.588 79.404 117.783 79.3622C117.806 79.3573 117.827 79.3526 117.848 79.348C117.821 79.2879 117.789 79.2173 117.75 79.1386C117.62 78.8764 117.419 78.5272 117.136 78.1779C116.571 77.4796 115.688 76.7939 114.388 76.7786C113.074 76.7631 112.277 77.3156 111.803 77.8652C111.564 78.1425 111.406 78.4213 111.307 78.6305C111.274 78.702 111.248 78.7651 111.227 78.8168ZM118.137 79.4975C118.339 79.4293 118.339 79.4292 118.339 79.4291L118.339 79.4289L118.339 79.4281L118.338 79.4259L118.335 79.4182C118.333 79.4118 118.33 79.4027 118.325 79.3911C118.317 79.3679 118.304 79.3346 118.287 79.2927C118.253 79.209 118.202 79.0907 118.132 78.9492C117.992 78.6667 117.775 78.289 117.468 77.9093C116.852 77.1495 115.861 76.3692 114.393 76.3519C112.937 76.3348 112.024 76.9552 111.48 77.5866C111.21 77.8998 111.032 78.2136 110.921 78.4493C110.866 78.5674 110.827 78.6665 110.802 78.7371C110.789 78.7724 110.78 78.8006 110.774 78.8206C110.77 78.8306 110.768 78.8385 110.766 78.8443L110.764 78.8512L110.764 78.8533L110.764 78.8541L110.764 78.8544C110.764 78.8545 110.763 78.8547 110.969 78.911L110.763 78.8547L110.724 78.9996L110.847 79.0858L110.969 78.911C110.847 79.0858 110.847 79.0859 110.847 79.0859L110.847 79.0861L110.848 79.0864L110.849 79.0872L110.852 79.0895C110.855 79.0914 110.859 79.0939 110.864 79.0971C110.873 79.1033 110.886 79.1119 110.904 79.1226C110.939 79.1439 110.989 79.1736 111.056 79.2093C111.191 79.2807 111.39 79.3762 111.66 79.4773C112.199 79.6796 113.016 79.9038 114.143 80.0032C115.271 80.1027 116.281 80.0281 117.009 79.9288C117.373 79.8791 117.668 79.8231 117.872 79.7794C117.974 79.7575 118.054 79.7387 118.108 79.7252C118.136 79.7184 118.157 79.713 118.171 79.7092L118.188 79.7048L118.192 79.7036L118.193 79.7032L118.194 79.7031L118.194 79.7031C118.194 79.703 118.194 79.703 118.137 79.4975ZM118.137 79.4975L118.194 79.703L118.411 79.6428L118.339 79.4293L118.137 79.4975Z" fill="#1E344A"/>
<path d="M135.958 77.8358C135.958 77.8358 136.61 75.1968 139.868 74.871C143.094 74.5452 144.006 77.2494 144.006 77.2494C144.006 77.2494 142.312 78.2919 139.608 78.5526C136.936 78.8132 135.958 77.8358 135.958 77.8358Z" fill="#A6D97D"/>
<path fill-rule="evenodd" clip-rule="evenodd" d="M142.995 76.0879C142.404 75.4927 141.431 74.927 139.89 75.0827C138.323 75.2394 137.395 75.9483 136.857 76.6097C136.586 76.9425 136.412 77.2655 136.306 77.5044C136.26 77.6081 136.227 77.6956 136.205 77.7607C136.224 77.7743 136.245 77.7894 136.27 77.8056C136.39 77.8845 136.581 77.991 136.855 78.0911C137.4 78.2909 138.28 78.4672 139.587 78.3397C140.916 78.2116 141.997 77.8913 142.744 77.6036C143.118 77.4599 143.407 77.3244 143.603 77.2255C143.654 77.1994 143.699 77.1759 143.737 77.1555C143.709 77.0947 143.673 77.0194 143.626 76.9338C143.497 76.6986 143.294 76.3881 142.995 76.0879ZM144.006 77.2488C144.208 77.1807 144.208 77.1805 144.208 77.1804L144.208 77.1793L144.207 77.1769L144.204 77.1693C144.202 77.163 144.199 77.1542 144.194 77.143C144.186 77.1207 144.173 77.0891 144.157 77.0496C144.123 76.9707 144.072 76.86 144 76.729C143.857 76.4674 143.631 76.1222 143.298 75.7871C142.627 75.1116 141.531 74.4881 139.847 74.6582C138.155 74.8274 137.128 75.6009 136.526 76.3404C136.227 76.7081 136.034 77.0653 135.916 77.3314C135.857 77.4645 135.817 77.5754 135.79 77.654C135.777 77.6933 135.768 77.7247 135.762 77.7468C135.758 77.7578 135.756 77.7665 135.754 77.7728L135.752 77.7804L135.752 77.7828L135.752 77.7836L135.751 77.7839C135.751 77.784 135.751 77.7842 135.959 77.8353L135.751 77.7839L135.723 77.901L135.808 77.9862L135.959 77.8353C135.808 77.9862 135.808 77.9863 135.808 77.9864L135.808 77.9866L135.809 77.9872L135.81 77.9886L135.814 77.9925C135.817 77.9955 135.821 77.9994 135.827 78.0041C135.837 78.0136 135.852 78.0263 135.87 78.0417C135.908 78.0725 135.963 78.1142 136.036 78.1623C136.182 78.2585 136.403 78.38 136.708 78.4918C137.319 78.7155 138.263 78.8975 139.628 78.7644C141.003 78.6319 142.121 78.3006 142.897 78.0018C143.286 77.8524 143.588 77.7109 143.795 77.6062C143.899 77.5538 143.978 77.5106 144.032 77.4801C144.059 77.4649 144.08 77.4528 144.094 77.4444C144.099 77.442 144.102 77.4399 144.105 77.438C144.107 77.4367 144.109 77.4356 144.111 77.4346L144.116 77.4318L144.117 77.431L144.117 77.4307C144.117 77.4307 144.118 77.4305 144.006 77.2488ZM144.006 77.2488L144.118 77.4305L144.262 77.3415L144.208 77.1804L144.006 77.2488ZM136.108 77.6834L136.109 77.6837C136.108 77.6834 136.108 77.6833 136.108 77.6834Z" fill="#1E344A"/>
<path d="M164.466 61.7414C164.564 60.9595 164.629 60.145 164.662 59.3631C165.444 41.2809 151.402 26.0332 133.319 25.2513C121.916 24.7626 111.653 30.1709 105.398 38.7396C111.588 32.9077 120.059 29.4542 129.247 29.8451C146.515 30.5619 160.101 44.5389 160.589 61.5459L164.466 61.7414Z" fill="#D65555"/>
<path fill-rule="evenodd" clip-rule="evenodd" d="M105.135 38.5471C111.451 29.8948 121.816 24.4318 133.333 24.9254L133.334 24.9254C151.595 25.7151 165.777 41.114 164.987 59.3768C164.954 60.1668 164.889 60.9901 164.79 61.7815C164.769 61.9507 164.62 62.075 164.45 62.0665L160.573 61.871C160.403 61.8624 160.269 61.7248 160.264 61.5549C159.78 44.7178 146.329 30.8799 129.233 30.1703L129.233 30.1703C120.137 29.7832 111.751 33.202 105.621 38.9764C105.499 39.0918 105.309 39.0949 105.182 38.9836C105.056 38.8722 105.036 38.6831 105.135 38.5471ZM107.874 36.2173C113.787 31.7286 121.254 29.1786 129.26 29.5192C129.261 29.5192 129.261 29.5192 129.261 29.5193L129.247 29.8448L129.26 29.5192C129.26 29.5192 129.26 29.5192 129.26 29.5192C146.598 30.239 160.261 44.1948 160.905 61.2353L160.606 61.2202L160.589 61.5456L160.915 61.5362C160.912 61.4358 160.909 61.3355 160.905 61.2353L164.179 61.4003C164.167 61.5009 164.156 61.6011 164.143 61.7006L164.466 61.7411L164.483 61.4157L164.179 61.4003C164.256 60.7211 164.308 60.023 164.336 59.3491L164.336 59.3486C165.11 41.447 151.209 26.3506 133.305 25.5764C133.305 25.5764 133.305 25.5764 133.305 25.5764L133.319 25.2509L133.305 25.5764C123.273 25.1465 114.132 29.3265 107.874 36.2173Z" fill="#1E344A"/>
<path d="M107.613 36.2959C107.613 36.2959 100.413 45.5813 99.8267 50.501C99.2402 55.4532 95.6238 58.0597 98.8493 60.6009C102.042 63.1422 103.802 60.9919 103.802 60.9919C103.802 60.9919 106.115 58.5158 107.679 56.17C109.242 53.8568 108.591 51.9671 108.591 51.9671C108.591 51.9671 111.914 55.779 117.16 53.6287C122.405 51.4458 125.793 45.7117 125.793 45.7117C125.793 45.7117 127.455 49.6539 131.918 48.7417C136.382 47.8294 136.838 45.6465 136.838 45.6465C136.838 45.6465 136.056 51.1526 140.617 52.4233C145.179 53.7265 146.938 50.8594 146.938 50.8594C146.938 50.8594 145.798 56.3329 149.414 57.6035C153.031 58.8742 154.138 59.4606 154.138 59.4606C154.138 59.4606 151.63 62.2951 153.031 63.6635C154.432 64.9993 158.276 65.7161 158.276 65.7161L160.589 61.5784C160.589 61.5784 162.805 54.6713 160.589 50.5336C158.374 46.3959 155.8 45.9072 155.8 45.9072C155.8 45.9072 154.627 38.8698 150.522 35.9375C146.417 33.0053 143.81 33.8198 143.81 33.8198C143.81 33.8198 136.838 28.5418 132.44 27.9879C128.041 27.434 125.924 29.5517 125.924 29.5517C125.924 29.5517 120.059 28.7372 116.866 30.073C113.673 31.4088 110.969 34.7972 110.969 34.7972L107.613 36.2959Z" fill="#1E344A"/>
<path opacity="0.2" d="M108.46 42.7466C108.46 42.7466 107.711 51.4456 113.38 51.3479C119.017 51.2176 125.891 41.1828 125.891 41.1828C125.891 41.1828 126.64 46.3305 131.039 46.1024C135.47 45.8418 136.936 40.3357 136.936 40.3357C136.936 40.3357 133.124 44.7666 130.55 42.4208C127.976 40.075 126.868 35.416 126.868 35.416C126.868 35.416 117.648 47.0147 113.608 46.3305C109.21 45.5486 108.46 42.7466 108.46 42.7466Z" fill="#66B4BF"/>
<path opacity="0.2" d="M104.779 54.0848C104.779 54.0848 101.456 58.3203 98.1651 55.3881C94.8419 52.4558 98.5235 46.0049 98.5235 46.0049C98.5235 46.0049 93.1803 54.8342 96.5035 58.5158C99.8267 62.1974 104.779 54.0848 104.779 54.0848Z" fill="#66B4BF"/>
<path opacity="0.2" d="M92.8219 39.3583C92.8219 39.3583 89.1403 38.055 90.6065 33.2983C92.0726 28.509 97.2203 29.4212 97.2203 29.4212C97.2203 29.4212 91.7142 24.2735 94.8419 21.6996C97.9697 19.1258 104.583 22.449 104.583 22.449C104.583 22.449 97.5787 14.7274 93.7342 17.6597C89.8571 20.5919 92.8219 27.2383 92.8219 27.2383C92.8219 27.2383 88.1629 27.8573 87.1203 32.386C85.6542 38.8044 92.8219 39.3583 92.8219 39.3583Z" fill="#66B4BF"/>
<path opacity="0.1" d="M147.72 82.7556C147.85 84.1892 145.765 85.4924 143.061 85.7205C140.389 85.9485 138.109 84.9711 137.978 83.5376C137.848 82.104 139.933 80.8008 142.637 80.5727C145.342 80.3773 147.622 81.3547 147.72 82.7556Z" fill="#C4007B"/>
<path opacity="0.1" d="M119.408 85.1661C119.277 86.5996 117.029 87.5445 114.325 87.3164C111.653 87.0883 109.568 85.7525 109.699 84.319C109.829 82.8855 112.077 81.9406 114.781 82.1687C117.453 82.4293 119.505 83.7651 119.408 85.1661Z" fill="#C4007B"/>
<path fill-rule="evenodd" clip-rule="evenodd" d="M106.936 71.7702C106.386 71.8434 106.047 72.3122 106.107 72.7947L106.108 72.7991L106.108 72.8035C106.285 74.3298 106.613 76.5203 107.106 78.4301C107.353 79.3876 107.633 80.2401 107.941 80.8927C108.27 81.5898 108.548 81.8807 108.695 81.9593L108.697 81.9606C109.148 82.2045 110.081 82.4717 111.366 82.6937C112.615 82.9094 114.091 83.0655 115.549 83.1351C117.01 83.2049 118.425 83.1864 119.558 83.0629C120.125 83.001 120.598 82.9153 120.96 82.8109C121.345 82.6999 121.507 82.595 121.547 82.5578L121.551 82.5542L121.555 82.5507C121.759 82.3663 122.034 81.8883 122.285 81.0504C122.522 80.2566 122.698 79.2848 122.806 78.2847C122.913 77.2874 122.951 76.2907 122.923 75.4557C122.894 74.5799 122.797 74.0033 122.703 73.7677C122.555 73.3983 122.178 73.0162 120.879 72.6714C119.587 72.3283 117.683 72.0985 114.906 71.8027L114.904 71.8026C111.68 71.4548 108.729 71.6108 106.936 71.7702ZM115.113 69.8589C111.702 69.4912 108.603 69.6588 106.745 69.8247L106.729 69.826L106.714 69.8279C105.122 70.0208 103.97 71.4355 104.167 73.0324C104.349 74.6011 104.689 76.8882 105.213 78.919C105.475 79.9326 105.791 80.9169 106.173 81.7263C106.533 82.4909 107.036 83.2869 107.769 83.6809C108.523 84.0883 109.732 84.3951 111.033 84.62C112.372 84.8512 113.928 85.0148 115.455 85.0877C116.979 85.1605 118.503 85.1443 119.77 85.0062C120.402 84.9373 120.994 84.8354 121.502 84.6892C121.984 84.5501 122.493 84.3425 122.868 83.9991C123.492 83.4339 123.889 82.5087 124.157 81.6113C124.44 80.6682 124.633 79.5711 124.749 78.4943C124.866 77.4145 124.908 76.3261 124.877 75.3916C124.848 74.4978 124.749 73.6205 124.518 73.0416C124.014 71.7819 122.844 71.1704 121.381 70.7821C119.913 70.3922 117.842 70.1496 115.113 69.8589Z" fill="#1E344A"/>
<path fill-rule="evenodd" clip-rule="evenodd" d="M148.427 67.829C148.623 67.8459 148.862 67.8793 149.081 67.9637C149.702 68.202 150.01 68.7665 150.169 69.1924C150.341 69.6523 150.435 70.204 150.486 70.7721C150.588 71.918 150.53 73.35 150.391 74.7666C150.251 76.1916 150.025 77.6447 149.774 78.8482C149.648 79.4496 149.515 79.9987 149.379 80.4563C149.25 80.8923 149.1 81.3155 148.923 81.6186L148.917 81.6291L148.91 81.6394C148.628 82.0965 148.119 82.3819 147.715 82.5678C147.261 82.7765 146.703 82.9614 146.095 83.1259C144.875 83.4562 143.341 83.7349 141.784 83.9476C140.223 84.1608 138.613 84.3113 137.231 84.3794C135.883 84.446 134.658 84.4399 133.922 84.3024L133.92 84.3021C133.485 84.22 133.101 83.9874 132.791 83.7442C132.468 83.4918 132.153 83.1705 131.851 82.8159C131.248 82.106 130.636 81.1843 130.078 80.1986C128.972 78.2455 127.984 75.8754 127.696 74.1517L127.696 74.1476L127.695 74.1435C127.417 72.3836 128.579 70.7505 130.303 70.4242L130.307 70.4235L130.307 70.4236C132.768 69.9672 136.983 69.1993 140.765 68.6145C142.655 68.3224 144.45 68.0738 145.87 67.9333C146.578 67.8631 147.21 67.8181 147.721 67.81C147.976 67.8059 148.215 67.8106 148.427 67.829ZM130.665 72.3452C129.981 72.4756 129.515 73.1206 129.625 73.8348C129.86 75.2389 130.728 77.3786 131.779 79.2354C132.3 80.1557 132.844 80.9649 133.341 81.55C133.59 81.843 133.811 82.0603 133.996 82.205C134.18 82.3494 134.274 82.3785 134.282 82.381C134.283 82.3811 134.283 82.3812 134.283 82.3812C134.769 82.4715 135.783 82.4937 137.135 82.427C138.456 82.3618 140.01 82.217 141.52 82.0107C143.034 81.8039 144.477 81.5389 145.584 81.239C146.14 81.0884 146.583 80.9366 146.899 80.7916C147.142 80.6795 147.236 80.6043 147.258 80.5888C147.313 80.4783 147.399 80.2572 147.505 79.9014C147.621 79.5099 147.742 79.0157 147.86 78.4488C148.097 77.3156 148.312 75.9322 148.446 74.5757C148.579 73.2107 148.625 71.9161 148.539 70.9453C148.495 70.4551 148.422 70.1009 148.338 69.8768C148.323 69.8362 148.31 69.8045 148.298 69.7803C148.286 69.779 148.273 69.7778 148.259 69.7765C148.137 69.766 147.969 69.7611 147.752 69.7645C147.319 69.7715 146.748 69.8108 146.063 69.8786C144.696 70.0139 142.942 70.2561 141.064 70.5464C137.313 71.1262 133.124 71.8893 130.665 72.3452ZM148.261 69.7153C148.259 69.7127 148.258 69.7112 148.258 69.7111C148.258 69.711 148.259 69.7123 148.261 69.7153Z" fill="#1E344A"/>
<path fill-rule="evenodd" clip-rule="evenodd" d="M128.851 76.3682L124.061 76.6614L123.942 74.7102L128.731 74.417L128.851 76.3682Z" fill="#1E344A"/>
<path fill-rule="evenodd" clip-rule="evenodd" d="M158.117 66.2781L150.069 73.5436L148.759 72.0926L156.807 64.8271L158.117 66.2781Z" fill="#1E344A"/>
<path d="M156.452 82.8536C153.975 82.5604 152.542 77.3475 153.259 71.1898C153.975 65.032 156.582 60.2753 159.058 60.5685L163.424 61.5785L160.198 83.7332L156.452 82.8536Z" fill="#A23D3D"/>
<path fill-rule="evenodd" clip-rule="evenodd" d="M155.785 63.616C154.758 65.4933 153.937 68.1794 153.582 71.2271C153.228 74.2751 153.407 77.0742 153.972 79.1344C154.255 80.1654 154.629 80.9948 155.068 81.5771C155.505 82.1585 155.987 82.4702 156.49 82.5297C156.502 82.5312 156.514 82.5333 156.526 82.5361L159.927 83.3346L163.058 61.828L159.003 60.8899C158.506 60.8366 157.971 61.0289 157.416 61.4889C156.855 61.9547 156.298 62.6765 155.785 63.616ZM157 60.9874C157.647 60.4508 158.36 60.1575 159.096 60.2447C159.108 60.2461 159.12 60.2481 159.132 60.2508L163.497 61.2608C163.662 61.299 163.771 61.4574 163.746 61.6252L160.521 83.7799C160.508 83.8702 160.457 83.9509 160.382 84.0023C160.306 84.0536 160.213 84.071 160.124 84.0501L156.394 83.1745C155.667 83.082 155.048 82.6341 154.547 81.969C154.043 81.299 153.639 80.3853 153.344 79.3067C152.752 77.1477 152.573 74.2616 152.935 71.1518C153.297 68.0418 154.138 65.2707 155.213 63.3035C155.75 62.3207 156.354 61.5234 157 60.9874Z" fill="#1E344A"/>
<path d="M166.044 73.1648C166.768 67.0177 165.341 61.7974 162.857 61.505C160.373 61.2126 157.773 65.9588 157.05 72.106C156.326 78.2531 157.753 83.4734 160.237 83.7657C162.721 84.0581 165.321 79.3119 166.044 73.1648Z" fill="#D65555"/>
<path fill-rule="evenodd" clip-rule="evenodd" d="M158.849 82.4887C159.287 83.0704 159.77 83.3825 160.275 83.4419C160.779 83.5013 161.322 83.3099 161.883 82.8458C162.445 82.3809 163.001 81.6607 163.515 80.7232C164.541 78.8498 165.363 76.169 165.721 73.1264C166.079 70.0838 165.903 67.2855 165.339 65.225C165.057 64.1938 164.683 63.364 164.245 62.7814C163.807 62.1997 163.324 61.8877 162.819 61.8283C162.314 61.7689 161.772 61.9603 161.211 62.4244C160.649 62.8892 160.093 63.6094 159.579 64.5469C158.553 66.4203 157.731 69.1012 157.373 72.1437C157.015 75.1863 157.191 77.9846 157.755 80.0452C158.036 81.0763 158.411 81.9061 158.849 82.4887ZM157.126 80.217C156.536 78.0575 156.361 75.1721 156.726 72.0676C157.091 68.963 157.932 66.1972 159.007 64.2338C159.545 63.253 160.149 62.4572 160.796 61.9223C161.444 61.3866 162.158 61.0944 162.895 61.1812C163.633 61.268 164.259 61.7181 164.765 62.3895C165.27 63.06 165.673 63.9743 165.968 65.0532C166.558 67.2126 166.733 70.098 166.368 73.2026C166.003 76.3071 165.162 79.0729 164.086 81.0363C163.549 82.0172 162.945 82.8129 162.298 83.3479C161.65 83.8835 160.936 84.1758 160.199 84.089C159.461 84.0022 158.834 83.5521 158.329 82.8806C157.824 82.2101 157.421 81.2958 157.126 80.217Z" fill="#1E344A"/>
<path d="M53.1715 174.144C53.1715 174.144 69.6898 175.838 72.2637 166.26C74.8375 156.681 64.2815 156.453 67.8327 150.197C71.384 143.942 75.9127 147.135 76.7924 139.413C77.6395 131.692 71.775 126.544 71.775 126.544C71.775 126.544 65.6498 136.481 60.9908 149.22C56.3318 161.959 53.1715 174.144 53.1715 174.144Z" fill="#365D8D"/>
<path fill-rule="evenodd" clip-rule="evenodd" d="M71.9899 126.298L71.7749 126.543L71.4976 126.372L71.7 126.044L71.9899 126.298ZM53.1715 174.143C52.8561 174.062 52.8561 174.062 52.8561 174.061L52.8563 174.061L52.8654 174.026C52.8716 174.002 52.8808 173.967 52.893 173.921C52.9174 173.828 52.9537 173.69 53.0016 173.511C53.0973 173.152 53.2392 172.626 53.4239 171.954C53.7935 170.611 54.3347 168.688 55.0216 166.366C56.3952 161.723 58.3522 155.485 60.6848 149.107C63.0204 142.721 65.7228 137.039 67.8407 132.954C68.8999 130.911 69.8133 129.267 70.4623 128.133C70.7868 127.566 71.0452 127.127 71.2227 126.828C71.3114 126.679 71.3799 126.566 71.4264 126.489C71.4496 126.451 71.4673 126.422 71.4792 126.402L71.4928 126.38L71.4963 126.374L71.4976 126.372C71.4976 126.372 71.4976 126.372 71.7749 126.543C71.9899 126.298 71.99 126.299 71.9901 126.299L71.9917 126.3L71.9957 126.304L72.0098 126.316C72.022 126.327 72.0395 126.343 72.062 126.364C72.1069 126.406 72.1718 126.467 72.2535 126.547C72.417 126.708 72.6478 126.944 72.9215 127.252C73.4684 127.867 74.1877 128.767 74.8802 129.914C76.2644 132.206 77.5499 135.495 77.1162 139.448L77.116 139.449C76.8925 141.412 76.4333 142.717 75.7897 143.659C75.1442 144.605 74.3335 145.155 73.4742 145.638C73.2559 145.761 73.034 145.88 72.8093 146.001C71.2789 146.821 69.6184 147.711 68.116 150.358C67.27 151.848 67.2846 152.928 67.6883 153.87C68.069 154.759 68.8008 155.55 69.642 156.459C69.7339 156.558 69.8272 156.659 69.9214 156.761C70.86 157.781 71.865 158.942 72.4613 160.469C73.0615 162.007 73.2377 163.889 72.5783 166.343C71.2375 171.333 66.2782 173.337 61.8082 174.114C59.5575 174.505 57.3918 174.593 55.7908 174.584C54.9896 174.58 54.3284 174.551 53.8666 174.523C53.6357 174.509 53.4546 174.495 53.3307 174.485C53.2688 174.48 53.2212 174.475 53.1888 174.472C53.1726 174.471 53.1602 174.47 53.1517 174.469L53.1394 174.468L53.1386 174.468C53.1384 174.467 53.1382 174.467 53.1715 174.143ZM53.1715 174.143L52.8561 174.061L52.7609 174.429L53.1382 174.467L53.1715 174.143ZM53.5854 173.851C53.6771 173.858 53.7843 173.865 53.9059 173.872C54.3576 173.9 55.0069 173.928 55.7945 173.933C57.3712 173.942 59.4959 173.855 61.6966 173.472C66.1291 172.702 70.7159 170.763 71.949 166.174C72.5765 163.839 72.3984 162.101 71.8542 160.706C71.3061 159.302 70.3766 158.218 69.4419 157.202C69.3469 157.099 69.2515 156.996 69.1562 156.893C68.3317 156.004 67.5175 155.126 67.0893 154.127C66.5929 152.968 66.6197 151.673 67.5494 150.036C69.1479 147.22 70.961 146.25 72.5064 145.423C72.7284 145.304 72.945 145.188 73.1546 145.07C73.9812 144.605 74.6896 144.115 75.2516 143.292C75.8155 142.466 76.2523 141.274 76.4686 139.376C76.8816 135.608 75.6585 132.463 74.3224 130.251C73.6546 129.145 72.9607 128.276 72.4346 127.685C72.1974 127.418 71.9946 127.208 71.8442 127.059C71.8249 127.091 71.8044 127.125 71.7826 127.162C71.6069 127.457 71.3504 127.893 71.0279 128.457C70.3828 129.584 69.4737 131.22 68.4192 133.254C66.3099 137.322 63.6202 142.978 61.2968 149.331C58.9704 155.692 57.0177 161.916 55.6464 166.551C54.9609 168.868 54.4208 170.787 54.0522 172.127C53.8679 172.797 53.7265 173.322 53.6312 173.679C53.6145 173.741 53.5992 173.799 53.5854 173.851Z" fill="#1E344A"/>
<path d="M175.055 134.493C175.055 134.493 187.012 141.498 187.924 152.706C188.837 163.913 180.007 157.495 179.649 165.77C179.291 174.046 185.709 173.687 184.08 180.497C182.418 187.306 166.877 179.389 166.877 179.389C166.877 179.389 166.421 167.628 168.083 156.192C169.744 144.789 175.055 134.493 175.055 134.493Z" fill="#365D8D"/>
<path fill-rule="evenodd" clip-rule="evenodd" d="M175.22 134.212L175.055 134.493L174.766 134.344L174.923 134.038L175.22 134.212ZM166.877 179.389C166.552 179.402 166.552 179.401 166.552 179.401L166.551 179.392L166.551 179.367C166.55 179.344 166.548 179.31 166.547 179.265C166.544 179.175 166.54 179.043 166.535 178.87C166.526 178.525 166.515 178.019 166.506 177.377C166.489 176.092 166.484 174.261 166.531 172.072C166.625 167.694 166.927 161.881 167.76 156.145C168.596 150.411 170.348 144.961 171.888 140.949C172.658 138.942 173.377 137.293 173.903 136.144C174.166 135.57 174.381 135.121 174.531 134.815C174.606 134.662 174.664 134.544 174.704 134.465C174.724 134.425 174.739 134.395 174.749 134.375L174.761 134.352L174.766 134.344C174.766 134.343 174.766 134.344 175.055 134.493C175.22 134.212 175.22 134.212 175.22 134.212L175.223 134.214L175.23 134.218C175.236 134.222 175.245 134.227 175.257 134.234C175.281 134.248 175.315 134.269 175.36 134.297C175.45 134.352 175.581 134.434 175.748 134.543C176.081 134.759 176.557 135.08 177.13 135.5C178.276 136.339 179.813 137.576 181.38 139.168C184.508 142.345 187.784 146.966 188.249 152.679C188.48 155.513 188.101 157.297 187.341 158.487C186.578 159.682 185.464 160.22 184.381 160.641C184.184 160.718 183.989 160.79 183.798 160.861C182.913 161.191 182.098 161.494 181.433 162.062C180.654 162.726 180.061 163.782 179.974 165.784C179.887 167.808 180.213 169.289 180.719 170.477C181.223 171.662 181.909 172.57 182.583 173.464L182.601 173.487C183.275 174.379 183.946 175.271 184.332 176.379C184.723 177.5 184.816 178.819 184.397 180.572L184.396 180.574C184.172 181.494 183.706 182.182 183.058 182.665C182.416 183.144 181.614 183.407 180.732 183.519C178.976 183.743 176.827 183.378 174.769 182.81C172.703 182.241 170.694 181.458 169.203 180.819C168.457 180.499 167.84 180.215 167.409 180.01C167.193 179.908 167.024 179.825 166.908 179.768C166.85 179.74 166.806 179.718 166.776 179.703L166.742 179.685L166.73 179.68L166.73 179.679C166.73 179.679 166.729 179.679 166.877 179.389ZM166.877 179.389L166.552 179.401L166.559 179.592L166.73 179.679L166.877 179.389ZM167.196 179.184C167.196 179.184 167.196 179.184 167.196 179.184C167.309 179.24 167.476 179.321 167.688 179.421C168.113 179.623 168.723 179.904 169.46 180.22C170.936 180.853 172.915 181.624 174.942 182.182C176.977 182.743 179.025 183.08 180.65 182.873C181.459 182.77 182.143 182.534 182.669 182.143C183.189 181.756 183.572 181.202 183.763 180.42C184.158 178.769 184.06 177.579 183.717 176.594C183.369 175.596 182.763 174.783 182.081 173.88L182.049 173.838C181.382 172.954 180.655 171.991 180.119 170.732C179.573 169.448 179.232 167.87 179.323 165.756C179.416 163.621 180.061 162.376 181.01 161.566C181.772 160.916 182.718 160.566 183.606 160.237C183.789 160.169 183.969 160.102 184.145 160.034C185.2 159.624 186.145 159.148 186.792 158.136C187.442 157.118 187.825 155.501 187.6 152.732C187.152 147.237 183.994 142.752 180.915 139.625C179.379 138.064 177.87 136.85 176.745 136.025C176.183 135.614 175.717 135.3 175.393 135.089C175.316 135.039 175.247 134.995 175.187 134.957C175.165 135 175.142 135.048 175.116 135.101C174.969 135.402 174.756 135.846 174.496 136.416C173.974 137.554 173.261 139.191 172.496 141.183C170.966 145.169 169.231 150.569 168.405 156.238C167.577 161.938 167.276 167.723 167.183 172.086C167.136 174.266 167.141 176.09 167.158 177.368C167.166 178.007 167.178 178.51 167.187 178.852C167.19 178.989 167.194 179.1 167.196 179.184Z" fill="#1E344A"/>
<path d="M124.392 141.856C124.392 141.856 145.081 190.14 160.557 203.401C176 216.661 189.814 222.981 191.736 216.107C193.659 209.2 196.428 203.954 186.23 186.296C176.032 168.637 137.946 135.503 137.946 135.503C137.946 135.503 141.041 113.641 137.685 110.937C135.372 109.113 121.134 108.722 119.473 110.383C117.811 112.045 113.12 130.811 115.335 129.964C117.551 129.15 121.395 118.365 121.395 118.365H124.979C124.979 118.365 121.656 128.563 122.21 132.994C122.731 137.425 124.392 141.856 124.392 141.856Z" fill="#EED58C"/>
<path fill-rule="evenodd" clip-rule="evenodd" d="M136.44 109.872C137.068 110.058 137.614 110.284 137.976 110.569L137.978 110.571L137.98 110.572C138.518 111.006 138.869 111.765 139.112 112.645C139.36 113.543 139.518 114.652 139.61 115.882C139.794 118.343 139.72 121.354 139.542 124.263C139.364 127.176 139.082 130.001 138.843 132.098C138.724 133.147 138.616 134.014 138.538 134.619C138.499 134.919 138.467 135.155 138.445 135.316C138.51 135.373 138.59 135.443 138.686 135.527C138.968 135.774 139.382 136.14 139.914 136.61C140.976 137.552 142.505 138.916 144.371 140.609C148.104 143.994 153.188 148.691 158.591 153.941C169.38 164.425 181.5 177.167 186.636 186.062C191.751 194.918 193.646 200.715 193.996 205.197C194.294 209.019 193.462 211.861 192.621 214.731C192.475 215.229 192.329 215.728 192.188 216.233L192.188 216.234C191.925 217.176 191.448 217.92 190.766 218.45C190.087 218.976 189.238 219.264 188.268 219.354C186.346 219.532 183.87 218.936 181.034 217.737C175.346 215.332 167.99 210.402 160.252 203.757C156.329 200.396 152.104 194.844 147.983 188.444C143.856 182.036 139.812 174.743 136.255 167.872C132.697 160.999 129.624 154.543 127.441 149.804C126.349 147.435 125.479 145.495 124.883 144.147C124.584 143.473 124.354 142.947 124.198 142.589C124.121 142.41 124.061 142.273 124.022 142.181L123.977 142.077L123.961 142.042C123.961 142.041 123.961 142.041 124.392 141.856C123.953 142.021 123.953 142.021 123.953 142.021L123.952 142.017L123.948 142.007L123.933 141.967C123.92 141.932 123.902 141.882 123.878 141.815C123.831 141.683 123.763 141.49 123.68 141.245C123.514 140.755 123.288 140.056 123.046 139.217C122.562 137.543 122.009 135.301 121.744 133.051C121.598 131.879 121.709 130.361 121.944 128.771C122.181 127.172 122.548 125.466 122.931 123.907C123.314 122.346 123.714 120.926 124.018 119.896C124.144 119.47 124.254 119.11 124.339 118.835H121.724C121.706 118.883 121.687 118.936 121.666 118.993C121.555 119.292 121.396 119.718 121.197 120.233C120.801 121.261 120.248 122.642 119.625 124.05C119.003 125.455 118.306 126.9 117.619 128.049C117.277 128.623 116.93 129.136 116.589 129.536C116.259 129.924 115.893 130.258 115.499 130.404C115.37 130.453 115.219 130.479 115.059 130.448C114.894 130.417 114.76 130.332 114.658 130.226C114.474 130.033 114.392 129.761 114.347 129.52C114.254 129.017 114.268 128.292 114.346 127.453C114.503 125.756 114.939 123.414 115.493 121.01C116.047 118.602 116.724 116.114 117.367 114.119C117.689 113.123 118.004 112.242 118.295 111.554C118.44 111.211 118.581 110.909 118.717 110.661C118.848 110.422 118.989 110.204 119.141 110.052C119.445 109.748 119.959 109.548 120.519 109.402C121.103 109.249 121.831 109.132 122.645 109.046C124.277 108.875 126.306 108.825 128.348 108.884C130.391 108.944 132.46 109.113 134.171 109.384C135.026 109.52 135.8 109.682 136.44 109.872ZM121.395 118.366L120.953 118.208L121.064 117.897H125.625L125.425 118.511L124.979 118.366C125.425 118.511 125.425 118.511 125.425 118.511L125.416 118.539C125.41 118.558 125.401 118.587 125.389 118.624C125.365 118.699 125.33 118.81 125.285 118.953C125.196 119.238 125.069 119.651 124.918 120.161C124.617 121.182 124.221 122.588 123.842 124.13C123.463 125.674 123.103 127.349 122.873 128.908C122.641 130.476 122.545 131.893 122.675 132.936L122.675 132.94C122.932 135.12 123.47 137.308 123.947 138.957C124.185 139.78 124.407 140.465 124.569 140.945C124.65 141.184 124.716 141.372 124.762 141.499C124.785 141.563 124.802 141.612 124.814 141.644L124.828 141.68L124.828 141.682L124.838 141.706L124.883 141.809C124.922 141.901 124.981 142.037 125.059 142.215C125.214 142.571 125.443 143.095 125.741 143.767C126.336 145.111 127.203 147.047 128.293 149.412C130.472 154.141 133.539 160.584 137.088 167.44C140.637 174.298 144.667 181.562 148.772 187.936C152.882 194.32 157.047 199.776 160.862 203.045L160.862 203.045C168.567 209.661 175.839 214.521 181.4 216.873C184.188 218.052 186.491 218.576 188.182 218.42C189.019 218.342 189.686 218.1 190.19 217.708C190.692 217.319 191.067 216.758 191.284 215.982C191.43 215.459 191.579 214.949 191.726 214.445C192.564 211.58 193.345 208.909 193.061 205.27C192.726 200.989 190.907 195.334 185.824 186.531C180.763 177.767 168.741 165.113 157.937 154.614C152.544 149.374 147.468 144.684 143.741 141.304C141.878 139.614 140.351 138.252 139.291 137.313C138.761 136.843 138.348 136.479 138.067 136.232C137.926 136.109 137.819 136.015 137.747 135.952L137.64 135.859L137.638 135.858C137.638 135.857 137.638 135.857 137.946 135.503C137.481 135.437 137.481 135.437 137.481 135.437L137.482 135.437L137.484 135.422L137.49 135.376C137.496 135.335 137.504 135.274 137.515 135.194C137.537 135.034 137.568 134.799 137.607 134.498C137.685 133.897 137.792 133.035 137.911 131.992C138.148 129.905 138.429 127.097 138.606 124.206C138.782 121.312 138.853 118.35 138.674 115.952C138.584 114.751 138.433 113.709 138.208 112.894C137.978 112.062 137.692 111.547 137.393 111.304C137.176 111.134 136.772 110.949 136.173 110.772C135.586 110.597 134.855 110.443 134.024 110.311C132.363 110.048 130.335 109.881 128.321 109.822C126.307 109.764 124.321 109.814 122.743 109.979C121.953 110.062 121.277 110.173 120.756 110.309C120.211 110.452 119.916 110.604 119.805 110.715C119.749 110.771 119.659 110.895 119.54 111.112C119.425 111.322 119.297 111.592 119.159 111.919C118.884 112.572 118.577 113.424 118.26 114.407C117.626 116.372 116.957 118.834 116.407 121.22C115.857 123.61 115.432 125.904 115.28 127.539C115.204 128.367 115.202 128.982 115.27 129.349C115.278 129.395 115.287 129.433 115.296 129.464C115.446 129.373 115.64 129.203 115.874 128.928C116.168 128.583 116.485 128.119 116.814 127.568C117.471 126.467 118.151 125.062 118.767 123.67C119.382 122.28 119.929 120.914 120.322 119.895C120.519 119.385 120.677 118.963 120.785 118.668C120.84 118.521 120.882 118.406 120.91 118.327C120.924 118.288 120.935 118.258 120.942 118.238L120.951 118.216L120.953 118.209L120.953 118.208C120.953 118.208 120.953 118.208 121.395 118.366ZM137.946 135.503L137.481 135.437L137.446 135.69L137.638 135.857L137.946 135.503ZM124.392 141.856L123.953 142.021L123.957 142.031L123.961 142.041L124.392 141.856Z" fill="#1E344A"/>
<path d="M120.776 114.619C120.776 114.619 121.525 116.085 121.33 117.747C121.134 119.408 120.776 119.865 120.776 119.865" fill="#EED58C"/>
<path fill-rule="evenodd" clip-rule="evenodd" d="M120.562 114.202C120.793 114.084 121.076 114.175 121.194 114.406L120.776 114.62C121.194 114.406 121.194 114.406 121.194 114.406L121.194 114.407L121.195 114.409L121.198 114.414C121.2 114.418 121.203 114.424 121.206 114.431C121.213 114.444 121.222 114.464 121.233 114.488C121.256 114.538 121.287 114.608 121.324 114.696C121.397 114.873 121.49 115.125 121.578 115.432C121.751 116.043 121.903 116.89 121.796 117.802C121.695 118.66 121.55 119.225 121.422 119.586C121.358 119.767 121.298 119.897 121.249 119.989C121.225 120.034 121.203 120.07 121.185 120.097C121.177 120.111 121.169 120.122 121.162 120.132C121.159 120.137 121.155 120.141 121.153 120.145L121.148 120.15L121.147 120.153L121.146 120.154L121.145 120.154C121.145 120.155 121.145 120.155 120.776 119.865L121.145 120.155C120.985 120.359 120.69 120.394 120.486 120.234C120.286 120.077 120.248 119.79 120.398 119.587C120.401 119.583 120.409 119.57 120.421 119.547C120.446 119.501 120.487 119.414 120.537 119.273C120.637 118.99 120.769 118.496 120.864 117.693C120.952 116.943 120.828 116.227 120.675 115.688C120.599 115.421 120.518 115.203 120.456 115.053C120.425 114.978 120.4 114.921 120.382 114.883C120.373 114.865 120.367 114.851 120.363 114.842L120.358 114.834L120.358 114.833C120.358 114.833 120.358 114.833 120.358 114.833M120.562 114.202C120.332 114.32 120.24 114.602 120.358 114.833L120.562 114.202Z" fill="#1E344A"/>
<path d="M127.227 114.814C127.227 114.814 125.761 116.183 125.207 117.584C124.653 118.985 124.197 121.363 124.197 121.363" fill="#EED58C"/>
<path fill-rule="evenodd" clip-rule="evenodd" d="M127.547 115.158C127.547 115.158 127.547 115.158 127.547 115.158L127.545 115.16L127.534 115.17C127.524 115.179 127.51 115.193 127.49 115.212C127.452 115.25 127.395 115.306 127.325 115.378C127.185 115.522 126.993 115.728 126.783 115.976C126.359 116.481 125.892 117.127 125.643 117.757C125.379 118.424 125.133 119.342 124.951 120.108C124.86 120.488 124.787 120.825 124.736 121.066C124.711 121.187 124.691 121.284 124.678 121.351C124.671 121.384 124.666 121.409 124.663 121.427L124.659 121.446L124.658 121.452M127.547 115.158C127.547 115.158 127.547 115.158 127.547 115.158C127.736 114.981 127.747 114.684 127.57 114.495C127.393 114.305 127.096 114.295 126.907 114.472L127.227 114.815C126.907 114.472 126.907 114.472 126.907 114.472L126.907 114.472L126.905 114.474L126.901 114.477L126.887 114.491C126.875 114.503 126.857 114.519 126.835 114.541C126.791 114.583 126.729 114.645 126.653 114.723C126.501 114.88 126.292 115.103 126.066 115.372C125.619 115.902 125.076 116.641 124.771 117.412C124.481 118.145 124.222 119.117 124.038 119.891C123.945 120.28 123.87 120.626 123.818 120.874C123.792 120.998 123.771 121.097 123.758 121.167C123.751 121.201 123.745 121.228 123.742 121.246L123.738 121.267L123.736 121.275C123.736 121.275 123.736 121.275 124.197 121.364L123.736 121.275C123.687 121.529 123.854 121.775 124.109 121.824C124.363 121.873 124.609 121.706 124.658 121.452" fill="#1E344A"/>
<path opacity="0.1" d="M126.315 145.44C126.315 145.44 146.449 150.393 153.096 163.653C159.71 176.913 155.018 184.895 160.264 192.063C165.509 199.231 173.231 198.123 176.814 204.216C180.398 210.276 178.476 215.814 178.476 215.814C178.476 215.814 167.725 212.23 155.833 198.156C143.973 184.081 139.836 173.883 139.836 173.883L126.315 145.44Z" fill="#C4007B"/>
<path d="M166.877 236.502L176.26 222.167H166.877V236.502Z" fill="#E3E3E3"/>
<path fill-rule="evenodd" clip-rule="evenodd" d="M166.552 222.168C166.552 221.988 166.697 221.842 166.877 221.842H176.26C176.38 221.842 176.49 221.907 176.547 222.013C176.604 222.118 176.599 222.246 176.533 222.346L167.15 236.681C167.071 236.802 166.922 236.856 166.784 236.815C166.646 236.774 166.552 236.647 166.552 236.503V222.168ZM167.203 222.493V235.41L175.658 222.493H167.203Z" fill="#1E344A"/>
<path d="M176.261 222.167V223.112C176.261 225.327 175.641 227.478 174.436 229.335L168.506 238.425C167.496 239.989 165.737 240.933 163.88 240.966H161.078L166.877 236.535L176.261 222.167Z" fill="#AFAFAF"/>
<path fill-rule="evenodd" clip-rule="evenodd" d="M176.353 221.855C176.492 221.896 176.586 222.023 176.586 222.168V223.112C176.586 225.389 175.95 227.601 174.709 229.513L174.709 229.513L168.78 238.602C168.78 238.602 168.78 238.602 168.78 238.603C167.709 240.261 165.847 241.258 163.886 241.292L163.88 241.292H161.078C160.938 241.292 160.814 241.203 160.769 241.071C160.725 240.939 160.769 240.793 160.88 240.708L166.635 236.311L175.988 221.989C176.067 221.869 176.215 221.814 176.353 221.855ZM175.934 223.264L167.15 236.714C167.13 236.745 167.105 236.772 167.075 236.795L162.041 240.641H163.877C165.628 240.609 167.284 239.717 168.233 238.249L168.233 238.247L174.163 229.158C174.163 229.158 174.163 229.158 174.163 229.158C175.306 227.397 175.906 225.364 175.934 223.264Z" fill="#1E344A"/>
<path d="M41.2471 150.621L45.2545 236.991C45.3522 239.337 47.307 241.194 49.6528 241.194L162.446 240.934C164.89 240.934 166.845 238.946 166.845 236.503L166.356 151.403C166.356 148.992 164.401 147.037 161.99 147.037L45.678 146.027C43.1693 145.994 41.1493 148.112 41.2471 150.621Z" fill="#E3E3E3"/>
<path fill-rule="evenodd" clip-rule="evenodd" d="M45.6814 145.701C45.6816 145.701 45.6819 145.701 45.6821 145.701L161.99 146.711C161.991 146.711 161.991 146.711 161.992 146.711C164.582 146.711 166.682 148.812 166.682 151.402L167.171 236.501L167.171 236.502C167.171 239.122 165.073 241.259 162.447 241.259M162.446 241.259L49.6535 241.52H49.6527C47.1342 241.52 45.0344 239.527 44.9289 237.005C44.9288 237.005 44.9288 237.005 44.9288 237.005L40.9214 150.633C40.8165 147.942 42.9822 145.666 45.6814 145.701M41.5725 150.606C41.5725 150.607 41.5725 150.607 41.5725 150.608L45.5799 236.978C45.6703 239.147 47.4795 240.868 49.652 240.868C49.6522 240.868 49.6525 240.868 49.6527 240.868L162.446 240.608H162.446C164.707 240.608 166.519 238.769 166.519 236.502L166.03 151.402C166.03 149.171 164.221 147.362 161.99 147.362L161.987 147.362L45.6751 146.352L45.6737 146.352C43.3562 146.322 41.4825 148.28 41.5725 150.606Z" fill="#1E344A"/>
<path d="M101.163 189.62C101.163 189.62 96.7316 185.449 92.6264 189.098C88.5213 192.747 95.4284 202.163 97.6764 202.424C99.9571 202.684 101.847 201.74 101.847 201.74C101.847 201.74 104.29 203.043 106.473 202.359C109.014 201.577 114.846 192.324 110.22 189.196C105.593 186.036 101.163 189.62 101.163 189.62Z" fill="white"/>
<path d="M101.325 186.916C101.325 186.916 100.706 184.309 102.368 181.605C104.03 178.901 106.538 177.695 106.538 177.695C106.538 177.695 106.441 181.279 104.877 183.527C103.345 185.775 101.325 186.916 101.325 186.916Z" fill="white"/>
<path opacity="0.5" d="M41.2469 150.621L44.9611 236.601C45.0914 239.305 47.3395 241.455 50.0437 241.423L64.4768 241.227C64.4768 241.227 76.89 222.461 74.1207 211.71C71.3513 200.958 57.8304 206.757 54.5398 193.758C51.2166 180.791 63.6623 179.944 62.8152 167.824C61.9681 155.085 41.2469 150.621 41.2469 150.621Z" fill="#AFAFAF"/>
<path d="M202.846 227.576L201.576 208.256L215.162 211.025L215.357 231.649L202.846 227.576Z" fill="#D65555"/>
<path fill-rule="evenodd" clip-rule="evenodd" d="M201.361 208.01C201.438 207.943 201.541 207.916 201.641 207.936L215.227 210.706C215.377 210.736 215.486 210.868 215.487 211.022L215.683 231.645C215.684 231.75 215.634 231.849 215.55 231.911C215.465 231.973 215.356 231.991 215.256 231.958L202.745 227.886C202.619 227.844 202.53 227.73 202.521 227.597L201.25 208.277C201.244 208.176 201.285 208.077 201.361 208.01ZM201.929 208.66L203.157 227.334L215.027 231.198L214.838 211.291L201.929 208.66Z" fill="#1E344A"/>
<path d="M215.162 211.025L232.103 206.789L230.637 226.305L215.357 231.648L215.162 211.025Z" fill="#993939"/>
<path fill-rule="evenodd" clip-rule="evenodd" d="M232.313 206.541C232.393 206.608 232.436 206.71 232.428 206.814L230.962 226.33C230.953 226.459 230.867 226.57 230.745 226.613L215.465 231.956C215.365 231.991 215.256 231.976 215.17 231.915C215.084 231.855 215.032 231.757 215.031 231.652L214.836 211.028C214.834 210.878 214.936 210.746 215.083 210.709L232.024 206.474C232.126 206.448 232.233 206.473 232.313 206.541ZM215.49 211.279L215.679 231.191L230.328 226.068L231.745 207.215L215.49 211.279Z" fill="#1E344A"/>
<path d="M201.576 208.256L215.781 204.574L232.103 206.79L215.162 211.025L201.576 208.256Z" fill="#1E344A"/>
<path d="M212.848 208.354C212.848 208.354 206.723 205.193 204.834 201.186C202.944 197.178 204.084 190.011 204.084 190.011C204.084 190.011 207.57 192.128 211.024 198.123C214.51 204.151 212.848 208.354 212.848 208.354Z" fill="#A6D97D"/>
<path fill-rule="evenodd" clip-rule="evenodd" d="M204.253 189.732L204.084 190.011L203.763 189.96L203.839 189.48L204.253 189.732ZM211.306 197.961C213.078 201.024 213.548 203.637 213.569 205.495C213.58 206.423 213.478 207.16 213.373 207.669C213.32 207.923 213.266 208.121 213.225 208.256C213.204 208.324 213.187 208.376 213.174 208.413C213.167 208.431 213.162 208.445 213.158 208.455L213.154 208.467L213.152 208.471L213.152 208.473L213.152 208.473C213.152 208.473 213.151 208.473 212.849 208.354C212.699 208.643 212.699 208.643 212.699 208.643L212.699 208.643L212.694 208.64L212.68 208.633C212.667 208.627 212.649 208.617 212.626 208.605C212.58 208.58 212.511 208.543 212.424 208.495C212.251 208.4 212.001 208.259 211.695 208.077C211.085 207.715 210.252 207.189 209.358 206.536C207.581 205.238 205.52 203.406 204.539 201.325C203.56 199.248 203.376 196.389 203.425 194.089C203.449 192.931 203.534 191.9 203.612 191.159C203.651 190.789 203.688 190.49 203.716 190.283C203.73 190.18 203.742 190.099 203.75 190.045C203.754 190.017 203.757 189.996 203.759 189.982L203.762 189.966L203.762 189.961L203.763 189.96C203.763 189.96 203.763 189.96 204.084 190.011C204.253 189.732 204.253 189.732 204.253 189.732L204.254 189.733L204.255 189.733L204.258 189.735L204.267 189.741C204.275 189.746 204.286 189.753 204.301 189.762C204.329 189.781 204.371 189.808 204.424 189.844C204.531 189.917 204.686 190.027 204.881 190.177C205.272 190.477 205.826 190.937 206.487 191.587C207.81 192.885 209.564 194.936 211.306 197.961ZM212.849 208.354L212.699 208.643L213.019 208.808L213.151 208.473L212.849 208.354ZM212.655 207.878C212.493 207.788 212.28 207.667 212.028 207.517C211.431 207.162 210.615 206.648 209.742 206.009C207.983 204.725 206.037 202.973 205.128 201.047C204.218 199.116 204.027 196.388 204.076 194.103C204.1 192.967 204.183 191.956 204.26 191.228C204.286 190.975 204.312 190.757 204.334 190.581C204.381 190.615 204.431 190.653 204.485 190.694C204.856 190.978 205.389 191.422 206.031 192.052C207.314 193.311 209.03 195.316 210.742 198.286L210.742 198.287C212.456 201.25 212.898 203.752 212.918 205.502C212.928 206.379 212.832 207.069 212.735 207.537C212.707 207.668 212.68 207.783 212.655 207.878ZM203.915 190.289C203.915 190.289 203.915 190.289 203.915 190.289V190.289Z" fill="#1E344A"/>
<path d="M227.738 190.011C227.738 190.011 221.613 193.171 219.723 197.178C217.833 201.186 218.974 208.354 218.974 208.354C218.974 208.354 222.46 206.236 225.913 200.241C229.432 194.246 227.738 190.011 227.738 190.011Z" fill="#A6D97D"/>
<path fill-rule="evenodd" clip-rule="evenodd" d="M228.04 189.89L227.738 190.011L227.588 189.721L227.907 189.557L228.04 189.89ZM226.195 200.405C227.984 197.357 228.454 194.743 228.471 192.881C228.479 191.95 228.374 191.21 228.266 190.699C228.212 190.443 228.157 190.244 228.115 190.108C228.094 190.04 228.076 189.987 228.063 189.951C228.056 189.932 228.051 189.918 228.047 189.908L228.043 189.896L228.041 189.892L228.041 189.891L228.04 189.89C228.04 189.89 228.04 189.89 227.738 190.011C227.588 189.721 227.588 189.721 227.588 189.721L227.587 189.722L227.583 189.724L227.569 189.731C227.557 189.738 227.539 189.747 227.515 189.759C227.469 189.784 227.401 189.821 227.314 189.869C227.14 189.965 226.89 190.105 226.585 190.287C225.974 190.65 225.141 191.176 224.247 191.829C222.47 193.126 220.41 194.958 219.428 197.039C218.449 199.116 218.265 201.975 218.314 204.276C218.339 205.433 218.423 206.464 218.501 207.205C218.54 207.576 218.578 207.875 218.605 208.081C218.619 208.184 218.631 208.265 218.639 208.32C218.643 208.347 218.646 208.368 218.648 208.382L218.651 208.399L218.652 208.403L218.652 208.404C218.652 208.405 218.652 208.405 218.974 208.353L218.652 208.404L218.728 208.884L219.143 208.632L218.974 208.353C219.143 208.632 219.143 208.632 219.143 208.632L219.144 208.631L219.147 208.629L219.156 208.623C219.164 208.619 219.176 208.611 219.19 208.602C219.219 208.584 219.26 208.556 219.314 208.52C219.421 208.447 219.575 208.337 219.771 208.187C220.161 207.888 220.715 207.427 221.377 206.778C222.7 205.48 224.453 203.429 226.195 200.405ZM219.224 207.784C219.27 207.749 219.32 207.711 219.374 207.67C219.745 207.386 220.278 206.942 220.92 206.313C222.203 205.053 223.92 203.049 225.631 200.078L225.632 200.076C227.362 197.13 227.803 194.628 227.819 192.875C227.827 191.997 227.728 191.304 227.629 190.834C227.6 190.699 227.572 190.582 227.546 190.485C227.384 190.575 227.171 190.697 226.918 190.847C226.32 191.202 225.505 191.717 224.631 192.355C222.873 193.639 220.926 195.391 220.018 197.317C219.107 199.248 218.917 201.976 218.965 204.262C218.99 205.397 219.072 206.409 219.149 207.137C219.176 207.389 219.201 207.607 219.224 207.784Z" fill="#1E344A"/>
<path d="M215.357 209.005C215.357 209.005 212.229 202.652 212.425 197.244C212.62 191.835 216.856 187.307 216.856 187.307C216.856 187.307 220.342 191.249 219.984 196.95C219.593 202.652 215.357 209.005 215.357 209.005Z" fill="#74BC66"/>
<path fill-rule="evenodd" clip-rule="evenodd" d="M217.1 187.091L216.856 187.306L216.618 187.084L216.863 186.822L217.1 187.091ZM215.357 209.005L215.065 209.149L215.315 209.656L215.628 209.186L215.357 209.005ZM216.845 187.812C216.739 187.936 216.604 188.1 216.447 188.3C216.054 188.801 215.526 189.524 214.993 190.414C213.924 192.199 212.845 194.628 212.751 197.255C212.655 199.901 213.374 202.798 214.127 205.049C214.502 206.171 214.884 207.126 215.171 207.8C215.257 208.002 215.335 208.179 215.402 208.327C215.498 208.17 215.614 207.979 215.744 207.758C216.144 207.079 216.681 206.115 217.23 204.974C218.332 202.686 219.467 199.718 219.659 196.929C219.833 194.15 219.071 191.796 218.261 190.133C217.857 189.302 217.441 188.646 217.128 188.198C217.02 188.044 216.924 187.915 216.845 187.812ZM215.357 209.005C215.628 209.186 215.628 209.186 215.628 209.186L215.629 209.185L215.629 209.184L215.632 209.18L215.641 209.166C215.65 209.153 215.662 209.134 215.678 209.11C215.71 209.061 215.756 208.988 215.816 208.895C215.934 208.707 216.102 208.434 216.306 208.089C216.713 207.398 217.259 206.417 217.817 205.257C218.931 202.943 220.109 199.885 220.309 196.973L220.309 196.971C220.492 194.048 219.691 191.581 218.847 189.848C218.425 188.981 217.991 188.295 217.662 187.825C217.497 187.589 217.358 187.408 217.26 187.284C217.211 187.222 217.172 187.175 217.144 187.142C217.131 187.126 217.12 187.114 217.113 187.105L217.104 187.095L217.101 187.092L217.1 187.091C217.1 187.091 217.1 187.091 216.856 187.306C216.618 187.084 216.618 187.084 216.618 187.084L216.617 187.085L216.614 187.088L216.604 187.099C216.595 187.109 216.582 187.123 216.566 187.141C216.534 187.177 216.487 187.23 216.427 187.299C216.308 187.436 216.138 187.638 215.935 187.897C215.528 188.415 214.984 189.161 214.434 190.079C213.337 191.911 212.2 194.45 212.099 197.232C211.999 199.994 212.747 202.978 213.509 205.256C213.891 206.398 214.279 207.369 214.572 208.056C214.718 208.399 214.841 208.671 214.927 208.858C214.971 208.952 215.005 209.024 215.028 209.073C215.04 209.097 215.049 209.116 215.055 209.129L215.062 209.144L215.065 209.148L215.065 209.149C215.065 209.149 215.065 209.149 215.357 209.005Z" fill="#1E344A"/>
<path d="M34.8612 117.193C41.159 117.193 46.2644 112.088 46.2644 105.79C46.2644 99.4921 41.159 94.3867 34.8612 94.3867C28.5634 94.3867 23.458 99.4921 23.458 105.79C23.458 112.088 28.5634 117.193 34.8612 117.193Z" fill="#E8BB51"/>
<path d="M34.5028 99.4365L36.3925 103.248L40.5954 103.867L37.5654 106.832L38.2822 111.035L34.5028 109.048L30.7235 111.035L31.4728 106.832L28.4103 103.867L32.6132 103.248L34.5028 99.4365Z" fill="white"/>
<path d="M216.823 80.7675C225.46 80.7675 232.462 73.7658 232.462 65.1289C232.462 56.4919 225.46 49.4902 216.823 49.4902C208.186 49.4902 201.185 56.4919 201.185 65.1289C201.185 73.7658 208.186 80.7675 216.823 80.7675Z" fill="#1E344A"/>
<path d="M206.56 67.5075L214.152 61.8711H225.425L217.964 67.5075H206.56Z" fill="white"/>
<path d="M209.46 68.3545V70.3419C209.46 71.9384 210.731 73.209 212.327 73.209H217.019C217.67 73.209 218.289 72.981 218.811 72.59L221.743 70.2442C222.883 69.3319 223.567 67.931 223.567 66.4649L223.47 64.5752L218.029 68.4523L209.46 68.3545Z" fill="white"/>
<path fill-rule="evenodd" clip-rule="evenodd" d="M218.841 56.1126C218.205 56.1683 217.551 56.3871 217.264 56.9897C217.107 57.3185 217.046 57.572 217.049 57.7847C217.052 57.9942 217.117 58.1787 217.241 58.3708C217.368 58.5669 217.551 58.766 217.787 59.0042C217.848 59.0663 217.913 59.1308 217.981 59.1983C218.169 59.3864 218.381 59.5973 218.605 59.839L218.606 59.8406C218.954 60.2272 218.951 60.7033 218.787 61.1603C218.624 61.6132 218.295 62.0752 217.94 62.4837C217.583 62.8945 217.19 63.2624 216.888 63.5268C216.736 63.6592 216.607 63.7663 216.515 63.8403C216.469 63.8773 216.433 63.9062 216.408 63.9258C216.395 63.9356 216.385 63.9432 216.379 63.9483L216.371 63.9542L216.369 63.9558L216.368 63.9562C216.368 63.9562 216.368 63.9564 216.269 63.8267L216.171 63.697L216.171 63.6967L216.173 63.6954L216.18 63.6902C216.186 63.6855 216.195 63.6784 216.207 63.6691C216.231 63.6504 216.266 63.6227 216.31 63.5868C216.399 63.515 216.526 63.4107 216.673 63.2815C216.969 63.0226 217.35 62.6656 217.694 62.27C218.04 61.8721 218.338 61.4463 218.48 61.0501C218.621 60.6583 218.602 60.3242 218.365 60.0594C218.146 59.8233 217.942 59.6198 217.755 59.433C217.686 59.3645 217.619 59.2982 217.555 59.2334C217.319 58.9951 217.114 58.7748 216.967 58.5473C216.818 58.3158 216.727 58.0727 216.723 57.7894C216.719 57.5094 216.8 57.2049 216.969 56.8496C217.334 56.0837 218.146 55.8464 218.813 55.7881C219.151 55.7584 219.467 55.7733 219.698 55.7953C219.813 55.8063 219.908 55.8192 219.974 55.8294C220.007 55.8345 220.034 55.839 220.052 55.8422C220.061 55.8438 220.068 55.8451 220.073 55.846L220.078 55.8471L220.08 55.8475L220.08 55.8476C220.08 55.8476 220.081 55.8476 220.049 56.0074C220.017 56.1671 220.017 56.1671 220.017 56.1671L220.016 56.1669L220.012 56.1662C220.008 56.1654 220.002 56.1643 219.994 56.163C219.979 56.1602 219.955 56.1561 219.925 56.1514C219.864 56.1421 219.775 56.13 219.667 56.1196C219.449 56.0989 219.154 56.0852 218.841 56.1126Z" fill="white"/>
<path d="M221.808 56.1699C221.808 56.6912 221.384 57.0821 220.896 57.0821C220.374 57.0821 219.984 56.6586 219.984 56.1699C219.984 55.6812 220.407 55.2576 220.896 55.2576C221.384 55.225 221.808 55.6486 221.808 56.1699Z" fill="white"/>
<path d="M222.199 56.5283L224.186 57.5709L224.545 56.7563L223.958 56.4957L224.74 56.3328L224.61 55.4531L222.297 55.8441L222.199 56.5283Z" fill="white"/>
</svg>
