<svg width="22" height="26" viewBox="0 0 22 26" fill="none" xmlns="http://www.w3.org/2000/svg">
<path d="M1.66618 6.80906C1.45085 6.80906 1.26952 6.80906 1.07686 6.80906C0.419542 6.78639 -0.0111147 6.36707 0.000218399 5.75508C0.0115515 5.16576 0.453541 4.74644 1.09953 4.74644C2.56149 4.74644 4.02346 4.74644 5.48542 4.74644C5.58742 4.74644 5.68942 4.74644 5.83675 4.74644C5.83675 4.30445 5.82541 3.89646 5.83675 3.47713C5.90474 1.96984 7.19671 0.655202 8.70401 0.621203C10.234 0.587203 11.7639 0.587203 13.2939 0.621203C14.8012 0.655202 16.0932 1.96984 16.1612 3.48847C16.1838 3.89646 16.1612 4.31578 16.1612 4.74644C16.3085 4.74644 16.4105 4.74644 16.5125 4.74644C18.0085 4.74644 19.4931 4.74644 20.989 4.74644C21.4877 4.74644 21.9184 5.12043 21.9864 5.58508C22.0657 6.10641 21.7937 6.59373 21.3064 6.74106C21.159 6.78639 20.9891 6.78639 20.8304 6.79772C20.6717 6.80906 20.5131 6.79772 20.3317 6.79772C20.3317 6.95639 20.3317 7.08105 20.3317 7.19438C20.3317 12.1809 20.3317 17.1675 20.3317 22.154C20.3317 23.684 19.4478 24.8966 18.0425 25.2819C17.7365 25.3613 17.4078 25.3953 17.0905 25.3953C13.0219 25.4066 8.95334 25.4066 4.88477 25.3953C3.29814 25.3953 2.0855 24.466 1.73418 22.9587C1.66618 22.664 1.65485 22.358 1.65485 22.0634C1.65485 17.0995 1.65485 12.1469 1.65485 7.18305C1.66618 7.09238 1.66618 6.96772 1.66618 6.80906ZM14.1212 15.0935C14.1212 16.4308 14.1212 17.7681 14.1212 19.1054C14.1212 19.7174 14.5745 20.1594 15.1752 20.1481C15.7985 20.1367 16.1838 19.6947 16.1838 18.9694C16.1838 16.3742 16.1838 13.7902 16.1838 11.195C16.1838 11.025 16.1725 10.855 16.1158 10.6963C15.9572 10.2203 15.4585 9.93698 14.9825 10.0163C14.4839 10.0956 14.1212 10.515 14.1212 11.025C14.1212 12.3849 14.1212 13.7449 14.1212 15.0935ZM7.88803 15.1049C7.88803 13.7676 7.88803 12.4303 7.88803 11.093C7.88803 10.719 7.75203 10.413 7.44604 10.1976C7.11738 9.97098 6.76606 9.93698 6.4034 10.1183C6.01807 10.311 5.82541 10.6396 5.82541 11.0816C5.82541 13.7562 5.82541 16.4308 5.82541 19.1054C5.82541 19.2301 5.84808 19.3661 5.89341 19.4908C6.07474 19.9781 6.55073 20.2387 7.07205 20.1367C7.52537 20.0574 7.88803 19.6267 7.88803 19.1508C7.89936 17.8021 7.88803 16.4535 7.88803 15.1049ZM9.98465 15.0822C9.98465 16.3855 9.98465 17.6888 9.98465 18.9808C9.98465 19.1281 9.98465 19.2868 10.03 19.4228C10.1773 19.9327 10.6533 20.2161 11.1973 20.1367C11.6733 20.0687 12.0359 19.6381 12.0359 19.1168C12.0359 16.4308 12.0359 13.7449 12.0359 11.059C12.0359 10.9456 12.0246 10.8323 11.9906 10.7303C11.8319 10.243 11.3673 9.94831 10.8686 10.0163C10.37 10.0843 9.98465 10.5036 9.98465 11.0363C9.97331 12.3849 9.98465 13.7336 9.98465 15.0822ZM14.1099 4.74644C14.1099 4.34978 14.1325 3.98712 14.1099 3.62446C14.0646 3.09181 13.6339 2.68382 13.0899 2.68382C11.7073 2.67249 10.3133 2.67249 8.93067 2.68382C8.47735 2.68382 8.04669 2.98981 7.96736 3.40914C7.88803 3.83979 7.9107 4.29311 7.8767 4.74644C9.98465 4.74644 12.0359 4.74644 14.1099 4.74644Z" fill="currentColor"/>
</svg>
