<svg width="23" height="25" viewBox="0 0 23 25" fill="none" xmlns="http://www.w3.org/2000/svg">
<path d="M2.69896 14.4841C2.69896 11.8275 2.67009 9.14189 2.69896 6.48521C2.69896 5.84991 2.49682 5.59002 1.86153 5.6189C1.74602 5.6189 1.63051 5.6189 1.51501 5.6189C0.995221 5.56114 0.590942 5.33013 0.590942 4.78146C0.590942 4.20392 1.0241 3.91515 1.54388 3.91515C2.81447 3.88628 4.08506 3.88628 5.35565 3.88628C6.71287 3.88628 6.56848 3.8574 6.56848 2.7312C6.59736 1.28735 7.5503 0.392158 8.99415 0.363281C10.4958 0.363281 12.0262 0.363281 13.5278 0.363281C15.0583 0.363281 15.9246 1.25847 15.9535 2.76007C15.9824 3.8574 15.9824 3.8574 17.022 3.8574C18.2925 3.8574 19.5631 3.8574 20.8337 3.8574C21.007 3.8574 21.2091 3.8574 21.3824 3.88628C21.469 3.91515 22.1621 3.94403 22.1332 4.78146C22.1043 5.33013 21.3824 5.53227 21.3246 5.53227C21.2958 5.53227 21.238 5.53227 21.2091 5.56114C19.9674 5.79216 19.9674 5.82104 19.9674 7.17826C19.9674 12.2317 19.9674 17.3141 19.9674 22.3676C19.9674 24.0713 19.13 24.9087 17.3974 24.9087C13.3835 24.9087 9.36955 24.9087 5.35565 24.9087C3.36314 24.9087 2.58346 24.1291 2.58346 22.1077C2.67009 19.6242 2.67009 17.0542 2.69896 14.4841C2.67009 14.4841 2.67009 14.4841 2.69896 14.4841ZM18.3792 14.3975C18.3792 11.7697 18.3503 9.17077 18.3792 6.54296C18.3792 5.84991 18.1482 5.6189 17.4551 5.6189C13.4123 5.64777 9.39843 5.6189 5.35565 5.6189C4.46046 5.6189 4.43158 5.67665 4.43158 6.57184C4.43158 11.7697 4.43158 16.9964 4.43158 22.1943C4.43158 22.9162 4.60485 23.1761 5.35565 23.1472C9.36955 23.1184 13.3835 23.1472 17.3685 23.1184C18.2637 23.1184 18.3503 23.0317 18.3503 22.1365C18.3792 19.5665 18.3503 16.9964 18.3792 14.3975ZM11.3043 3.88628C12.084 3.88628 12.8348 3.88628 13.6145 3.88628C14.0765 3.88628 14.3653 3.74189 14.3364 3.22211C14.3075 2.76007 14.423 2.15366 13.73 2.15366C12.1129 2.12478 10.5246 2.12478 8.96527 2.15366C8.27223 2.15366 8.38773 2.7312 8.35886 3.16435C8.32998 3.62638 8.47437 3.91515 8.99415 3.88628C9.77383 3.88628 10.5246 3.88628 11.3043 3.88628ZM8.35886 9.60392C8.35886 9.37291 8.35886 9.11301 8.32998 8.882C8.27223 8.41997 8.04121 8.04457 7.52142 8.04457C7.00164 8.04457 6.68399 8.39109 6.59736 8.882C6.56848 9.08414 6.56848 9.31515 6.56848 9.51729C6.56848 12.867 6.56848 16.2168 6.56848 19.5954C6.56848 19.8264 6.53961 20.0863 6.59736 20.3173C6.68399 20.7793 6.97276 21.097 7.46367 21.097C7.95458 21.097 8.21447 20.8082 8.3011 20.375C8.35886 20.144 8.35886 19.913 8.35886 19.6531C8.35886 17.9494 8.35886 16.2456 8.35886 14.5419C8.35886 12.8959 8.35886 11.2499 8.35886 9.60392ZM12.2284 13.098C12.2284 11.7697 12.2284 10.4125 12.2284 9.08414C12.2284 8.47772 11.9396 8.10232 11.3621 8.07344C10.7556 8.04457 10.5535 8.47772 10.4958 8.99751C10.4669 9.19965 10.4669 9.43066 10.4669 9.6328C10.4669 12.9537 10.4669 16.3034 10.4669 19.6242C10.4669 19.9419 10.4958 20.2595 10.5824 20.5483C10.7556 21.097 11.2177 21.2702 11.6508 21.0392C11.9396 20.866 12.1995 20.4039 12.1995 20.0863C12.2573 18.267 12.2284 16.4478 12.2284 14.6285C12.2284 14.1087 12.2284 13.589 12.2284 13.098ZM16.0113 14.5708C16.0113 12.7804 16.0113 11.0189 16.0113 9.22852C16.0113 8.44884 15.7225 8.04457 15.1738 8.01569C14.6252 7.98681 14.3075 8.41997 14.3075 9.2574C14.3075 10.8456 14.3075 12.4339 14.3075 14.0221C14.3075 16.0435 14.3075 18.0649 14.3075 20.0574C14.3075 20.6349 14.4519 21.0681 15.1161 21.0681C15.7514 21.0681 15.9824 20.6927 15.9824 20.0863C15.9824 18.267 16.0113 16.4189 16.0113 14.5708Z" fill="currentColor"/>
</svg>
