<svg width="16" height="16" viewBox="0 0 16 16" fill="none" xmlns="http://www.w3.org/2000/svg">
<path fill-rule="evenodd" clip-rule="evenodd" d="M7.9999 7.20002C8.63642 7.20002 9.24687 6.94717 9.69696 6.49708C10.147 6.04699 10.3999 5.43654 10.3999 4.80002C10.3999 4.1635 10.147 3.55306 9.69696 3.10297C9.24687 2.65288 8.63642 2.40002 7.9999 2.40002C7.36338 2.40002 6.75293 2.65288 6.30285 3.10297C5.85276 3.55306 5.5999 4.1635 5.5999 4.80002C5.5999 5.43654 5.85276 6.04699 6.30285 6.49708C6.75293 6.94717 7.36338 7.20002 7.9999 7.20002ZM2.3999 14.4C2.3999 13.6646 2.54475 12.9364 2.82618 12.257C3.1076 11.5776 3.5201 10.9602 4.0401 10.4402C4.56011 9.92022 5.17745 9.50773 5.85688 9.2263C6.5363 8.94487 7.2645 8.80002 7.9999 8.80002C8.73531 8.80002 9.46351 8.94487 10.1429 9.2263C10.8224 9.50773 11.4397 9.92022 11.9597 10.4402C12.4797 10.9602 12.8922 11.5776 13.1736 12.257C13.4551 12.9364 13.5999 13.6646 13.5999 14.4H2.3999Z" fill="currentColor"/>
</svg>
