<svg width="35" height="38" viewBox="0 0 35 38" fill="none" xmlns="http://www.w3.org/2000/svg">
<path fill-rule="evenodd" clip-rule="evenodd" d="M17.5 15.3656C19.4279 15.3656 21.2769 14.5997 22.6401 13.2365C24.0034 11.8733 24.7692 10.0243 24.7692 8.09638C24.7692 6.16846 24.0034 4.3195 22.6401 2.95626C21.2769 1.59301 19.4279 0.827148 17.5 0.827148C15.5721 0.827148 13.7231 1.59301 12.3599 2.95626C10.9966 4.3195 10.2308 6.16846 10.2308 8.09638C10.2308 10.0243 10.9966 11.8733 12.3599 13.2365C13.7231 14.5997 15.5721 15.3656 17.5 15.3656ZM0.538452 37.1733C0.538452 34.9459 0.977176 32.7403 1.82957 30.6824C2.68197 28.6245 3.93135 26.7547 5.50637 25.1797C7.0814 23.6047 8.95122 22.3553 11.0091 21.5029C13.067 20.6505 15.2726 20.2118 17.5 20.2118C19.7274 20.2118 21.933 20.6505 23.9909 21.5029C26.0488 22.3553 27.9186 23.6047 29.4936 25.1797C31.0686 26.7547 32.318 28.6245 33.1704 30.6824C34.0228 32.7403 34.4615 34.9459 34.4615 37.1733H0.538452Z" fill="currentColor"/>
</svg>
