<svg width="26" height="31" viewBox="0 0 26 31" fill="none" xmlns="http://www.w3.org/2000/svg">
<path fill-rule="evenodd" clip-rule="evenodd" d="M19.917 7.6064C19.917 3.89065 16.8958 0.860751 13.1801 0.85207C9.45563 0.843388 6.43441 3.84724 6.41705 7.58035C6.39101 11.2874 9.44695 14.352 13.1627 14.352C16.8698 14.352 19.9084 11.3135 19.917 7.6064ZM25.5829 26.7241V24.1351C25.3566 22.3246 24.5872 20.7223 23.4103 19.3373C21.3645 16.9202 18.7211 15.7434 15.5618 15.7163C13.8509 15.6982 12.14 15.7072 10.4291 15.7163C9.28844 15.7253 8.17498 15.8701 7.08869 16.2413C5.02471 16.9564 3.35 18.2057 2.08265 19.989C1.22266 21.2021 0.634252 22.5418 0.416992 23.9902V26.7241C0.416992 28.9963 2.27275 30.852 4.54493 30.852H21.455C23.7272 30.852 25.5829 28.9963 25.5829 26.7241Z" fill="white"/>
</svg>
