<svg width="22" height="23" viewBox="0 0 22 23" fill="none" xmlns="http://www.w3.org/2000/svg">
<path d="M20.6044 8.58679C20.57 8.44238 20.5081 8.40112 20.3637 8.40112C19.9717 8.41488 19.5729 8.408 19.1809 8.408C18.7133 8.40112 18.3969 8.60742 18.2044 9.04753C17.3792 10.9455 16.5333 12.8366 15.7013 14.7277C15.6738 14.7896 15.605 14.8515 15.6531 14.9409C15.9763 14.9409 16.3064 14.9409 16.6296 14.9409C16.9047 14.9409 17.2348 15.0234 17.4342 14.9065C17.6543 14.7758 17.6543 14.4114 17.7712 14.1569C17.7849 14.1363 17.7918 14.1088 17.7987 14.0813C17.8262 13.9781 17.8881 13.9575 17.9912 13.9575C18.6514 13.9644 19.3115 13.9644 19.9717 13.9575C20.1024 13.9575 20.1505 14.0056 20.1711 14.1294C20.2055 14.3495 20.2674 14.5627 20.3155 14.7827C20.3362 14.8652 20.3499 14.9477 20.4668 14.9477C20.9688 14.9409 21.4777 14.9477 22.0003 14.9477C21.5258 12.7953 21.0582 10.6911 20.6044 8.58679ZM18.3694 12.6097C18.6789 11.812 18.9815 11.028 19.3047 10.1822C19.4903 11.028 19.6623 11.812 19.8342 12.6097H18.3694Z" fill="#005298"/>
<path d="M10.8873 13.2285C11.4855 13.5173 12.0907 13.6892 12.744 13.6755C13.0328 13.6686 13.3079 13.648 13.5623 13.4967C13.9336 13.2835 13.968 12.9053 13.6379 12.6302C13.4248 12.4514 13.1703 12.3414 12.9296 12.2245C12.6752 12.1007 12.4276 11.9632 12.1938 11.8119C10.9423 10.9798 11.3205 9.64574 12.0701 9.02684C12.5927 8.59361 13.2047 8.39418 13.8649 8.32541C14.5182 8.25665 15.1646 8.30478 15.7972 8.50421C15.9485 8.55235 16.0035 8.60048 15.9623 8.7724C15.8866 9.11624 15.8316 9.46007 15.7835 9.81078C15.7628 9.95519 15.7285 9.97582 15.5909 9.92081C15.0683 9.70763 14.525 9.61824 13.9543 9.69388C13.913 9.70076 13.8649 9.70076 13.8236 9.70763C13.5761 9.78328 13.3147 9.85892 13.2529 10.1546C13.191 10.4641 13.4316 10.6016 13.6448 10.7185C13.968 10.9042 14.3187 11.0555 14.6419 11.2411C15.1096 11.5093 15.5428 11.8394 15.6735 12.3964C15.8522 13.1941 15.5909 13.8543 14.9652 14.3632C14.4013 14.8239 13.7136 14.9821 13.0053 15.0302C12.2832 15.0783 11.5681 14.9889 10.8735 14.7826C10.7153 14.7345 10.6328 14.6795 10.681 14.4801C10.7566 14.0743 10.8185 13.6549 10.8873 13.2285Z" fill="#005298"/>
<path d="M4.24429 11.7775C4.32681 12.1076 4.40245 12.4308 4.49873 12.8159C4.54686 12.7059 4.58125 12.6371 4.60876 12.5683C5.12451 11.2549 5.64026 9.94145 6.14914 8.628C6.2179 8.46983 6.28667 8.39419 6.46547 8.40106C7.00185 8.41482 7.54511 8.40794 8.08837 8.40794C8.12275 8.51797 8.05399 8.59361 8.01273 8.67613C7.15314 10.691 6.28667 12.699 5.42708 14.7139C5.35832 14.8789 5.2758 14.9477 5.09012 14.9408C4.60188 14.9271 4.11363 14.9339 3.62539 14.9408C3.52224 14.9408 3.43972 14.9477 3.39846 14.8033C2.89646 12.9603 2.3807 11.1242 1.87183 9.28816C1.94059 9.23315 2.00248 9.28128 2.0575 9.30879C2.9721 9.8658 3.72166 10.5741 4.1824 11.5643C4.20991 11.6331 4.21678 11.7088 4.24429 11.7775Z" fill="#005298"/>
<path d="M8.63866 14.9408C8.3911 14.9408 8.14354 14.9339 7.89598 14.9408C7.75844 14.9477 7.74469 14.8995 7.76532 14.7757C8.12291 12.699 8.47362 10.6291 8.82433 8.55233C8.84496 8.43543 8.88622 8.39417 9.00313 8.39417C9.49137 8.40104 9.97962 8.40104 10.4679 8.39417C10.6123 8.39417 10.6329 8.43543 10.6123 8.57296C10.351 10.0721 10.0965 11.5712 9.84208 13.0772C9.74581 13.6411 9.64266 14.205 9.55326 14.7689C9.53263 14.8995 9.49137 14.9408 9.36072 14.9408C9.12003 14.9339 8.87935 14.9408 8.63866 14.9408Z" fill="#005298"/>
<path d="M4.15495 11.5988C3.63232 10.5948 2.88276 9.81772 1.87876 9.29509C1.36989 8.965 0.812873 8.77933 0.248983 8.61429C0.207723 8.60054 0.166462 8.59366 0.125202 8.57991C0.0770652 8.55928 -0.012332 8.57303 0.00142144 8.48363C0.00829814 8.38048 0.0976953 8.40799 0.159586 8.40799C0.448407 8.40799 0.744106 8.40799 1.03293 8.40799C1.6312 8.40799 2.22947 8.40799 2.82775 8.40799C3.38476 8.40799 3.61857 8.60742 3.7286 9.15068C3.88676 9.92774 4.04492 10.7048 4.19621 11.4888C4.22372 11.5369 4.23747 11.5919 4.15495 11.5988Z" fill="#F4A51E"/>
<path d="M4.15515 11.5988C4.1689 11.5644 4.18953 11.5232 4.20329 11.4888C4.26518 11.5782 4.26518 11.6813 4.25143 11.7845C4.18266 11.7295 4.17578 11.6607 4.15515 11.5988Z" fill="#E4AC4B"/>
</svg>
