<svg width="61" height="60" viewBox="0 0 61 60" fill="none" xmlns="http://www.w3.org/2000/svg">
<path fill-rule="evenodd" clip-rule="evenodd" d="M23.7505 6.65037C26.7472 1.41993 34.2528 1.41993 37.2495 6.65037L59.4503 45.3999C62.4286 50.5982 58.7219 57.1443 52.7008 57.1443H8.2992C2.27811 57.1443 -1.4286 50.5982 1.54967 45.3999L23.7505 6.65037Z" fill="#FACA15"/>
<path fill-rule="evenodd" clip-rule="evenodd" d="M32.5925 18.7736C32.5925 17.6177 31.6554 16.6807 30.4995 16.6807C29.3436 16.6807 28.4066 17.6177 28.4066 18.7736V35.5172C28.4066 36.6731 29.3436 37.6102 30.4995 37.6102C31.6554 37.6102 32.5925 36.6731 32.5925 35.5172V18.7736ZM30.4997 46.6795C32.0409 46.6795 33.2903 45.4301 33.2903 43.8889C33.2903 42.3477 32.0409 41.0983 30.4997 41.0983C28.9585 41.0983 27.7091 42.3477 27.7091 43.8889C27.7091 45.4301 28.9585 46.6795 30.4997 46.6795Z" fill="white"/>
</svg>
